<svg xmlns="http://www.w3.org/2000/svg" viewBox="0 0 230 131.44"><defs><style>.a{fill:#aaa9aa;}</style></defs><title>autograph-new</title><path class="a" d="M343.71,14a16.38,16.38,0,0,0-8.37-10.4c-1.75-1-4-1.66-5.24-3.6h-1a17.66,17.66,0,0,1-9,0h-2.5c.12,1.37-.91,1.18-1.68,1.16a7.84,7.84,0,0,0-4.12.77c-5.42,3.16-11.66,4.22-17.21,7.25-5.11,2.78-10.08,5.73-15,8.75-2.32,1.41-4.45,3.15-6.84,4.34a96.64,96.64,0,0,0-10.92,6.52c-3.26,2.2-6.48,4.45-9.8,6.56-1.19.76-2.18.65-2-1.25.11-1.57,0-3.16,0-4.74-.13-4.93-3.23-8.09-8.13-8.16-5.54-.09-10,3-14.62,5.41-1.85,1-2.87,1.11-4.27-.33-2.55-2.63-4.26-6-7.73-7.83-3.8-2-7.52-4-11.93-4.27-7.4-.5-13.87,2.39-20.37,5.31-6,2.7-10.08,7.22-13.15,12.91a50.29,50.29,0,0,0-5.48,15.18,62.19,62.19,0,0,0-.09,19c.29,2.29.2,4.23-1.59,5.92-5.11,4.83-10.16,9.71-14.92,14.89a13,13,0,0,1-1.53,1.27c-.87.7-1.81,1.32-2.93.6a2.56,2.56,0,0,1-1-3.09c.65-2,.39-4.12.55-6.18.14-1.81-1.19-3.52-.88-5,1-4.71-1.32-9.08-1-13.73.11-1.56.8-3.94-1.42-5.14l0-1.07c1.15-.92.61-2.14.5-3.24-.22-2.37-1.13-4.84-1-7,.28-5.12-.94-9.84-2.43-14.55-.48-1.52-1.09-3.5-3.33-3.58a4.62,4.62,0,0,0-4.67,2.61,112.79,112.79,0,0,0-7.68,16.47c-.83,2.4-1.87,4.76-1.84,7.37q0,2.47-.1,4.95a2.72,2.72,0,0,0-.92,3q0,1-.05,2c-1,.73-.72,1.87-.59,2.75a17.34,17.34,0,0,1-.89,8c-1.9,5.61-1,11.2-1.11,16.8,0,2-.38,4,0,6.14a122,122,0,0,1,2.28,15.89c.18,2.92,1,5.66,1.37,8.52.18,1.56,1.79,2.26,3.43,2.21,1.81-.06,1.2-1.5,1.24-2.43q.27-6.23.39-12.46c.07-4,0-3.92,4.08-4,2.06-.05,4.23.54,6.15-.46,3.43-1.78,6.65-4,10.8-1.68,1.06.59,3.06.36,2.49-1.73-1-3.56,1-5.38,3.41-7.31A65.5,65.5,0,0,0,156.26,88a93.52,93.52,0,0,1,9.07-8.5c1-.75,2-2.13,3.46-1.4a4.64,4.64,0,0,1,2.84,4.1,14.61,14.61,0,0,1-.22,3.72,24.63,24.63,0,0,0-.76,7.17c.37,8,.5,16.06,2.09,24,1.35,6.71,5,11.41,11.36,14a5.65,5.65,0,0,0,5.63-.92,2.86,2.86,0,0,0,1.13-3.28,1.63,1.63,0,0,0-2-1.11q-6.15.84-8.41-4.78c-1.49-3.71-1.92-7.64-2.67-11.54-1.41-7.31-.44-14.6-.82-21.87-.09-1.65.27-2.62,2.28-1.85,6.57,2.5,13.28,3.46,20.23,1.66,4.07-1.05,8.21-2.29,11.62-4.54,5.21-3.43,10.79-6.31,15.39-10.79,2.37-2.3,4.42-4.87,6.79-7.12a46.46,46.46,0,0,0,9.95-14.67,9.4,9.4,0,0,1,3.81-4.47c7.14-3.89,13.06-9.66,20.64-12.91,3.52-1.51,6.56-4.13,9.87-6.16,5.4-3.33,10.78-6.68,16.28-9.83,2.26-1.3,4-3.44,6.36-4.33,5.11-2,9.85-4.72,15.42-5.78a52.45,52.45,0,0,1,9.72-1.23,13.2,13.2,0,0,1,13.26,11.69c.19,1.47.53,2.93.81,4.39s.82,1.49,2.08.82c2.23-1.2,2.46-3.58,3.59-5.43V16C343.74,16,343.91,14.71,343.71,14ZM124.65,80.69c0-7.79-.53-15.64.2-23.36.62-6.57,3.09-12.89,5.11-19.22.19-.59.43-1.43,1.24-1.38,1,.07.9,1,1,1.74,1.15,8.64,1.65,17.35,2.52,26,.49,4.94.75,9.91,1.51,14.12,0,4.64,0,4.56-4.06,4a32.69,32.69,0,0,0-5.48-.12C125.38,82.49,124.64,82.19,124.65,80.69Zm13.4,14a13.33,13.33,0,0,1-10.73,5.77c-1.59.09-2.26-1.25-3.45-1.73l-.26-.79h0c0-2.16.09-4.31.12-6.47.05-4,1.07-4.9,5-5.06,4.39-.18,7,2.28,9.35,5.53A2.15,2.15,0,0,1,138.05,94.74Zm89-62.31a70,70,0,0,1,14-6.61c1.92-.59,3.08,1.05,3.36,2.51a13.05,13.05,0,0,1-.2,6.13c-2.05,7.19-6.81,11.54-13.37,14.86-4.83,2.45-9.45,4.88-15,5.31-4,.31-4.44,0-4.32-4.31-.61-2.35.88-4.35,2.46-6C218.15,40.17,221.81,35.41,227,32.42Zm4.47,25.43a15.83,15.83,0,0,1-1.94,2.58c-5.89,6.84-13.12,12.11-20.52,17.12-2.39,1.62-5.5,2.16-8.07,3.57-2.83,1.56-5.85,2.67-8.91,2.24-4.23-.6-8.77-.69-12.21-4a4.36,4.36,0,0,1-1.55-4.32,88.57,88.57,0,0,1,3.15-14.92c.61-1.85-.36-3.41-2.2-4.24-1.5-.67-4.19.41-5.24,2.33a10.69,10.69,0,0,1-3.92,4,.27.27,0,0,0-.27-.21l-.56.11.56-.11c.43-4-.18-8,.22-12,.95-9.29,4.36-17.79,11.89-23.38,6.48-4.81,14-8.18,22.64-7.2,2.9.33,5.06,2.31,7.49,3.62A13.76,13.76,0,0,1,217,28.28c2.22,3.57,2.29,4.71-1.26,6.82-3.74,2.21-5.44,6-8.12,9.07a12.08,12.08,0,0,0-3,8.94c.16,3.7,2.83,6.08,6.52,6.39A36.82,36.82,0,0,0,229.92,56c.65-.3,1.48-.92,2-.17S231.83,57.25,231.5,57.86Z" transform="translate(-115.1)"/></svg>