<?xml version="1.0" encoding="utf-8"?>
<!-- Generator: Adobe Illustrator 19.2.0, SVG Export Plug-In . SVG Version: 6.00 Build 0)  -->
<svg version="1.1" id="Layer_1" xmlns="http://www.w3.org/2000/svg" xmlns:xlink="http://www.w3.org/1999/xlink" x="0px" y="0px"
	 viewBox="0 0 356 73.9" style="enable-background:new 0 0 356 73.9;" xml:space="preserve">
<g>
	<path d="M37,29.2c-1.8,4.8-4,9.4-7.8,13c-0.9,0.9-2.1,1.5-3.5,2.5c0.3,2,0.7,4.6,0.9,7.1c0.5,6.4,0.8,12.8,1.1,19.3
		c0.2,2.1-1.6,2.4-2.9,2.8c-0.6,0.2-2.1-0.7-2.3-1.3c-0.6-1.6-0.9-3.4-0.9-5.1c-0.5-6.9-0.7-13.9-1.2-20.8c-0.4-3.8-0.7-3.7-4.5-4.3
		c-1.8-0.2-3.5-0.8-5.8-1.3c-0.8,3.1-1.6,6.3-2.3,9.5C7,54.3,6.3,58.1,5.6,61.9c-0.1,0.5-0.1,1.1-0.4,1.3c-1,0.9-2.4,2.2-3.3,2.1
		c-1.8-0.3-2.1-2.1-1.7-3.7c1.7-7.1,3.3-14.3,5.3-21.4c2.3-8.2,4.9-16.2,7.4-24.3c0.3-1,0.5-2,0.6-3c0.3-2.8,0.9-3.4,3.5-3.6
		c1.7-0.1,3.4,0,5-0.3c3.6-0.4,6.1,2.1,8.8,3.6C36.6,15.6,39.3,23,37,29.2z M32.9,26.2C32.7,19,28.4,15,21.7,13.3
		c-1-0.3-2.8,0.1-3.2,0.8c-1.1,1.5-1.8,3.4-2.4,5.2l-3.9,13c-0.9,3-0.1,4.8,2.9,5.6c3.3,0.8,6.7,1,10.1,1.4c0.5,0.1,1-0.2,1.3-0.5
		C29.7,35,32.4,30.9,32.9,26.2z"/>
	<path d="M64.7,65.1c-0.4-0.5-1-0.7-1.8-1.1l-1.5,3.1c-0.8,1.3-2.2,2.2-3.4,1.3c-0.8-0.6-1-2.3-1.1-3.5c-0.1-0.5,0.3-1,0.6-1.5
		c1.2-2,0.5-3.1-1.5-3.8c-0.7-0.3-1.5-0.7-1.7-1.2c-0.5-0.9-0.8-2.1-0.5-2.9c0.1-0.6,1.3-1.1,2-1.1c1.3-0.1,2.8,0.2,4.3,0.3l1.2-4.5
		c1-3.8,2-7.5,2.9-11.3c0.4-1.6,0.4-3.3,0.6-4.9c0.1-0.6-0.1-1.3,0.3-1.6c2.8-2.3,2.8-5.8,3.5-8.8c0.9-3.9,1-8,1.5-12
		c0.3-2.8-1.4-4.8-3.2-6.6c-0.6-0.7-1-2.6-0.8-2.8c1.4-0.9,2.5-2.9,4.7-1.7c0.8,0.4,1.7,0.4,2.7,0.6C73.7,1,74.4,1,74.5,1.2
		c1.1,3.2,4.4,2.9,6.7,4.3c4.4,2.4,8.8,4.6,13.2,6.9c1.4,0.9,1.7,2.1,0.8,3.5c-0.9,1.4-2,2.5-4,1.2c-4.1-2.4-8.3-4.6-12.4-6.8
		c-1-0.6-2.3-0.9-3.2-1.2l-4.2,23c3.1,1.5,6.6,3,9.9,4.8c3,1.6,5.9,3.4,8.6,5.3c0.6,0.5,1,2.1,0.7,2.8c-0.6,1.2-1.4,2.8-3.3,1.9
		c-0.7-0.3-1.4-0.8-2.1-1.1l-13.3-7.4c-1.6-1-2.7-0.4-3,1.3c-1.4,5.7-2.8,11.4-4,17.2c-0.2,0.7,0.7,1.6,1.3,2.2
		c3.6,3.4,7.2,6.7,10.8,10c1.4,1.2,1.9,2.4,0.3,3.8c-1.5,1.5-2.9,1.3-4.4-0.1C70.2,70.2,67.4,67.6,64.7,65.1z"/>
	<path d="M110.9,72.9c-0.5-0.5-0.5-2.1-0.1-2.8c5.5-8.1,11.1-16.1,16.7-24c1.1-1.6,2.7-3,0.4-5c-1-0.9-0.8-2.1,0.9-2.5
		c1.4-0.4,2.9-0.7,4.2-1.1c0.7-0.3,1.3-0.9,1.8-1.5c3.9-6.1,7.8-12.2,11.6-18.4c1.2-2.2,3.6-1.8,5.2-2.9c0.4,0.9,1.2,1.7,1.1,2.5
		c-0.9,4.6-1.9,9-2.7,13.5c-1.3,7.1-2.6,14.2-3.8,21.3c-1.1,5.9-2.2,11.9-5.8,17c-1.1,1.7-2.6,3.4-4.2,4.7c-0.9,0.7-2.5,0.3-3.8,0.3
		c0.2-1,0.1-2.5,0.7-3.1c3.6-3.8,5.4-8.4,6.6-13.3c0.5-1.7,0.4-3.1-0.8-4.5l-5.9-6.5c-3.5,4.8-6.8,9.1-10,13.6
		c-2.5,3.4-4.7,7.2-7,10.7c-0.6,1-1.4,1.9-2.4,2.3C112.9,73.4,111.5,73.4,110.9,72.9z M137.2,41.6c1.2,1.5,2.6,2.9,4.3,4.8l2.9-16
		c-2.8,3.2-5,6.6-7.3,10.1C137,40.7,137,41.4,137.2,41.6z"/>
	<path d="M167.7,71.2c-0.1-1.1-0.3-2.3-0.2-3.3c0.1-1.1,0.2-2.9,0.8-3.2c3.6-1.4,4.5-4.8,5.4-7.9c4-12.3,7.6-24.6,11.6-36.9
		c0.5-1.5,2.4-2.6,3.9-4.2l1.3,2.8c2.2-1.8,3.9-0.8,5.5,0.9c2.8,2.7,5.6,5,8.4,7.7c7.7,7.6,8.6,23.1,0.5,31.5
		c-5.2,5.4-11.2,9.4-18.1,12.3c-4,1.6-7.9,0.5-11.7-0.4c-1.2-0.3-1.9-0.4-2.5,1c-0.2,0.7-0.9,1.4-1.5,1.7c-0.8,0.5-2,0.9-2.6,0.6
		C168,73.4,167.9,72.2,167.7,71.2z M175,64.7c4.8,1.6,9,2.8,13.5,0.5c4.6-2.4,8.8-4.9,12.4-8.8c5.4-6.1,6.7-14.6,2.2-21.5
		c-2.6-3.9-6.1-7.2-9.4-10.6c-2.3-2.3-4.6-1.5-5.6,1.7c-2.5,8.1-4.8,16.2-7.5,24.2C179,55,177,59.6,175,64.7z"/>
	<path d="M225,72.7c-0.4-0.7-0.6-1.7-0.5-2.5c1-9.1,2-18.1,3.2-27.2c1-6.7,2.4-13.2,3.6-19.8c0.7-3.2,1.7-6.5,2.2-9.7
		c0.3-2.3,1.3-3.3,4.1-3.8c0.2,2.5,1.4,5.4,0.4,6.9c-2.9,4.4-2.9,9.4-4,14.2c-2.7,11.3-3.6,22.7-4.1,34.3c-0.1,2.7-0.6,5.2-2.1,7.5
		C226.9,74.2,225.8,74.3,225,72.7z"/>
	<path d="M276.5,57.5c-2.8-8.9-5.5-17.8-8.3-26.6c-0.1-0.3-0.3-0.6-0.8-1.3l-3.1,10.5c-2.8,8.7-5.4,17.5-5.9,26.7
		c-0.1,2.1-1.6,2.9-3,3.7c-0.4,0.2-1.5-0.4-1.7-0.8c-0.4-1.2-0.8-2.6-0.7-3.7c1-7.1,2.6-14.2,5-20.9c2.7-7.7,4.9-15.6,7-23.5
		c0.5-1.7-0.2-3.9-0.7-5.9c-0.5-1.9-0.2-3,1.9-3.6c0.7-0.2,1.8-0.7,1.9-1.2c0.9-2.7,3.1-2.4,5-2.9c0.5,2.3,1,4.5,1.2,6.7
		c0.1,1.4,0.1,3.3-2.5,3.4c-0.3,0-0.9,1.9-0.8,2.9c0.5,2.5,1.1,4.9,1.8,7.3c1.7,5.5,3.4,11.1,5.2,16.6c0.2,0.7,0.7,1.2,1.1,2.1
		c0.6-0.9,1-1.5,1.2-2.2c1.7-6.1,3.6-12.1,5.1-18.1c0.9-3.6,1.3-7.4,1.9-11.2c0.4-2.3,2-4,4.4-3.9c0.4,0.1,1.1,1.3,1,1.8
		c-0.8,4.1-1.6,8.1-2.6,12.2c-2.5,10-4.8,19.9-7.4,29.8c-0.9,3.2,0.8,5.6,1.9,8.3c1.2,2.8,1,3.7-1.6,4.9c-0.8,0.4-1.8,0.1-3.3,0.1
		c0,0.1-0.2,0.8-0.5,1.3c-0.7,1-1.3,2.2-2.2,3c-1.3,1.2-2.7,0.9-3-0.9c-0.3-1.1-0.3-2.6,0-3.7c0.7-2.8,1.6-5.6,2.3-8.5
		C276.9,59.3,276.7,58.4,276.5,57.5z"/>
	<path d="M323.8,67.6c-2.9-4.2-5.7-8.5-7.5-13.2c-2-5.1-1.6-10.6,0.3-16.1c2.6-7.7,7.4-13.4,14.8-16.5c2-1,4.4-1,6.6-1.6
		c5.6,0.8,11.3,0.7,15.8,4.8c0.8,0.7,1.6,1.8,1.5,2.8c0,1-0.9,2.2-1.7,2.6c-0.6,0.4-2-0.2-2.7-0.8c-8.6-6.7-24.3-6.3-29.3,7.9
		c-2.5,7-2.3,13.4,1.8,19.7c2.5,4,4.7,8.1,8.8,10.6c6.4,4,15.1-0.5,15.8-7.8c0.4-3.6-0.8-6.3-3.7-8.1c-2.9-1.7-5.8-3.4-8.8-4.9
		c-1.5-0.8-3-1.2-2.9-3.3c0.2-1.2,3.6-2.8,4.9-2.2c1.6,0.7,3.1,1.6,4.6,2.6c2,1.3,3.8,2.8,6.5,2.3c1.6-0.2,2.6,0.8,3.2,2.4
		c1,2.6,2.4,5.1,3.8,7.7c1.1,2-0.6,2.9-1.3,4.2c-0.5,0.8-0.8,1.5-1.1,2.3c-0.9,1.5-1.5,3-2.5,4.4C345.1,74.9,330.5,77.1,323.8,67.6z
		"/>
</g>
</svg>
