<?xml version="1.0" encoding="utf-8"?>
<!-- Generator: Adobe Illustrator 19.2.0, SVG Export Plug-In . SVG Version: 6.00 Build 0)  -->
<svg version="1.1" id="Layer_1" xmlns="http://www.w3.org/2000/svg" xmlns:xlink="http://www.w3.org/1999/xlink" x="0px" y="0px"
	 viewBox="0 0 250 97.4" style="enable-background:new 0 0 250 97.4;" xml:space="preserve">
<style type="text/css">
	.st0{fill:#17160C;}
</style>
<g>
	<path class="st0" d="M227.7,81.1c0-4.7,0-9.4,0-14.2c0-1.1,0.3-1.4,1.3-1.4c6.5,0.1,13.1,0,19.6,0c1,0,1.5,0.1,1.4,1.3
		c-0.1,2.5-0.1,4.9,0,7.4c0,0.9-0.3,1.2-1.2,1.2c-2.3-0.1-4.6,0-6.9,0c-0.8,0-1.2,0.2-1.2,1.1c0,0.9,0.5,0.9,1.2,0.9
		c2.3,0,4.6,0,6.9,0c0.9,0,1.3,0.2,1.2,1.2c-0.1,1.5-0.1,3.1,0,4.6c0,0.9-0.3,1.1-1.1,1.1c-2.3,0-4.6,0-6.9,0c-0.7,0-1.3,0-1.3,1
		c0,0.9,0.4,1.1,1.2,1.1c2.3,0,4.6,0,6.9,0c0.9,0,1.2,0.2,1.2,1.2c-0.1,2.7-0.1,5.4,0,8.1c0,1-0.3,1.2-1.2,1.2c-6.6,0-13.3,0-19.9,0
		c-1.1,0-1.2-0.4-1.2-1.3C227.7,90.6,227.7,85.9,227.7,81.1z"/>
	<path class="st0" d="M84,84.4c-0.1,0.4,0.5,1-0.4,1c-3.1,0-6.1,0-9.2-0.1c-0.9,0-0.9,0.4-0.9,1.1c0,3,0,6,0,9
		c0,0.9-0.2,1.2-1.2,1.2c-3.1-0.1-6.1-0.1-9.2,0c-0.9,0-1.2-0.2-1.2-1.1c0-9.6,0-19.2,0-28.8c0-0.9,0.2-1.2,1.2-1.2
		c6.8,0,13.7,0,20.5,0c0.7,0,1.2,0,1.2,1c0,2.2,0,4.5,0,6.7c0,1-0.4,1.2-1.3,1.1c-3,0-5.9,0-8.9,0c-0.8,0-1.4,0-1.3,1.1
		c0,1,0.6,1,1.3,1c2.1,0,4.3,0,6.4,0c2.5,0,2.5,0,2.5,2.5c0,1.4,0,2.8,0,4.3C83.6,83.7,83.3,84.2,84,84.4z"/>
	<path class="st0" d="M250,42.1c0-1.2-0.4-1.4-1.5-1.4c-5.1,0.1-10.2,0-15.3,0.1c-1.2,0-1.6-0.3-1.4-1.5c0.1-0.3,0.1-0.7,0-1
		c-0.2-1.4,0.3-1.7,1.7-1.7c5,0.1,10.1,0,15.1,0.1c1.1,0,1.4-0.3,1.4-1.4c-0.1-3.5-0.1-6.9,0-10.4c0-1.2-0.3-1.6-1.5-1.6
		c-4.7,0.1-9.3,0-14,0c-2.7,0-2.7,0-2.7-2.8c0-1.1,0.3-1.4,1.4-1.4c5.2,0.1,10.3,0,15.5,0c1,0,1.4-0.2,1.4-1.3
		c-0.1-5.5-0.1-11,0-16.5c0-1.1-0.3-1.3-1.3-1.3c-21.4,0-42.8,0-64.2,0c-0.9,0-1.4,0.3-1.8,1.1c-0.9,1.8-2,3.5-3,5.3
		c-0.9,1.6-1.9,3.2-2.8,4.8c-0.3-3.4-0.3-6.7-0.3-9.9c0-1-0.3-1.3-1.3-1.3c-6.6,0-13.3,0-19.9,0c-1.1,0-1.4,0.3-1.4,1.4
		c0,8,0,16,0,24c0,5.4,0,10.7,0,16.1c-0.4-0.4-0.5-0.8-0.7-1.2c-3.7-12.9-7.4-25.9-11-38.9c-0.3-1.1-0.8-1.4-1.9-1.4
		c-8.6,0-17.2,0.1-25.8,0c-1.3,0-1.7,0.4-2.1,1.6c-4.1,14.6-8.3,29.3-12.4,43.9c-0.8,2.9-1.6,5.8-2.6,9c-2.5-4.6-4.7-8.8-7.1-13.1
		c-0.4-0.7-0.1-0.9,0.4-1.3c4.8-3.6,7-8.5,7.8-14.4c1.7-14-8.4-25.6-22.5-25.6c-7.9,0-15.8,0-23.7,0c-1.3,0-3-0.4-3.8,0.2
		c-0.9,0.8-0.3,2.6-0.3,3.9c0,3.7,0,7.4,0,11.1c-0.5-0.1-0.5-0.4-0.7-0.6c-5.6-9.5-13.8-14.6-25-14.6c-6.9,0-13.8,0-20.7,0
		C0.5,0.1,0,0.4,0,2c0.1,11.4,0,22.7,0,34.1c0,7.8,0,15.7,0,23.5c0,0.8-0.2,1.5,1.1,1.5c7.1-0.1,14.2,0.3,21.2-0.2
		c11.1-0.8,19.7-5.7,25.4-15.5c0.1-0.2,0.2-0.5,0.6-0.4c0,4.9,0,9.8,0,14.8c0,0.9,0,1.4,1.2,1.4c6.7-0.1,13.5,0,20.2,0
		c1,0,1.2-0.3,1.2-1.2c-0.1-1.8,0-3.6,0-5.3c0.1,0,0.2-0.1,0.3-0.1c0.8,1.8,1.7,3.6,2.5,5.4c0.4,1,0.9,1.3,1.9,1.3
		c5.8-0.1,11.6,0,17.4,0c8.4,0,16.8,0,25.2,0c1.2,0,1.6-0.3,1.8-1.5c0.2-1.8,0.8-3.5,1-5.3c0.1-0.9,0.5-1.1,1.3-1.1
		c3.3,0,6.7,0.1,10,0c1,0,1.4,0.3,1.5,1.2c0.3,1.7,0.7,3.4,1,5.1c0.2,1.2,0.6,1.6,1.9,1.6c12.7-0.1,25.3-0.1,38,0
		c1.5,0,1.8-0.5,1.8-1.8c-0.1-3.2,0-6.5,0-9.7c2.2,3.3,4.1,6.7,5.9,10.1c0.5,1,1.2,1.5,2.4,1.5c21.2-0.1,42.3-0.1,63.5-0.1
		c0.1,0,0.2,0,0.3,0c1,0.2,1.3-0.2,1.3-1.3C249.9,53.8,249.9,47.9,250,42.1z M28.1,33.5c-0.7,2.2-2.2,3.4-4.4,3.9
		c-0.8,0.2-1.2,0-1.2-0.9c0.1-2.1,0-4.2,0-6.2c0-2,0.1-4,0-5.9c-0.1-1.2,0.4-1.3,1.4-1.1c1.7,0.4,2.9,1.3,3.6,2.8
		C28.7,28.4,28.9,30.9,28.1,33.5z M206.3,55.8c-1.3-2.2-2.3-4.1-3.4-6c-3.5-6.4-7.1-12.9-10.6-19.3c-0.5-0.9-0.6-1.6,0-2.5
		c4.6-8.2,9.2-16.4,13.8-24.7c0.1,0,0.2,0,0.3,0.1C206.3,20.8,206.3,38.1,206.3,55.8z"/>
	<path class="st0" d="M226.4,66.7c0-0.9-0.3-1.1-1.1-1.1c-3.1,0-6.3,0-9.4,0c-0.8,0-1,0.2-1,1c0.1,1.7,0,3.3,0,5
		c-1.4-1.6-2.5-3.2-3.5-4.9c-0.5-0.8-1.1-1.1-2-1.1c-2.7,0.1-5.5,0.1-8.2,0c-1.3,0-1.7,0.3-1.6,1.6c0.1,2.5,0,4.9,0,7.4
		c-1.8-3-3.9-5.6-6.9-7.3c-11.6-6.7-26,2.3-25.1,14.3c0.1,1-0.2,1.2-1.2,1.1c-1.7-0.2-3.5-0.1-5.3-0.2c-2.4,0-2.4,0-2.6,2.2
		c-0.1,1-0.3,1.1-1.2,0.8c-2.4-0.8-3.6-3.5-2.8-6c0.8-2.4,3.4-3.7,5.9-2.8c1.3,0.5,2.4,1.2,3.3,2.2c0.9,1,1.4,1.2,2.1-0.3
		c0.8-1.8,1.8-3.4,2.7-5.1c2.2-4,2.1-4.3-2-6.6c-0.2-0.1-0.4-0.2-0.6-0.3c-6.7-2.8-12.8-2-18.3,2.8c-0.1,0.1-0.1,0.2-0.2,0.3
		c-0.5,0.4-0.9,0.9-1.4,1.4c-1.2,1.5-2,3-2.2,4.3c-0.1,0.1-0.1,0.2-0.2,0.3c-0.1,0.5-0.2,1-0.4,1.4c-1.9,6.6,0.1,12.6,5.6,17
		c4.8,3.8,12.3,4.4,17.7,1.4c2.1-1.2,3.9-2.5,3.4-5.3c0,0,0.1-0.1,0.3-0.2c3.7,5.2,8.8,7.5,15.1,7.3c6.4-0.2,11-3.5,14.4-9.4
		c0,2.9,0,5.3,0,7.7c0,0.9,0.3,1.2,1.2,1.2c2.5-0.1,4.9,0,7.4,0c3,0,3,0,3-2.9c0-2,0-3.9,0-5.9c2,2.6,3.7,5.2,5.3,7.9
		c0.4,0.6,0.7,1,1.5,1c2.5-0.1,4.9,0,7.4,0c0.8,0,1-0.3,1-1.1C226.4,86,226.4,76.3,226.4,66.7z M184.3,85.5c-2.6,0-4.6-1.8-4.6-4.3
		c0-2.4,2-4.4,4.6-4.4c2.4,0,4.3,1.9,4.3,4.4C188.7,83.6,186.8,85.5,184.3,85.5z"/>
	<path class="st0" d="M54.4,78.6c-1.2-7.1-7.4-12.8-14.5-13.4c-3.9-0.3-7.7,0.4-11,2.5c-4.2,2.7-6.8,6.5-7.6,11.6
		c-1-0.7-1.9-1.3-2.7-1.8c1.9,1,2.2-0.2,2.6-1.6c0.5-2.1,1.2-4.1,1.8-6.1c0.3-0.8,0.1-1.3-0.7-1.7c-3.8-2-7.8-3.2-12.3-2.9
		c-5,0.4-9,3.7-9.6,8.4c-0.6,4.5,0.9,8,5,10.3c-0.3,0-0.6,0-0.8-0.1c-1.4-0.7-1.9-0.2-2.2,1.2c-0.6,2.7-1.4,5.3-2.2,7.9
		C0,93.6,0.3,94,1,94.4c2.7,1.4,5.5,2.4,8.5,2.8c6.5,0.9,11.8-2,14-7.7c6.2,8.8,16.1,8.9,21.8,6.3C52.1,92.7,55.6,85.9,54.4,78.6z
		 M38.1,85.5c-2.6,0-4.6-1.9-4.6-4.3c0-2.4,2-4.3,4.6-4.4c2.4,0,4.3,2,4.4,4.4C42.5,83.6,40.6,85.5,38.1,85.5z"/>
	<path class="st0" d="M132.7,88.1c-0.7-1.1-0.8-1.9,0.4-2.8c1.3-1,2.2-2.4,2.5-4.1c0.5-1.1,0.8-2.5,0.8-4c0-1.7-0.4-3.3-1.1-4.5
		c-2.1-4.8-5.8-7.1-11.3-7.1c-4,0-8,0.1-12,0c-1.4,0-1.7,0.3-1.7,1.7c0.1,6.7,0,13.4,0,20.1c-0.4,0-0.4-0.2-0.5-0.4
		c-1.9-6.7-3.8-13.4-5.6-20.1c-0.3-1-0.7-1.4-1.8-1.4c-3.1,0.1-6.1,0-9.2,0c-1.4,0-3-0.4-4,0.2c-1,0.6-0.9,2.5-1.3,3.7
		c0,0.1-0.1,0.2-0.1,0.3c-1.3,4.8-2.7,9.7-4,14.5c-0.3,0.3-0.1,0.7-0.4,1c-1.1,3.7-2.1,7.4-3.2,11.2c4,0,7.7,0,11.5,0
		c0.6,0,0.8-0.2,1-0.8c0.8-3.1,0.8-3.1,4-3.1c0.2,0,0.3,0,0.5,0c2.4,0,2.4,0,2.8,2.3c0.2,1.1,0.6,1.7,1.9,1.7
		c5.6-0.1,11.2-0.1,16.8-0.1c3,0,3,0,3.5-3c0.2,0.5,0.5,0.9,0.6,1.3c0.3,1.4,1.2,1.8,2.6,1.7c1.9-0.1,3.8,0,5.7,0c2,0,4,0,6.1,0
		C135.8,93.6,134.3,90.8,132.7,88.1z"/>
</g>
</svg>
