<?xml version="1.0" encoding="utf-8"?>
<!-- Generator: Adobe Illustrator 19.2.0, SVG Export Plug-In . SVG Version: 6.00 Build 0)  -->
<svg version="1.1" id="Layer_1" xmlns="http://www.w3.org/2000/svg" xmlns:xlink="http://www.w3.org/1999/xlink" x="0px" y="0px"
	 viewBox="0 0 500 500" style="enable-background:new 0 0 500 500;" xml:space="preserve">
<style type="text/css">
	.st0{fill:#FFFFFF;}
</style>
<path class="st0" d="M0,0v500h500V0H0z M124,215l-3.5,13.6c-0.1,0.1-0.1,0.2-0.1,0.3c-0.4,1.5-0.7,2.7-1,3.8
	c-0.4,1.3-0.8,2.3-1.2,3.1l-9.3,24.7c-0.6,2.1-1.5,4.2-2.3,6.2c-2,4.6-4.1,9.2-5.7,13.9l-2.5,8.2c0.1,0,0.1,0,0.1,0
	c-0.4,1.9-0.9,3.4-1.5,4.6c-1.2,2.2-3.1,3.3-6.5,3.6c-9.7,0.9-16.1-2-19.2-11.3c-0.2-0.4-0.5-0.8-0.8-1.2c-1.7-2-3-4-3.7-6
	l-13.1-21.1c-0.5-0.8-1-1.7-1.4-2.8c-2.2-5.8-5.2-11.3-7.9-17c-4.2-8.8-8.3-17.6-12.4-26.5c-0.9-1.9-1.2-4.1-2-6.7
	c7.8,0,15-0.4,22.2,0.3c1.9,0.2,3.9,3.4,5.2,5.7c1.8,3.3,3.3,6.8,4.7,10.3L72.8,244c2.7,5.4,6.2,10.3,9.9,16.3
	c2.3-5.2,4.5-9.2,5.8-13.4c3.6-11.3,6.9-22.7,10.1-34.1c2.6-9.4,4.7-10.8,16.7-9.6c3.9,0.4,7.7,1.5,12.3,2.3
	C126.3,208.9,125.2,211.7,124,215z M171.4,284.1c0.1,3.6,0.1,7.3,0,10.9c0,1.2-2.1,3.1-3.5,3.4c-2.7,0.6-5.5,0.2-8.2,0.2
	c-6.9,0-7.7-0.4-8.1-7.1c-0.6-9.1-1-18.1-1.3-27.2v-0.1c-0.1-3.5-0.3-7-0.4-10.5c0-1.1,0-2.2,0.1-3.1l-1.1-42.5l0,0
	c-0.1-1.6,0.3-3.3,1.3-4.9c0.5-0.8,1.6-1.8,2.5-1.8c4.6-0.3,9.2-0.5,13.8-0.2c1.5,0.1,3.7,1.7,4,3.1c1,4.2,1.4,8.4,1.7,12.7l0.1,0.1
	l-1.1,33c-0.1,3.1-0.2,6.1-0.3,9.2L171.4,284.1z M246.9,296.3c-12.7-0.3-25.3-0.8-38-0.9c-3.6,0-5-1.1-4.9-3.9l-0.4-26.5
	c-0.1-6.1-0.1-12.2-0.1-18.3l-0.4-35.1c0-10.7,0.1-10.6,10.9-10.5c10.9,0.1,21.8,0.2,32.5-0.1c4.6-0.1,5.9,2.3,6.2,6
	c1.2,14.7,1,14.9-13.5,14.8c-4.9,0-9.9,0-15.5,0c0,4,0,7.4,0,11.7c5.3,0,10.6-0.1,15.8,0c5.8,0.1,6.5,1,6.6,6.9
	c0,2.9-0.2,5.8,0.1,8.7c0.5,4.6-1.7,5.9-5.9,5.8c-4.8-0.2-9.6,0.3-14.4,0.2c-2.9-0.1-3.5,1.2-3.5,3.7c0.2,11.3-1.4,9.3,9.3,9.5
	c5.6,0.1,11.2-0.7,16.8-0.8c2.6,0,6.2-0.4,5.2,4.7l0.9,13c0,0.1,0,0.2,0,0.3c0.1,0.8,0.1,1.9,0.1,3.2
	C254.7,296.3,254.5,296.5,246.9,296.3z M394.2,208.4c-1.3,3.5-2.4,7.2-3.4,11l-1.6,7.8c0-0.1,0.1-0.1,0.1-0.1
	c-0.5,2.2-1,4.2-1.4,6.2c-0.7,3.3-1.4,6.4-2.2,9.5l-2.4,13.4c0,0,0,0,0.1,0c-1,5.5-1.9,10.1-2.8,14.7c-1.4,7.2-2.8,14.4-4,21.7
	c-0.6,4-2.2,6.3-6.6,5.4c-1-0.2-2-0.5-2.9-0.3c-7.9,2.2-11.4-1.7-12.9-9c-0.7-3.2-2.2-6.2-3.7-10.2l-7.6-21.9l-2-4.4l-2.2,4.2
	c-4.5,12-9.1,24-13.7,35.9c-1.1,2.9-3,4.8-6.5,4.7c-1.9-0.1-3.8,0.5-5.7,0.8c-4.8,0.7-7.7-0.8-10.1-5.6
	c-11-21.9-18.2-45.1-25.5-68.3c-1.5-5.1-3.9-9.8-5.7-14.8c-2.1-6-1-7.5,5.3-7.4c3,0,6.1,0.5,9.1,0.2c4.3-0.5,6.3,1.5,7.1,5.3
	c0.3,1.3,0.5,2.5,0.8,3.7l12.2,34.5c1,2.6,2,5.3,3,8.1c-0.1,0-0.1,0-0.2,0l2,7.4c1,0.8,2,1.5,3.1,2.3c0.3-0.3,0.6-0.6,0.7-1
	c4.1-16.3,8.1-32.6,12.1-48.9c0.7-2.9,1.4-5.9,2.3-8.8c0.3-0.8,1.1-2.2,1.6-2.2c3.8,0,8.5-1,11.1,0.9c1.8,1.3,2.6,4.2,3.4,7
	l7.3,21.4c2.4,6.4,5.3,12.6,8.1,18.9c0.5,1.3,1.5,2.4,2.9,4.6c1.7-6.1,2.4-12.2,3.5-18.2v-0.3c0.1-0.5,0.2-1,0.3-1.5l2.7-14.4
	c1.2-5.6,2.4-11.3,3.9-16.8c0.3-0.9,2.5-1.6,3.8-1.6c4.3-0.1,8.6,0.2,12.9,0.4C394.3,202.9,395.7,204.5,394.2,208.4z M467.9,225.2
	c-2,2.2-3,5.2-4.8,7.7c-1.8,2.5-3.7,2.5-5.7-0.2c-1.8-2.5-4.1-4.7-6.2-7.1c-3.4-4-6.2-1.8-9.1,0.9c-2.5,2.5-2.1,6.2,0.5,8.9
	c5.1,5.3,10.8,10.2,15,16.1c5.6,7.8,9.4,16.7,7.2,27.4l-0.5,4.1c-0.9,2.4-1.3,4.4-2.3,6.2c-6.4,11.6-22.2,11.5-32.9,6.9
	c-0.3-0.1-0.6-0.3-1-0.5c-1-0.5-2-1-2.9-1.6c-1.3-0.8-2.4-1.7-3.3-2.6c-4.4-3.2-9.4-7.3-11.4-9c-3.2-2.5-3.4-5.1-0.2-8.4
	c2.8-2.9,5.9-5.5,8.9-8.1c1.8-1.6,3.1-1.3,4.8,0.6c3.2,3.5,6.7,7,10.6,9.6c2,1.3,5.6,1.6,7.8,0.7c3.3-1.4,3.1-5.2,1.7-8
	c-1.5-3.1-3.7-6-6.1-8.5c-3.5-3.6-7.5-6.9-11.2-10.3c0,0-0.1-0.1-0.2-0.2c-0.6-0.4-1.1-0.9-1.6-1.4s-1-1.1-1.4-1.8
	c-1.1-1.2-2.5-2.8-4-4.6c-2.4-2.9-4-7.1-5-10.4c-0.4-0.7-0.7-1.7-0.9-2.7c-0.2-0.6-0.3-1.2-0.3-1.9c0-0.1,0-0.1,0-0.1
	c-0.4-7.5,4.6-16.7,11.2-21.1c14.3-9.5,35.2-3.6,43.1,8.6C470.1,218.1,471.3,221.3,467.9,225.2z"/>
</svg>
