<?xml version="1.0" encoding="utf-8"?>
<!-- Generator: Adobe Illustrator 19.2.0, SVG Export Plug-In . SVG Version: 6.00 Build 0)  -->
<svg version="1.1" id="Layer_1" xmlns="http://www.w3.org/2000/svg" xmlns:xlink="http://www.w3.org/1999/xlink" x="0px" y="0px"
	 viewBox="0 0 438.3 73.9" style="enable-background:new 0 0 438.3 73.9;" xml:space="preserve">
<g>
	<path d="M16.1,18.6c-1.9,8.9-3.9,17.3-5.3,25.7c-1.6,8.8-2.7,17.8-4.1,26.6c-0.1,0.9-1.1,1.7-2,2.2s-2,0.5-3.3,0.8
		c-0.1-0.7-0.5-1.4-0.4-2.2c1.1-7,2.1-14.1,3.5-21C6.6,40.1,8.8,29.6,11.1,19c0.5-2,0.2-3.5-1.9-4.5c-2.6-1.2-5.1-2.7-7.6-4.1
		C0.9,10,0.1,9.1,0,8.4c-0.1-0.7,0.8-1.5,1.5-1.9c2.4-1.2,4.8-1.7,7.1,0.4c1.7,1.4,3.6,3.1,5.7,3.5c2.9,0.6,4.4,2.8,6.6,4.1
		c2.4,1.2,4.7,2.9,6.8,4.6c2,1.7,3.9,3.6,5.7,5.5c1.6,1.7-0.3,2.8-1.2,3.8c-0.9,1-2,1.4-3.4,0.1c-3.3-3-6.9-5.8-10.5-8.6
		C17.9,19.4,17.2,19.2,16.1,18.6z"/>
	<path d="M74.4,71.1c-3.8-0.1-7.1,1.2-10.6,1.9c-1.1,0.3-2.3,0.6-3.5,0.8c-2.3,0.3-2.6,0.1-3.7-2.5l8.4-2.6c0.1-0.3,0.2-0.6,0.3-0.9
		l-2.7-2.1c-3-2.5-4.2-6-5.3-9.6c-0.8-2.3-2.2-4.4-2.7-6.7c-0.5-2.6-0.5-5.4-0.2-8.1c0.4-3,0.9-6.3,2-9.1c2.5-6.3,6.7-10.8,13.7-12
		c5.3-0.9,11.5,2.8,13.6,8.2c2,5.6,3.5,11.4,5.1,17.1c2.1,7.5-1.2,13.2-6.4,18.1l-1.5,1.4c1.4,0.4,2.5,0.7,3.7,1
		C82.1,70.2,78.2,71.1,74.4,71.1z M83.7,49.7c-1-6.6-3.1-14-6.6-20.7c-1.8-3.6-6.7-4.8-10.3-2.8c-4.2,2.4-6.3,6.2-6.9,10.8
		c-1.3,10.5-0.3,20.2,9,27.3c0.9,0.7,2.4,1.5,3.3,1.3C77.9,64.4,83.6,56.6,83.7,49.7z"/>
	<path d="M131.4,71.1c-3.8-0.1-7.1,1.2-10.6,1.9c-1.1,0.3-2.3,0.6-3.5,0.8c-2.3,0.3-2.6,0.1-3.7-2.5l8.4-2.6
		c0.1-0.3,0.2-0.6,0.3-0.9l-2.7-2.1c-3-2.5-4.2-6-5.3-9.6c-0.8-2.3-2.2-4.4-2.7-6.7c-0.5-2.6-0.5-5.4-0.2-8.1c0.4-3,0.9-6.3,2-9.1
		c2.5-6.3,6.7-10.8,13.7-12c5.3-0.9,11.5,2.8,13.6,8.2c2,5.6,3.5,11.4,5.1,17.1c2.1,7.5-1.2,13.2-6.4,18.1l-1.5,1.4
		c1.4,0.4,2.5,0.7,3.7,1C139.1,70.2,135.2,71.1,131.4,71.1z M140.7,49.7c-1-6.6-3.1-14-6.6-20.7c-1.8-3.6-6.7-4.8-10.3-2.8
		c-4.2,2.4-6.3,6.2-6.9,10.8c-1.3,10.5-0.3,20.2,9,27.3c0.9,0.7,2.4,1.5,3.3,1.3C134.9,64.4,140.6,56.6,140.7,49.7z"/>
	<path d="M249.9,73.9c-6-0.7-11.6-2.8-16.9-5.4c-1.4-0.7-2.4-0.7-3.7,0.5c-0.7,0.7-2.1,0.9-3.1,0.7c-0.5-0.1-0.9-1.6-0.9-2.5
		c-0.6-6.7,1.8-12.8,4.4-19c1.3-3.1,2.3-6.5,3.4-9.8c1.1-3,2.5-6.1,3.7-9.1c1.2-3.4,2.5-6.9,3.7-10.5c0.5-1.1,4.4-3.8,5.5-3.3
		c0.6,0.2,1.2,1.5,1,2.1c-0.9,3.2-2.1,6.5-3.3,9.6c-2.9,7.1-6.3,14.2-9,21.4c-1.3,3.5-1.8,7.3-2.8,11c-0.4,1.6,0.3,2.4,1.7,2.9
		c6.7,3.1,13.5,6.7,21.3,6.8c0.7,0,1.3,0.4,2.1,0.7C255.5,72.8,252.7,74.2,249.9,73.9z"/>
	<path d="M282.5,72.9c-0.5-0.5-0.5-2.1-0.1-2.8c5.5-8.1,11.1-16.1,16.7-24c1.1-1.6,2.7-3,0.4-5c-1-0.9-0.8-2.1,0.9-2.5
		c1.4-0.4,2.9-0.7,4.2-1.1c0.7-0.3,1.3-0.9,1.8-1.5c3.9-6.1,7.8-12.2,11.6-18.4c1.2-2.2,3.6-1.8,5.2-2.9c0.4,0.9,1.2,1.7,1.1,2.5
		c-0.9,4.6-1.9,9-2.7,13.5c-1.3,7.1-2.6,14.2-3.8,21.3c-1.1,5.9-2.2,11.9-5.8,17c-1.1,1.7-2.6,3.4-4.2,4.7c-0.9,0.7-2.5,0.3-3.8,0.3
		c0.2-1,0.1-2.5,0.7-3.1c3.6-3.8,5.4-8.4,6.6-13.3c0.5-1.7,0.4-3.1-0.8-4.5l-5.9-6.5c-3.5,4.8-6.8,9.1-10,13.6
		c-2.5,3.4-4.7,7.2-7,10.7c-0.6,0.9-1.4,1.9-2.4,2.3C284.5,73.4,283.1,73.4,282.5,72.9z M308.8,41.6c1.2,1.5,2.6,2.9,4.3,4.8l2.9-16
		c-2.8,3.2-5,6.7-7.3,10.1C308.7,40.7,308.7,41.4,308.8,41.6z"/>
	<path d="M355.2,18.6c-1.9,8.9-3.9,17.3-5.3,25.7c-1.6,8.8-2.7,17.8-4.1,26.6c-0.1,0.9-1.1,1.7-2,2.2c-0.9,0.5-2,0.5-3.3,0.8
		c-0.1-0.7-0.5-1.4-0.4-2.2c1.1-7,2.1-14.1,3.5-21c2.1-10.5,4.4-21.1,6.7-31.7c0.5-2,0.2-3.5-1.9-4.5c-2.6-1.2-5.1-2.7-7.6-4.1
		c-0.8-0.4-1.5-1.3-1.6-2s0.8-1.5,1.5-1.9c2.4-1.2,4.8-1.7,7.1,0.4c1.7,1.4,3.6,3.1,5.7,3.5c2.9,0.6,4.4,2.8,6.6,4.1
		c2.4,1.2,4.7,2.9,6.8,4.6c2,1.7,3.9,3.6,5.7,5.5c1.6,1.7-0.3,2.8-1.2,3.8c-0.9,1-2,1.4-3.4,0.1c-3.3-3-6.9-5.8-10.5-8.6
		C357,19.4,356.3,19.2,355.2,18.6z"/>
	<path d="M407.3,65.1c-0.4-0.5-1-0.7-1.8-1.1l-1.5,3.1c-0.8,1.3-2.2,2.2-3.4,1.3c-0.8-0.6-1-2.3-1.1-3.5c-0.1-0.5,0.3-1,0.6-1.5
		c1.2-2,0.5-3.1-1.5-3.8c-0.7-0.3-1.5-0.7-1.7-1.2c-0.5-1-0.8-2.1-0.5-2.9c0.1-0.6,1.3-1.1,2-1.1c1.3-0.1,2.8,0.2,4.3,0.3l1.2-4.5
		c1-3.8,2-7.5,2.9-11.3c0.4-1.6,0.4-3.3,0.6-4.9c0.1-0.6-0.1-1.3,0.3-1.6c2.8-2.3,2.8-5.8,3.5-8.8c0.9-3.9,1-8,1.5-12
		c0.3-2.8-1.4-4.8-3.2-6.7c-0.6-0.7-1-2.6-0.8-2.8c1.4-0.9,2.5-2.9,4.7-1.7c0.8,0.4,1.7,0.4,2.7,0.6c0.5,0.1,1.2,0.1,1.3,0.3
		c1.1,3.2,4.4,2.9,6.7,4.3c4.4,2.4,8.8,4.6,13.2,6.9c1.4,0.9,1.7,2.1,0.8,3.5c-0.9,1.4-2,2.5-4,1.2c-4.1-2.4-8.3-4.6-12.4-6.8
		c-1-0.6-2.3-0.9-3.2-1.2l-4.2,23c3.1,1.5,6.6,3,9.9,4.8c3,1.6,5.9,3.4,8.6,5.3c0.6,0.5,1,2.1,0.7,2.8c-0.6,1.2-1.4,2.8-3.3,1.9
		c-0.7-0.3-1.4-0.8-2.1-1.1l-13.3-7.4c-1.6-1-2.7-0.4-3,1.3c-1.4,5.7-2.8,11.4-4,17.2c-0.2,0.7,0.7,1.6,1.3,2.2
		c3.6,3.4,7.2,6.7,10.8,10c1.4,1.2,1.9,2.4,0.3,3.8c-1.5,1.5-2.9,1.3-4.4-0.1C412.8,70.2,410,67.6,407.3,65.1z"/>
</g>
</svg>
