<?xml version="1.0" encoding="utf-8"?>
<!-- Generator: Adobe Illustrator 19.2.0, SVG Export Plug-In . SVG Version: 6.00 Build 0)  -->
<svg version="1.1" id="Layer_1" xmlns="http://www.w3.org/2000/svg" xmlns:xlink="http://www.w3.org/1999/xlink" x="0px" y="0px"
	 viewBox="0 0 382.5 68.9" style="enable-background:new 0 0 382.5 68.9;" xml:space="preserve">
<g>
	<path d="M16.1,13.1c-1.9,8.9-3.9,17.3-5.3,25.7c-1.6,8.8-2.7,17.8-4.1,26.6c-0.1,0.9-1.1,1.7-2,2.2s-2,0.5-3.3,0.8
		C1.2,67.7,0.9,67,1,66.2c1.1-7,2.1-14.1,3.5-21c2.1-10.5,4.4-21.1,6.7-31.7c0.5-2,0.2-3.5-1.9-4.5C6.7,7.8,4.1,6.4,1.6,5
		C0.9,4.6,0.1,3.6,0,3c-0.1-0.7,0.8-1.5,1.5-1.9c2.4-1.2,4.8-1.7,7.1,0.4c1.7,1.4,3.6,3.1,5.7,3.5C17.2,5.5,18.7,7.8,21,9
		c2.4,1.2,4.7,2.9,6.8,4.6c2,1.7,3.9,3.6,5.7,5.5c1.6,1.7-0.3,2.8-1.2,3.8c-0.9,1-2,1.4-3.4,0.1c-3.3-3-6.9-5.8-10.5-8.6
		C17.9,14,17.2,13.7,16.1,13.1z"/>
	<path d="M67.5,25.4c-0.1-0.5,0.7-1.6,1.2-1.9c1.5-0.5,3-0.6,5.3-1c0.5-2.9,0.9-6.5,1.4-10c0.2-1.2,0.3-2.5,0.2-3.7
		c-0.4-2.8,1-3.7,3.5-4.2c1.6,3.5,0.5,7,0,10.5c-0.4,2.9-1,5.9-1.4,8.8c-0.1,0.8,0.2,1.9,0.8,2.3c3.3,2.6,6.8,5,10.7,7.8
		c0.7-4,1.3-7.9,1.7-11.9c0.5-4.1,0.6-8.2,0.9-12.3c0.1-1.9,2.3-3.6,4-3c0.5,0.2,0.9,1.2,0.9,1.9c-0.8,7.9-1.4,15.8-2.6,23.6
		c-1.6,10.7-3.6,21.5-5.3,32.2c-0.4,2.2-2.1,2.8-3.5,3.5c-1.3,0.7-2.1-0.8-1.7-2.8c1.2-6.4,2.4-12.8,3.8-19.2c0.5-2.3,0-4.2-1.2-6
		c-2.4-3.3-5.7-5.6-9.8-8.1c-0.7,4.8-1.5,9.1-2,13.4c-0.7,6.5-1,13-1.9,19.5c-0.1,1.4-1.2,2.8-2.2,3.9c-0.2,0.2-1.8-0.1-2-0.6
		c-0.5-0.9-0.6-2-0.5-3c0.4-10.8,2.7-21.5,4.6-32.1c0.7-3.8,0.5-3.8-3.1-5.1C68.3,27.6,67.6,26.3,67.5,25.4z"/>
	<path d="M111.6,67.3c-0.4-0.7-0.6-1.7-0.5-2.5c1-9.1,2-18.1,3.2-27.2c1-6.7,2.4-13.2,3.6-19.8c0.7-3.2,1.7-6.5,2.2-9.7
		c0.3-2.3,1.3-3.3,4.1-3.8c0.2,2.5,1.4,5.4,0.4,6.9c-2.9,4.4-2.9,9.4-4,14.2c-2.7,11.3-3.6,22.7-4.1,34.3c-0.1,2.7-0.6,5.2-2.1,7.5
		C113.5,68.7,112.4,68.9,111.6,67.3z"/>
	<path d="M166,58c-4.3,4.7-9.5,8.1-15.5,9.9c-3,0.9-6.6,0.6-9.8,0.2c-0.9-0.1-1.6-2.4-2.5-3.6c0.9-0.5,1.8-1.3,2.8-1.4
		c1.3-0.2,2.9,0,4.3,0.3c8.6,1.4,19-7.2,19.1-17.9c0-2.2-2.8-5.1-5-8.3c-0.3-0.5-1.9-0.1-2.4-0.7c-1.3-1.1-2.4-2.7-3.4-4.1
		c-0.5-0.7-0.7-1.6-1.2-2.3c-3.5-4.1-2.4-8.6-1.3-13c1.2-5.1,4.3-9.1,9.2-11.2c4.2-1.8,8.2-1.8,12.4,0.6c4.2,2.3,7,5.7,9.8,9.4
		c1.2,1.8,0.4,5-1.6,5.8c-0.5,0.2-1.5-0.3-2-0.8c-1.1-1.3-2-3.1-3.3-4.4c-2.3-2.1-4.8-4.1-7.4-5.6c-3.2-1.7-7.1-0.7-9.2,2.4
		c-1.4,2-2.6,4.3-3.2,6.6c-0.9,2.8,0.3,5.4,2.7,7.3c3.9,3.2,6.7,7.2,9.5,11.5C171.5,44.5,170.7,52.8,166,58z"/>
	<path d="M254.1,67.3c-0.4-0.7-0.6-1.7-0.5-2.5c1-9.1,2-18.1,3.2-27.2c1-6.7,2.4-13.2,3.6-19.8c0.7-3.2,1.7-6.5,2.2-9.7
		c0.3-2.3,1.3-3.3,4.1-3.8c0.2,2.5,1.4,5.4,0.4,6.9c-2.9,4.4-2.9,9.4-4,14.2c-2.7,11.3-3.6,22.7-4.1,34.3c-0.1,2.7-0.6,5.2-2.1,7.5
		C256,68.7,254.9,68.9,254.1,67.3z"/>
	<path d="M298.2,13.1c-1.9,8.9-3.9,17.3-5.3,25.7c-1.6,8.8-2.7,17.8-4.1,26.6c-0.1,0.9-1.1,1.7-2,2.2s-2,0.5-3.3,0.8
		c-0.1-0.7-0.5-1.4-0.4-2.2c1.1-7,2.1-14.1,3.5-21c2.1-10.5,4.4-21.1,6.7-31.7c0.5-2,0.2-3.5-1.9-4.5c-2.6-1.2-5.1-2.7-7.6-4.1
		c-0.8-0.4-1.5-1.3-1.6-2s0.8-1.5,1.5-1.9c2.4-1.2,4.8-1.7,7.1,0.4c1.7,1.4,3.6,3.1,5.7,3.5c2.9,0.6,4.4,2.8,6.6,4.1
		c2.4,1.2,4.7,2.9,6.8,4.6c2,1.7,3.9,3.6,5.7,5.5c1.6,1.7-0.3,2.8-1.2,3.8c-0.9,1-2,1.4-3.4,0.1c-3.3-3-6.9-5.8-10.5-8.6
		C300,14,299.3,13.7,298.2,13.1z"/>
	<path d="M365.5,58c-4.3,4.7-9.5,8.1-15.5,9.9c-3,0.9-6.6,0.6-9.8,0.2c-0.9-0.1-1.6-2.4-2.5-3.6c0.9-0.5,1.8-1.3,2.8-1.4
		c1.3-0.2,2.9,0,4.3,0.3c8.6,1.4,19-7.2,19.1-17.9c0-2.2-2.8-5.1-5-8.3c-0.3-0.5-1.9-0.1-2.4-0.7c-1.3-1.1-2.4-2.7-3.4-4.1
		c-0.5-0.7-0.7-1.6-1.2-2.3c-3.5-4.1-2.4-8.6-1.3-13c1.2-5.1,4.3-9.1,9.2-11.2c4.2-1.8,8.2-1.8,12.4,0.6c4.2,2.3,7,5.7,9.8,9.4
		c1.2,1.8,0.4,5-1.6,5.8c-0.5,0.2-1.5-0.3-2-0.8c-1.1-1.3-2-3.1-3.3-4.4c-2.3-2.1-4.8-4.1-7.4-5.6c-3.2-1.7-7.1-0.7-9.2,2.4
		c-1.4,2-2.6,4.3-3.2,6.6c-0.9,2.8,0.3,5.4,2.7,7.3c3.9,3.2,6.7,7.2,9.5,11.5C371,44.5,370.2,52.8,365.5,58z"/>
</g>
</svg>
