<svg width="84" height="17" viewBox="0 0 84 17" fill="none" xmlns="http://www.w3.org/2000/svg">
<path d="M0.383789 1.0402V16.1602C0.383789 16.6162 0.767789 17.0002 1.22379 17.0002H7.19979C12.2878 17.0002 15.9598 13.4482 15.9598 8.6002C15.9598 3.7282 12.3118 0.200195 7.27179 0.200195H1.22379C0.767789 0.200195 0.383789 0.584196 0.383789 1.0402ZM4.05579 2.7442H7.22379C10.5358 2.7442 13.1038 5.1922 13.1038 8.6242C13.1038 12.0322 10.6078 14.4562 7.34379 14.4562H4.05579C3.59979 14.4562 3.21579 14.0722 3.21579 13.6162V3.5842C3.21579 3.1282 3.59979 2.7442 4.05579 2.7442Z" fill="white"/>
<path d="M30.1292 17.0002H31.2812C32.0012 17.0002 32.3852 16.2802 31.9772 15.6802L29.6732 12.2482C29.4092 11.8642 29.6252 11.1682 30.0332 10.9282C31.6652 9.9442 32.5772 8.2162 32.5772 5.9362C32.5772 2.2882 30.1052 0.200195 25.8092 0.200195H19.8332C19.3772 0.200195 18.9932 0.584196 18.9932 1.0402V16.1602C18.9932 16.6162 19.3772 17.0002 19.8332 17.0002H20.9852C21.4412 17.0002 21.8252 16.6162 21.8252 16.1602V12.7762C21.8252 12.3202 22.2092 11.9362 22.6652 11.9362H25.8092C26.0252 11.9362 26.2652 11.9362 26.4812 11.9122C26.5292 11.9122 26.6012 11.9602 26.6492 12.0082L29.4092 16.5922C29.5292 16.7842 29.8892 17.0002 30.1292 17.0002ZM21.8252 8.5522V3.5842C21.8252 3.1282 22.2092 2.7442 22.6652 2.7442H25.8092C28.4012 2.7442 29.8892 3.8002 29.8892 6.0082C29.8892 8.2882 28.4012 9.3922 25.8092 9.3922H22.6652C22.2092 9.3922 21.8252 9.0082 21.8252 8.5522Z" fill="white"/>
<path d="M47.4009 13.7122L48.5769 16.4962C48.6969 16.7602 49.0569 17.0002 49.3449 17.0002H50.5449C51.1929 17.0002 51.5529 16.4242 51.3129 15.8242L44.6889 0.704196C44.5929 0.440195 44.2089 0.200195 43.9209 0.200195H42.1209C41.8329 0.200195 41.4489 0.440195 41.3529 0.704196L34.6809 15.8242C34.4169 16.4242 34.8009 17.0002 35.4489 17.0002H36.5529C36.8409 17.0002 37.2009 16.7602 37.3209 16.4962L38.4969 13.7122C38.6169 13.4482 38.9769 13.2082 39.2649 13.2082H46.6329C46.9209 13.2082 47.2809 13.4482 47.4009 13.7122ZM44.8329 10.6882H41.0409C40.3929 10.6882 40.0089 10.1122 40.2729 9.5122L42.1689 5.0482C42.4809 4.3282 43.3929 4.3282 43.7049 5.0482L45.6009 9.5122C45.8649 10.1122 45.4809 10.6882 44.8329 10.6882Z" fill="white"/>
<path d="M65.6957 17.0002H67.0397C67.7597 17.0002 68.1437 16.2562 67.7117 15.6802L62.1437 7.9282C61.9277 7.6402 61.9517 7.1362 62.1917 6.8722L67.1117 1.4242C67.5677 0.920196 67.2557 0.200195 66.5837 0.200195H65.2637C65.1197 0.200195 64.7597 0.368196 64.6637 0.464196L58.3517 7.3042C57.7997 7.9042 56.8877 7.5442 56.8877 6.7282V1.0402C56.8877 0.584196 56.5037 0.200195 56.0477 0.200195H54.8957C54.4397 0.200195 54.0557 0.584196 54.0557 1.0402V16.1602C54.0557 16.6162 54.4397 17.0002 54.8957 17.0002H56.0477C56.5037 17.0002 56.8877 16.6162 56.8877 16.1602V13.0642C56.8877 12.9442 57.0317 12.5842 57.1037 12.4882L59.0477 10.3282C59.4317 9.9202 60.0317 9.9682 60.3437 10.4002L65.0237 16.6642C65.1197 16.8082 65.5037 17.0002 65.6957 17.0002Z" fill="white"/>
<path d="M83.2822 1.9042V1.0402C83.2822 0.584196 82.8982 0.200195 82.4422 0.200195H72.1222C71.6662 0.200195 71.2822 0.584196 71.2822 1.0402V16.1602C71.2822 16.6162 71.6662 17.0002 72.1222 17.0002H82.7302C83.1862 17.0002 83.5702 16.6162 83.5702 16.1602V15.2962C83.5702 14.8402 83.1862 14.4562 82.7302 14.4562H74.9542C74.4982 14.4562 74.1142 14.0722 74.1142 13.6162V10.6642C74.1142 10.2082 74.4982 9.8242 74.9542 9.8242H81.4822C81.9382 9.8242 82.3222 9.4402 82.3222 8.9842V8.1202C82.3222 7.6642 81.9382 7.2802 81.4822 7.2802H74.9542C74.4982 7.2802 74.1142 6.8962 74.1142 6.4402V3.5842C74.1142 3.1282 74.4982 2.7442 74.9542 2.7442H82.4422C82.8982 2.7442 83.2822 2.3602 83.2822 1.9042Z" fill="white"/>
</svg>
