<svg width="79" height="65" viewBox="0 0 79 65" fill="none" xmlns="http://www.w3.org/2000/svg">
<g clip-path="url(#clip0_336_46)">
<path d="M8.37441 16H10.7029C12.051 16 13.2357 15.7277 14.1616 15.006C15.4144 14.0391 16.0272 12.623 16.0272 10.3081C16.0272 8.08851 15.3599 6.61787 14.1753 5.69192C13.1131 4.88851 11.9012 4.69787 10.4033 4.69787H8.37441V16ZM10.4442 13.9302V6.76766H10.9616C13.0995 6.76766 13.971 7.93872 13.971 10.3353C13.971 12.7183 13.154 13.9302 10.9616 13.9302H10.4442Z" fill="#3285C0"/>
<path d="M22.4838 16H24.4991V12.2009H25.3706L27.5493 16H29.8642L27.4268 11.9966C28.9246 11.5064 29.9187 10.1719 29.9187 8.44255C29.9187 6.27745 28.3527 4.69787 26.1059 4.69787H22.4838V16ZM24.4991 10.3489V6.67234H26.0514C27.1544 6.67234 27.8489 7.33957 27.8489 8.51064C27.8489 9.65447 27.1817 10.3489 26.0514 10.3489H24.4991Z" fill="#3285C0"/>
<path d="M35.3277 16H37.4247L38.1328 13.8485H41.8502L42.5583 16H44.669L40.72 4.69787H39.2766L35.3277 16ZM38.7047 12.1328L39.9983 8.21106L41.2919 12.1328H38.7047Z" fill="#3285C0"/>
<path d="M50.4369 16H52.4522V12.1736L53.1467 11.2749L56.1833 15.9864H58.5935L54.4403 9.64085L58.3348 4.69787L55.8292 4.69787L52.4522 9.38213V4.69787H50.4369V16Z" fill="#3285C0"/>
<path d="M64.5541 16H70.8588V13.9983H66.6239V11.057H69.9192V9.28681H66.6239V6.69957L70.8588 6.69957V4.69787L64.5541 4.69787V16Z" fill="#3285C0"/>
<path d="M15.1791 50.6979V62H20.8302V59.9302H17.2489V50.6979H15.1791Z" fill="#3285C0"/>
<path d="M26.5463 62H30.3999C32.3335 62 33.8586 60.7472 33.8586 58.7864C33.8586 57.4928 33.0416 56.5532 31.8569 56.1038C32.9054 55.6953 33.6135 54.8647 33.6135 53.68C33.6135 51.8553 32.1293 50.6979 30.291 50.6979H26.5463V62ZM28.5616 60.0936V57.0298L30.2501 57.0434C31.0535 57.0434 31.8161 57.6698 31.8161 58.5549C31.8161 59.4536 31.0808 60.0936 30.2229 60.0936H28.5616ZM28.5616 55.2596V52.6043H30.1276C30.8765 52.6043 31.5573 53.1353 31.5573 53.9115C31.5573 54.6877 30.8901 55.2596 30.1276 55.2596H28.5616Z" fill="#3285C0"/>
<path d="M43.9811 62.177C46.2552 62.177 47.7258 60.366 47.7258 57.7379V50.6979H45.656V57.7379C45.656 59.1132 45.1522 60.1209 44.0084 60.1209C42.8509 60.1209 42.3471 59.1268 42.3471 57.7379V50.6843H40.2773V57.7379C40.2773 60.3251 41.6799 62.177 43.9811 62.177Z" fill="#3285C0"/>
<path d="M54.4603 62H56.4212V54.5106L59.131 62H59.8663L62.6033 54.5379L62.5897 62H64.5369V50.6979H62.3038L59.5531 58.3098L56.6118 50.6979H54.4603V62Z" fill="#3285C0"/>
<path d="M74.5985 62.1906C76.5321 62.1906 77.9347 60.7609 77.9347 58.8817C77.9347 57.166 76.7364 56.1447 75.0615 55.3413C74.0402 54.8647 73.2096 54.5243 73.2096 53.7209C73.2096 52.9583 73.7542 52.4409 74.4623 52.4409C75.2385 52.4409 75.9057 52.8221 76.4368 53.5438L77.744 52.1957C77.0496 51.2153 75.7696 50.4936 74.367 50.4936C72.5423 50.4936 71.0989 51.9098 71.0989 53.8026C71.0989 55.5183 72.3108 56.4443 73.6725 57.0298C75.0887 57.6562 75.8377 58.1872 75.8377 58.9498C75.8377 59.7123 75.3474 60.1889 74.4623 60.1889C73.6998 60.1889 72.91 59.7123 72.3789 59.0587L71.0581 60.4068C71.6436 61.3872 73.087 62.1906 74.5985 62.1906Z" fill="#3285C0"/>
<path d="M0.327686 62H2.42471L3.13279 59.8485H6.85024L7.55832 62H9.66896L5.72003 50.6979H4.27662L0.327686 62ZM3.70471 58.1328L4.99832 54.2111L6.29194 58.1328H3.70471Z" fill="#3285C0"/>
<path d="M27.1974 39.1906C28.5047 39.1906 29.7438 38.4009 30.2613 37.4204L28.8723 36.1404C28.4502 36.8077 27.8374 37.3115 27.1974 37.3115C25.8766 37.3115 25.2502 35.446 25.2502 33.3489C25.2502 31.2791 25.863 29.3864 27.1974 29.3864C27.8374 29.3864 28.4502 29.8766 28.8723 30.5574L30.2613 29.2774C29.7438 28.297 28.5047 27.5072 27.1974 27.5072C24.6238 27.5072 23.0987 29.9447 23.0987 33.3489C23.0987 36.726 24.5966 39.1906 27.1974 39.1906Z" fill="#3285C0"/>
<path d="M39.5985 39.1906C41.5321 39.1906 42.9347 37.7609 42.9347 35.8817C42.9347 34.166 41.7364 33.1447 40.0615 32.3413C39.0402 31.8647 38.2096 31.5243 38.2096 30.7209C38.2096 29.9583 38.7542 29.4409 39.4623 29.4409C40.2385 29.4409 40.9057 29.8221 41.4368 30.5438L42.744 29.1957C42.0496 28.2153 40.7696 27.4936 39.367 27.4936C37.5423 27.4936 36.0989 28.9098 36.0989 30.8026C36.0989 32.5183 37.3108 33.4443 38.6725 34.0298C40.0887 34.6562 40.8377 35.1872 40.8377 35.9498C40.8377 36.7123 40.3474 37.1889 39.4623 37.1889C38.6998 37.1889 37.91 36.7123 37.3789 36.0587L36.0581 37.4068C36.6436 38.3872 38.087 39.1906 39.5985 39.1906Z" fill="#3285C0"/>
<path d="M52.5985 39.1906C54.5321 39.1906 55.9347 37.7609 55.9347 35.8817C55.9347 34.166 54.7364 33.1447 53.0615 32.3413C52.0402 31.8647 51.2096 31.5243 51.2096 30.7209C51.2096 29.9583 51.7542 29.4409 52.4623 29.4409C53.2385 29.4409 53.9057 29.8221 54.4368 30.5438L55.744 29.1957C55.0496 28.2153 53.7696 27.4936 52.367 27.4936C50.5423 27.4936 49.0989 28.9098 49.0989 30.8026C49.0989 32.5183 50.3108 33.4443 51.6725 34.0298C53.0887 34.6562 53.8377 35.1872 53.8377 35.9498C53.8377 36.7123 53.3474 37.1889 52.4623 37.1889C51.6998 37.1889 50.91 36.7123 50.3789 36.0587L49.0581 37.4068C49.6436 38.3872 51.087 39.1906 52.5985 39.1906Z" fill="#3285C0"/>
</g>
<defs>
<clipPath id="clip0_336_46">
<rect width="79" height="65" fill="white"/>
</clipPath>
</defs>
</svg>
