<svg width="63" height="70" viewBox="0 0 63 70" fill="none" xmlns="http://www.w3.org/2000/svg">
<path fill-rule="evenodd" clip-rule="evenodd" d="M2.7029 12H0.37439V0.697876H2.40333C3.9012 0.697876 5.11311 0.888515 6.17524 1.69192C7.35992 2.61788 8.02716 4.08851 8.02716 6.30809C8.02716 8.62298 7.41439 10.0392 6.16162 11.006C5.23567 11.7277 4.05099 12 2.7029 12ZM2.44418 2.76766V9.93022H2.96162C5.15396 9.93022 5.97099 8.7183 5.97099 6.33532C5.97099 3.93873 5.0995 2.76766 2.96162 2.76766H2.44418ZM16.4991 12H14.4838V0.697876H18.1059C20.3527 0.697876 21.9187 2.27745 21.9187 4.44256C21.9187 6.17192 20.9246 7.50639 19.4267 7.9966L21.8642 12H19.5493L17.3706 8.20086H16.4991V12ZM16.4991 2.67234V6.34894H18.0514C19.1816 6.34894 19.8489 5.65447 19.8489 4.51064C19.8489 3.33958 19.1544 2.67234 18.0514 2.67234H16.4991ZM27.3276 12H29.4247L30.1327 9.84851H33.8502L34.5583 12H36.6689L32.72 0.697876H31.2766L27.3276 12ZM30.7047 8.13277L31.9983 4.21107L33.2919 8.13277H30.7047ZM44.4522 12H42.4369V0.697876H44.4522V5.38213L47.8292 0.697876H50.3348L46.4403 5.64085L50.5935 11.9864H48.1833L45.1467 7.2749L44.4522 8.17362V12ZM56.5541 12H62.8588V9.9983H58.6239V7.05702H61.9192V5.28681H58.6239V2.69958H62.8588V0.697876H56.5541V12ZM15.1791 50V38.6979H17.2489V47.9302H20.8301V50H15.1791ZM26.5463 50H30.3999C32.3335 50 33.8586 48.7472 33.8586 46.7864C33.8586 45.4928 33.0416 44.5532 31.8569 44.1038C32.9054 43.6953 33.6135 42.8647 33.6135 41.68C33.6135 39.8553 32.1292 38.6979 30.2909 38.6979H26.5463V50ZM28.5616 48.0936V45.0298L30.2501 45.0434C31.0535 45.0434 31.8161 45.6698 31.8161 46.5549C31.8161 47.4536 31.0807 48.0936 30.2229 48.0936H28.5616ZM28.5616 43.2596V40.6043H30.1275C30.8765 40.6043 31.5573 41.1353 31.5573 41.9115C31.5573 42.6877 30.8901 43.2596 30.1275 43.2596H28.5616ZM47.7259 45.7379C47.7259 48.366 46.2552 50.177 43.9812 50.177C41.6799 50.177 40.2773 48.3251 40.2773 45.7379V38.6843H42.3471V45.7379C42.3471 47.1268 42.851 48.1209 44.0084 48.1209C45.1522 48.1209 45.6561 47.1132 45.6561 45.7379V38.6979H47.7259V45.7379ZM16.4603 69H18.4212V61.5106L21.131 69H21.8663L24.6033 61.5379L24.5897 69H26.5369V57.6979H24.3037L21.5531 65.3098L18.6118 57.6979H16.4603V69ZM39.9347 65.8817C39.9347 67.7608 38.5321 69.1906 36.5985 69.1906C35.087 69.1906 33.6436 68.3872 33.0581 67.4068L34.379 66.0587C34.91 66.7123 35.6998 67.1889 36.4624 67.1889C37.3475 67.1889 37.8377 66.7123 37.8377 65.9498C37.8377 65.1872 37.0887 64.6561 35.6726 64.0298C34.3109 63.4442 33.099 62.5183 33.099 60.8025C33.099 58.9098 34.5424 57.4936 36.367 57.4936C37.7696 57.4936 39.0496 58.2153 39.7441 59.1957L38.4368 60.5438C37.9058 59.8221 37.2385 59.4408 36.4624 59.4408C35.7543 59.4408 35.2096 59.9583 35.2096 60.7208C35.2096 61.4815 35.9542 61.8271 36.9002 62.2662L37.0615 62.3413C38.7364 63.1447 39.9347 64.1659 39.9347 65.8817ZM43.3276 31H45.4247L46.1327 28.8485H49.8502L50.5583 31H52.6689L48.72 19.6979H47.2766L43.3276 31ZM46.7047 27.1328L47.9983 23.2111L49.2919 27.1328H46.7047ZM12.2613 29.4205C11.7439 30.4009 10.5047 31.1907 9.19748 31.1907C6.59663 31.1907 5.09875 28.726 5.09875 25.349C5.09875 21.9447 6.62386 19.5073 9.19748 19.5073C10.5047 19.5073 11.7439 20.2971 12.2613 21.2775L10.8724 22.5575C10.4502 21.8766 9.83748 21.3864 9.19748 21.3864C7.86301 21.3864 7.25024 23.2792 7.25024 25.349C7.25024 27.446 7.87663 29.3115 9.19748 29.3115C9.83748 29.3115 10.4502 28.8077 10.8724 28.1405L12.2613 29.4205ZM21.5985 31.1906C23.5321 31.1906 24.9347 29.7608 24.9347 27.8817C24.9347 26.1659 23.7364 25.1447 22.0615 24.3413L21.9002 24.2662L21.9002 24.2662C20.9542 23.8271 20.2096 23.4815 20.2096 22.7208C20.2096 21.9583 20.7543 21.4408 21.4624 21.4408C22.2385 21.4408 22.9058 21.8221 23.4368 22.5438L24.7441 21.1957C24.0496 20.2153 22.7696 19.4936 21.367 19.4936C19.5424 19.4936 18.099 20.9098 18.099 22.8025C18.099 24.5183 19.3109 25.4442 20.6726 26.0298C22.0887 26.6561 22.8377 27.1872 22.8377 27.9498C22.8377 28.7123 22.3475 29.1889 21.4624 29.1889C20.6998 29.1889 19.91 28.7123 19.379 28.0587L18.0581 29.4068C18.6436 30.3872 20.087 31.1906 21.5985 31.1906ZM37.9347 27.8817C37.9347 29.7608 36.5321 31.1906 34.5985 31.1906C33.087 31.1906 31.6436 30.3872 31.0581 29.4068L32.379 28.0587C32.91 28.7123 33.6998 29.1889 34.4624 29.1889C35.3475 29.1889 35.8377 28.7123 35.8377 27.9498C35.8377 27.1872 35.0887 26.6561 33.6726 26.0298C32.3109 25.4442 31.099 24.5183 31.099 22.8025C31.099 20.9098 32.5424 19.4936 34.367 19.4936C35.7696 19.4936 37.0496 20.2153 37.7441 21.1957L36.4368 22.5438C35.9058 21.8221 35.2385 21.4408 34.4624 21.4408C33.7543 21.4408 33.2096 21.9583 33.2096 22.7208C33.2096 23.4815 33.9542 23.8271 34.9002 24.2662C34.9534 24.2909 35.0072 24.3159 35.0615 24.3413C36.7364 25.1447 37.9347 26.1659 37.9347 27.8817Z" fill="#3285C0"/>
</svg>
