<?xml version="1.0" encoding="utf-8"?>
<!-- Generator: Adobe Illustrator 19.2.0, SVG Export Plug-In . SVG Version: 6.00 Build 0)  -->
<svg version="1.1" id="Layer_1" xmlns="http://www.w3.org/2000/svg" xmlns:xlink="http://www.w3.org/1999/xlink" x="0px" y="0px"
	 viewBox="0 0 30 30" style="enable-background:new 0 0 30 30;" xml:space="preserve">
<style type="text/css">
	.st0{fill-rule:evenodd;clip-rule:evenodd;fill:#C32261;}
</style>
<path class="st0" d="M15,0.5C7,0.5,0.5,7,0.5,15S7,29.5,15,29.5S29.5,23,29.5,15S23,0.5,15,0.5z M24.6,7.2c1.7,2.1,2.8,4.8,2.8,7.7
	c-0.4-0.1-4.5-0.9-8.6-0.4c-0.1-0.2-0.2-0.4-0.3-0.6c-0.3-0.6-0.5-1.2-0.8-1.8C22.3,10.2,24.3,7.5,24.6,7.2z M15,2.7
	c3.1,0,6,1.2,8.2,3.1c-0.2,0.3-2.1,2.8-6.5,4.5c-2-3.7-4.3-6.8-4.6-7.2C13,2.8,14,2.7,15,2.7z M9.7,3.8c0.3,0.4,2.5,3.5,4.6,7.2
	c-5.8,1.5-10.9,1.5-11.4,1.5C3.7,8.6,6.3,5.5,9.7,3.8z M2.6,15c0-0.1,0-0.3,0-0.4c0.5,0,6.5,0.1,12.7-1.8c0.4,0.7,0.7,1.4,1,2.1
	c-0.2,0-0.3,0.1-0.5,0.1c-6.4,2.1-9.8,7.7-10.1,8.2C3.8,21.1,2.6,18.2,2.6,15z M15,27.4c-2.9,0-5.5-1-7.6-2.6
	c0.2-0.5,2.7-5.3,9.7-7.7c0,0,0.1,0,0.1,0c1.7,4.5,2.5,8.3,2.6,9.4C18.4,27,16.7,27.4,15,27.4z M21.9,25.3c-0.1-0.8-0.8-4.4-2.4-8.8
	c3.9-0.6,7.3,0.4,7.7,0.5C26.7,20.4,24.7,23.4,21.9,25.3z"/>
</svg>
