<?xml version="1.0" encoding="utf-8"?>
<!-- Generator: Adobe Illustrator 19.2.0, SVG Export Plug-In . SVG Version: 6.00 Build 0)  -->
<svg version="1.1" id="Layer_1" xmlns="http://www.w3.org/2000/svg" xmlns:xlink="http://www.w3.org/1999/xlink" x="0px" y="0px"
	 viewBox="0 0 30 24.4" style="enable-background:new 0 0 30 24.4;" xml:space="preserve">
<style type="text/css">
	.st0{fill:#2AA9E0;}
</style>
<path class="st0" d="M26.5,6.3c0,0.3,0,0.5,0,0.8c0,7.8-6,16.9-16.9,16.9c-3.4,0-6.5-1-9.1-2.7c0.5,0.1,1,0.1,1.5,0.1
	c2.8,0,5.3-1,7.4-2.5c-2.6-0.1-4.8-1.7-5.5-4.2c0.4,0.1,0.8,0.1,1.2,0.1c0.6,0,1.1-0.1,1.5-0.2c-2.7-0.6-4.7-3-4.7-5.8V8.7
	c0.7,0.4,1.6,0.7,2.6,0.7C2.7,8.3,1.7,6.5,1.7,4.5c0-1.1,0.3-2.1,0.8-3c2.9,3.6,7.4,6,12.3,6.2c-0.1-0.5-0.2-0.9-0.2-1.4
	c0-3.3,2.7-6,6-6c1.7,0,3.3,0.7,4.4,1.8c1.4-0.3,2.6-0.8,3.8-1.5C28.3,2,27.4,3.2,26.1,4c1.2-0.1,2.3-0.5,3.4-1
	C28.7,4.4,27.7,5.4,26.5,6.3z"/>
</svg>
