<?xml version="1.0" encoding="utf-8"?>
<!-- Generator: Adobe Illustrator 19.2.0, SVG Export Plug-In . SVG Version: 6.00 Build 0)  -->
<svg version="1.1" id="Layer_1" xmlns="http://www.w3.org/2000/svg" xmlns:xlink="http://www.w3.org/1999/xlink" x="0px" y="0px"
	 viewBox="0 0 300 300" style="enable-background:new 0 0 300 300;" xml:space="preserve">
<style type="text/css">
	.st0{clip-path:url(#SVGID_2_);fill:url(#SVGID_3_);}
</style>
<g>
	<defs>
		<path id="SVGID_1_" d="M258.3,276.1c0-1.4,1.1-2.5,2.5-2.5c1.4,0,2.5,1.1,2.5,2.5c0,1.4-1.1,2.5-2.5,2.5
			C259.4,278.6,258.3,277.5,258.3,276.1 M260.2,270v2.5c-1.7,0.3-3,1.7-3,3.5c0,2,1.6,3.6,3.6,3.6c2,0,3.6-1.6,3.6-3.6
			c0-1.8-1.3-3.3-3-3.5V270c0-0.3-0.2-0.5-0.5-0.5C260.5,269.5,260.2,269.7,260.2,270 M248.6,260.3c-0.3,0-0.5,0.2-0.5,0.5v3.1
			c0,0.3,0.2,0.5,0.5,0.5h8.6v5h-5.6c-0.3-1.4-1.5-2.5-3-2.5c-1.7,0-3,1.4-3,3c0,1.7,1.4,3,3,3c1.5,0,2.7-1.1,3-2.5l6.1,0
			c0.3,0,0.5-0.2,0.5-0.5v-6.1c0-0.3-0.2-0.5-0.5-0.5h-8.6v-2h11.1v5.6c0,0.3,0.2,0.5,0.5,0.5c0.3,0,0.5-0.2,0.5-0.5v-6.1
			c0-0.3-0.2-0.5-0.5-0.5H248.6z M266.8,257.3c-0.3,0-0.5,0.2-0.5,0.5v2.5h-2.5c-0.3,0-0.5,0.2-0.5,0.5v9.1c0,0.3,0.2,0.5,0.5,0.5
			l6.1,0c0.3,1.4,1.5,2.5,3,2.5c1.7,0,3-1.4,3-3c0-1.7-1.4-3-3-3c-1.5,0-2.7,1.1-3,2.5h-5.6v-8h2.5c0.3,0,0.5-0.2,0.5-0.5v-2.5h2.5
			c0.3,0,0.5-0.2,0.5-0.5c0-0.3-0.2-0.5-0.5-0.5H266.8z M135.2,266l-0.4-0.8c-0.1-0.1,0-0.3,0-0.5l3.1-4.7c0.1-0.1,0.1-0.3,0-0.5
			l-1.4-3c-0.1-0.1-0.1-0.3,0.1-0.4l0.8-0.4c0,0,0.1,0,0.1,0c0.1,0,0.2,0.1,0.3,0.2l1.4,3c0.1,0.1,0.2,0.3,0.4,0.3l5.7,0.6
			c0.1,0,0.3,0.1,0.4,0.3l0.4,0.8c0.1,0.1,0,0.3-0.2,0.3l-5,0.6c-0.1,0-0.2,0.1-0.2,0.3l1,2.1c0.1,0.1,0.2,0.3,0.4,0.3l1,0.2
			c0.1,0,0.3,0.2,0.4,0.3l0.2,0.5c0.1,0.1,0,0.3-0.2,0.3l-1.4,0.2c-0.1,0-0.4,0.1-0.5,0.2l-1.1,1c0,0-0.1,0.1-0.1,0.1
			c-0.1,0-0.1,0-0.2-0.1l-0.2-0.5c-0.1-0.1-0.1-0.4,0-0.5l0.5-0.9c0.1-0.1,0.1-0.4,0-0.5l-1-2.1c0-0.1-0.1-0.1-0.2-0.1
			c0,0-0.1,0-0.1,0.1l-3.7,3.5c0,0-0.1,0.1-0.1,0.1C135.3,266.1,135.2,266.1,135.2,266 M137.2,254.8c0,0-0.1,0-0.1,0l-0.8,0.4
			c0,0,0,0,0,0c-0.7,0.3-0.9,1.1-0.6,1.8l1.3,2.7l-2.9,4.4c-0.3,0.4-0.3,1.1-0.1,1.5l0.4,0.8c0.2,0.5,0.7,0.8,1.2,0.8
			c0.3,0,0.6-0.1,0.9-0.4l2.8-2.6l0.3,0.7l-0.3,0.7c-0.2,0.4-0.2,1,0,1.4l0.2,0.5c0.2,0.5,0.7,0.8,1.2,0.8c0.3,0,0.6-0.1,0.9-0.3
			l1-0.9l1.4-0.2c0.4-0.1,0.8-0.3,1-0.7c0.2-0.4,0.2-0.8,0-1.2l-0.2-0.5c-0.2-0.4-0.6-0.8-1.1-0.9l-0.7-0.2l-0.3-0.7l3.8-0.5
			c0.4-0.1,0.8-0.3,1-0.6c0.2-0.4,0.2-0.8,0-1.2l-0.4-0.8c-0.2-0.5-0.7-0.8-1.3-0.9l-5.3-0.6l-1.2-2.7c-0.4-0.8-1-0.8-1.2-0.8
			C137.5,254.7,137.4,254.7,137.2,254.8 M240,257.9c0-1.4,1.1-2.5,2.5-2.5c1.4,0,2.5,1.1,2.5,2.5c0,1.4-1.1,2.5-2.5,2.5
			C241.2,260.4,240,259.2,240,257.9 M239,257.9c0,2,1.6,3.6,3.6,3.6c1.8,0,3.3-1.3,3.5-3h2.5c0.3,0,0.5-0.2,0.5-0.5
			c0-0.3-0.2-0.5-0.5-0.5h-2.5c-0.3-1.7-1.7-3-3.5-3C240.6,254.3,239,255.9,239,257.9 M276.5,257.9c0-1.4,1.1-2.5,2.5-2.5
			s2.5,1.1,2.5,2.5c0,1.4-1.1,2.5-2.5,2.5S276.5,259.2,276.5,257.9 M275.5,257.3h-2.5c-0.3,0-0.5,0.2-0.5,0.5c0,0.3,0.2,0.5,0.5,0.5
			h2.5c0.3,1.7,1.7,3,3.5,3c2,0,3.6-1.6,3.6-3.6c0-2-1.6-3.6-3.6-3.6C277.2,254.3,275.7,255.6,275.5,257.3 M145.7,252.3
			c0-2.6,2.1-4.7,4.7-4.7c2.6,0,4.7,2.1,4.7,4.7c0,2.6-2.1,4.7-4.7,4.7C147.8,257,145.7,254.9,145.7,252.3 M144.6,252.3
			c0,3.2,2.6,5.8,5.8,5.8c3.2,0,5.8-2.6,5.8-5.8c0-3.2-2.6-5.8-5.8-5.8C147.2,246.5,144.6,249.1,144.6,252.3 M245.6,245.7
			c0,1.7,1.4,3,3,3c1.5,0,2.7-1.1,3-2.5c0,0,0,0,0.1,0h5.5v5.5c0,0.3,0.2,0.5,0.5,0.5h5.5v5h-11.6c-0.3,0-0.5,0.2-0.5,0.5
			c0,0.3,0.2,0.5,0.5,0.5h12.2c0.3,0,0.5-0.2,0.5-0.5v-6.1c0-0.3-0.2-0.5-0.5-0.5h-5.5v-5.5c0-0.3-0.2-0.5-0.5-0.5h-6.1
			c0,0,0,0-0.1,0c-0.3-1.4-1.5-2.5-3-2.5C246.9,242.7,245.6,244,245.6,245.7 M269.9,245.7c0,1.5,1.1,2.7,2.5,3v5.6h-5v-5.5
			c0-0.3-0.2-0.5-0.5-0.5h-6.1c-0.3,0-0.5,0.2-0.5,0.5c0,0.3,0.2,0.5,0.5,0.5h5.5v5.5c0,0.3,0.2,0.5,0.5,0.5h6.1
			c0.3,0,0.5-0.2,0.5-0.5v-6.1c1.4-0.3,2.5-1.5,2.5-3c0-1.7-1.4-3-3-3C271.2,242.7,269.9,244,269.9,245.7 M36.9,267.8l4.7-2.2
			l0.1,1.9l-2.6,2.6L36.9,267.8z M36.8,264.8C36.9,264.8,36.9,264.8,36.8,264.8l4.6-2.3l0.1,2l-4.9,2.2L36.8,264.8z M37.1,261.6
			C37.1,261.6,37.1,261.6,37.1,261.6l4.1-2.1l0.1,1.9l-4.4,2.2L37.1,261.6z M27.2,270.9v-24.6h9.9l-1.5,21.4c0,0.2,0,0.3,0.2,0.4
			l3.1,3.1c0.1,0.1,0.2,0.2,0.4,0.2c0.1,0,0.3-0.1,0.4-0.2l3.1-3.1c0.1-0.1,0.2-0.3,0.2-0.4l-1.4-18.8c0-0.3-0.3-0.5-0.6-0.5
			c-0.3,0-0.5,0.3-0.5,0.6l0.7,9.4l-4,2l1-14h2.6h0h0h11c3.2,0,5.7,2.6,5.7,5.7v15.7c0,3-2.3,5.4-5.2,5.7v-24.5
			c0-0.3-0.2-0.5-0.5-0.5c-0.3,0-0.5,0.2-0.5,0.5v24.6H26.7c-3.2,0-5.7-2.6-5.7-5.7l0-15.7c0-3,2.3-5.4,5.2-5.7v24.5
			c0,0.3,0.2,0.5,0.5,0.5C27,271.4,27.2,271.2,27.2,270.9 M35.4,240h7.7l-2.6,5.2H38L35.4,240z M34.5,238.9c-0.2,0-0.4,0.1-0.5,0.3
			c-0.1,0.2-0.1,0.4,0,0.5l2.8,5.5H26.7c-3.8,0-6.8,3.1-6.8,6.8l0,15.7c0,3.8,3.1,6.8,6.8,6.8h25.1c3.8,0,6.8-3.1,6.8-6.8v-15.7
			c0-3.8-3.1-6.8-6.8-6.8H41.7l2.8-5.5c0.1-0.2,0.1-0.4,0-0.5c-0.1-0.2-0.3-0.3-0.5-0.3H34.5z M135.7,252.4c0,0.3,0.2,0.5,0.5,0.5
			c0.3,0,0.5-0.2,0.5-0.5c0-7.5,6.1-13.7,13.7-13.7c7.5,0,13.7,6.1,13.7,13.7c0,6.8-11.3,23.9-13.7,27.4c-1-1.5-3.7-5.5-6.4-10.1
			c0-0.1,0-0.1-0.1-0.2l-0.2-0.4c-0.2-0.3-0.5-0.4-0.8-0.2c-0.3,0.2-0.4,0.5-0.2,0.8l0.2,0.4c0,0.1,0.1,0.1,0.2,0.2
			c3.4,5.9,6.8,10.8,6.9,10.8c0.1,0.1,0.3,0.2,0.4,0.2c0.2,0,0.3-0.1,0.4-0.2c0.6-0.8,14.3-20.8,14.3-28.7c0-8.1-6.6-14.7-14.7-14.7
			C142.3,237.7,135.7,244.3,135.7,252.4 M258.3,239.6c0-1.4,1.1-2.5,2.5-2.5c1.4,0,2.5,1.1,2.5,2.5c0,1.4-1.1,2.5-2.5,2.5
			C259.4,242.1,258.3,241,258.3,239.6 M257.2,239.6c0,1.8,1.3,3.3,3,3.5v2.5c0,0.3,0.2,0.5,0.5,0.5c0.3,0,0.5-0.2,0.5-0.5v-2.5
			c1.7-0.3,3-1.7,3-3.5c0-2-1.6-3.6-3.6-3.6C258.8,236,257.2,237.7,257.2,239.6 M6.1,258.4c0-18.3,14.9-33.1,33.1-33.1
			s33.1,14.9,33.1,33.1c0,18.3-14.9,33.1-33.1,33.1S6.1,276.7,6.1,258.4 M5,258.4c0,18.9,15.4,34.2,34.2,34.2
			c18.9,0,34.2-15.4,34.2-34.2c0-18.9-15.4-34.2-34.2-34.2C20.4,224.2,5,239.6,5,258.4 M117.3,258.4c0-18.3,14.9-33.1,33.1-33.1
			s33.1,14.9,33.1,33.1c0,18.3-14.9,33.1-33.1,33.1S117.3,276.7,117.3,258.4 M116.2,258.4c0,18.9,15.4,34.2,34.2,34.2
			c18.9,0,34.2-15.4,34.2-34.2c0-18.9-15.4-34.2-34.2-34.2C131.5,224.2,116.2,239.6,116.2,258.4 M227.6,257.9
			c0-18.3,14.9-33.1,33.1-33.1s33.1,14.9,33.1,33.1c0,18.3-14.9,33.1-33.1,33.1S227.6,276.1,227.6,257.9 M226.5,257.9
			c0,18.9,15.4,34.2,34.2,34.2s34.2-15.4,34.2-34.2c0-18.9-15.4-34.2-34.2-34.2S226.5,239,226.5,257.9 M252.9,166.4l-1.9,4.9
			c-0.1,0.3,0,0.6,0.3,0.7c0.1,0,0.1,0,0.2,0c0.2,0,0.4-0.1,0.5-0.4l1.9-4.9c0.1-0.3,0-0.6-0.3-0.7c-0.1,0-0.1,0-0.2,0
			C253.2,166,253,166.2,252.9,166.4 M246.8,161.1l-4.3,3.9c-0.2,0.2-0.2,0.5,0,0.8c0.1,0.1,0.3,0.2,0.4,0.2c0.1,0,0.3,0,0.4-0.1
			l4.3-3.9c0.2-0.2,0.2-0.5,0-0.8c-0.1-0.1-0.3-0.2-0.4-0.2C247,160.9,246.9,161,246.8,161.1 M43.8,152.1c1.5-0.8,2.9-1.5,4.3-1.5
			c0.5,0,1,0.1,1.6,0.3c-2.7,2.9-6.5,4.7-10.7,4.7c-4.2,0-8.1-1.8-10.7-4.7c0.6-0.2,1.1-0.3,1.6-0.3c1.4,0,2.8,0.7,4.3,1.5
			c1.6,0.8,3.2,1.6,4.8,1.6C40.6,153.7,42.2,152.9,43.8,152.1 M43.8,149.1c1.5-0.8,2.9-1.5,4.3-1.5c1.1,0,2.2,0.4,3.4,1
			c-0.3,0.5-0.6,1-1,1.4c-0.9-0.3-1.7-0.5-2.4-0.5c-1.6,0-3.3,0.8-4.8,1.6c-1.5,0.8-2.9,1.5-4.3,1.5c-1.4,0-2.8-0.7-4.3-1.5
			c-1.6-0.8-3.2-1.6-4.8-1.6c-0.7,0-1.5,0.2-2.4,0.5c-0.4-0.5-0.7-0.9-1-1.4c1.2-0.6,2.3-1,3.4-1c1.4,0,2.8,0.7,4.3,1.5
			c1.6,0.8,3.2,1.6,4.8,1.6C40.6,150.6,42.2,149.8,43.8,149.1 M43.8,146c1.5-0.8,2.9-1.5,4.3-1.5c1.4,0,2.8,0.7,4.3,1.5
			c0.1,0,0.2,0.1,0.3,0.1c-0.2,0.5-0.4,1-0.7,1.5c-1.3-0.6-2.6-1.1-3.9-1.1c-1.6,0-3.3,0.8-4.8,1.6c-1.5,0.8-2.9,1.5-4.3,1.5
			c-1.4,0-2.8-0.7-4.3-1.5c-1.6-0.8-3.2-1.6-4.8-1.6c-1.3,0-2.6,0.5-3.9,1.1c-0.2-0.5-0.5-1-0.7-1.5c0.1,0,0.2-0.1,0.3-0.1
			c1.5-0.8,2.9-1.5,4.3-1.5c1.4,0,2.8,0.7,4.3,1.5c1.6,0.8,3.2,1.6,4.8,1.6C40.6,147.6,42.2,146.8,43.8,146 M51.1,140.4
			c-0.3,0-0.5,0.2-0.5,0.5c0,0.3,0.2,0.5,0.5,0.5h2.5c0,1.2-0.2,2.4-0.6,3.6c0,0-0.1,0-0.1-0.1c-1.6-0.8-3.2-1.6-4.8-1.6
			c-1.6,0-3.3,0.8-4.8,1.6c-1.5,0.8-2.9,1.5-4.3,1.5c-1.4,0-2.8-0.7-4.3-1.5c-1.6-0.8-3.2-1.6-4.8-1.6c-1.6,0-3.3,0.8-4.8,1.6
			c0,0-0.1,0-0.1,0.1c-0.3-1.1-0.5-2.3-0.6-3.6h11.6c0.3,0,0.5-0.2,0.5-0.5c0-0.3-0.2-0.5-0.5-0.5H23.8c-0.3,0-0.5,0.2-0.5,0.5
			c0,2.8,0.7,5.4,2,7.6c0,0,0,0,0,0c0,0,0,0,0,0c0.5,0.8,1,1.6,1.6,2.4c0,0,0,0,0,0.1c2.8,3.3,6.9,5.5,11.5,5.6v8.4l-5.9,5.9
			c-0.2,0.2-0.2,0.4-0.1,0.6c0.1,0.2,0.3,0.3,0.5,0.3h12.2c0.3,0,0.5-0.2,0.5-0.5c0-0.3-0.2-0.5-0.5-0.5H34.2l5.1-5.1
			c0.1-0.1,0.2-0.2,0.2-0.4v-8.6c4.6-0.2,8.7-2.3,11.5-5.6c0,0,0,0,0-0.1c0.6-0.7,1.2-1.5,1.6-2.4c0,0,0,0,0,0c0,0,0,0,0,0
			c1.3-2.3,2-4.9,2-7.6c0-0.3-0.2-0.5-0.5-0.5H51.1z M249.5,159.5c1.1-0.6,2-1.3,2.9-2.2c2,1.6,3.3,4,3.4,6.7
			C253.3,163.1,251.1,161.5,249.5,159.5 M247.2,155.5c1.5,0,3,0.5,4.2,1.2c-0.8,0.7-1.7,1.4-2.6,1.9
			C248.2,157.6,247.6,156.6,247.2,155.5 M256.9,164.3c0-3.2-1.5-6-3.8-7.8c0.8-0.9,1.5-2,2-3.1c3.4,2.6,5.6,6.7,5.7,11.4
			c-0.1,0-0.2,0-0.3,0C259.3,164.8,258.1,164.6,256.9,164.3 M246.3,150.6c0-0.1,0-0.1,0-0.2c2.9,0,5.6,0.9,7.9,2.4
			c-0.5,1.1-1.2,2.2-2,3.1c-1.5-1-3.3-1.5-5.3-1.5c0,0,0,0-0.1,0C246.5,153.2,246.3,151.9,246.3,150.6 M255.6,152.4
			c0.5-1.3,0.8-2.6,0.9-4c5.1,3.5,8.7,9,9.7,15.3c-1.3,0.6-2.8,1-4.3,1.1C261.8,159.7,259.4,155.2,255.6,152.4 M246.4,149.3
			c0.1-1.6,0.6-3.1,1.2-4.5c2.8,0.5,5.5,1.5,7.8,2.9c0,1.4-0.3,2.8-0.8,4.1C252.3,150.3,249.4,149.3,246.4,149.3 M260.2,150
			c1.4-2.2,1.9-4.9,1.3-7.5c1.2-0.3,2.4-0.7,3.5-1.2c1,4.2,0.3,8.3-2.1,11.7C262.1,152,261.2,150.9,260.2,150 M266.2,159.3
			c4.1-5.2,5.8-11.8,4.8-18.3c2.3,2.5,3.7,5.9,3.7,9.6c0,5.4-3.1,10.2-7.5,12.6C267,161.8,266.7,160.5,266.2,159.3 M256.4,147
			c-0.1-0.1-0.1-0.1-0.2-0.1c-2.4-1.5-5.2-2.6-8.1-3.1c0.7-1.2,1.5-2.3,2.5-3.3c2.4,1.6,5.2,2.4,7.9,2.4c0.6,0,1.3,0,1.9-0.1
			c0.5,2.2,0.2,4.6-1,6.5C258.5,148.4,257.4,147.7,256.4,147 M263.5,154c2.8-3.8,3.7-8.4,2.5-13.2c0.9-0.5,1.7-1.2,2.5-2
			c0.4,0.3,0.8,0.6,1.2,0.9c1.4,6.5,0,13.1-4,18.4C265.2,156.6,264.4,155.3,263.5,154 M251.4,139.7c2.5-2.1,5.7-3.4,9.2-3.4
			c2.5,0,4.9,0.7,7,1.8c-2,1.8-4.3,3-6.8,3.4c0,0,0,0-0.1,0c0,0,0,0,0,0c-0.7,0.1-1.4,0.2-2.2,0.2
			C256,141.8,253.6,141.1,251.4,139.7 M245.2,150.6c0,3.3,1.1,6.4,2.9,9c0,0,0,0,0,0c0,0.1,0.1,0.1,0.1,0.1
			c2.8,3.8,7.3,6.2,12.3,6.2c2.3,0,4.5-0.5,6.5-1.5c0,0,0,0,0,0c5.2-2.5,8.8-7.7,8.8-13.8c0-4.6-2.1-8.8-5.3-11.6c0,0,0,0-0.1,0
			c-2.7-2.3-6.2-3.7-10-3.7C252.1,135.3,245.2,142.1,245.2,150.6 M276.4,132.5c-0.5,0.5-0.6,1.2-0.3,1.7l-4,3.6
			c-0.2,0.2-0.2,0.5,0,0.8c0.1,0.1,0.3,0.2,0.4,0.2c0.1,0,0.3,0,0.4-0.1l4-3.7c0.6,0.2,1.2,0.1,1.7-0.3c0.6-0.6,0.6-1.6,0-2.2
			c-0.3-0.3-0.7-0.5-1.1-0.5C277.1,132.1,276.7,132.2,276.4,132.5 M56.9,131.4l-15.2,12.2c-0.2,0.2-0.3,0.5-0.1,0.8
			c0.1,0.1,0.3,0.2,0.4,0.2c0.1,0,0.2,0,0.3-0.1l15.2-12.2c0.2-0.2,0.3-0.5,0.1-0.8c-0.1-0.1-0.3-0.2-0.4-0.2
			C57.1,131.3,57,131.4,56.9,131.4 M144.8,131.6H156v2.5c0,0,0,0,0,0c0,0,0,0,0,0v2.5h-11.2V131.6z M144.3,130.5
			c-0.3,0-0.5,0.2-0.5,0.5v2.5h-5.6c-2,0-3.6,1.6-3.6,3.6v9.2c0,0.3,0.2,0.5,0.5,0.5c0.3,0,0.5-0.2,0.5-0.5v-9.2
			c0-1.4,1.1-2.5,2.5-2.5h5.6v2.5c0,0.3,0.2,0.5,0.5,0.5h12.3c0.3,0,0.5-0.2,0.5-0.5v-2.5h5.6c1.4,0,2.5,1.1,2.5,2.5v27.6
			c0,1.4-1.1,2.5-2.5,2.5h-24.6c-1.4,0-2.5-1.1-2.5-2.5v-11.7h5.6c0.2,0,0.4-0.2,0.5-0.4l2.4-7.1l2.7,16.3c0,0.3,0.3,0.4,0.5,0.5
			c0.3,0,0.5-0.2,0.6-0.4l2.6-10.5l2.5,7.4c0.1,0.2,0.3,0.4,0.5,0.4c0.2,0,0.4-0.1,0.5-0.3l2.9-5.8h2.7c0,0,0.1,0,0.1,0
			c0.2,0.6,0.8,1,1.4,1c0.8,0,1.5-0.7,1.5-1.5c0-0.8-0.7-1.5-1.5-1.5c-0.7,0-1.2,0.4-1.4,1c0,0-0.1,0-0.1,0h-3.1
			c-0.2,0-0.4,0.1-0.5,0.3l-2.5,5l-2.7-8c-0.1-0.2-0.3-0.4-0.5-0.4c-0.2,0-0.4,0.2-0.5,0.4l-2.4,9.7l-2.6-15.8
			c0-0.2-0.2-0.4-0.5-0.5c-0.3,0-0.5,0.1-0.6,0.4l-2.9,8.8h-5.8c-0.1,0-0.3,0.1-0.4,0.2c-0.1,0.1-0.2,0.2-0.2,0.4v12.3
			c0,2,1.6,3.6,3.6,3.6l24.6,0c2,0,3.6-1.6,3.6-3.6v-27.6c0-2-1.6-3.6-3.6-3.6h-5.6v-2.5c0-0.3-0.2-0.5-0.5-0.5H144.3z M50.7,128.5
			l-12.2,15.2c-0.2,0.2-0.1,0.6,0.1,0.8c0.1,0.1,0.2,0.1,0.3,0.1c0.2,0,0.3-0.1,0.4-0.2l12.2-15.2c0.2-0.2,0.1-0.6-0.1-0.8
			c-0.1-0.1-0.2-0.1-0.3-0.1C51,128.3,50.8,128.3,50.7,128.5 M267.2,126.4c-0.6,0.6-0.6,1.6,0,2.2c0,0,0,0,0.1,0.1l-1.7,4.6
			c-0.1,0.3,0,0.6,0.3,0.7c0.1,0,0.1,0,0.2,0c0.2,0,0.4-0.1,0.5-0.4l1.7-4.6c0.4,0,0.8-0.1,1.1-0.4c0.6-0.6,0.6-1.6,0-2.2
			c-0.3-0.3-0.7-0.5-1.1-0.5C267.9,125.9,267.5,126.1,267.2,126.4 M227.4,150.6c0-18.3,14.9-33.1,33.1-33.1
			c18.3,0,33.1,14.9,33.1,33.1c0,18.3-14.9,33.1-33.1,33.1C242.3,183.8,227.4,168.9,227.4,150.6 M226.3,150.6
			c0,18.9,15.4,34.2,34.2,34.2s34.2-15.4,34.2-34.2s-15.4-34.2-34.2-34.2S226.3,131.8,226.3,150.6 M6.3,150.1
			c0-18.3,14.9-33.1,33.1-33.1c18.3,0,33.1,14.9,33.1,33.1c0,18.3-14.9,33.1-33.1,33.1C21.1,183.2,6.3,168.3,6.3,150.1 M5.2,150.1
			c0,18.9,15.4,34.2,34.2,34.2s34.2-15.4,34.2-34.2c0-18.9-15.4-34.2-34.2-34.2S5.2,131.2,5.2,150.1 M117.3,150.1
			c0-18.3,14.9-33.1,33.1-33.1s33.1,14.9,33.1,33.1c0,18.3-14.9,33.1-33.1,33.1S117.3,168.3,117.3,150.1 M116.2,150.1
			c0,18.9,15.4,34.2,34.2,34.2c18.9,0,34.2-15.4,34.2-34.2c0-18.9-15.4-34.2-34.2-34.2C131.5,115.8,116.2,131.2,116.2,150.1
			 M150.3,48.4c0,0.8,0.7,1.5,1.5,1.5c0.8,0,1.5-0.7,1.5-1.5c0-0.8-0.7-1.5-1.5-1.5C151,46.8,150.3,47.5,150.3,48.4 M23.5,34.7
			c0,0.9,0.7,1.6,1.6,1.6c0.9,0,1.6-0.7,1.6-1.6c0-0.9-0.7-1.6-1.6-1.6C24.3,33.1,23.5,33.8,23.5,34.7 M32.8,46.2l8.7,2.3l-2.8,2.8
			C36,50.5,33.8,48.6,32.8,46.2 M40,51.5l6.3-6.3l1,3.8c-1.6,1.6-3.9,2.6-6.3,2.6C40.6,51.6,40.3,51.5,40,51.5 M45.9,39.3l3.8,1
			c0.2,0.7,0.3,1.5,0.3,2.3c0,2-0.7,3.8-1.8,5.3L45.9,39.3z M37.3,46.3l-1.3-5l3.7-3.7l5,1.3l1.3,5l-3.7,3.7L37.3,46.3z M32.3,44.9
			c-0.2-0.7-0.3-1.5-0.3-2.3c0-2,0.7-3.8,1.8-5.3l2.3,8.7L32.3,44.9z M40.5,36.7l2.8-2.8c2.7,0.7,4.8,2.6,5.9,5.1L40.5,36.7z
			 M34.6,36.3c1.6-1.6,3.9-2.6,6.3-2.6c0.3,0,0.7,0,1,0.1L35.7,40L34.6,36.3z M30.9,42.6c0,4.7,3.3,8.7,7.7,9.8c0,0,0.1,0,0.1,0
			c0.7,0.2,1.5,0.3,2.3,0.3c2.8,0,5.4-1.2,7.2-3c0.1-0.1,0.2-0.2,0.3-0.3c1.6-1.8,2.6-4.1,2.6-6.7C51,37,46.5,32.5,41,32.5
			C35.4,32.5,30.9,37,30.9,42.6 M249,31.8V56h-5.6c-0.3,0-0.5,0.2-0.5,0.5c0,0.3,0.2,0.5,0.5,0.5h15.4c0.3,0,0.5-0.2,0.5-0.5
			c0-0.3-0.2-0.5-0.5-0.5h-8.7V38.2l2.9-2.9c0.2-0.2,0.2-0.6,0-0.8c-0.2-0.2-0.6-0.2-0.8,0l-2.1,2.1v-4.8c0-0.3-0.2-0.5-0.5-0.5
			C249.3,31.3,249,31.5,249,31.8 M52.1,29.4c-0.3,0-0.5,0.2-0.5,0.5c0,0.3,0.2,0.5,0.5,0.5h3.2c1.4,0,2.6,1.2,2.6,2.6v19
			c0,1.4-1.2,2.6-2.6,2.6h-6.3c-0.3,0-0.5,0.2-0.5,0.5c0,0.3,0.2,0.5,0.5,0.5h6.3c2,0,3.7-1.7,3.7-3.7v-19c0-2-1.7-3.7-3.7-3.7H52.1
			z M23.5,29.4c-2,0-3.7,1.7-3.7,3.7v19c0,2,1.7,3.7,3.7,3.7h9.5c0.3,0,0.5-0.2,0.5-0.5c0-0.3-0.2-0.5-0.5-0.5h-9.5
			c-1.4,0-2.6-1.2-2.6-2.6v-19c0-1.4,1.2-2.6,2.6-2.6l6.3,0c0.3,0,0.5-0.2,0.5-0.5c0-0.3-0.2-0.5-0.5-0.5L23.5,29.4z M147.8,48.4
			c0-2.2,1.8-4.1,4.1-4.1s4.1,1.8,4.1,4.1c0,2.2-1.8,4.1-4.1,4.1S147.8,50.6,147.8,48.4 M154.9,27.9c-2,0-3.6,1.6-3.6,3.6v11.8
			c-2.6,0.3-4.6,2.5-4.6,5.1c0,2.8,2.3,5.2,5.2,5.2c2.8,0,5.2-2.3,5.2-5.2c0-2.7-2-4.8-4.6-5.1V31.5c0-1.4,1.1-2.5,2.5-2.5h9.2
			c1.4,0,2.5,1.1,2.5,2.5V56c0,1.4-1.1,2.5-2.5,2.5h-23c-1.4,0-2.5-1.1-2.5-2.5V43.8c0-0.3-0.2-0.5-0.5-0.5c-0.3,0-0.5,0.2-0.5,0.5
			V56c0,2,1.6,3.6,3.6,3.6h23c2,0,3.6-1.6,3.6-3.6V31.5c0-2-1.6-3.6-3.6-3.6H154.9z M131.8,36.5h12.5c-1.2,2.2-3.6,3.7-6.2,3.7
			C135.4,40.1,133,38.7,131.8,36.5 M139.6,28.4c0,0.8,0.7,1.5,1.5,1.5c0.7,0,1.2-0.4,1.4-1h2.6V33c0,0.8-0.2,1.6-0.4,2.4h-13.4
			c-0.3-0.7-0.4-1.5-0.4-2.4v-4.1h2.8c0.2,0.6,0.8,1,1.4,1c0.8,0,1.5-0.7,1.5-1.5c0-0.8-0.7-1.5-1.5-1.5c-0.7,0-1.2,0.4-1.4,1h-3.3
			c-0.3,0-0.5,0.2-0.5,0.5V33c0,1.1,0.2,2.1,0.6,3.1c0,0,0,0,0,0c1.2,3,4.2,5.1,7.6,5.1c4.5,0,8.2-3.7,8.2-8.2v-4.6
			c0-0.3-0.2-0.5-0.5-0.5h-3.2c-0.2-0.6-0.8-1-1.4-1C140.3,26.9,139.6,27.5,139.6,28.4 M23.5,26.2c-0.3,0-0.5,0.2-0.5,0.5
			c0,0.3,0.2,0.5,0.5,0.5h6.3c0.3,0,0.5-0.2,0.5-0.5c0-0.3-0.2-0.5-0.5-0.5H23.5z M36.2,26.2c-2,0-3.7,1.7-3.7,3.7
			c0,0.3,0.2,0.5,0.5,0.5c0.3,0,0.5-0.2,0.5-0.5c0-1.4,1.2-2.6,2.6-2.6h9.5c1.4,0,2.6,1.2,2.6,2.6c0,0.3,0.2,0.5,0.5,0.5
			c0.3,0,0.5-0.2,0.5-0.5c0-2-1.7-3.7-3.7-3.7H36.2z M243,29.2c-2,1.2-3.2,3.4-3.2,5.7c0,3.7,3,6.7,6.7,6.7c0.3,0,0.5-0.2,0.5-0.5
			c0-0.3-0.2-0.5-0.5-0.5c-3.1,0-5.6-2.5-5.6-5.6c0-2,1.1-3.9,2.9-4.9c0.1-0.1,0.2-0.2,0.3-0.4c0.3-2,2-3.4,4-3.4
			c1.7,0,3.3,1.1,3.8,2.7c0.1,0.2,0.3,0.4,0.5,0.4c0.1,0,0.2,0,0.2,0c3.1,0,5.6,2.5,5.6,5.6c0,3.1-2.5,5.6-5.6,5.6
			c-0.3,0-0.5,0.2-0.5,0.5c0,0.3,0.2,0.5,0.5,0.5c3.7,0,6.7-3,6.7-6.7c0-3.7-2.9-6.6-6.6-6.7c-0.8-1.9-2.7-3.1-4.7-3.1
			C245.6,25.1,243.5,26.8,243,29.2 M261.8,24.9c-0.1,0-0.3,0.1-0.4,0.2l-3.1,3.3c-0.2,0.2-0.2,0.6,0,0.8c0.2,0.2,0.6,0.2,0.8,0
			l2.7-2.9l20.2,20.4h-4.7c-0.3,0-0.5,0.2-0.5,0.5V56h-11.4v-5.8c0-0.1-0.1-0.3-0.2-0.4c-0.1-0.1-0.2-0.2-0.4-0.2h-6.1
			c-0.3,0-0.5,0.2-0.5,0.5c0,0.3,0.2,0.5,0.5,0.5h5.6l0,5.8c0,0.1,0.1,0.3,0.2,0.4c0.1,0.1,0.2,0.2,0.4,0.2h12.5
			c0.3,0,0.5-0.2,0.5-0.5v-8.9h5.4c0.2,0,0.4-0.1,0.5-0.3c0.1-0.2,0-0.4-0.1-0.6L262.2,25C262.1,24.9,262,24.9,261.8,24.9
			C261.9,24.9,261.9,24.9,261.8,24.9 M117.3,42.1c0-18.3,14.9-33.1,33.1-33.1s33.1,14.9,33.1,33.1c0,18.3-14.9,33.1-33.1,33.1
			S117.3,60.4,117.3,42.1 M116.2,42.1c0,18.9,15.4,34.2,34.2,34.2c18.9,0,34.2-15.4,34.2-34.2c0-18.9-15.4-34.2-34.2-34.2
			C131.5,7.9,116.2,23.3,116.2,42.1 M6.3,41.6c0-18.3,14.9-33.1,33.1-33.1c18.3,0,33.1,14.9,33.1,33.1c0,18.3-14.9,33.1-33.1,33.1
			C21.1,74.7,6.3,59.8,6.3,41.6 M5.2,41.6c0,18.9,15.4,34.2,34.2,34.2s34.2-15.4,34.2-34.2c0-18.9-15.4-34.2-34.2-34.2
			S5.2,22.7,5.2,41.6 M227.6,41.6c0-18.3,14.9-33.1,33.1-33.1s33.1,14.9,33.1,33.1c0,18.3-14.9,33.1-33.1,33.1
			S227.6,59.8,227.6,41.6 M226.5,41.6c0,18.9,15.4,34.2,34.2,34.2S295,60.4,295,41.6c0-18.9-15.4-34.2-34.2-34.2
			S226.5,22.7,226.5,41.6"/>
	</defs>
	<clipPath id="SVGID_2_">
		<use xlink:href="#SVGID_1_"  style="overflow:visible;"/>
	</clipPath>
	
		<linearGradient id="SVGID_3_" gradientUnits="userSpaceOnUse" x1="-232.8468" y1="663.0123" x2="-232.302" y2="663.0123" gradientTransform="matrix(0 -533.322 -533.322 0 353749.0312 -123889.2344)">
		<stop  offset="0" style="stop-color:#008EB2"/>
		<stop  offset="1" style="stop-color:#00A67E"/>
	</linearGradient>
	<rect x="5" y="7.3" class="st0" width="290" height="285.3"/>
</g>
</svg>
