<?xml version="1.0" encoding="utf-8"?>
<!-- Generator: Adobe Illustrator 19.2.0, SVG Export Plug-In . SVG Version: 6.00 Build 0)  -->
<svg version="1.1" id="Layer_1" xmlns="http://www.w3.org/2000/svg" xmlns:xlink="http://www.w3.org/1999/xlink" x="0px" y="0px"
	 viewBox="0 0 200 200" style="enable-background:new 0 0 200 200;" xml:space="preserve">
<style type="text/css">
	.st0{fill:#FCC0C4;}
</style>
<circle class="st0" cx="100" cy="100" r="95"/>
<g>
	<path d="M75.7,119.2l-0.2,3.2c0,5.9,2.2,10.3,6.7,13c4.4,2.8,10.4,4.2,17.9,4.2s13.4-1.4,17.8-4.1c4.3-2.8,6.5-6.5,6.5-11.3
		s-1.5-8.3-4.5-10.6s-6.8-4.1-11.3-5.5c-4.6-1.4-9.5-2.7-14.8-3.9c-5.3-1.2-10.2-2.9-14.8-5.1c-4.6-2.2-8.3-5.1-11.3-8.9
		c-3-3.7-4.5-8.3-4.5-13.9c0-5.6,1-10.1,2.9-13.6c2-3.5,4.6-6.4,7.9-8.7c6.5-4.6,15.2-6.9,26.1-6.9c10.6,0,19.1,2.2,25.7,6.8
		c7.1,4.9,10.7,12.3,10.7,22v1.8h-14.7v-2.2c0-4.9-2-8.6-6-11.2c-4-2.5-9.1-3.8-15.3-3.8c-10.5,0-17.4,2.5-20.7,7.5
		c-1.2,1.7-1.8,3.8-1.8,6.1c0,4,1.5,7,4.5,9.1s6.8,3.9,11.3,5.2c4.5,1.4,9.5,2.7,14.8,4c5.3,1.3,10.2,3,14.8,5.1
		c4.5,2.2,8.3,5.1,11.3,8.7c3,3.7,4.5,8.5,4.5,14.5c0,6.1-1,11.2-3,15.2c-2,4.1-4.8,7.3-8.2,9.8c-6.7,4.8-16,7.2-27.9,7.2
		c-18.1,0-30.1-5.5-36-16.5c-2.1-3.9-3.2-8.6-3.2-14.2l0.2-3H75.7z"/>
</g>
</svg>
