<?xml version="1.0" encoding="utf-8"?>
<!-- Generator: Adobe Illustrator 19.2.0, SVG Export Plug-In . SVG Version: 6.00 Build 0)  -->
<svg version="1.1" id="Layer_1" xmlns="http://www.w3.org/2000/svg" xmlns:xlink="http://www.w3.org/1999/xlink" x="0px" y="0px"
	 viewBox="0 0 200 200" style="enable-background:new 0 0 200 200;" xml:space="preserve">
<style type="text/css">
	.st0{fill:#444445;}
	.st1{enable-background:new    ;}
	.st2{fill:#A39161;}
</style>
<circle class="st0" cx="100" cy="100" r="95"/>
<g class="st1">
	<path class="st2" d="M64.8,151.4V48.6h35.7c12.4,0,22.4,3.8,30,11.4c8.4,8.2,12.6,19.8,12.6,34.8v10.5c0,15-4.2,26.6-12.6,34.8
		c-7.6,7.6-17.6,11.4-30,11.4H64.8z M100.6,138.1c13.2,0,21.8-5.9,25.8-17.8c1.4-4.1,2.1-9.1,2.1-15V94.8c0-16.6-5.6-26.9-16.8-30.9
		c-3.4-1.3-7.1-2-11.1-2h-21v76.2H100.6z"/>
</g>
</svg>
