<?xml version="1.0" encoding="utf-8"?>
<!-- Generator: Adobe Illustrator 18.1.1, SVG Export Plug-In . SVG Version: 6.00 Build 0)  -->
<svg version="1.1" id="Layer_1" xmlns="http://www.w3.org/2000/svg" xmlns:xlink="http://www.w3.org/1999/xlink" x="0px" y="0px"
	 viewBox="0 0 25 25" enable-background="new 0 0 25 25" xml:space="preserve">
<g>
	<g>
		<path fill="#23753A" d="M12.5,24.5c-6.6,0-12-5.4-12-12s5.4-12,12-12s12,5.4,12,12S19.1,24.5,12.5,24.5z M12.5,2.5
			c-5.5,0-10,4.5-10,10s4.5,10,10,10s10-4.5,10-10S18,2.5,12.5,2.5z"/>
	</g>
	<g>
		<g>
			<path fill="#23753A" d="M10.7,17c-0.3,0-0.5-0.1-0.7-0.3l-3.5-3.5c-0.4-0.4-0.4-1,0-1.4s1-0.4,1.4,0l3.5,3.5c0.4,0.4,0.4,1,0,1.4
				C11.2,16.9,11,17,10.7,17z"/>
		</g>
		<g>
			<path fill="#23753A" d="M10.7,17c-0.3,0-0.5-0.1-0.7-0.3c-0.4-0.4-0.4-1,0-1.4l7.1-7.1c0.4-0.4,1-0.4,1.4,0c0.4,0.4,0.4,1,0,1.4
				l-7.1,7.1C11.2,16.9,11,17,10.7,17z"/>
		</g>
	</g>
</g>
</svg>
