<svg xmlns="http://www.w3.org/2000/svg" width="16" height="16" fill="none" viewBox="0 0 16 16">
  <path fill="#FFFFFF" fill-rule="evenodd" d="M5.735 2.533A2.994 2.994 0 0 1 8 1.5c.904 0 1.715.4 2.265 1.032a2.994 2.994 0 0 1 2.331.872c.64.64.93 1.496.872 2.331A2.994 2.994 0 0 1 14.5 8c0 .905-.4 1.715-1.033 2.265a2.994 2.994 0 0 1-.871 2.331 2.99 2.99 0 0 1-2.331.871A2.994 2.994 0 0 1 8 14.5c-.904 0-1.715-.4-2.265-1.032a2.994 2.994 0 0 1-2.331-.872 2.994 2.994 0 0 1-.872-2.332A2.994 2.994 0 0 1 1.5 8c0-.904.4-1.715 1.032-2.265a2.994 2.994 0 0 1 .872-2.331 2.99 2.99 0 0 1 2.331-.871Zm4.672 4.258a.5.5 0 0 0-.814-.582L7.436 9.23 6.354 8.146a.5.5 0 1 0-.708.708l1.5 1.5a.5.5 0 0 0 .76-.063l2.5-3.5Z" clip-rule="evenodd"/>
</svg>
