<svg xmlns="http://www.w3.org/2000/svg" width="16" height="16" fill="none" viewBox="0 0 16 16">
  <path fill="#fff" fill-rule="evenodd" d="M6 3a.5.5 0 0 1 .48.363l.543 1.897A2.5 2.5 0 0 0 8.74 6.977l1.897.542a.5.5 0 0 1 0 .962l-1.897.542a2.5 2.5 0 0 0-1.717 1.717l-.542 1.897a.5.5 0 0 1-.962 0l-.542-1.897A2.5 2.5 0 0 0 3.26 9.023L1.363 8.48a.5.5 0 0 1 0-.962l1.897-.542A2.5 2.5 0 0 0 4.977 5.26l.542-1.897A.5.5 0 0 1 6 3Zm6-2a.5.5 0 0 1 .485.379l.173.69a1.75 1.75 0 0 0 1.273 1.273l.69.173a.5.5 0 0 1 0 .97l-.69.173a1.75 1.75 0 0 0-1.273 1.273l-.173.69a.5.5 0 0 1-.97 0l-.173-.69a1.75 1.75 0 0 0-1.273-1.273l-.69-.173a.5.5 0 0 1 0-.97l.69-.173a1.75 1.75 0 0 0 1.273-1.273l.173-.69A.5.5 0 0 1 12 1Zm-1 9a.5.5 0 0 1 .474.342l.263.788a1 1 0 0 0 .633.633l.788.263a.5.5 0 0 1 0 .948l-.788.263a1 1 0 0 0-.633.633l-.263.788a.5.5 0 0 1-.948 0l-.263-.788a1 1 0 0 0-.633-.633l-.788-.263a.5.5 0 0 1 0-.948l.788-.263a1 1 0 0 0 .633-.633l.263-.788A.5.5 0 0 1 11 10Z" clip-rule="evenodd"/>
</svg>
