<svg width="692" height="228" viewBox="0 0 692 228" fill="none" xmlns="http://www.w3.org/2000/svg">
<path d="M91.7393 51.9998H108.371C125.723 51.9998 135.515 42.9278 135.515 26.9438C135.515 10.1678 125.723 1.5998 108.371 1.5998H91.7393V51.9998ZM106.211 37.9598V15.6398H110.531C116.867 15.6398 121.043 20.1758 121.043 26.9438C121.043 32.3438 118.163 37.9598 110.531 37.9598H106.211Z" fill="#FEC900"/>
<path d="M169.311 51.9998H183.999L165.351 1.5998H152.031L133.383 51.9998H148.071L150.807 44.4398H166.575L169.311 51.9998ZM155.343 31.8398L158.727 22.4798L162.111 31.8398H155.343Z" fill="#FEC900"/>
<path d="M230.014 51.9998L220.726 32.1278C224.686 29.8238 227.638 25.6478 227.638 18.0878C227.638 3.6158 216.478 1.5998 208.054 1.5998H186.31V51.9998H200.782V34.8638H206.47L214.606 51.9998H230.014ZM200.782 14.9198H206.542C210.07 14.9198 213.886 14.7038 213.886 18.0878C213.886 21.5438 210.934 21.5438 206.542 21.5438H200.782V14.9198Z" fill="#FEC900"/>
<path d="M277.053 51.9998L267.765 32.1278C271.725 29.8238 274.677 25.6478 274.677 18.0878C274.677 3.6158 263.517 1.5998 255.093 1.5998H233.349V51.9998H247.821V34.8638H253.509L261.645 51.9998H277.053ZM247.821 14.9198H253.581C257.109 14.9198 260.925 14.7038 260.925 18.0878C260.925 21.5438 257.973 21.5438 253.581 21.5438H247.821V14.9198Z" fill="#FEC900"/>
<path d="M280.388 51.9998H317.612V37.9598H294.86V33.4238H316.82V19.3838H294.86V15.6398H317.612V1.5998H280.388V51.9998Z" fill="#FEC900"/>
<path d="M350.422 1.5998V23.6318L337.75 1.5998H323.278V51.9998H337.75V30.7598L350.422 51.9998H364.894V1.5998H350.422Z" fill="#FEC900"/>
<path d="M440.611 1.5998L434.491 25.8638L427.795 1.5998H413.035L406.339 25.8638L400.219 1.5998H385.747L398.707 51.9998H412.315L420.451 26.3678L428.515 51.9998H442.123L455.083 1.5998H440.611Z" fill="#FEC900"/>
<path d="M477.491 53.0078C492.611 53.0078 501.467 42.9998 501.467 26.7998C501.467 10.5998 492.611 0.591797 477.491 0.591797C462.299 0.591797 453.443 10.5998 453.443 26.7998C453.443 42.9998 462.299 53.0078 477.491 53.0078ZM477.491 38.9678C469.571 38.9678 467.915 32.3438 467.915 26.7998C467.915 21.2558 469.571 14.6318 477.491 14.6318C485.411 14.6318 486.995 21.2558 486.995 26.7998C486.995 32.3438 485.411 38.9678 477.491 38.9678Z" fill="#FEC900"/>
<path d="M533.797 1.5998V23.6318L521.125 1.5998H506.653V51.9998H521.125V30.7598L533.797 51.9998H548.269V1.5998H533.797Z" fill="#FEC900"/>
<path d="M577.474 52.8638C584.53 52.8638 588.418 50.7038 590.866 46.8878V51.9998H601.738V22.7678H572.434V33.2078H587.626C587.626 36.5918 583.594 38.8238 578.914 38.8238C570.13 38.8238 568.69 32.1998 568.69 26.6558C568.69 21.1118 570.058 14.7758 578.914 14.7758C583.594 14.7758 586.762 17.4398 587.77 20.6078L601.522 18.0878C599.506 5.5598 590.722 0.7358 578.914 0.7358C563.794 0.7358 554.218 9.7358 554.218 26.6558C554.218 43.5758 563.434 52.8638 577.474 52.8638Z" fill="#FEC900"/>
<path d="M0.543945 140H17.1759C34.5279 140 44.3199 130.928 44.3199 114.944C44.3199 98.1678 34.5279 89.5998 17.1759 89.5998H0.543945V140ZM15.0159 125.96V103.64H19.3359C25.6719 103.64 29.8479 108.176 29.8479 114.944C29.8479 120.344 26.9679 125.96 19.3359 125.96H15.0159Z" fill="#FEC900"/>
<path d="M49.5518 140H86.7758V125.96H64.0238V121.424H85.9838V107.384H64.0238V103.64H86.7758V89.5998H49.5518V140Z" fill="#FEC900"/>
<path d="M111.442 140.864C126.13 140.864 134.266 135.68 134.266 123.08C134.266 102.848 105.826 110.408 105.826 104.144C105.826 102.2 108.562 101.336 111.01 101.336C114.682 101.336 117.706 102.488 119.146 106.448L132.97 104.072C132.97 95.5038 124.834 88.7358 111.73 88.7358C99.7059 88.7358 91.354 94.0638 91.354 104.144C90.994 125.6 119.794 116.096 119.794 123.728C119.794 126.032 116.986 128.264 112.882 128.264C105.682 128.264 103.81 125.168 103.81 120.128L89.7699 122.216C89.7699 132.656 97.4739 140.864 111.442 140.864Z" fill="#FEC900"/>
<path d="M138.778 140H153.25V89.5998H138.778V140Z" fill="#FEC900"/>
<path d="M182.458 140.864C189.514 140.864 193.402 138.704 195.85 134.888V140H206.722V110.768H177.418V121.208H192.61C192.61 124.592 188.578 126.824 183.898 126.824C175.114 126.824 173.674 120.2 173.674 114.656C173.674 109.112 175.042 102.776 183.898 102.776C188.578 102.776 191.746 105.44 192.754 108.608L206.506 106.088C204.49 93.5598 195.706 88.7358 183.898 88.7358C168.778 88.7358 159.202 97.7358 159.202 114.656C159.202 131.576 168.418 140.864 182.458 140.864Z" fill="#FEC900"/>
<path d="M240.594 89.5998V111.632L227.922 89.5998H213.45V140H227.922V118.76L240.594 140H255.066V89.5998H240.594Z" fill="#FEC900"/>
<path d="M280.544 140.864C295.232 140.864 303.367 135.68 303.367 123.08C303.367 102.848 274.927 110.408 274.927 104.144C274.927 102.2 277.664 101.336 280.112 101.336C283.784 101.336 286.807 102.488 288.247 106.448L302.072 104.072C302.072 95.5038 293.936 88.7358 280.832 88.7358C268.808 88.7358 260.456 94.0638 260.456 104.144C260.096 125.6 288.896 116.096 288.896 123.728C288.896 126.032 286.087 128.264 281.983 128.264C274.783 128.264 272.911 125.168 272.911 120.128L258.871 122.216C258.871 132.656 266.576 140.864 280.544 140.864Z" fill="#FEC900"/>
<path d="M329.817 140H344.289V103.64H358.185V89.5998H315.993V103.64H329.817V140Z" fill="#FEC900"/>
<path d="M360.896 140H375.367V121.424H389.408V140H403.88V89.5998H389.408V107.384H375.367V89.5998H360.896V140Z" fill="#FEC900"/>
<path d="M410.677 140H425.149V89.5998H410.677V140Z" fill="#FEC900"/>
<path d="M459.125 89.5998V111.632L446.453 89.5998H431.981V140H446.453V118.76L459.125 140H473.597V89.5998H459.125Z" fill="#FEC900"/>
<path d="M502.802 140.864C509.858 140.864 513.746 138.704 516.194 134.888V140H527.066V110.768H497.762V121.208H512.954C512.954 124.592 508.922 126.824 504.242 126.824C495.458 126.824 494.018 120.2 494.018 114.656C494.018 109.112 495.386 102.776 504.242 102.776C508.922 102.776 512.09 105.44 513.098 108.608L526.85 106.088C524.834 93.5598 516.05 88.7358 504.242 88.7358C489.122 88.7358 479.546 97.7358 479.546 114.656C479.546 131.576 488.762 140.864 502.802 140.864Z" fill="#FEC900"/>
<path d="M554.27 140.864C568.958 140.864 577.094 135.68 577.094 123.08C577.094 102.848 548.654 110.408 548.654 104.144C548.654 102.2 551.39 101.336 553.838 101.336C557.51 101.336 560.534 102.488 561.974 106.448L575.798 104.072C575.798 95.5038 567.662 88.7358 554.558 88.7358C542.534 88.7358 534.182 94.0638 534.182 104.144C533.822 125.6 562.622 116.096 562.622 123.728C562.622 126.032 559.814 128.264 555.71 128.264C548.51 128.264 546.638 125.168 546.638 120.128L532.598 122.216C532.598 132.656 540.302 140.864 554.27 140.864Z" fill="#FEC900"/>
<path d="M620.647 141.008C635.767 141.008 644.623 131 644.623 114.8C644.623 98.5998 635.767 88.5918 620.647 88.5918C605.455 88.5918 596.599 98.5998 596.599 114.8C596.599 131 605.455 141.008 620.647 141.008ZM620.647 126.968C612.727 126.968 611.071 120.344 611.071 114.8C611.071 109.256 612.727 102.632 620.647 102.632C628.567 102.632 630.151 109.256 630.151 114.8C630.151 120.344 628.567 126.968 620.647 126.968Z" fill="#FEC900"/>
<path d="M676.954 89.5998V111.632L664.282 89.5998H649.81V140H664.282V118.76L676.954 140H691.426V89.5998H676.954Z" fill="#FEC900"/>
<path d="M116.349 228H130.821V191.64H144.717V177.6H102.525V191.64H116.349V228Z" fill="#FEC900"/>
<path d="M147.427 228H161.899V209.424H175.939V228H190.411V177.6H175.939V195.384H161.899V177.6H147.427V228Z" fill="#FEC900"/>
<path d="M197.208 228H234.432V213.96H211.68V209.424H233.64V195.384H211.68V191.64H234.432V177.6H197.208V228Z" fill="#FEC900"/>
<path d="M257.747 228H272.219V177.6H257.747V228Z" fill="#FEC900"/>
<path d="M306.196 177.6V199.632L293.524 177.6H279.052V228H293.524V206.76L306.196 228H320.668V177.6H306.196Z" fill="#FEC900"/>
<path d="M337.2 228H351.672V191.64H365.568V177.6H323.376V191.64H337.2V228Z" fill="#FEC900"/>
<path d="M368.278 228H405.502V213.96H382.75V209.424H404.71V195.384H382.75V191.64H405.502V177.6H368.278V228Z" fill="#FEC900"/>
<path d="M454.873 228L445.585 208.128C449.545 205.824 452.497 201.648 452.497 194.088C452.497 179.616 441.337 177.6 432.913 177.6H411.169V228H425.641V210.864H431.329L439.465 228H454.873ZM425.641 190.92H431.401C434.929 190.92 438.745 190.704 438.745 194.088C438.745 197.544 435.793 197.544 431.401 197.544H425.641V190.92Z" fill="#FEC900"/>
<path d="M485.352 177.6V199.632L472.68 177.6H458.208V228H472.68V206.76L485.352 228H499.824V177.6H485.352Z" fill="#FEC900"/>
<path d="M506.653 228H543.877V213.96H521.125V209.424H543.085V195.384H521.125V191.64H543.877V177.6H506.653V228Z" fill="#FEC900"/>
<path d="M561.075 228H575.547V191.64H589.443V177.6H547.251V191.64H561.075V228Z" fill="#FEC900"/>
</svg>
