<?xml version="1.0" encoding="utf-8"?>
<!-- Generator: Adobe Illustrator 19.2.1, SVG Export Plug-In . SVG Version: 6.00 Build 0)  -->
<svg version="1.1" id="Layer_1" xmlns="http://www.w3.org/2000/svg" xmlns:xlink="http://www.w3.org/1999/xlink" x="0px" y="0px"
	 viewBox="0 0 1000 500" style="enable-background:new 0 0 1000 500;" xml:space="preserve">
<style type="text/css">
	.st0{fill:#484848;}
	.st1{fill:#0B7DB8;}
</style>
<g>
	<g>
		<g>
			<g>
				<g>
					<path class="st0" d="M97.3,73.6H84.2c-0.8,0-1.5-0.7-1.5-1.5s0.7-1.5,1.5-1.5h13.1c0.8,0,1.5,0.7,1.5,1.5S98.1,73.6,97.3,73.6z
						"/>
				</g>
			</g>
			<g>
				<path class="st0" d="M114.3,161.4H67.2c-1.6,0-2.9-1.3-2.9-2.9v-49.2c0-0.8,0.7-1.5,1.5-1.5s1.5,0.7,1.5,1.5v49h46.8V67H67.4
					v29.8c0,0.8-0.7,1.5-1.5,1.5s-1.5-0.7-1.5-1.5v-30c0-1.6,1.3-2.9,2.9-2.9h47.1c1.6,0,2.9,1.3,2.9,2.9v91.6
					C117.2,160.1,115.9,161.4,114.3,161.4z"/>
			</g>
			<g>
				<circle class="st0" cx="90.8" cy="153.3" r="1.6"/>
			</g>
			<g>
				<path class="st0" d="M109.1,80.1H65.9c-0.8,0-1.5-0.7-1.5-1.5s0.7-1.5,1.5-1.5h43.2c0.8,0,1.5,0.7,1.5,1.5
					S109.9,80.1,109.1,80.1z"/>
			</g>
			<g>
				<path class="st0" d="M115.7,148.3H65.9c-0.8,0-1.5-0.7-1.5-1.5s0.7-1.5,1.5-1.5h49.8c0.8,0,1.5,0.7,1.5,1.5
					S116.5,148.3,115.7,148.3z"/>
			</g>
			<g>
				<rect x="77.5" y="124.3" class="st1" width="26.5" height="3"/>
			</g>
			<g>
				<rect x="77.5" y="130.8" class="st1" width="26.5" height="3"/>
			</g>
			<g>
				<path class="st1" d="M91.3,112.7c-0.3,0-0.7-0.1-1-0.3l-4.2-3.5c-0.6-0.5-0.7-1.5-0.2-2.1c0.5-0.6,1.5-0.7,2.1-0.2l3.1,2.6
					l8.5-9.2c0.3-0.3,0.7-0.5,1.1-0.5c0.4,0,0.8,0.2,1.1,0.5l5,5.3c0.6,0.6,0.5,1.6-0.1,2.1c-0.6,0.6-1.6,0.5-2.1-0.1l-3.9-4.1
					l-8.4,9C92.1,112.5,91.7,112.7,91.3,112.7z"/>
			</g>
			<g>
				<path class="st1" d="M76.4,112.7c-0.4,0-0.7-0.1-1-0.4c-0.6-0.6-0.7-1.5-0.1-2.1l2.1-2.3c0.6-0.6,1.5-0.7,2.1-0.1
					c0.6,0.6,0.7,1.5,0.1,2.1l-2.1,2.3C77.3,112.5,76.9,112.7,76.4,112.7z"/>
			</g>
			<g>
				<polygon class="st1" points="107.3,118.3 74.3,118.3 74.3,108.9 77.3,108.9 77.3,115.3 104.3,115.3 104.3,94.7 77.3,94.7 
					77.3,96.8 74.3,96.8 74.3,91.7 107.3,91.7 				"/>
			</g>
		</g>
		<g>
			<g>
				<path class="st0" d="M280.9,253.8c-15.8,0-28.6-12.8-28.6-28.6s12.8-28.6,28.6-28.6s28.6,12.8,28.6,28.6
					S296.6,253.8,280.9,253.8z M280.9,199.6c-14.1,0-25.6,11.5-25.6,25.6s11.5,25.6,25.6,25.6s25.6-11.5,25.6-25.6
					S295,199.6,280.9,199.6z"/>
			</g>
			<g>
				<g>
					<path class="st0" d="M278.8,236c-0.4,0-0.8-0.1-1.1-0.4l-9.5-9.5c-0.6-0.6-0.6-1.5,0-2.1s1.5-0.6,2.1,0l9.5,9.5
						c0.6,0.6,0.6,1.5,0,2.1C279.6,235.8,279.2,236,278.8,236z"/>
				</g>
				<g>
					<path class="st0" d="M279,235.7c-0.4,0-0.7-0.1-1-0.4c-0.6-0.6-0.6-1.5,0-2.1l17.6-18.3c0.6-0.6,1.5-0.6,2.1,0
						c0.6,0.6,0.6,1.5,0,2.1L280,235.2C279.8,235.5,279.4,235.7,279,235.7z"/>
				</g>
			</g>
		</g>
		<g>
			<g>
				<path class="st0" d="M75.6,455.9c-0.7,0-2.1-0.3-3.2-2c-1.1-1.8-1.9-5.5-1.3-7.5c-0.2-0.6-1-1.9-1.3-2.4c-0.3-0.5-0.7-1.1-1-1.6
					c-0.3,0-0.8,0.2-1.2,0.3c-0.7,0.2-1.5,0.4-2.3,0.5c-0.1,0-0.2,0-0.2,0c-0.6,0-2.1-0.2-3.1-2.1c-1.3-2.6-1.1-7.7,1.1-10.7
					c1.5-2,4-3.2,6.8-3.2c0.9,0,3.1,0.1,4.3,1.4c0.3,0.4,0.8,0.8,1.2,1.2c0.8,0,1.9,0,2.6,0c1.1,0,2.2,0.5,3.1,1.4
					c1,1.1,1.5,2.5,1.4,4c0.4,0.4,1.5,1,2.3,1.2c1.2,0.3,2.1,1.2,2.3,2.4c0.4,2-1.1,4-2.7,5.2c-0.3,0.2-0.5,1.3-0.6,2
					c-0.1,0.8-0.3,1.8-0.7,2.6c-0.9,2-2,3.7-5,6.2C77.3,455.6,76.4,455.9,75.6,455.9z M68.9,439.4c1.1,0,1.9,0.5,2.4,1.4
					c0.3,0.5,0.6,1.1,1,1.6c1.5,2.5,2.2,3.7,1.7,4.8c-0.3,0.7,0.1,3.6,1,5c0.1,0.2,0.4,0.6,0.7,0.6c0.2,0,0.4-0.1,0.5-0.3
					c2.6-2.1,3.4-3.4,4.2-5.1c0.2-0.5,0.4-1.2,0.5-1.9c0.2-1.4,0.5-3,1.8-3.9c1-0.8,1.6-1.8,1.5-2.2c0,0,0,0-0.1-0.1c0,0,0,0,0,0
					c-0.8-0.2-4.9-1.7-4.6-4.1c0.1-0.7-0.2-1.5-0.6-2c-0.3-0.3-0.6-0.4-0.8-0.4c-0.9,0-2.2,0-2.9,0l-0.3,0c0,0,0,0,0,0
					c-0.4,0-0.7-0.1-1-0.4c-0.4-0.4-1.2-1.2-1.8-1.8c-0.2-0.2-1-0.4-2.1-0.4c-1.8,0-3.4,0.7-4.3,2c-1.5,2-1.7,5.9-0.8,7.5
					c0.2,0.3,0.3,0.4,0.4,0.4c0.5,0,1.1-0.2,1.6-0.4C67.4,439.7,68.2,439.4,68.9,439.4z M71.2,446C71.2,446,71.2,446,71.2,446
					C71.2,446,71.2,446,71.2,446z"/>
			</g>
			<g>
				<path class="st0" d="M98.7,430.3c-0.5,0-0.9-0.2-1.2-0.6c-0.6-0.8-3-2.2-7.4-4.2l-0.7-0.3c-0.7-0.3-2.8-0.2-4.2-0.1
					c-1.2,0.1-2.2,0.1-2.9,0c-0.9-0.1-1.6-0.6-2.4-1c-0.8-0.5-1.5-0.9-2.3-0.8c-0.6,0.1-1.1,0.4-1.7,0.7c-0.9,0.5-2,1.2-3.8,1.1
					c-1.8-0.1-2.4-1.2-2.6-1.7c-0.6-1.7,0.8-3.8,1.8-4.7c1.5-1.4,5.2-3.4,7.7-3.2c0.2,0,0.5-0.4,1-1c0.6-0.9,1.5-2,2.9-2.5
					c2.5-0.9,7.2,0.9,8.1,1.2c0.8,0.3,1.2,1.2,0.8,1.9c-0.3,0.8-1.2,1.2-1.9,0.8c-1.8-0.7-4.9-1.6-6-1.2c-0.5,0.2-1,0.8-1.4,1.5
					c-0.7,1-1.8,2.5-3.7,2.3c-1.4-0.1-4.2,1.2-5.4,2.4c-0.4,0.4-0.7,0.8-0.9,1.2c0.7,0,1.1-0.3,1.8-0.7c0.7-0.4,1.6-1,2.9-1.1
					c1.7-0.2,3.1,0.6,4.2,1.2c0.5,0.3,1,0.6,1.3,0.6c0.4,0.1,1.4,0,2.3-0.1c2.1-0.1,4.3-0.3,5.7,0.4l0.7,0.3c4.4,2,7.5,3.7,8.6,5.1
					c0.5,0.7,0.3,1.6-0.3,2.1C99.3,430.2,99,430.3,98.7,430.3z"/>
			</g>
			<g>
				<path class="st0" d="M56.6,457.8c-0.1,0-0.2,0-0.4,0c-0.8-0.2-1.3-1-1.1-1.8c0.3-1.3,0.5-2.8,0.4-3.4c-2-1.3-2.9-3.1-2.7-5.1
					c0-0.3-0.3-0.5-1.4-1.1c-0.6-0.3-1.1-0.6-1.6-1c-1.1-1-4.5-3.4-4.5-3.5c-0.7-0.5-0.8-1.4-0.3-2.1c0.5-0.7,1.4-0.8,2.1-0.3
					c0.1,0.1,3.5,2.6,4.7,3.6c0.2,0.2,0.6,0.4,1,0.6c1.3,0.6,3.3,1.7,3,4.2c0,0.3-0.2,1.3,1.5,2.4c1.7,1.1,1.3,4.1,0.7,6.5
					C57.9,457.4,57.3,457.8,56.6,457.8z"/>
			</g>
			<g>
				<path class="st0" d="M47.8,425.1c-0.6,0-1.1-0.3-1.4-0.9c-0.3-0.8,0-1.6,0.8-2c0.9-0.4,3.3-1.5,4.3-2.1c1-0.7,2.2-0.5,3.2-0.4
					c0.2,0,0.4,0.1,0.6,0.1c0.3-1.6,1.6-3,2.8-4.3c0.5-0.5,1-1,1.3-1.5c1-1.3,2.3-3.6,3.1-5c0.2-0.4,0.4-0.7,0.6-0.9
					c0.4-0.7,1.4-0.9,2.1-0.5c0.7,0.4,0.9,1.4,0.5,2.1c-0.1,0.2-0.3,0.5-0.5,0.9c-0.9,1.5-2.3,3.9-3.4,5.3c-0.4,0.6-1,1.1-1.5,1.7
					c-0.8,0.9-2.1,2.2-2.1,2.9c-0.1,1-0.5,1.6-0.9,1.9c-0.9,0.7-2.1,0.6-3,0.4c-0.4-0.1-1-0.1-1.2-0.1c-1.4,0.9-4.5,2.3-4.7,2.4
					C48.2,425.1,48,425.1,47.8,425.1z"/>
			</g>
			<g>
				<path class="st0" d="M72.4,463.1c-15.8,0-28.6-12.8-28.6-28.6s12.8-28.6,28.6-28.6c15.8,0,28.6,12.8,28.6,28.6
					S88.1,463.1,72.4,463.1z M72.4,408.9c-14.1,0-25.6,11.5-25.6,25.6s11.5,25.6,25.6,25.6c14.1,0,25.6-11.5,25.6-25.6
					S86.5,408.9,72.4,408.9z"/>
			</g>
		</g>
		<g>
			<path class="st0" d="M83.5,110.4H61.8c-0.8,0-1.5-0.7-1.5-1.5s0.7-1.5,1.5-1.5h21.7c2.7,0,4.8-2.2,4.8-4.8c0-2.3-1.9-4.2-4.2-4.2
				H61.8c-0.8,0-1.5-0.7-1.5-1.5s0.7-1.5,1.5-1.5h22.3c4,0,7.2,3.2,7.2,7.2C91.3,106.9,87.8,110.4,83.5,110.4z"/>
		</g>
		<g>
			<path class="st0" d="M118.4,104.4h-1.7c-0.8,0-1.5-0.7-1.5-1.5s0.7-1.5,1.5-1.5h1.7c2.7,0,4.8-2.2,4.8-4.8c0-2.3-1.9-4.2-4.2-4.2
				h-2.3c-0.8,0-1.5-0.7-1.5-1.5s0.7-1.5,1.5-1.5h2.3c4,0,7.2,3.2,7.2,7.2C126.2,100.8,122.7,104.4,118.4,104.4z"/>
		</g>
		<g>
			<path class="st0" d="M118.4,116.4h-1.7c-0.8,0-1.5-0.7-1.5-1.5s0.7-1.5,1.5-1.5h1.7c2.7,0,4.8-2.2,4.8-4.8c0-2.3-1.9-4.2-4.2-4.2
				h-2.3c-0.8,0-1.5-0.7-1.5-1.5s0.7-1.5,1.5-1.5h2.3c4,0,7.2,3.2,7.2,7.2C126.2,112.9,122.7,116.4,118.4,116.4z"/>
		</g>
		<g>
			<path class="st0" d="M118.4,128.5h-1.7c-0.8,0-1.5-0.7-1.5-1.5s0.7-1.5,1.5-1.5h1.7c2.7,0,4.8-2.2,4.8-4.8c0-2.3-1.9-4.2-4.2-4.2
				h-2.3c-0.8,0-1.5-0.7-1.5-1.5s0.7-1.5,1.5-1.5h2.3c4,0,7.2,3.2,7.2,7.2C126.2,124.9,122.7,128.5,118.4,128.5z"/>
		</g>
		<g>
			<path class="st0" d="M118.4,140.5h-1.7c-0.8,0-1.5-0.7-1.5-1.5s0.7-1.5,1.5-1.5h1.7c2.7,0,4.8-2.2,4.8-4.8c0-2.3-1.9-4.2-4.2-4.2
				h-2.3c-0.8,0-1.5-0.7-1.5-1.5s0.7-1.5,1.5-1.5h2.3c4,0,7.2,3.2,7.2,7.2C126.2,137,122.7,140.5,118.4,140.5z"/>
		</g>
		<g>
			<path class="st0" d="M52.1,120.1c-0.8,0-1.5-0.7-1.5-1.5s0.7-1.5,1.5-1.5c4.5,0,8.2-3.7,8.2-8.2c0-0.8,0.7-1.5,1.5-1.5
				s1.5,0.7,1.5,1.5C63.3,115.1,58.3,120.1,52.1,120.1z"/>
		</g>
		<g>
			<path class="st0" d="M27.6,127.2c-0.8,0-1.5-0.7-1.5-1.5c0-21.9,17.8-39.7,39.7-39.7c0.8,0,1.5,0.7,1.5,1.5S66.6,89,65.8,89
				c-20.2,0-36.7,16.5-36.7,36.7C29.1,126.5,28.4,127.2,27.6,127.2z"/>
		</g>
		<g>
			<g>
				<path class="st0" d="M182,380.8h-13.6c-0.8,0-1.5-0.7-1.5-1.5s0.7-1.5,1.5-1.5H182c0.8,0,1.5,0.7,1.5,1.5S182.8,380.8,182,380.8
					z"/>
			</g>
			<g>
				<path class="st0" d="M182,387.6h-13.6c-0.8,0-1.5-0.7-1.5-1.5s0.7-1.5,1.5-1.5H182c0.8,0,1.5,0.7,1.5,1.5S182.8,387.6,182,387.6
					z"/>
			</g>
			<g>
				<path class="st0" d="M182,394.3h-13.6c-0.8,0-1.5-0.7-1.5-1.5s0.7-1.5,1.5-1.5H182c0.8,0,1.5,0.7,1.5,1.5S182.8,394.3,182,394.3
					z"/>
			</g>
		</g>
		<g>
			<g>
				<path class="st0" d="M69.4,228.3H55.8c-0.8,0-1.5-0.7-1.5-1.5s0.7-1.5,1.5-1.5h13.6c0.8,0,1.5,0.7,1.5,1.5
					S70.2,228.3,69.4,228.3z"/>
			</g>
			<g>
				<path class="st0" d="M69.4,235.1H55.8c-0.8,0-1.5-0.7-1.5-1.5s0.7-1.5,1.5-1.5h13.6c0.8,0,1.5,0.7,1.5,1.5
					S70.2,235.1,69.4,235.1z"/>
			</g>
			<g>
				<path class="st0" d="M69.4,241.9H55.8c-0.8,0-1.5-0.7-1.5-1.5s0.7-1.5,1.5-1.5h13.6c0.8,0,1.5,0.7,1.5,1.5
					S70.2,241.9,69.4,241.9z"/>
			</g>
		</g>
		<g>
			<g>
				<path class="st0" d="M389.2,326.7h-13.6c-0.8,0-1.5-0.7-1.5-1.5s0.7-1.5,1.5-1.5h13.6c0.8,0,1.5,0.7,1.5,1.5
					S390,326.7,389.2,326.7z"/>
			</g>
			<g>
				<path class="st0" d="M389.2,333.5h-13.6c-0.8,0-1.5-0.7-1.5-1.5s0.7-1.5,1.5-1.5h13.6c0.8,0,1.5,0.7,1.5,1.5
					S390,333.5,389.2,333.5z"/>
			</g>
			<g>
				<path class="st0" d="M389.2,340.3h-13.6c-0.8,0-1.5-0.7-1.5-1.5s0.7-1.5,1.5-1.5h13.6c0.8,0,1.5,0.7,1.5,1.5
					S390,340.3,389.2,340.3z"/>
			</g>
		</g>
		<g>
			<g>
				<path class="st0" d="M336.4,119.4h-13.6c-0.8,0-1.5-0.7-1.5-1.5s0.7-1.5,1.5-1.5h13.6c0.8,0,1.5,0.7,1.5,1.5
					S337.3,119.4,336.4,119.4z"/>
			</g>
			<g>
				<path class="st0" d="M336.4,126.2h-13.6c-0.8,0-1.5-0.7-1.5-1.5s0.7-1.5,1.5-1.5h13.6c0.8,0,1.5,0.7,1.5,1.5
					S337.3,126.2,336.4,126.2z"/>
			</g>
			<g>
				<path class="st0" d="M336.4,133h-13.6c-0.8,0-1.5-0.7-1.5-1.5s0.7-1.5,1.5-1.5h13.6c0.8,0,1.5,0.7,1.5,1.5S337.3,133,336.4,133z
					"/>
			</g>
		</g>
		<g>
			<g>
				<g>
					<g>
						<path class="st0" d="M265.4,367.2h-13.1c-0.8,0-1.5-0.7-1.5-1.5s0.7-1.5,1.5-1.5h13.1c0.8,0,1.5,0.7,1.5,1.5
							S266.3,367.2,265.4,367.2z"/>
					</g>
				</g>
				<g>
					<path class="st0" d="M282.4,455h-47.1c-1.6,0-2.9-1.3-2.9-2.9v-91.6c0-1.6,1.3-2.9,2.9-2.9h47.1c1.6,0,2.9,1.3,2.9,2.9v38.4
						c0,0.8-0.7,1.5-1.5,1.5s-1.5-0.7-1.5-1.5v-38.2h-46.8V452h46.8v-24.4c0-0.8,0.7-1.5,1.5-1.5s1.5,0.7,1.5,1.5v24.5
						C285.3,453.7,284,455,282.4,455z"/>
				</g>
				<g>
					<circle class="st0" cx="258.9" cy="446.9" r="1.6"/>
				</g>
				<g>
					<path class="st1" d="M258.9,406.5c-4.4,0-7.9-3.6-7.9-7.9s3.6-7.9,7.9-7.9s7.9,3.6,7.9,7.9S263.3,406.5,258.9,406.5z
						 M258.9,393.6c-2.7,0-4.9,2.2-4.9,4.9c0,2.7,2.2,4.9,4.9,4.9c2.7,0,4.9-2.2,4.9-4.9C263.8,395.9,261.6,393.6,258.9,393.6z"/>
				</g>
				<g>
					<path class="st0" d="M277.2,373.7H234c-0.8,0-1.5-0.7-1.5-1.5s0.7-1.5,1.5-1.5h43.2c0.8,0,1.5,0.7,1.5,1.5
						S278.1,373.7,277.2,373.7z"/>
				</g>
				<g>
					<path class="st0" d="M283.8,441.9H234c-0.8,0-1.5-0.7-1.5-1.5s0.7-1.5,1.5-1.5h49.8c0.8,0,1.5,0.7,1.5,1.5
						S284.6,441.9,283.8,441.9z"/>
				</g>
				<g>
					<path class="st1" d="M273.7,413.3h-29.5v-29.5h29.5V413.3z M247.1,410.3h23.5v-23.5h-23.5V410.3z"/>
				</g>
				<g>
					<rect x="245.6" y="417.9" class="st1" width="26.5" height="3"/>
				</g>
				<g>
					<rect x="245.6" y="424.4" class="st1" width="26.5" height="3"/>
				</g>
			</g>
			<g>
				<path class="st0" d="M283.8,429.1c-0.7,0-1.3-0.5-1.5-1.1l-5.4-21.6c-1-3.9,1.4-7.8,5.2-8.7c4.2-1.1,8.5,1.5,9.5,5.7l5.3,21
					c0.2,0.8-0.3,1.6-1.1,1.8c-0.8,0.2-1.6-0.3-1.8-1.1l-5.3-21c-0.6-2.6-3.3-4.2-5.9-3.5c-2.3,0.6-3.6,2.9-3.1,5.1l5.4,21.6
					c0.2,0.8-0.3,1.6-1.1,1.8C284,429.1,283.9,429.1,283.8,429.1z"/>
			</g>
			<g>
				<path class="st0" d="M233.4,448.2H231c-4,0-7.2-3.2-7.2-7.2c0-4.3,3.5-7.8,7.8-7.8h1.7c0.8,0,1.5,0.7,1.5,1.5s-0.7,1.5-1.5,1.5
					h-1.7c-2.7,0-4.8,2.2-4.8,4.8c0,2.3,1.9,4.2,4.2,4.2h2.3c0.8,0,1.5,0.7,1.5,1.5S234.2,448.2,233.4,448.2z"/>
			</g>
			<g>
				<path class="st0" d="M233.4,436.2H231c-4,0-7.2-3.2-7.2-7.2c0-4.3,3.5-7.8,7.8-7.8h1.7c0.8,0,1.5,0.7,1.5,1.5s-0.7,1.5-1.5,1.5
					h-1.7c-2.7,0-4.8,2.2-4.8,4.8c0,2.3,1.9,4.2,4.2,4.2h2.3c0.8,0,1.5,0.7,1.5,1.5S234.2,436.2,233.4,436.2z"/>
			</g>
			<g>
				<path class="st0" d="M233.4,424.1H231c-4,0-7.2-3.2-7.2-7.2c0-4.3,3.5-7.8,7.8-7.8h1.7c0.8,0,1.5,0.7,1.5,1.5s-0.7,1.5-1.5,1.5
					h-1.7c-2.7,0-4.8,2.2-4.8,4.8c0,2.3,1.9,4.2,4.2,4.2h2.3c0.8,0,1.5,0.7,1.5,1.5S234.2,424.1,233.4,424.1z"/>
			</g>
			<g>
				<path class="st0" d="M233.4,412.1H231c-4,0-7.2-3.2-7.2-7.2c0-4.3,3.5-7.8,7.8-7.8h1.7c0.8,0,1.5,0.7,1.5,1.5s-0.7,1.5-1.5,1.5
					h-1.7c-2.7,0-4.8,2.2-4.8,4.8c0,2.3,1.9,4.2,4.2,4.2h2.3c0.8,0,1.5,0.7,1.5,1.5S234.2,412.1,233.4,412.1z"/>
			</g>
			<g>
				<path class="st0" d="M279.9,469.6c-0.2,0-0.5-0.1-0.7-0.2l-25.7-14c-0.7-0.4-1-1.3-0.6-2s1.3-1,2-0.6l25.7,14
					c0.7,0.4,1,1.3,0.6,2C280.9,469.4,280.4,469.6,279.9,469.6z"/>
			</g>
			<g>
				<path class="st1" d="M258.5,335.7c-0.8,0-1.5-0.7-1.5-1.5v-11.3c0-0.8,0.7-1.5,1.5-1.5s1.5,0.7,1.5,1.5v11.3
					C260,335.1,259.3,335.7,258.5,335.7z"/>
			</g>
			<g>
				<path class="st1" d="M243.5,342.9c-0.4,0-0.9-0.2-1.2-0.6l-7.2-8.9c-0.5-0.6-0.4-1.6,0.2-2.1c0.6-0.5,1.6-0.4,2.1,0.2l7.2,8.9
					c0.5,0.6,0.4,1.6-0.2,2.1C244.2,342.8,243.8,342.9,243.5,342.9z"/>
			</g>
			<g>
				<path class="st1" d="M275,343.6c-0.3,0-0.7-0.1-0.9-0.3c-0.6-0.5-0.7-1.5-0.2-2.1l6.5-8c0.5-0.6,1.5-0.7,2.1-0.2
					c0.6,0.5,0.7,1.5,0.2,2.1l-6.5,8C275.9,343.4,275.4,343.6,275,343.6z"/>
			</g>
		</g>
		<g>
			<path class="st1" d="M90.8,44.8c-0.8,0-1.5-0.7-1.5-1.5V32c0-0.8,0.7-1.5,1.5-1.5s1.5,0.7,1.5,1.5v11.3
				C92.3,44.1,91.6,44.8,90.8,44.8z"/>
		</g>
		<g>
			<path class="st1" d="M75.8,52c-0.4,0-0.9-0.2-1.2-0.6l-7.2-8.9c-0.5-0.6-0.4-1.6,0.2-2.1s1.6-0.4,2.1,0.2l7.2,8.9
				c0.5,0.6,0.4,1.6-0.2,2.1C76.5,51.9,76.1,52,75.8,52z"/>
		</g>
		<g>
			<path class="st1" d="M107.3,52.7c-0.3,0-0.7-0.1-0.9-0.3c-0.6-0.5-0.7-1.5-0.2-2.1l6.5-8c0.5-0.6,1.5-0.7,2.1-0.2
				c0.6,0.5,0.7,1.5,0.2,2.1l-6.5,8C108.2,52.5,107.7,52.7,107.3,52.7z"/>
		</g>
		<g>
			<g>
				<g>
					<path class="st0" d="M236.7,73.5c-0.6,0-1.2-0.4-1.4-0.9c-0.5-1.4-0.8-2.9-0.8-4.4c0-6.5,5.3-11.9,11.9-11.9
						c1.7,0,3.4,0.4,5,1.1c0.8,0.3,1.1,1.2,0.7,2c-0.3,0.8-1.2,1.1-2,0.7c-1.2-0.5-2.4-0.8-3.7-0.8c-4.9,0-8.9,4-8.9,8.9
						c0,1.1,0.2,2.2,0.6,3.3c0.3,0.8-0.1,1.6-0.8,1.9C237,73.5,236.8,73.5,236.7,73.5z"/>
				</g>
				<g>
					<path class="st0" d="M247.4,81.7c-3.6,0-7-1.6-9.3-4.5c-0.5-0.6-0.4-1.6,0.2-2.1c0.6-0.5,1.6-0.4,2.1,0.2
						c1.7,2.1,4.2,3.4,7,3.4c4.9,0,8.9-4,8.9-8.9c0-2.5-1.1-4.9-2.9-6.6c-0.6-0.6-0.7-1.5-0.1-2.1c0.6-0.6,1.5-0.7,2.1-0.1
						c2.5,2.2,3.9,5.5,3.9,8.8C259.2,76.4,253.9,81.7,247.4,81.7z"/>
				</g>
				<g>
					<path class="st0" d="M236.8,74.3c-0.3,0-0.6-0.1-0.8-0.2l-3.7-2.4c-0.7-0.5-0.9-1.4-0.4-2.1c0.5-0.7,1.4-0.9,2.1-0.4l2.4,1.6
						l1.5-2.5c0.4-0.7,1.4-0.9,2.1-0.5c0.7,0.4,0.9,1.4,0.5,2.1l-2.4,3.8c-0.2,0.3-0.6,0.6-0.9,0.7C237.1,74.3,237,74.3,236.8,74.3z
						"/>
				</g>
				<g>
					<path class="st0" d="M253.4,67.4c-0.1,0-0.2,0-0.3,0c-0.8-0.2-1.3-1-1.1-1.8l0.9-4.3c0.1-0.4,0.3-0.7,0.7-0.9
						c0.3-0.2,0.8-0.3,1.1-0.2l4.3,1c0.8,0.2,1.3,1,1.1,1.8c-0.2,0.8-1,1.3-1.8,1.1l-2.8-0.7l-0.6,2.8
						C254.7,66.9,254.1,67.4,253.4,67.4z"/>
				</g>
			</g>
		</g>
		<g>
			<g>
				<g>
					<path class="st0" d="M339.6,408.9c-0.6,0-1.2-0.4-1.4-0.9c-0.5-1.4-0.8-2.9-0.8-4.4c0-6.5,5.3-11.9,11.9-11.9
						c1.7,0,3.4,0.4,5,1.1c0.8,0.3,1.1,1.2,0.7,2c-0.3,0.8-1.2,1.1-2,0.7c-1.2-0.5-2.4-0.8-3.7-0.8c-4.9,0-8.9,4-8.9,8.9
						c0,1.1,0.2,2.2,0.6,3.3c0.3,0.8-0.1,1.6-0.8,1.9C340,408.9,339.8,408.9,339.6,408.9z"/>
				</g>
				<g>
					<path class="st0" d="M350.4,417.1c-3.6,0-7-1.6-9.3-4.5c-0.5-0.6-0.4-1.6,0.2-2.1c0.6-0.5,1.6-0.4,2.1,0.2
						c1.7,2.1,4.2,3.4,7,3.4c4.9,0,8.9-4,8.9-8.9c0-2.5-1.1-4.9-2.9-6.6c-0.6-0.6-0.7-1.5-0.1-2.1c0.6-0.6,1.5-0.7,2.1-0.1
						c2.5,2.2,3.9,5.5,3.9,8.8C362.2,411.8,356.9,417.1,350.4,417.1z"/>
				</g>
				<g>
					<path class="st0" d="M339.8,409.7c-0.3,0-0.6-0.1-0.8-0.2l-3.7-2.4c-0.7-0.5-0.9-1.4-0.4-2.1c0.5-0.7,1.4-0.9,2.1-0.4l2.4,1.6
						l1.5-2.5c0.4-0.7,1.4-0.9,2.1-0.5c0.7,0.4,0.9,1.4,0.5,2.1l-2.4,3.8c-0.2,0.3-0.6,0.6-0.9,0.7
						C340.1,409.7,339.9,409.7,339.8,409.7z"/>
				</g>
				<g>
					<path class="st0" d="M356.4,402.8c-0.1,0-0.2,0-0.3,0c-0.8-0.2-1.3-1-1.1-1.8l0.9-4.3c0.1-0.4,0.3-0.7,0.7-0.9s0.8-0.3,1.1-0.2
						l4.3,1c0.8,0.2,1.3,1,1.1,1.8c-0.2,0.8-1,1.3-1.8,1.1l-2.8-0.7l-0.6,2.8C357.7,402.3,357.1,402.8,356.4,402.8z"/>
				</g>
			</g>
		</g>
		<g>
			<g>
				<g>
					<path class="st0" d="M86.9,316.1c-0.6,0-1.2-0.4-1.4-0.9c-0.5-1.4-0.8-2.9-0.8-4.4c0-6.5,5.3-11.9,11.9-11.9
						c1.7,0,3.4,0.4,5,1.1c0.8,0.3,1.1,1.2,0.7,2c-0.3,0.8-1.2,1.1-2,0.7c-1.2-0.5-2.4-0.8-3.7-0.8c-4.9,0-8.9,4-8.9,8.9
						c0,1.1,0.2,2.2,0.6,3.3c0.3,0.8-0.1,1.6-0.8,1.9C87.3,316.1,87.1,316.1,86.9,316.1z"/>
				</g>
				<g>
					<path class="st0" d="M97.6,324.3c-3.6,0-7-1.6-9.3-4.5c-0.5-0.6-0.4-1.6,0.2-2.1c0.6-0.5,1.6-0.4,2.1,0.2
						c1.7,2.1,4.2,3.4,7,3.4c4.9,0,8.9-4,8.9-8.9c0-2.5-1.1-4.9-2.9-6.6c-0.6-0.6-0.7-1.5-0.1-2.1c0.6-0.6,1.5-0.7,2.1-0.1
						c2.5,2.2,3.9,5.5,3.9,8.8C109.5,319,104.2,324.3,97.6,324.3z"/>
				</g>
				<g>
					<path class="st0" d="M87.1,316.9c-0.3,0-0.6-0.1-0.8-0.2l-3.7-2.4c-0.7-0.5-0.9-1.4-0.4-2.1c0.5-0.7,1.4-0.9,2.1-0.4l2.4,1.6
						l1.5-2.5c0.4-0.7,1.4-0.9,2.1-0.5c0.7,0.4,0.9,1.4,0.5,2.1l-2.4,3.8c-0.2,0.3-0.6,0.6-0.9,0.7
						C87.3,316.8,87.2,316.9,87.1,316.9z"/>
				</g>
				<g>
					<path class="st0" d="M103.7,310c-0.1,0-0.2,0-0.3,0c-0.8-0.2-1.3-1-1.1-1.8l0.9-4.3c0.1-0.4,0.3-0.7,0.7-0.9
						c0.3-0.2,0.8-0.3,1.1-0.2l4.3,1c0.8,0.2,1.3,1,1.1,1.8c-0.2,0.8-1,1.3-1.8,1.1l-2.8-0.7l-0.6,2.8
						C105,309.5,104.3,310,103.7,310z"/>
				</g>
			</g>
		</g>
		<g>
			<g>
				<g>
					<path class="st0" d="M415.1,189.4H402c-0.8,0-1.5-0.7-1.5-1.5s0.7-1.5,1.5-1.5h13.1c0.8,0,1.5,0.7,1.5,1.5
						S415.9,189.4,415.1,189.4z"/>
				</g>
			</g>
			<g>
				<path class="st0" d="M432.1,277.2H385c-1.6,0-2.9-1.3-2.9-2.9v-91.6c0-1.6,1.3-2.9,2.9-2.9h47.1c1.6,0,2.9,1.3,2.9,2.9v30
					c0,0.8-0.7,1.5-1.5,1.5s-1.5-0.7-1.5-1.5v-29.8h-46.8v91.4h46.8V225c0-0.8,0.7-1.5,1.5-1.5s1.5,0.7,1.5,1.5v49.3
					C434.9,276,433.6,277.2,432.1,277.2z"/>
			</g>
			<g>
				<circle class="st0" cx="408.5" cy="269.2" r="1.6"/>
			</g>
			<g>
				<path class="st0" d="M426.9,196h-43.2c-0.8,0-1.5-0.7-1.5-1.5s0.7-1.5,1.5-1.5h43.2c0.8,0,1.5,0.7,1.5,1.5S427.7,196,426.9,196z
					"/>
			</g>
			<g>
				<path class="st0" d="M433.4,264.1h-49.8c-0.8,0-1.5-0.7-1.5-1.5s0.7-1.5,1.5-1.5h49.8c0.8,0,1.5,0.7,1.5,1.5
					S434.3,264.1,433.4,264.1z"/>
			</g>
			<g>
				<rect x="395.3" y="240.2" class="st1" width="26.5" height="3"/>
			</g>
			<g>
				<rect x="395.3" y="246.7" class="st1" width="26.5" height="3"/>
			</g>
			<g>
				<polygon class="st1" points="425,234.1 392,234.1 392,207.6 425,207.6 425,212.7 422,212.7 422,210.6 395,210.6 395,231.1 
					422,231.1 422,225 425,225 				"/>
			</g>
			<g>
				<path class="st1" d="M402,229.9c-0.3,0-0.5-0.1-0.8-0.2c-0.5-0.3-0.8-0.8-0.8-1.3v-15.1c0-0.5,0.3-1,0.8-1.3s1-0.3,1.5,0
					l7.8,4.5c0.7,0.4,1,1.3,0.5,2c-0.4,0.7-1.3,1-2,0.5l-5.5-3.2v9.9l7.3-4.2c0.7-0.4,1.6-0.2,2,0.5c0.4,0.7,0.2,1.6-0.5,2l-9.6,5.5
					C402.5,229.8,402.3,229.9,402,229.9z"/>
			</g>
		</g>
		<g>
			<g>
				<path class="st0" d="M382.4,256.4h-2.3c-4,0-7.2-3.2-7.2-7.2c0-4.3,3.5-7.8,7.8-7.8h1.7c0.8,0,1.5,0.7,1.5,1.5s-0.7,1.5-1.5,1.5
					h-1.7c-2.7,0-4.8,2.2-4.8,4.8c0,2.3,1.9,4.2,4.2,4.2h2.3c0.8,0,1.5,0.7,1.5,1.5S383.2,256.4,382.4,256.4z"/>
			</g>
			<g>
				<path class="st0" d="M382.4,244.3h-2.3c-4,0-7.2-3.2-7.2-7.2c0-4.3,3.5-7.8,7.8-7.8h1.7c0.8,0,1.5,0.7,1.5,1.5s-0.7,1.5-1.5,1.5
					h-1.7c-2.7,0-4.8,2.2-4.8,4.8c0,2.3,1.9,4.2,4.2,4.2h2.3c0.8,0,1.5,0.7,1.5,1.5S383.2,244.3,382.4,244.3z"/>
			</g>
			<g>
				<path class="st0" d="M382.4,232.3h-2.3c-4,0-7.2-3.2-7.2-7.2c0-4.3,3.5-7.8,7.8-7.8h1.7c0.8,0,1.5,0.7,1.5,1.5s-0.7,1.5-1.5,1.5
					h-1.7c-2.7,0-4.8,2.2-4.8,4.8c0,2.3,1.9,4.2,4.2,4.2h2.3c0.8,0,1.5,0.7,1.5,1.5S383.2,232.3,382.4,232.3z"/>
			</g>
			<g>
				<path class="st0" d="M382.4,220.2h-2.3c-4,0-7.2-3.2-7.2-7.2c0-4.3,3.5-7.8,7.8-7.8h1.7c0.8,0,1.5,0.7,1.5,1.5s-0.7,1.5-1.5,1.5
					h-1.7c-2.7,0-4.8,2.2-4.8,4.8c0,2.3,1.9,4.2,4.2,4.2h2.3c0.8,0,1.5,0.7,1.5,1.5S383.2,220.2,382.4,220.2z"/>
			</g>
		</g>
		<g>
			<path class="st0" d="M437.8,226.3h-21.7c-4.3,0-7.8-3.5-7.8-7.8c0-4,3.2-7.2,7.2-7.2h22.3c0.8,0,1.5,0.7,1.5,1.5
				s-0.7,1.5-1.5,1.5h-22.3c-2.3,0-4.2,1.9-4.2,4.2c0,2.7,2.2,4.8,4.8,4.8h21.7c0.8,0,1.5,0.7,1.5,1.5S438.6,226.3,437.8,226.3z"/>
		</g>
		<g>
			<path class="st0" d="M447.5,236c-6.2,0-11.2-5-11.2-11.2c0-0.8,0.7-1.5,1.5-1.5s1.5,0.7,1.5,1.5c0,4.5,3.7,8.2,8.2,8.2
				c0.8,0,1.5,0.7,1.5,1.5S448.3,236,447.5,236z"/>
		</g>
		<g>
			<path class="st0" d="M472,243.1c-0.8,0-1.5-0.7-1.5-1.5c0-20.2-16.5-36.7-36.7-36.7c-0.8,0-1.5-0.7-1.5-1.5s0.7-1.5,1.5-1.5
				c21.9,0,39.7,17.8,39.7,39.7C473.5,242.4,472.8,243.1,472,243.1z"/>
		</g>
		<g>
			<path class="st1" d="M408.6,160.7c-0.8,0-1.5-0.7-1.5-1.5v-11.3c0-0.8,0.7-1.5,1.5-1.5s1.5,0.7,1.5,1.5v11.3
				C410.1,160,409.4,160.7,408.6,160.7z"/>
		</g>
		<g>
			<path class="st1" d="M393.6,167.9c-0.4,0-0.9-0.2-1.2-0.6l-7.2-8.9c-0.5-0.6-0.4-1.6,0.2-2.1c0.6-0.5,1.6-0.4,2.1,0.2l7.2,8.9
				c0.5,0.6,0.4,1.6-0.2,2.1C394.2,167.8,393.9,167.9,393.6,167.9z"/>
		</g>
		<g>
			<path class="st1" d="M425.1,168.5c-0.3,0-0.7-0.1-0.9-0.3c-0.6-0.5-0.7-1.5-0.2-2.1l6.5-8c0.5-0.6,1.5-0.7,2.1-0.2
				c0.6,0.5,0.7,1.5,0.2,2.1l-6.5,8C425.9,168.4,425.5,168.5,425.1,168.5z"/>
		</g>
		<g>
			<g>
				<path class="st0" d="M176,216.9c-0.6,0-1.2-0.4-1.4-1l-2.6-7.2c-2.6-2.6-4-6.1-4-9.7c0-3.7,1.4-7.2,4.1-9.8
					c2.6-2.6,6.1-4.1,9.8-4.1c0,0,0,0,0,0c3.7,0,7.2,1.4,9.8,4.1c2.6,2.6,4.1,6.1,4.1,9.8c0,3.7-1.4,7.1-4,9.7l-2.6,7.2l-2.8-1
					l2.7-7.6c0.1-0.2,0.2-0.4,0.4-0.6c2.1-2.1,3.3-4.9,3.3-7.8c0-2.9-1.1-5.7-3.2-7.7c-2.1-2.1-4.8-3.2-7.7-3.2c0,0,0,0,0,0
					c-2.9,0-5.7,1.1-7.7,3.2c-2.1,2.1-3.2,4.8-3.2,7.7c0,3,1.2,5.8,3.3,7.8c0.2,0.2,0.3,0.4,0.4,0.6l2.7,7.6
					c0.3,0.8-0.1,1.6-0.9,1.9C176.3,216.9,176.1,216.9,176,216.9z"/>
			</g>
			<g>
				<path class="st0" d="M176,220.1c-0.8,0-1.5-0.7-1.5-1.5c0-0.8,0.7-1.5,1.5-1.5l11.9,0h0c0.8,0,1.5,0.7,1.5,1.5
					c0,0.8-0.7,1.5-1.5,1.5L176,220.1L176,220.1z"/>
			</g>
			<g>
				<path class="st0" d="M177.6,223.3c-0.8,0-1.5-0.7-1.5-1.5c0-0.8,0.7-1.5,1.5-1.5l8.7,0h0c0.8,0,1.5,0.7,1.5,1.5
					c0,0.8-0.7,1.5-1.5,1.5L177.6,223.3L177.6,223.3z"/>
			</g>
			<g>
				<path class="st0" d="M182,216.6c-0.8,0-1.5-0.7-1.5-1.5l0-12.6c0-0.8,0.7-1.5,1.5-1.5h0c0.8,0,1.5,0.7,1.5,1.5l0,12.6
					C183.5,215.9,182.8,216.6,182,216.6L182,216.6z"/>
			</g>
			<g>
				<g>
					<path class="st0" d="M181.9,182.2c-0.8,0-1.5-0.7-1.5-1.5l0-6.4c0-0.8,0.7-1.5,1.5-1.5h0c0.8,0,1.5,0.7,1.5,1.5l0,6.4
						C183.4,181.6,182.8,182.2,181.9,182.2L181.9,182.2z"/>
				</g>
				<g>
					<path class="st0" d="M195.2,187.1c-0.4,0-0.8-0.1-1.1-0.4c-0.6-0.6-0.6-1.5,0-2.1l4.4-4.5c0.6-0.6,1.5-0.6,2.1,0
						c0.6,0.6,0.6,1.5,0,2.1l-4.4,4.5C196,186.9,195.6,187.1,195.2,187.1z"/>
				</g>
				<g>
					<path class="st0" d="M168.9,186.3c-0.4,0-0.8-0.1-1.1-0.4l-4.5-4.4c-0.6-0.6-0.6-1.5,0-2.1c0.6-0.6,1.5-0.6,2.1,0l4.5,4.4
						c0.6,0.6,0.6,1.5,0,2.1C169.6,186.2,169.2,186.3,168.9,186.3z"/>
				</g>
				<g>
					<path class="st0" d="M200.8,201c-0.8,0-1.5-0.7-1.5-1.5c0-0.8,0.7-1.5,1.5-1.5l6.3,0h0c0.8,0,1.5,0.7,1.5,1.5
						c0,0.8-0.7,1.5-1.5,1.5L200.8,201L200.8,201z"/>
				</g>
				<g>
					<path class="st0" d="M156.8,201.1c-0.8,0-1.5-0.7-1.5-1.5c0-0.8,0.7-1.5,1.5-1.5l6.3,0h0c0.8,0,1.5,0.7,1.5,1.5
						c0,0.8-0.7,1.5-1.5,1.5L156.8,201.1L156.8,201.1z"/>
				</g>
			</g>
		</g>
		<g>
			<g>
				<path class="st0" d="M457.5,439.8c-0.6,0-1.2-0.4-1.4-1l-2.6-7.2c-2.6-2.6-4-6.1-4-9.7c0-7.7,6.2-13.9,13.9-13.9c0,0,0,0,0,0
					c3.7,0,7.2,1.4,9.8,4.1c2.6,2.6,4.1,6.1,4.1,9.8c0,3.7-1.4,7.1-4,9.7l-2.6,7.2l-2.8-1l2.7-7.6c0.1-0.2,0.2-0.4,0.4-0.6
					c2.1-2.1,3.3-4.9,3.3-7.8c0-2.9-1.1-5.7-3.2-7.7c-2.1-2.1-4.8-3.2-7.7-3.2c0,0,0,0,0,0c-6,0-10.9,4.9-10.9,10.9
					c0,3,1.2,5.8,3.3,7.8c0.2,0.2,0.3,0.4,0.4,0.6l2.7,7.6c0.3,0.8-0.1,1.6-0.9,1.9C457.8,439.8,457.6,439.8,457.5,439.8z"/>
			</g>
			<g>
				<path class="st0" d="M457.5,443c-0.8,0-1.5-0.7-1.5-1.5c0-0.8,0.7-1.5,1.5-1.5l11.9,0h0c0.8,0,1.5,0.7,1.5,1.5
					c0,0.8-0.7,1.5-1.5,1.5L457.5,443L457.5,443z"/>
			</g>
			<g>
				<path class="st0" d="M459.1,446.2c-0.8,0-1.5-0.7-1.5-1.5c0-0.8,0.7-1.5,1.5-1.5l8.7,0h0c0.8,0,1.5,0.7,1.5,1.5
					c0,0.8-0.7,1.5-1.5,1.5L459.1,446.2L459.1,446.2z"/>
			</g>
			<g>
				<path class="st0" d="M463.5,439.6c-0.8,0-1.5-0.7-1.5-1.5l0-12.6c0-0.8,0.7-1.5,1.5-1.5h0c0.8,0,1.5,0.7,1.5,1.5l0,12.6
					C465,438.9,464.3,439.6,463.5,439.6L463.5,439.6z"/>
			</g>
			<g>
				<g>
					<path class="st0" d="M463.4,405.2c-0.8,0-1.5-0.7-1.5-1.5l0-6.4c0-0.8,0.7-1.5,1.5-1.5h0c0.8,0,1.5,0.7,1.5,1.5l0,6.4
						C464.9,404.5,464.3,405.2,463.4,405.2L463.4,405.2z"/>
				</g>
				<g>
					<path class="st0" d="M476.7,410c-0.4,0-0.8-0.1-1.1-0.4c-0.6-0.6-0.6-1.5,0-2.1l4.4-4.5c0.6-0.6,1.5-0.6,2.1,0
						c0.6,0.6,0.6,1.5,0,2.1l-4.4,4.5C477.5,409.9,477.1,410,476.7,410z"/>
				</g>
				<g>
					<path class="st0" d="M450.4,409.3c-0.4,0-0.8-0.1-1.1-0.4l-4.5-4.4c-0.6-0.6-0.6-1.5,0-2.1s1.5-0.6,2.1,0l4.5,4.4
						c0.6,0.6,0.6,1.5,0,2.1C451.1,409.1,450.7,409.3,450.4,409.3z"/>
				</g>
				<g>
					<path class="st0" d="M482.3,424c-0.8,0-1.5-0.7-1.5-1.5c0-0.8,0.7-1.5,1.5-1.5l6.3,0h0c0.8,0,1.5,0.7,1.5,1.5
						c0,0.8-0.7,1.5-1.5,1.5L482.3,424L482.3,424z"/>
				</g>
				<g>
					<path class="st0" d="M438.3,424c-0.8,0-1.5-0.7-1.5-1.5c0-0.8,0.7-1.5,1.5-1.5l6.3,0h0c0.8,0,1.5,0.7,1.5,1.5
						c0,0.8-0.7,1.5-1.5,1.5L438.3,424L438.3,424z"/>
				</g>
			</g>
		</g>
		<g>
			<g>
				<g>
					<defs>
						<path id="SVGID_1_" d="M387.9,59c0,15,12.1,27.1,27,27.1c14.9,0,27-12.1,27-27.1s-12.1-27.1-27-27.1
							C400.1,31.9,387.9,44,387.9,59"/>
					</defs>
					<clipPath id="SVGID_2_">
						<use xlink:href="#SVGID_1_"  style="overflow:visible;"/>
					</clipPath>
				</g>
				<g>
					<path class="st0" d="M415.5,87.3c-15.5,0-28.1-12.8-28.1-28.5s12.6-28.5,28.1-28.5c15.5,0,28.1,12.8,28.1,28.5
						S431,87.3,415.5,87.3z M415.5,33.4c-13.9,0-25.1,11.4-25.1,25.5s11.3,25.5,25.1,25.5c13.9,0,25.1-11.4,25.1-25.5
						S429.4,33.4,415.5,33.4z"/>
				</g>
			</g>
			<g>
				<path class="st0" d="M435.7,77.9c-0.3,0-0.5-0.1-0.8-0.2c-1.8-1.1-5-2.4-8.4-3.2c-2.6-0.7-4.8-2.1-5.1-2.3
					c-0.5-0.3-0.8-0.9-0.8-1.8l-0.4-0.1c-0.7-0.1-1.3-0.7-1.3-1.5c0-0.2-0.1-2-0.1-2c0-0.7,0.4-1.3,1-1.5c0.4-0.1,0.7-1.6,0.7-2.9
					c0-0.5,0.2-1.1,0.7-1.3c0.3-0.2,0.6-0.2,0.9-0.2c0.2-0.3,0.4-0.8,0.5-1.2c0,0,0-0.1,0-0.1c0.4-1,0.4-1.6,0.4-1.9
					c-0.3-0.1-0.6-0.2-0.8-0.5c-0.3-0.4-0.5-0.9-0.4-1.3c0.6-2.8,0-7,0-7c-0.2-2-1.4-3.3-3.5-3.9c-2.8-0.9-5.9-0.3-6.9,0.3
					c0.1,0.4,0,0.8-0.2,1.2c-0.4,0.6-1,0.8-1.7,0.6c-0.7-0.2-0.9,0-1,0.1c-0.9,0.8-0.9,4.3-0.5,6.5l0.9,2.3c0.2,0.7,0,1.4-0.6,1.8
					c-0.3,0.2-0.3,0.2-0.1,1.2c0.1,0.5,0.3,1,0.3,1.7c0,0.2,0,0.4,0.1,0.5c0.3,0,0.6,0.1,0.9,0.3c0.4,0.3,0.6,0.7,0.6,1.2
					c0.1,2.6,1.1,3.2,1.1,3.2c0.6,0.1,0.8,0.5,0.9,1.2c0.3,2.3,0.2,3.1-0.3,3.6c-0.3,0.3-0.7,0.6-1.1,0.6c0,0-0.1,0-0.1,0h-0.2
					c0,0.1,0,0.2-0.1,0.3c-0.1,0.5-0.4,0.8-0.9,1c-1,0.4-1.5,0.7-2.1,1c-0.7,0.3-1.3,0.6-2.4,1.1c-1.5,0.7-1.9,0.8-3.3,1.3l-0.3,0.1
					c-0.8,0.3-1.6-0.1-1.9-0.8c-0.3-0.8,0.1-1.6,0.8-1.9l0.3-0.1c1.3-0.5,1.7-0.7,3.2-1.3c1-0.4,1.6-0.7,2.3-1
					c0.4-0.2,0.9-0.4,1.5-0.7c0-0.1,0-0.1,0-0.2c-0.1-0.4,0.1-0.9,0.3-1.2c0.3-0.3,0.7-0.5,1.1-0.5h0.2c0,0,0-0.1,0-0.1
					c-0.8-0.6-1.7-1.8-2-4.2c-0.1-0.1-0.2-0.1-0.3-0.2c-0.8-0.6-1.2-1.6-1.3-2.9c0-0.3-0.1-0.7-0.2-1c-0.2-0.9-0.6-2.3,0.4-3.6
					l-0.6-1.5c0-0.1-0.1-0.2-0.1-0.2c-0.2-1.2-1.1-7.1,1.4-9.4c0.4-0.4,1.1-0.8,2-0.9c0,0,0-0.1,0.1-0.1c1.3-2.1,6.1-2.8,9.7-2
					c3.8,0.8,6.2,3.3,6.6,6.7c0,0.1,0.5,3.7,0.2,6.8c0.1,0.1,0.3,0.2,0.4,0.4c0.8,1,0.9,2.6,0.1,4.9c-0.2,0.8-0.8,2.5-2,3.1
					c-0.1,1.2-0.5,2.9-1.6,3.9c0,0,0,0,0,0l0.6,0.1c0.4,0.1,0.8,0.3,1,0.6c0.2,0.3,0.3,0.7,0.3,1.1c0,0.2-0.1,0.4-0.1,0.6
					c0.7,0.4,2.1,1.2,3.7,1.6c2.8,0.7,6.7,2,9.2,3.6c0.7,0.4,0.9,1.4,0.5,2.1C436.7,77.6,436.2,77.9,435.7,77.9z M423,69.5
					C423,69.5,423,69.5,423,69.5C423,69.5,423,69.5,423,69.5z M423.4,57.6C423.4,57.6,423.4,57.6,423.4,57.6
					C423.4,57.6,423.4,57.6,423.4,57.6z"/>
			</g>
		</g>
	</g>
	<g>
		<g>
			<g>
				<g>
					<path class="st0" d="M581.1,73.6H568c-0.8,0-1.5-0.7-1.5-1.5s0.7-1.5,1.5-1.5h13.1c0.8,0,1.5,0.7,1.5,1.5
						S581.9,73.6,581.1,73.6z"/>
				</g>
			</g>
			<g>
				<path class="st0" d="M598.1,161.4H551c-1.6,0-2.9-1.3-2.9-2.9v-49.2c0-0.8,0.7-1.5,1.5-1.5s1.5,0.7,1.5,1.5v49H598V67h-46.8
					v29.8c0,0.8-0.7,1.5-1.5,1.5s-1.5-0.7-1.5-1.5v-30c0-1.6,1.3-2.9,2.9-2.9h47.1c1.6,0,2.9,1.3,2.9,2.9v91.6
					C601,160.1,599.7,161.4,598.1,161.4z"/>
			</g>
			<g>
				<circle class="st0" cx="574.6" cy="153.3" r="1.6"/>
			</g>
			<g>
				<path class="st0" d="M592.9,80.1h-43.2c-0.8,0-1.5-0.7-1.5-1.5s0.7-1.5,1.5-1.5h43.2c0.8,0,1.5,0.7,1.5,1.5
					S593.7,80.1,592.9,80.1z"/>
			</g>
			<g>
				<path class="st0" d="M599.5,148.3h-49.8c-0.8,0-1.5-0.7-1.5-1.5s0.7-1.5,1.5-1.5h49.8c0.8,0,1.5,0.7,1.5,1.5
					S600.3,148.3,599.5,148.3z"/>
			</g>
			<g>
				<rect x="561.3" y="124.3" class="st1" width="26.5" height="3"/>
			</g>
			<g>
				<rect x="561.3" y="130.8" class="st1" width="26.5" height="3"/>
			</g>
			<g>
				<path class="st1" d="M575.1,112.7c-0.3,0-0.7-0.1-1-0.3l-4.2-3.5c-0.6-0.5-0.7-1.5-0.2-2.1c0.5-0.6,1.5-0.7,2.1-0.2l3.1,2.6
					l8.5-9.2c0.3-0.3,0.7-0.5,1.1-0.5c0.4,0,0.8,0.2,1.1,0.5l5,5.3c0.6,0.6,0.5,1.6-0.1,2.1c-0.6,0.6-1.6,0.5-2.1-0.1l-3.9-4.1
					l-8.4,9C575.9,112.5,575.5,112.7,575.1,112.7z"/>
			</g>
			<g>
				<path class="st1" d="M560.2,112.7c-0.4,0-0.7-0.1-1-0.4c-0.6-0.6-0.7-1.5-0.1-2.1l2.1-2.3c0.6-0.6,1.5-0.7,2.1-0.1
					c0.6,0.6,0.7,1.5,0.1,2.1l-2.1,2.3C561.1,112.5,560.7,112.7,560.2,112.7z"/>
			</g>
			<g>
				<polygon class="st1" points="591.1,118.3 558.1,118.3 558.1,108.9 561.1,108.9 561.1,115.3 588.1,115.3 588.1,94.7 561.1,94.7 
					561.1,96.8 558.1,96.8 558.1,91.7 591.1,91.7 				"/>
			</g>
		</g>
		<g>
			<g>
				<path class="st0" d="M764.7,253.8c-15.8,0-28.6-12.8-28.6-28.6s12.8-28.6,28.6-28.6s28.6,12.8,28.6,28.6
					S780.4,253.8,764.7,253.8z M764.7,199.6c-14.1,0-25.6,11.5-25.6,25.6s11.5,25.6,25.6,25.6s25.6-11.5,25.6-25.6
					S778.8,199.6,764.7,199.6z"/>
			</g>
			<g>
				<g>
					<path class="st0" d="M762.6,236c-0.4,0-0.8-0.1-1.1-0.4l-9.5-9.5c-0.6-0.6-0.6-1.5,0-2.1s1.5-0.6,2.1,0l9.5,9.5
						c0.6,0.6,0.6,1.5,0,2.1C763.4,235.8,763,236,762.6,236z"/>
				</g>
				<g>
					<path class="st0" d="M762.8,235.7c-0.4,0-0.7-0.1-1-0.4c-0.6-0.6-0.6-1.5,0-2.1l17.6-18.3c0.6-0.6,1.5-0.6,2.1,0
						c0.6,0.6,0.6,1.5,0,2.1l-17.6,18.3C763.6,235.5,763.2,235.7,762.8,235.7z"/>
				</g>
			</g>
		</g>
		<g>
			<g>
				<path class="st0" d="M559.4,455.9c-0.7,0-2.1-0.3-3.2-2c-1.1-1.8-1.9-5.5-1.3-7.5c-0.2-0.6-1-1.9-1.3-2.4
					c-0.3-0.5-0.7-1.1-1-1.6c-0.3,0-0.8,0.2-1.2,0.3c-0.7,0.2-1.5,0.4-2.3,0.5c-0.1,0-0.2,0-0.2,0c-0.6,0-2.1-0.2-3.1-2.1
					c-1.3-2.6-1.1-7.7,1.1-10.7c1.5-2,4-3.2,6.8-3.2c0.9,0,3.1,0.1,4.3,1.4c0.3,0.4,0.8,0.8,1.2,1.2c0.8,0,1.9,0,2.6,0
					c1.1,0,2.2,0.5,3.1,1.4c1,1.1,1.5,2.5,1.4,4c0.4,0.4,1.5,1,2.3,1.2c1.2,0.3,2.1,1.2,2.3,2.4c0.4,2-1.1,4-2.7,5.2
					c-0.3,0.2-0.5,1.3-0.6,2c-0.1,0.8-0.3,1.8-0.7,2.6c-0.9,2-2,3.7-5,6.2C561.1,455.6,560.2,455.9,559.4,455.9z M552.7,439.4
					c1.1,0,1.9,0.5,2.4,1.4c0.3,0.5,0.6,1.1,1,1.6c1.5,2.5,2.2,3.7,1.7,4.8c-0.3,0.7,0.1,3.6,1,5c0.1,0.2,0.4,0.6,0.7,0.6
					c0.2,0,0.4-0.1,0.5-0.3c2.6-2.1,3.4-3.4,4.2-5.1c0.2-0.5,0.4-1.2,0.5-1.9c0.2-1.4,0.5-3,1.8-3.9c1-0.8,1.6-1.8,1.5-2.2
					c0,0,0,0-0.1-0.1c0,0,0,0,0,0c-0.8-0.2-4.9-1.7-4.6-4.1c0.1-0.7-0.2-1.5-0.6-2c-0.3-0.3-0.6-0.4-0.8-0.4c-0.9,0-2.2,0-2.9,0
					l-0.3,0c0,0,0,0,0,0c-0.4,0-0.7-0.1-1-0.4c-0.5-0.5-1.3-1.2-1.8-1.8c-0.2-0.2-1-0.4-2.1-0.4c-1.8,0-3.4,0.7-4.3,2
					c-1.5,2-1.7,5.9-0.8,7.5c0.2,0.3,0.3,0.4,0.4,0.4c0.5,0,1.1-0.2,1.6-0.4C551.2,439.7,552,439.4,552.7,439.4z M555,446
					C555,446,555,446,555,446C555,446,555,446,555,446z"/>
			</g>
			<g>
				<path class="st0" d="M582.5,430.3c-0.5,0-0.9-0.2-1.2-0.6c-0.6-0.8-3-2.2-7.4-4.2l-0.7-0.3c-0.7-0.3-2.8-0.2-4.2-0.1
					c-1.2,0.1-2.2,0.1-2.9,0c-0.9-0.1-1.6-0.6-2.4-1c-0.8-0.5-1.5-0.9-2.3-0.8c-0.6,0.1-1.1,0.4-1.7,0.7c-0.9,0.5-2,1.2-3.8,1.1
					c-1.8-0.1-2.4-1.2-2.6-1.7c-0.6-1.7,0.8-3.8,1.8-4.7c1.5-1.4,5.2-3.4,7.7-3.2c0.2,0,0.5-0.4,1-1c0.6-0.9,1.5-2,2.9-2.5
					c2.5-0.9,7.2,0.9,8.1,1.2c0.8,0.3,1.2,1.2,0.8,1.9c-0.3,0.8-1.2,1.2-1.9,0.8c-1.8-0.7-4.9-1.6-6-1.2c-0.5,0.2-1,0.8-1.4,1.5
					c-0.7,1-1.8,2.5-3.7,2.3c-1.4-0.1-4.2,1.2-5.4,2.4c-0.4,0.4-0.7,0.8-0.9,1.2c0.7,0,1.1-0.3,1.8-0.7c0.7-0.4,1.6-1,2.9-1.1
					c1.7-0.2,3.1,0.6,4.2,1.2c0.5,0.3,1,0.6,1.3,0.6c0.4,0.1,1.4,0,2.3-0.1c2.1-0.1,4.3-0.3,5.7,0.4l0.7,0.3c4.4,2,7.5,3.7,8.6,5.1
					c0.5,0.7,0.3,1.6-0.3,2.1C583.1,430.2,582.8,430.3,582.5,430.3z"/>
			</g>
			<g>
				<path class="st0" d="M540.4,457.8c-0.1,0-0.2,0-0.4,0c-0.8-0.2-1.3-1-1.1-1.8c0.3-1.3,0.5-2.8,0.4-3.4c-2-1.3-2.9-3.1-2.7-5.1
					c0-0.3-0.3-0.5-1.4-1.1c-0.6-0.3-1.1-0.6-1.6-1c-1.1-1-4.5-3.4-4.5-3.5c-0.7-0.5-0.8-1.4-0.3-2.1c0.5-0.7,1.4-0.8,2.1-0.3
					c0.1,0.1,3.5,2.6,4.7,3.6c0.2,0.2,0.6,0.4,1,0.6c1.3,0.6,3.3,1.7,3,4.2c0,0.3-0.2,1.3,1.5,2.4c1.7,1.1,1.3,4.1,0.7,6.5
					C541.7,457.4,541.1,457.8,540.4,457.8z"/>
			</g>
			<g>
				<path class="st0" d="M531.6,425.1c-0.6,0-1.1-0.3-1.4-0.9c-0.3-0.8,0-1.6,0.8-2c0.9-0.4,3.3-1.5,4.3-2.1c1-0.7,2.2-0.5,3.2-0.4
					c0.2,0,0.4,0.1,0.6,0.1c0.3-1.6,1.6-3,2.8-4.3c0.5-0.5,1-1,1.3-1.5c1-1.3,2.3-3.6,3.2-5c0.2-0.4,0.4-0.7,0.5-0.9
					c0.4-0.7,1.4-0.9,2.1-0.5c0.7,0.4,0.9,1.4,0.5,2.1c-0.1,0.2-0.3,0.5-0.5,0.9c-0.9,1.5-2.3,3.9-3.4,5.3c-0.4,0.6-1,1.1-1.5,1.7
					c-0.8,0.9-2.1,2.2-2.1,2.9c-0.1,1-0.5,1.6-0.9,1.9c-0.9,0.7-2.1,0.6-3,0.4c-0.4-0.1-1-0.1-1.2-0.1c-1.4,0.9-4.5,2.3-4.7,2.4
					C532,425.1,531.8,425.1,531.6,425.1z"/>
			</g>
			<g>
				<path class="st0" d="M556.2,463.1c-15.8,0-28.6-12.8-28.6-28.6s12.8-28.6,28.6-28.6c15.8,0,28.6,12.8,28.6,28.6
					S571.9,463.1,556.2,463.1z M556.2,408.9c-14.1,0-25.6,11.5-25.6,25.6s11.5,25.6,25.6,25.6c14.1,0,25.6-11.5,25.6-25.6
					S570.3,408.9,556.2,408.9z"/>
			</g>
		</g>
		<g>
			<path class="st0" d="M567.3,110.4h-21.7c-0.8,0-1.5-0.7-1.5-1.5s0.7-1.5,1.5-1.5h21.7c2.7,0,4.8-2.2,4.8-4.8
				c0-2.3-1.9-4.2-4.2-4.2h-22.3c-0.8,0-1.5-0.7-1.5-1.5s0.7-1.5,1.5-1.5h22.3c4,0,7.2,3.2,7.2,7.2
				C575.1,106.9,571.6,110.4,567.3,110.4z"/>
		</g>
		<g>
			<path class="st0" d="M602.2,104.4h-1.7c-0.8,0-1.5-0.7-1.5-1.5s0.7-1.5,1.5-1.5h1.7c2.7,0,4.8-2.2,4.8-4.8c0-2.3-1.9-4.2-4.2-4.2
				h-2.3c-0.8,0-1.5-0.7-1.5-1.5s0.7-1.5,1.5-1.5h2.3c4,0,7.2,3.2,7.2,7.2C610,100.8,606.5,104.4,602.2,104.4z"/>
		</g>
		<g>
			<path class="st0" d="M602.2,116.4h-1.7c-0.8,0-1.5-0.7-1.5-1.5s0.7-1.5,1.5-1.5h1.7c2.7,0,4.8-2.2,4.8-4.8c0-2.3-1.9-4.2-4.2-4.2
				h-2.3c-0.8,0-1.5-0.7-1.5-1.5s0.7-1.5,1.5-1.5h2.3c4,0,7.2,3.2,7.2,7.2C610,112.9,606.5,116.4,602.2,116.4z"/>
		</g>
		<g>
			<path class="st0" d="M602.2,128.5h-1.7c-0.8,0-1.5-0.7-1.5-1.5s0.7-1.5,1.5-1.5h1.7c2.7,0,4.8-2.2,4.8-4.8c0-2.3-1.9-4.2-4.2-4.2
				h-2.3c-0.8,0-1.5-0.7-1.5-1.5s0.7-1.5,1.5-1.5h2.3c4,0,7.2,3.2,7.2,7.2C610,124.9,606.5,128.5,602.2,128.5z"/>
		</g>
		<g>
			<path class="st0" d="M602.2,140.5h-1.7c-0.8,0-1.5-0.7-1.5-1.5s0.7-1.5,1.5-1.5h1.7c2.7,0,4.8-2.2,4.8-4.8c0-2.3-1.9-4.2-4.2-4.2
				h-2.3c-0.8,0-1.5-0.7-1.5-1.5s0.7-1.5,1.5-1.5h2.3c4,0,7.2,3.2,7.2,7.2C610,137,606.5,140.5,602.2,140.5z"/>
		</g>
		<g>
			<path class="st0" d="M535.9,120.1c-0.8,0-1.5-0.7-1.5-1.5s0.7-1.5,1.5-1.5c4.5,0,8.2-3.7,8.2-8.2c0-0.8,0.7-1.5,1.5-1.5
				s1.5,0.7,1.5,1.5C547.1,115.1,542.1,120.1,535.9,120.1z"/>
		</g>
		<g>
			<path class="st0" d="M511.4,127.2c-0.8,0-1.5-0.7-1.5-1.5c0-21.9,17.8-39.7,39.7-39.7c0.8,0,1.5,0.7,1.5,1.5s-0.7,1.5-1.5,1.5
				c-20.2,0-36.7,16.5-36.7,36.7C512.9,126.5,512.2,127.2,511.4,127.2z"/>
		</g>
		<g>
			<g>
				<path class="st0" d="M665.8,380.8h-13.6c-0.8,0-1.5-0.7-1.5-1.5s0.7-1.5,1.5-1.5h13.6c0.8,0,1.5,0.7,1.5,1.5
					S666.6,380.8,665.8,380.8z"/>
			</g>
			<g>
				<path class="st0" d="M665.8,387.6h-13.6c-0.8,0-1.5-0.7-1.5-1.5s0.7-1.5,1.5-1.5h13.6c0.8,0,1.5,0.7,1.5,1.5
					S666.6,387.6,665.8,387.6z"/>
			</g>
			<g>
				<path class="st0" d="M665.8,394.3h-13.6c-0.8,0-1.5-0.7-1.5-1.5s0.7-1.5,1.5-1.5h13.6c0.8,0,1.5,0.7,1.5,1.5
					S666.6,394.3,665.8,394.3z"/>
			</g>
		</g>
		<g>
			<g>
				<path class="st0" d="M553.2,228.3h-13.6c-0.8,0-1.5-0.7-1.5-1.5s0.7-1.5,1.5-1.5h13.6c0.8,0,1.5,0.7,1.5,1.5
					S554,228.3,553.2,228.3z"/>
			</g>
			<g>
				<path class="st0" d="M553.2,235.1h-13.6c-0.8,0-1.5-0.7-1.5-1.5s0.7-1.5,1.5-1.5h13.6c0.8,0,1.5,0.7,1.5,1.5
					S554,235.1,553.2,235.1z"/>
			</g>
			<g>
				<path class="st0" d="M553.2,241.9h-13.6c-0.8,0-1.5-0.7-1.5-1.5s0.7-1.5,1.5-1.5h13.6c0.8,0,1.5,0.7,1.5,1.5
					S554,241.9,553.2,241.9z"/>
			</g>
		</g>
		<g>
			<g>
				<path class="st0" d="M873,326.7h-13.6c-0.8,0-1.5-0.7-1.5-1.5s0.7-1.5,1.5-1.5H873c0.8,0,1.5,0.7,1.5,1.5S873.8,326.7,873,326.7
					z"/>
			</g>
			<g>
				<path class="st0" d="M873,333.5h-13.6c-0.8,0-1.5-0.7-1.5-1.5s0.7-1.5,1.5-1.5H873c0.8,0,1.5,0.7,1.5,1.5S873.8,333.5,873,333.5
					z"/>
			</g>
			<g>
				<path class="st0" d="M873,340.3h-13.6c-0.8,0-1.5-0.7-1.5-1.5s0.7-1.5,1.5-1.5H873c0.8,0,1.5,0.7,1.5,1.5S873.8,340.3,873,340.3
					z"/>
			</g>
		</g>
		<g>
			<g>
				<path class="st0" d="M820.2,119.4h-13.6c-0.8,0-1.5-0.7-1.5-1.5s0.7-1.5,1.5-1.5h13.6c0.8,0,1.5,0.7,1.5,1.5
					S821.1,119.4,820.2,119.4z"/>
			</g>
			<g>
				<path class="st0" d="M820.2,126.2h-13.6c-0.8,0-1.5-0.7-1.5-1.5s0.7-1.5,1.5-1.5h13.6c0.8,0,1.5,0.7,1.5,1.5
					S821.1,126.2,820.2,126.2z"/>
			</g>
			<g>
				<path class="st0" d="M820.2,133h-13.6c-0.8,0-1.5-0.7-1.5-1.5s0.7-1.5,1.5-1.5h13.6c0.8,0,1.5,0.7,1.5,1.5S821.1,133,820.2,133z
					"/>
			</g>
		</g>
		<g>
			<g>
				<g>
					<g>
						<path class="st0" d="M749.2,367.2h-13.1c-0.8,0-1.5-0.7-1.5-1.5s0.7-1.5,1.5-1.5h13.1c0.8,0,1.5,0.7,1.5,1.5
							S750.1,367.2,749.2,367.2z"/>
					</g>
				</g>
				<g>
					<path class="st0" d="M766.2,455h-47.1c-1.6,0-2.9-1.3-2.9-2.9v-91.6c0-1.6,1.3-2.9,2.9-2.9h47.1c1.6,0,2.9,1.3,2.9,2.9v38.4
						c0,0.8-0.7,1.5-1.5,1.5s-1.5-0.7-1.5-1.5v-38.2h-46.8V452h46.8v-24.4c0-0.8,0.7-1.5,1.5-1.5s1.5,0.7,1.5,1.5v24.5
						C769.1,453.7,767.8,455,766.2,455z"/>
				</g>
				<g>
					<circle class="st0" cx="742.7" cy="446.9" r="1.6"/>
				</g>
				<g>
					<path class="st1" d="M742.7,406.5c-4.4,0-7.9-3.6-7.9-7.9s3.6-7.9,7.9-7.9s7.9,3.6,7.9,7.9S747.1,406.5,742.7,406.5z
						 M742.7,393.6c-2.7,0-4.9,2.2-4.9,4.9c0,2.7,2.2,4.9,4.9,4.9c2.7,0,4.9-2.2,4.9-4.9C747.6,395.9,745.4,393.6,742.7,393.6z"/>
				</g>
				<g>
					<path class="st0" d="M761,373.7h-43.2c-0.8,0-1.5-0.7-1.5-1.5s0.7-1.5,1.5-1.5H761c0.8,0,1.5,0.7,1.5,1.5
						S761.9,373.7,761,373.7z"/>
				</g>
				<g>
					<path class="st0" d="M767.6,441.9h-49.8c-0.8,0-1.5-0.7-1.5-1.5s0.7-1.5,1.5-1.5h49.8c0.8,0,1.5,0.7,1.5,1.5
						S768.4,441.9,767.6,441.9z"/>
				</g>
				<g>
					<path class="st1" d="M757.5,413.3h-29.5v-29.5h29.5V413.3z M730.9,410.3h23.5v-23.5h-23.5V410.3z"/>
				</g>
				<g>
					<rect x="729.4" y="417.9" class="st1" width="26.5" height="3"/>
				</g>
				<g>
					<rect x="729.4" y="424.4" class="st1" width="26.5" height="3"/>
				</g>
			</g>
			<g>
				<path class="st0" d="M767.6,429.1c-0.7,0-1.3-0.5-1.5-1.1l-5.4-21.6c-1-3.9,1.4-7.8,5.2-8.7c4.2-1.1,8.5,1.5,9.5,5.7l5.3,21
					c0.2,0.8-0.3,1.6-1.1,1.8c-0.8,0.2-1.6-0.3-1.8-1.1l-5.3-21c-0.6-2.6-3.3-4.2-5.9-3.5c-2.3,0.6-3.6,2.9-3.1,5.1l5.4,21.6
					c0.2,0.8-0.3,1.6-1.1,1.8C767.8,429.1,767.7,429.1,767.6,429.1z"/>
			</g>
			<g>
				<path class="st0" d="M717.2,448.2h-2.3c-4,0-7.2-3.2-7.2-7.2c0-4.3,3.5-7.8,7.8-7.8h1.7c0.8,0,1.5,0.7,1.5,1.5s-0.7,1.5-1.5,1.5
					h-1.7c-2.7,0-4.8,2.2-4.8,4.8c0,2.3,1.9,4.2,4.2,4.2h2.3c0.8,0,1.5,0.7,1.5,1.5S718,448.2,717.2,448.2z"/>
			</g>
			<g>
				<path class="st0" d="M717.2,436.2h-2.3c-4,0-7.2-3.2-7.2-7.2c0-4.3,3.5-7.8,7.8-7.8h1.7c0.8,0,1.5,0.7,1.5,1.5s-0.7,1.5-1.5,1.5
					h-1.7c-2.7,0-4.8,2.2-4.8,4.8c0,2.3,1.9,4.2,4.2,4.2h2.3c0.8,0,1.5,0.7,1.5,1.5S718,436.2,717.2,436.2z"/>
			</g>
			<g>
				<path class="st0" d="M717.2,424.1h-2.3c-4,0-7.2-3.2-7.2-7.2c0-4.3,3.5-7.8,7.8-7.8h1.7c0.8,0,1.5,0.7,1.5,1.5s-0.7,1.5-1.5,1.5
					h-1.7c-2.7,0-4.8,2.2-4.8,4.8c0,2.3,1.9,4.2,4.2,4.2h2.3c0.8,0,1.5,0.7,1.5,1.5S718,424.1,717.2,424.1z"/>
			</g>
			<g>
				<path class="st0" d="M717.2,412.1h-2.3c-4,0-7.2-3.2-7.2-7.2c0-4.3,3.5-7.8,7.8-7.8h1.7c0.8,0,1.5,0.7,1.5,1.5s-0.7,1.5-1.5,1.5
					h-1.7c-2.7,0-4.8,2.2-4.8,4.8c0,2.3,1.9,4.2,4.2,4.2h2.3c0.8,0,1.5,0.7,1.5,1.5S718,412.1,717.2,412.1z"/>
			</g>
			<g>
				<path class="st0" d="M763.7,469.6c-0.2,0-0.5-0.1-0.7-0.2l-25.7-14c-0.7-0.4-1-1.3-0.6-2c0.4-0.7,1.3-1,2-0.6l25.7,14
					c0.7,0.4,1,1.3,0.6,2C764.7,469.4,764.2,469.6,763.7,469.6z"/>
			</g>
			<g>
				<path class="st1" d="M742.3,335.7c-0.8,0-1.5-0.7-1.5-1.5v-11.3c0-0.8,0.7-1.5,1.5-1.5s1.5,0.7,1.5,1.5v11.3
					C743.8,335.1,743.1,335.7,742.3,335.7z"/>
			</g>
			<g>
				<path class="st1" d="M727.3,342.9c-0.4,0-0.9-0.2-1.2-0.6l-7.2-8.9c-0.5-0.6-0.4-1.6,0.2-2.1c0.6-0.5,1.6-0.4,2.1,0.2l7.2,8.9
					c0.5,0.6,0.4,1.6-0.2,2.1C728,342.8,727.6,342.9,727.3,342.9z"/>
			</g>
			<g>
				<path class="st1" d="M758.8,343.6c-0.3,0-0.7-0.1-0.9-0.3c-0.6-0.5-0.7-1.5-0.2-2.1l6.5-8c0.5-0.6,1.5-0.7,2.1-0.2
					s0.7,1.5,0.2,2.1l-6.5,8C759.7,343.4,759.2,343.6,758.8,343.6z"/>
			</g>
		</g>
		<g>
			<path class="st1" d="M574.6,44.8c-0.8,0-1.5-0.7-1.5-1.5V32c0-0.8,0.7-1.5,1.5-1.5s1.5,0.7,1.5,1.5v11.3
				C576.1,44.1,575.4,44.8,574.6,44.8z"/>
		</g>
		<g>
			<path class="st1" d="M559.6,52c-0.4,0-0.9-0.2-1.2-0.6l-7.2-8.9c-0.5-0.6-0.4-1.6,0.2-2.1s1.6-0.4,2.1,0.2l7.2,8.9
				c0.5,0.6,0.4,1.6-0.2,2.1C560.3,51.9,559.9,52,559.6,52z"/>
		</g>
		<g>
			<path class="st1" d="M591.1,52.7c-0.3,0-0.7-0.1-0.9-0.3c-0.6-0.5-0.7-1.5-0.2-2.1l6.5-8c0.5-0.6,1.5-0.7,2.1-0.2
				c0.6,0.5,0.7,1.5,0.2,2.1l-6.5,8C592,52.5,591.5,52.7,591.1,52.7z"/>
		</g>
		<g>
			<g>
				<g>
					<path class="st0" d="M720.5,73.5c-0.6,0-1.2-0.4-1.4-0.9c-0.5-1.4-0.8-2.9-0.8-4.4c0-6.5,5.3-11.9,11.9-11.9
						c1.7,0,3.4,0.4,5,1.1c0.8,0.3,1.1,1.2,0.7,2s-1.2,1.1-2,0.7c-1.2-0.5-2.4-0.8-3.7-0.8c-4.9,0-8.9,4-8.9,8.9
						c0,1.1,0.2,2.2,0.6,3.3c0.3,0.8-0.1,1.6-0.8,1.9C720.8,73.5,720.6,73.5,720.5,73.5z"/>
				</g>
				<g>
					<path class="st0" d="M731.2,81.7c-3.6,0-7-1.6-9.3-4.5c-0.5-0.7-0.4-1.6,0.2-2.1c0.6-0.5,1.6-0.4,2.1,0.2
						c1.7,2.1,4.2,3.4,7,3.4c4.9,0,8.9-4,8.9-8.9c0-2.5-1.1-4.9-2.9-6.6c-0.6-0.6-0.7-1.5-0.1-2.1c0.6-0.6,1.5-0.7,2.1-0.1
						c2.5,2.2,3.9,5.5,3.9,8.8C743,76.4,737.7,81.7,731.2,81.7z"/>
				</g>
				<g>
					<path class="st0" d="M720.6,74.3c-0.3,0-0.6-0.1-0.8-0.2l-3.7-2.4c-0.7-0.5-0.9-1.4-0.4-2.1c0.5-0.7,1.4-0.9,2.1-0.4l2.4,1.6
						l1.5-2.5c0.4-0.7,1.4-0.9,2.1-0.5c0.7,0.4,0.9,1.4,0.5,2.1l-2.4,3.8c-0.2,0.3-0.6,0.6-0.9,0.7
						C720.9,74.3,720.8,74.3,720.6,74.3z"/>
				</g>
				<g>
					<path class="st0" d="M737.2,67.4c-0.1,0-0.2,0-0.3,0c-0.8-0.2-1.3-1-1.1-1.8l0.9-4.3c0.1-0.4,0.3-0.7,0.7-0.9s0.8-0.3,1.1-0.2
						l4.3,1c0.8,0.2,1.3,1,1.1,1.8c-0.2,0.8-1,1.3-1.8,1.1l-2.8-0.7l-0.6,2.8C738.5,66.9,737.9,67.4,737.2,67.4z"/>
				</g>
			</g>
		</g>
		<g>
			<g>
				<g>
					<path class="st0" d="M823.4,408.9c-0.6,0-1.2-0.4-1.4-0.9c-0.5-1.4-0.8-2.9-0.8-4.4c0-6.5,5.3-11.9,11.9-11.9
						c1.7,0,3.4,0.4,5,1.1c0.8,0.3,1.1,1.2,0.7,2c-0.3,0.8-1.2,1.1-2,0.7c-1.2-0.5-2.4-0.8-3.7-0.8c-4.9,0-8.9,4-8.9,8.9
						c0,1.1,0.2,2.2,0.6,3.3c0.3,0.8-0.1,1.6-0.8,1.9C823.8,408.9,823.6,408.9,823.4,408.9z"/>
				</g>
				<g>
					<path class="st0" d="M834.2,417.1c-3.6,0-7-1.6-9.3-4.5c-0.5-0.7-0.4-1.6,0.2-2.1c0.6-0.5,1.6-0.4,2.1,0.2
						c1.7,2.1,4.2,3.4,7,3.4c4.9,0,8.9-4,8.9-8.9c0-2.5-1.1-4.9-2.9-6.6c-0.6-0.6-0.7-1.5-0.1-2.1c0.6-0.6,1.5-0.7,2.1-0.1
						c2.5,2.2,3.9,5.5,3.9,8.8C846,411.8,840.7,417.1,834.2,417.1z"/>
				</g>
				<g>
					<path class="st0" d="M823.6,409.7c-0.3,0-0.6-0.1-0.8-0.2l-3.7-2.4c-0.7-0.5-0.9-1.4-0.4-2.1c0.5-0.7,1.4-0.9,2.1-0.4l2.4,1.6
						l1.5-2.5c0.4-0.7,1.4-0.9,2.1-0.5c0.7,0.4,0.9,1.4,0.5,2.1l-2.4,3.8c-0.2,0.3-0.6,0.6-0.9,0.7
						C823.9,409.7,823.7,409.7,823.6,409.7z"/>
				</g>
				<g>
					<path class="st0" d="M840.2,402.8c-0.1,0-0.2,0-0.3,0c-0.8-0.2-1.3-1-1.1-1.8l0.9-4.3c0.1-0.4,0.3-0.7,0.7-0.9
						c0.3-0.2,0.8-0.3,1.1-0.2l4.3,1c0.8,0.2,1.3,1,1.1,1.8c-0.2,0.8-1,1.3-1.8,1.1l-2.8-0.7l-0.6,2.8
						C841.5,402.3,840.9,402.8,840.2,402.8z"/>
				</g>
			</g>
		</g>
		<g>
			<g>
				<g>
					<path class="st0" d="M570.7,316.1c-0.6,0-1.2-0.4-1.4-0.9c-0.5-1.4-0.8-2.9-0.8-4.4c0-6.5,5.3-11.9,11.9-11.9
						c1.7,0,3.4,0.4,5,1.1c0.8,0.3,1.1,1.2,0.7,2c-0.3,0.8-1.2,1.1-2,0.7c-1.2-0.5-2.4-0.8-3.7-0.8c-4.9,0-8.9,4-8.9,8.9
						c0,1.1,0.2,2.2,0.6,3.3c0.3,0.8-0.1,1.6-0.8,1.9C571.1,316.1,570.9,316.1,570.7,316.1z"/>
				</g>
				<g>
					<path class="st0" d="M581.4,324.3c-3.6,0-7-1.6-9.3-4.5c-0.5-0.7-0.4-1.6,0.2-2.1c0.6-0.5,1.6-0.4,2.1,0.2
						c1.7,2.1,4.2,3.4,7,3.4c4.9,0,8.9-4,8.9-8.9c0-2.5-1.1-4.9-2.9-6.6c-0.6-0.6-0.7-1.5-0.1-2.1c0.6-0.6,1.5-0.7,2.1-0.1
						c2.5,2.2,3.9,5.5,3.9,8.8C593.3,319,588,324.3,581.4,324.3z"/>
				</g>
				<g>
					<path class="st0" d="M570.9,316.9c-0.3,0-0.6-0.1-0.8-0.2l-3.7-2.4c-0.7-0.5-0.9-1.4-0.4-2.1c0.5-0.7,1.4-0.9,2.1-0.4l2.4,1.6
						l1.5-2.5c0.4-0.7,1.4-0.9,2.1-0.5c0.7,0.4,0.9,1.4,0.5,2.1l-2.4,3.8c-0.2,0.3-0.6,0.6-0.9,0.7
						C571.1,316.8,571,316.9,570.9,316.9z"/>
				</g>
				<g>
					<path class="st0" d="M587.5,310c-0.1,0-0.2,0-0.3,0c-0.8-0.2-1.3-1-1.1-1.8l0.9-4.3c0.1-0.4,0.3-0.7,0.7-0.9
						c0.3-0.2,0.8-0.3,1.1-0.2l4.3,1c0.8,0.2,1.3,1,1.1,1.8c-0.2,0.8-1,1.3-1.8,1.1l-2.8-0.7l-0.6,2.8
						C588.8,309.5,588.1,310,587.5,310z"/>
				</g>
			</g>
		</g>
		<g>
			<g>
				<g>
					<path class="st0" d="M898.9,189.4h-13.1c-0.8,0-1.5-0.7-1.5-1.5s0.7-1.5,1.5-1.5h13.1c0.8,0,1.5,0.7,1.5,1.5
						S899.7,189.4,898.9,189.4z"/>
				</g>
			</g>
			<g>
				<path class="st0" d="M915.9,277.2h-47.1c-1.6,0-2.9-1.3-2.9-2.9v-91.6c0-1.6,1.3-2.9,2.9-2.9h47.1c1.6,0,2.9,1.3,2.9,2.9v30
					c0,0.8-0.7,1.5-1.5,1.5s-1.5-0.7-1.5-1.5v-29.8h-46.8v91.4h46.8V225c0-0.8,0.7-1.5,1.5-1.5s1.5,0.7,1.5,1.5v49.3
					C918.7,276,917.5,277.2,915.9,277.2z"/>
			</g>
			<g>
				<circle class="st0" cx="892.3" cy="269.2" r="1.6"/>
			</g>
			<g>
				<path class="st0" d="M910.7,196h-43.2c-0.8,0-1.5-0.7-1.5-1.5s0.7-1.5,1.5-1.5h43.2c0.8,0,1.5,0.7,1.5,1.5S911.5,196,910.7,196z
					"/>
			</g>
			<g>
				<path class="st0" d="M917.2,264.1h-49.8c-0.8,0-1.5-0.7-1.5-1.5s0.7-1.5,1.5-1.5h49.8c0.8,0,1.5,0.7,1.5,1.5
					S918.1,264.1,917.2,264.1z"/>
			</g>
			<g>
				<rect x="879.1" y="240.2" class="st1" width="26.5" height="3"/>
			</g>
			<g>
				<rect x="879.1" y="246.7" class="st1" width="26.5" height="3"/>
			</g>
			<g>
				<polygon class="st1" points="908.8,234.1 875.8,234.1 875.8,207.6 908.8,207.6 908.8,212.7 905.8,212.7 905.8,210.6 
					878.8,210.6 878.8,231.1 905.8,231.1 905.8,225 908.8,225 				"/>
			</g>
			<g>
				<path class="st1" d="M885.8,229.9c-0.3,0-0.5-0.1-0.8-0.2c-0.5-0.3-0.8-0.8-0.8-1.3v-15.1c0-0.5,0.3-1,0.8-1.3s1-0.3,1.5,0
					l7.8,4.5c0.7,0.4,1,1.3,0.5,2c-0.4,0.7-1.3,1-2,0.5l-5.5-3.2v9.9l7.3-4.2c0.7-0.4,1.6-0.2,2,0.5c0.4,0.7,0.2,1.6-0.5,2l-9.6,5.5
					C886.3,229.8,886.1,229.9,885.8,229.9z"/>
			</g>
		</g>
		<g>
			<g>
				<path class="st0" d="M866.2,256.4h-2.3c-4,0-7.2-3.2-7.2-7.2c0-4.3,3.5-7.8,7.8-7.8h1.7c0.8,0,1.5,0.7,1.5,1.5s-0.7,1.5-1.5,1.5
					h-1.7c-2.7,0-4.8,2.2-4.8,4.8c0,2.3,1.9,4.2,4.2,4.2h2.3c0.8,0,1.5,0.7,1.5,1.5S867,256.4,866.2,256.4z"/>
			</g>
			<g>
				<path class="st0" d="M866.2,244.3h-2.3c-4,0-7.2-3.2-7.2-7.2c0-4.3,3.5-7.8,7.8-7.8h1.7c0.8,0,1.5,0.7,1.5,1.5s-0.7,1.5-1.5,1.5
					h-1.7c-2.7,0-4.8,2.2-4.8,4.8c0,2.3,1.9,4.2,4.2,4.2h2.3c0.8,0,1.5,0.7,1.5,1.5S867,244.3,866.2,244.3z"/>
			</g>
			<g>
				<path class="st0" d="M866.2,232.3h-2.3c-4,0-7.2-3.2-7.2-7.2c0-4.3,3.5-7.8,7.8-7.8h1.7c0.8,0,1.5,0.7,1.5,1.5s-0.7,1.5-1.5,1.5
					h-1.7c-2.7,0-4.8,2.2-4.8,4.8c0,2.3,1.9,4.2,4.2,4.2h2.3c0.8,0,1.5,0.7,1.5,1.5S867,232.3,866.2,232.3z"/>
			</g>
			<g>
				<path class="st0" d="M866.2,220.2h-2.3c-4,0-7.2-3.2-7.2-7.2c0-4.3,3.5-7.8,7.8-7.8h1.7c0.8,0,1.5,0.7,1.5,1.5s-0.7,1.5-1.5,1.5
					h-1.7c-2.7,0-4.8,2.2-4.8,4.8c0,2.3,1.9,4.2,4.2,4.2h2.3c0.8,0,1.5,0.7,1.5,1.5S867,220.2,866.2,220.2z"/>
			</g>
		</g>
		<g>
			<path class="st0" d="M921.6,226.3h-21.7c-4.3,0-7.8-3.5-7.8-7.8c0-4,3.2-7.2,7.2-7.2h22.3c0.8,0,1.5,0.7,1.5,1.5
				s-0.7,1.5-1.5,1.5h-22.3c-2.3,0-4.2,1.9-4.2,4.2c0,2.7,2.2,4.8,4.8,4.8h21.7c0.8,0,1.5,0.7,1.5,1.5S922.4,226.3,921.6,226.3z"/>
		</g>
		<g>
			<path class="st0" d="M931.3,236c-6.2,0-11.2-5-11.2-11.2c0-0.8,0.7-1.5,1.5-1.5s1.5,0.7,1.5,1.5c0,4.5,3.7,8.2,8.2,8.2
				c0.8,0,1.5,0.7,1.5,1.5S932.1,236,931.3,236z"/>
		</g>
		<g>
			<path class="st0" d="M955.8,243.1c-0.8,0-1.5-0.7-1.5-1.5c0-20.2-16.4-36.7-36.7-36.7c-0.8,0-1.5-0.7-1.5-1.5s0.7-1.5,1.5-1.5
				c21.9,0,39.7,17.8,39.7,39.7C957.3,242.4,956.6,243.1,955.8,243.1z"/>
		</g>
		<g>
			<path class="st1" d="M892.4,160.7c-0.8,0-1.5-0.7-1.5-1.5v-11.3c0-0.8,0.7-1.5,1.5-1.5s1.5,0.7,1.5,1.5v11.3
				C893.9,160,893.2,160.7,892.4,160.7z"/>
		</g>
		<g>
			<path class="st1" d="M877.4,167.9c-0.4,0-0.9-0.2-1.2-0.6l-7.2-8.9c-0.5-0.6-0.4-1.6,0.2-2.1c0.6-0.5,1.6-0.4,2.1,0.2l7.2,8.9
				c0.5,0.6,0.4,1.6-0.2,2.1C878,167.8,877.7,167.9,877.4,167.9z"/>
		</g>
		<g>
			<path class="st1" d="M908.9,168.5c-0.3,0-0.7-0.1-0.9-0.3c-0.6-0.5-0.7-1.5-0.2-2.1l6.5-8c0.5-0.6,1.5-0.7,2.1-0.2
				c0.6,0.5,0.7,1.5,0.2,2.1l-6.5,8C909.7,168.4,909.3,168.5,908.9,168.5z"/>
		</g>
		<g>
			<g>
				<path class="st0" d="M659.8,216.9c-0.6,0-1.2-0.4-1.4-1l-2.6-7.2c-2.6-2.6-4-6.1-4-9.7c0-3.7,1.4-7.2,4.1-9.8s6.1-4.1,9.8-4.1
					c0,0,0,0,0,0c3.7,0,7.2,1.4,9.8,4.1c2.6,2.6,4.1,6.1,4.1,9.8c0,3.7-1.4,7.1-4,9.7l-2.6,7.2l-2.8-1l2.7-7.6
					c0.1-0.2,0.2-0.4,0.4-0.6c2.1-2.1,3.3-4.9,3.3-7.8c0-2.9-1.1-5.7-3.2-7.7c-2.1-2.1-4.8-3.2-7.7-3.2c0,0,0,0,0,0
					c-2.9,0-5.7,1.1-7.7,3.2c-2.1,2.1-3.2,4.8-3.2,7.7c0,3,1.2,5.8,3.3,7.8c0.2,0.2,0.3,0.4,0.4,0.6l2.7,7.6
					c0.3,0.8-0.1,1.6-0.9,1.9C660.1,216.9,659.9,216.9,659.8,216.9z"/>
			</g>
			<g>
				<path class="st0" d="M659.8,220.1c-0.8,0-1.5-0.7-1.5-1.5c0-0.8,0.7-1.5,1.5-1.5l11.9,0h0c0.8,0,1.5,0.7,1.5,1.5
					c0,0.8-0.7,1.5-1.5,1.5L659.8,220.1L659.8,220.1z"/>
			</g>
			<g>
				<path class="st0" d="M661.4,223.3c-0.8,0-1.5-0.7-1.5-1.5c0-0.8,0.7-1.5,1.5-1.5l8.7,0h0c0.8,0,1.5,0.7,1.5,1.5
					c0,0.8-0.7,1.5-1.5,1.5L661.4,223.3L661.4,223.3z"/>
			</g>
			<g>
				<path class="st0" d="M665.8,216.6c-0.8,0-1.5-0.7-1.5-1.5l0-12.6c0-0.8,0.7-1.5,1.5-1.5h0c0.8,0,1.5,0.7,1.5,1.5l0,12.6
					C667.3,215.9,666.6,216.6,665.8,216.6L665.8,216.6z"/>
			</g>
			<g>
				<g>
					<path class="st0" d="M665.7,182.2c-0.8,0-1.5-0.7-1.5-1.5l0-6.4c0-0.8,0.7-1.5,1.5-1.5h0c0.8,0,1.5,0.7,1.5,1.5l0,6.4
						C667.2,181.6,666.6,182.2,665.7,182.2L665.7,182.2z"/>
				</g>
				<g>
					<path class="st0" d="M679,187.1c-0.4,0-0.8-0.1-1.1-0.4c-0.6-0.6-0.6-1.5,0-2.1l4.4-4.5c0.6-0.6,1.5-0.6,2.1,0
						c0.6,0.6,0.6,1.5,0,2.1l-4.4,4.5C679.8,186.9,679.4,187.1,679,187.1z"/>
				</g>
				<g>
					<path class="st0" d="M652.7,186.3c-0.4,0-0.8-0.1-1.1-0.4l-4.5-4.4c-0.6-0.6-0.6-1.5,0-2.1c0.6-0.6,1.5-0.6,2.1,0l4.5,4.4
						c0.6,0.6,0.6,1.5,0,2.1C653.4,186.2,653,186.3,652.7,186.3z"/>
				</g>
				<g>
					<path class="st0" d="M684.6,201c-0.8,0-1.5-0.7-1.5-1.5c0-0.8,0.7-1.5,1.5-1.5l6.3,0h0c0.8,0,1.5,0.7,1.5,1.5
						c0,0.8-0.7,1.5-1.5,1.5L684.6,201L684.6,201z"/>
				</g>
				<g>
					<path class="st0" d="M640.6,201.1c-0.8,0-1.5-0.7-1.5-1.5c0-0.8,0.7-1.5,1.5-1.5l6.3,0h0c0.8,0,1.5,0.7,1.5,1.5
						c0,0.8-0.7,1.5-1.5,1.5L640.6,201.1L640.6,201.1z"/>
				</g>
			</g>
		</g>
		<g>
			<g>
				<path class="st0" d="M941.3,439.8c-0.6,0-1.2-0.4-1.4-1l-2.6-7.2c-2.6-2.6-4-6.1-4-9.7c0-3.7,1.4-7.2,4.1-9.8
					c2.6-2.6,6.1-4.1,9.8-4.1c0,0,0,0,0,0c3.7,0,7.2,1.4,9.8,4.1c2.6,2.6,4.1,6.1,4.1,9.8c0,3.7-1.4,7.1-4,9.7l-2.6,7.2l-2.8-1
					l2.7-7.6c0.1-0.2,0.2-0.4,0.4-0.6c2.1-2.1,3.3-4.9,3.3-7.8c0-2.9-1.1-5.7-3.2-7.7c-2.1-2.1-4.8-3.2-7.7-3.2c0,0,0,0,0,0
					c-2.9,0-5.7,1.1-7.7,3.2c-2.1,2.1-3.2,4.8-3.2,7.7c0,3,1.2,5.8,3.3,7.8c0.2,0.2,0.3,0.4,0.4,0.6l2.7,7.6
					c0.3,0.8-0.1,1.6-0.9,1.9C941.6,439.8,941.4,439.8,941.3,439.8z"/>
			</g>
			<g>
				<path class="st0" d="M941.3,443c-0.8,0-1.5-0.7-1.5-1.5c0-0.8,0.7-1.5,1.5-1.5l11.9,0h0c0.8,0,1.5,0.7,1.5,1.5
					c0,0.8-0.7,1.5-1.5,1.5L941.3,443L941.3,443z"/>
			</g>
			<g>
				<path class="st0" d="M942.9,446.2c-0.8,0-1.5-0.7-1.5-1.5c0-0.8,0.7-1.5,1.5-1.5l8.7,0h0c0.8,0,1.5,0.7,1.5,1.5
					c0,0.8-0.7,1.5-1.5,1.5L942.9,446.2L942.9,446.2z"/>
			</g>
			<g>
				<path class="st0" d="M947.3,439.6c-0.8,0-1.5-0.7-1.5-1.5l0-12.6c0-0.8,0.7-1.5,1.5-1.5h0c0.8,0,1.5,0.7,1.5,1.5l0,12.6
					C948.8,438.9,948.1,439.6,947.3,439.6L947.3,439.6z"/>
			</g>
			<g>
				<g>
					<path class="st0" d="M947.2,405.2c-0.8,0-1.5-0.7-1.5-1.5l0-6.4c0-0.8,0.7-1.5,1.5-1.5h0c0.8,0,1.5,0.7,1.5,1.5l0,6.4
						C948.7,404.5,948.1,405.2,947.2,405.2L947.2,405.2z"/>
				</g>
				<g>
					<path class="st0" d="M960.5,410c-0.4,0-0.8-0.1-1.1-0.4c-0.6-0.6-0.6-1.5,0-2.1l4.4-4.5c0.6-0.6,1.5-0.6,2.1,0
						c0.6,0.6,0.6,1.5,0,2.1l-4.4,4.5C961.3,409.9,960.9,410,960.5,410z"/>
				</g>
				<g>
					<path class="st0" d="M934.2,409.3c-0.4,0-0.8-0.1-1.1-0.4l-4.5-4.4c-0.6-0.6-0.6-1.5,0-2.1s1.5-0.6,2.1,0l4.5,4.4
						c0.6,0.6,0.6,1.5,0,2.1C934.9,409.1,934.5,409.3,934.2,409.3z"/>
				</g>
				<g>
					<path class="st0" d="M966.1,424c-0.8,0-1.5-0.7-1.5-1.5c0-0.8,0.7-1.5,1.5-1.5l6.3,0h0c0.8,0,1.5,0.7,1.5,1.5
						c0,0.8-0.7,1.5-1.5,1.5L966.1,424L966.1,424z"/>
				</g>
				<g>
					<path class="st0" d="M922.1,424c-0.8,0-1.5-0.7-1.5-1.5c0-0.8,0.7-1.5,1.5-1.5l6.3,0h0c0.8,0,1.5,0.7,1.5,1.5
						c0,0.8-0.7,1.5-1.5,1.5L922.1,424L922.1,424z"/>
				</g>
			</g>
		</g>
		<g>
			<g>
				<g>
					<defs>
						<path id="SVGID_3_" d="M871.7,59c0,15,12.1,27.1,27,27.1c14.9,0,27-12.1,27-27.1s-12.1-27.1-27-27.1
							C883.9,31.9,871.7,44,871.7,59"/>
					</defs>
					<clipPath id="SVGID_4_">
						<use xlink:href="#SVGID_3_"  style="overflow:visible;"/>
					</clipPath>
				</g>
				<g>
					<path class="st0" d="M899.3,87.3c-15.5,0-28.1-12.8-28.1-28.5s12.6-28.5,28.1-28.5c15.5,0,28.1,12.8,28.1,28.5
						S914.8,87.3,899.3,87.3z M899.3,33.4c-13.9,0-25.1,11.4-25.1,25.5s11.3,25.5,25.1,25.5c13.9,0,25.1-11.4,25.1-25.5
						S913.2,33.4,899.3,33.4z"/>
				</g>
			</g>
			<g>
				<path class="st0" d="M919.5,77.9c-0.3,0-0.5-0.1-0.8-0.2c-1.8-1.1-5-2.4-8.4-3.2c-2.6-0.7-4.8-2.1-5.1-2.3
					c-0.5-0.3-0.8-0.9-0.8-1.8l-0.4-0.1c-0.7-0.1-1.3-0.7-1.3-1.5c0-0.2-0.1-2-0.1-2c0-0.7,0.4-1.3,1-1.5c0.4-0.1,0.7-1.6,0.7-2.9
					c0-0.5,0.2-1.1,0.7-1.3c0.3-0.2,0.6-0.2,0.9-0.2c0.2-0.3,0.4-0.8,0.5-1.2c0,0,0-0.1,0-0.1c0.4-1,0.4-1.6,0.4-1.9
					c-0.3-0.1-0.6-0.2-0.8-0.5c-0.3-0.4-0.5-0.9-0.4-1.3c0.6-2.8,0-7,0-7c-0.2-2-1.4-3.3-3.5-3.9c-2.8-0.9-5.9-0.3-6.9,0.3
					c0.1,0.4,0,0.8-0.2,1.2c-0.4,0.6-1,0.8-1.7,0.6c-0.7-0.2-0.9,0-1,0.1c-0.9,0.9-0.9,4.3-0.5,6.5l0.9,2.3c0.2,0.7,0,1.4-0.6,1.8
					c-0.3,0.2-0.3,0.2-0.1,1.2c0.1,0.5,0.3,1,0.3,1.7c0,0.2,0,0.4,0.1,0.5c0.3,0,0.6,0.1,0.9,0.3c0.4,0.3,0.6,0.7,0.6,1.2
					c0.1,2.6,1.1,3.2,1.1,3.2c0.6,0.1,0.8,0.5,0.9,1.2c0.3,2.3,0.2,3.1-0.3,3.6c-0.3,0.3-0.7,0.6-1.1,0.6c0,0-0.1,0-0.1,0h-0.2
					c0,0.1,0,0.2-0.1,0.3c-0.1,0.5-0.4,0.8-0.9,1c-1,0.4-1.5,0.7-2.1,1c-0.7,0.3-1.3,0.6-2.4,1.1c-1.5,0.7-1.9,0.8-3.3,1.4l-0.3,0.1
					c-0.8,0.3-1.6-0.1-1.9-0.8c-0.3-0.8,0.1-1.6,0.8-1.9l0.3-0.1c1.3-0.5,1.7-0.7,3.2-1.3c1-0.4,1.6-0.7,2.3-1
					c0.4-0.2,0.9-0.4,1.5-0.7c0-0.1,0-0.1,0-0.2c-0.1-0.4,0.1-0.9,0.3-1.2c0.3-0.3,0.7-0.5,1.1-0.5h0.2c0,0,0-0.1,0-0.1
					c-0.8-0.6-1.7-1.8-2-4.2c-0.1-0.1-0.2-0.1-0.3-0.2c-0.8-0.6-1.2-1.6-1.3-2.9c0-0.3-0.1-0.7-0.2-1c-0.2-0.9-0.6-2.3,0.4-3.6
					l-0.6-1.5c0-0.1-0.1-0.2-0.1-0.2c-0.2-1.2-1.1-7.1,1.4-9.4c0.4-0.4,1.1-0.8,2-0.9c0,0,0-0.1,0.1-0.1c1.3-2.1,6.1-2.8,9.7-2
					c3.8,0.8,6.2,3.3,6.6,6.7c0,0.1,0.5,3.7,0.2,6.8c0.1,0.1,0.3,0.2,0.4,0.4c0.8,1,0.9,2.6,0.1,4.9c-0.2,0.8-0.8,2.5-2,3.1
					c-0.1,1.2-0.5,2.9-1.6,3.9c0,0,0,0,0,0l0.6,0.1c0.4,0.1,0.8,0.3,1,0.6c0.2,0.3,0.3,0.7,0.3,1.1c0,0.2-0.1,0.4-0.1,0.6
					c0.7,0.4,2.1,1.2,3.7,1.6c2.8,0.7,6.7,2,9.2,3.6c0.7,0.4,0.9,1.4,0.5,2.1C920.5,77.6,920,77.9,919.5,77.9z M906.8,69.5
					C906.8,69.5,906.8,69.5,906.8,69.5C906.8,69.5,906.8,69.5,906.8,69.5z M906.8,69.5C906.8,69.5,906.8,69.5,906.8,69.5
					C906.8,69.5,906.8,69.5,906.8,69.5z M907.2,57.6C907.2,57.6,907.2,57.6,907.2,57.6C907.2,57.6,907.2,57.6,907.2,57.6z"/>
			</g>
		</g>
	</g>
</g>
</svg>
