<?xml version="1.0" encoding="utf-8"?>
<!-- Generator: Adobe Illustrator 19.2.1, SVG Export Plug-In . SVG Version: 6.00 Build 0)  -->
<svg version="1.1" id="Layer_1" xmlns="http://www.w3.org/2000/svg" xmlns:xlink="http://www.w3.org/1999/xlink" x="0px" y="0px"
	 viewBox="0 0 1200 200" style="enable-background:new 0 0 1200 200;" xml:space="preserve">
<style type="text/css">
	.st0{fill:none;stroke:#FFFFFF;stroke-width:2;stroke-linecap:round;stroke-linejoin:round;stroke-miterlimit:10;}
	.st1{fill:#FFFFFF;}
	.st2{fill:#27AE60;stroke:#FFFFFF;stroke-width:2;stroke-miterlimit:10;}
	.st3{fill:#27AE60;stroke:#FFFFFF;stroke-miterlimit:10;}
	.st4{fill:none;stroke:#FFFFFF;stroke-miterlimit:10;}
</style>
<g>
	<g>
		<path class="st0" d="M346,60c0,36.5-29.6,66.1-66.1,66.1S213.7,96.5,213.7,60c0-36.5,29.6-66.1,66.1-66.1S346,23.5,346,60"/>
		<g>
			<path class="st0" d="M278,36.4"/>
			<polyline class="st0" points="276.8,35.5 273.8,77.9 279.8,83.9 285.9,77.9 283.2,41.6 			"/>
			<path class="st0" d="M243.6,77.9c0,6.7,5.4,12.1,12.1,12.1H304c6.7,0,12.1-5.4,12.1-12.1l0-30.2c0-6.7-5.4-12.1-12.1-12.1
				l-48.4,0c-6.7,0-12.1,5.4-12.1,12.1L243.6,77.9z"/>
			<line class="st0" x1="255.7" y1="35.5" x2="255.7" y2="83.9"/>
			<line class="st0" x1="304" y1="90" x2="304" y2="41.6"/>
			<line class="st0" x1="274.6" y1="77.3" x2="285.1" y2="72.4"/>
			<line class="st0" x1="275" y1="71.2" x2="284.7" y2="66.4"/>
			<line class="st0" x1="275.3" y1="65" x2="284.3" y2="60.5"/>
			<polyline class="st0" points="276.8,35.5 270.7,23.4 289,23.4 282.9,35.5 			"/>
		</g>
	</g>
	<g>
		<path class="st0" d="M154.6,46.6c0,53.5-43.3,96.8-96.8,96.8S-39,100.1-39,46.6c0-53.5,43.3-96.8,96.8-96.8S154.6-6.8,154.6,46.6"
			/>
		<g>
			<polyline class="st0" points="49.2,12 57.8,2.6 118.4,63.9 101.6,63.9 101.6,90.5 66.4,90.5 66.4,72.6 49.2,72.6 			"/>
			<polyline class="st0" points="5.9,90.5 34.1,90.5 49.2,90.5 			"/>
			<line class="st0" x1="23.2" y1="20.7" x2="23.2" y2="90"/>
			<path class="st0" d="M31.9,46.6c9.6,0,17.3-7.8,17.3-17.3c0-9.6-7.8-17.3-17.3-17.3c-0.2,0-0.5,0-0.7,0C29.4,7,24.5,3.4,18.9,3.4
				c-6.5,0-11.8,4.7-12.8,10.9c-5.3,3-8.8,8.6-8.8,15.1c0,9.6,7.8,17.3,17.3,17.3"/>
			<line class="st0" x1="23.2" y1="38" x2="31.9" y2="29.3"/>
		</g>
	</g>
	<g>
		<path class="st0" d="M1000.8,51.4c0,53.5-43.3,96.8-96.8,96.8c-53.5,0-96.8-43.3-96.8-96.8c0-53.5,43.3-96.8,96.8-96.8
			C957.4-45.5,1000.8-2.1,1000.8,51.4"/>
		<g>
			<ellipse class="st0" cx="907.9" cy="34.1" rx="16.3" ry="16.3"/>
			<g>
				<path class="st1" d="M871.5,43.6c0.4,0.1,0.9,0.4,1.1,0.8l4,8.5c0.2,0.4,0.7,0.7,1.1,0.8l16.2,1.7c0.4,0,0.9,0.4,1.1,0.8l1,2.2
					c0.2,0.4,0,0.7-0.4,0.8l-14.4,1.7c-0.4,0.1-0.6,0.4-0.4,0.8l2.8,6c0.2,0.4,0.7,0.8,1.1,0.9l2.8,0.7c0.4,0.1,0.9,0.5,1.1,0.9
					l0.7,1.5c0.2,0.4,0,0.8-0.4,0.8l-4.1,0.6c-0.4,0.1-1,0.3-1.3,0.6l-3.1,2.8c-0.1,0.1-0.3,0.2-0.4,0.2c-0.2,0-0.4-0.1-0.5-0.4
					l-0.7-1.5c-0.2-0.4-0.2-1,0-1.4l1.3-2.6c0.2-0.4,0.2-1,0-1.4l-2.8-6c-0.1-0.2-0.3-0.3-0.5-0.3c-0.1,0-0.3,0.1-0.4,0.2l-10.6,9.9
					c-0.1,0.1-0.3,0.2-0.4,0.2c-0.2,0-0.4-0.1-0.5-0.3l-1-2.2c-0.2-0.4-0.1-1,0.1-1.3l8.9-13.4c0.2-0.4,0.3-1,0.1-1.4l-4-8.6
					c-0.2-0.4-0.1-1,0.1-1.4L871.5,43.6 M871.5,41.6c-0.3,0-0.5,0.1-0.8,0.2l-2.4,1.1c-0.4,0.2-0.7,0.4-0.9,0.8
					c-0.6,0.9-0.6,2.3-0.2,3.3l3.8,8.3l-8.7,13.1c-0.6,0.9-0.7,2.3-0.3,3.3l1,2.2c0.4,0.9,1.3,1.5,2.3,1.5c0.6,0,1.3-0.3,1.8-0.7
					l9.1-8.5l1.9,4l-1.2,2.4c-0.5,0.9-0.5,2.2-0.1,3.1l0.7,1.5c0.4,0.9,1.3,1.5,2.3,1.5c0.6,0,1.3-0.2,1.7-0.7l3.1-2.8
					c0,0,0.2-0.1,0.3-0.1l4.1-0.6c0.8-0.1,1.5-0.6,1.9-1.3c0.4-0.7,0.4-1.6,0.1-2.3l-0.7-1.5c-0.4-0.9-1.4-1.7-2.4-2l-2.6-0.6
					l-1.9-4l12.4-1.5c0.8-0.1,1.6-0.6,2-1.3c0.4-0.7,0.4-1.6,0.1-2.3l-1-2.2c-0.5-1-1.6-1.8-2.7-1.9l-15.9-1.7l-3.8-8.2
					c-0.5-1-1.5-1.8-2.6-2C871.7,41.6,871.6,41.6,871.5,41.6L871.5,41.6z"/>
			</g>
			<path class="st0" d="M867.8,34.2c0-22.4,18.2-40.6,40.6-40.6c22.4,0,40.6,18.2,40.6,40.6c0,22.4-40.6,81.2-40.6,81.2
				s-10.3-14.8-20.5-32.5"/>
		</g>
	</g>
	<g>
		<path class="st0" d="M493.9-11.3c0,38.6-31.3,69.8-69.8,69.8s-69.8-31.3-69.8-69.8c0-38.6,31.3-69.8,69.8-69.8
			S493.9-49.9,493.9-11.3"/>
		<g>
			<line class="st0" x1="424.5" y1="-23.5" x2="449" y2="-54.2"/>
			<polyline class="st0" points="424.5,1 424.5,19.4 412.2,31.7 436.8,31.7 			"/>
			<path class="st0" d="M418.4-29.6h-24.5c0,16.9,13.7,30.7,30.7,30.7c16.9,0,30.7-13.7,30.7-30.7H449"/>
			<line class="st0" x1="461.3" y1="-48.1" x2="430.6" y2="-23.5"/>
			<path class="st0" d="M448.1-10c-1.7-0.7-3.5-1.2-5.2-1.2c-6.1,0-12.3,6.1-18.4,6.1c-6.1,0-12.3-6.1-18.4-6.1
				c-1.7,0-3.5,0.5-5.2,1.2"/>
			<path class="st0" d="M397.7-14.7c2.8-1.4,5.6-2.7,8.4-2.7c6.1,0,12.3,6.1,18.4,6.1c6.1,0,12.3-6.1,18.4-6.1
				c2.8,0,5.6,1.3,8.4,2.7"/>
			<path class="st0" d="M453.5-19.7c-3.5-1.7-7.1-3.8-10.6-3.8c-6.1,0-12.3,6.1-18.4,6.1c-6.1,0-12.3-6.1-18.4-6.1
				c-3.5,0-7.1,2-10.6,3.8"/>
			<path class="st0" d="M451.3-14.7c-2.8-1.4-5.6-2.7-8.4-2.7c-6.1,0-12.3,6.1-18.4,6.1c-6.1,0-12.3-6.1-18.4-6.1
				c-2.8,0-5.6,1.3-8.4,2.7"/>
			<path class="st0" d="M400.9-10c1.7-0.7,3.5-1.2,5.2-1.2c6.1,0,12.3,6.1,18.4,6.1c6.1,0,12.3-6.1,18.4-6.1c1.7,0,3.5,0.5,5.2,1.2"
				/>
		</g>
	</g>
	<g>
		<path class="st0" d="M650.6,110.5c0,43-34.8,77.8-77.8,77.8c-43,0-77.8-34.8-77.8-77.8c0-43,34.8-77.8,77.8-77.8
			C615.7,32.7,650.6,67.5,650.6,110.5"/>
		<g>
			<circle class="st2" cx="546.6" cy="136.6" r="6.5"/>
			<circle class="st2" cx="598.8" cy="136.6" r="6.5"/>
			<circle class="st2" cx="546.6" cy="84.4" r="6.5"/>
			<circle class="st2" cx="598.8" cy="84.4" r="6.5"/>
			<circle class="st0" cx="533.6" cy="110.5" r="6.5"/>
			<circle class="st0" cx="611.9" cy="110.5" r="6.5"/>
			<circle class="st0" cx="572.7" cy="71.3" r="6.5"/>
			<circle class="st0" cx="572.7" cy="149.7" r="6.5"/>
			<line class="st0" x1="572.7" y1="136.6" x2="572.7" y2="143.1"/>
			<polyline class="st0" points="546.6,136.6 566.2,136.6 566.2,123.6 546.6,123.6 546.6,116.9 572.7,116.9 572.7,123.6 
				572.7,130.1 			"/>
			<line class="st0" x1="598.8" y1="110.5" x2="605.4" y2="110.5"/>
			<polyline class="st0" points="598.8,136.6 579.3,136.6 579.3,117 585.8,117 585.8,110.5 592.3,110.5 			"/>
			<line class="st0" x1="572.7" y1="84.4" x2="572.7" y2="77.9"/>
			<polyline class="st0" points="598.8,84.4 598.8,104 585.8,104 585.8,90.9 572.7,90.9 			"/>
			<polyline class="st0" points="553.1,110.5 559.7,110.5 579.3,110.5 579.3,97.4 566.2,97.4 566.2,84.4 553.1,84.4 			"/>
			<line class="st0" x1="540.1" y1="110.5" x2="546.6" y2="110.5"/>
		</g>
	</g>
	<g>
		<path class="st0" d="M1224.4,41.6c0,36.5-29.6,66.1-66.1,66.1c-36.5,0-66.1-29.6-66.1-66.1c0-36.5,29.6-66.1,66.1-66.1
			C1194.8-24.5,1224.4,5.1,1224.4,41.6"/>
		<g>
			<g>
				<path class="st0" d="M1149.7,69.1c0-10.6-8.5-19.1-19.1-19.1"/>
				<path class="st0" d="M1137.8,19.4c11,7.8,26.3,6.7,36.2-3.1"/>
				<path class="st0" d="M1160,70.7c0-17.1-13.9-31-31-31"/>
				<path class="st0" d="M1171,68.4c-2.9-20.6-18.9-36.9-39.4-40.1"/>
				<path class="st0" d="M1156.2,40.2c3.3-4.8,4.2-10.7,2.6-16.1"/>
				<path class="st0" d="M1163,48c6.3-8,7.7-17.8,5-27.2"/>
				<path class="st0" d="M1168.5,58.7c9.3-11.5,12.4-26.3,9.3-40"/>
				<path class="st0" d="M1149,34.8c0,10.6-6.1,19.7-14.9,24.2"/>
				<circle class="st0" cx="1158.3" cy="41.3" r="30"/>
			</g>
			<ellipse transform="matrix(0.7071 -0.7071 0.7071 0.7071 343.0444 844.8101)" class="st3" cx="1191.2" cy="8.3" rx="3" ry="3"/>
			<ellipse transform="matrix(0.7071 -0.7071 0.7071 0.7071 346.2325 828.5731)" class="st3" cx="1173.3" cy="-3.6" rx="3" ry="3"/>
			<line class="st0" x1="1131" y1="63.3" x2="1122.3" y2="71.2"/>
			<line class="st0" x1="1191.2" y1="8.3" x2="1182.5" y2="16.3"/>
			<line class="st0" x1="1143.8" y1="73.7" x2="1140.1" y2="83.5"/>
			<line class="st0" x1="1173.3" y1="-3.6" x2="1168.9" y2="7.9"/>
		</g>
	</g>
	<g>
		<path class="st0" d="M768.1,46.6c0,27.1-21.9,49-49,49s-49-21.9-49-49c0-27.1,21.9-49,49-49S768.1,19.5,768.1,46.6"/>
		<g>
			<line class="st0" x1="693.2" y1="40" x2="713.7" y2="40"/>
			<path class="st0" d="M703.5,51.4v17.8c0,2.5,2,4.4,4.4,4.4h33.3c2.5,0,4.4-2,4.4-4.4V33.6c0-2.5-2-4.4-4.4-4.4H728
				c-2.5,0-4.4,2-4.4,4.4v17.8"/>
			<circle class="st0" cx="723.5" cy="58" r="6.7"/>
			<circle class="st3" cx="708" cy="29.1" r="2.2"/>
			<circle class="st3" cx="699.3" cy="29.1" r="2.2"/>
			<path class="st0" d="M699.2,29.1h-6.8v6.7c0,6.1,5,11.1,11.1,11.1c6.1,0,11.1-5,11.1-11.1v-6.7H708"/>
		</g>
	</g>
	<g>
		<circle class="st0" cx="1069.6" cy="144.7" r="44"/>
		<g>
			<path class="st0" d="M1060.8,122.7l-8.8,0c-2.4,0-4.4,2-4.4,4.4v13.2"/>
			<path class="st0" d="M1078.3,122.7h8.8c2.4,0,4.4,2,4.4,4.4v39.6c0,2.4-2,4.4-4.4,4.4l-35.2,0c-2.4,0-4.4-2-4.4-4.4v-17.6l8.8,0
				l4.4-13.2l4.4,26.4l4.4-17.6l4.4,13.2l4.4-8.8h4.4"/>
			<rect x="1060.8" y="118.4" class="st0" width="17.6" height="8.8"/>
			<circle class="st2" cx="1084.9" cy="149.1" r="2.2"/>
		</g>
	</g>
	<g>
		<path class="st0" d="M444.4,130.1c0,24-19.5,43.5-43.5,43.5s-43.5-19.5-43.5-43.5c0-24,19.5-43.5,43.5-43.5
			S444.4,106.1,444.4,130.1"/>
		<path class="st0" d="M412.4,116.1L412.4,116.1c0-2.1-1.7-3.8-3.8-3.8h-11.5c-2.1,0-3.8,1.7-3.8,3.8"/>
		<path class="st0" d="M389.4,116.1l-7.6,0c-2.1,0-3.8,1.7-3.8,3.8v7.6v7.6v7.6c0,2.1,1.7,3.8,3.8,3.8l7.6,0h3.8"/>
		<path class="st0" d="M416.2,116.1h3.8c2.1,0,3.8,1.7,3.8,3.8v7.6v7.6v7.6c0,2.1-1.7,3.8-3.8,3.8l-7.6,0"/>
		<line class="st0" x1="381.8" y1="112.3" x2="389.4" y2="112.3"/>
		<circle class="st0" cx="402.8" cy="131.4" r="11.5"/>
		<line class="st0" x1="401.1" y1="124.6" x2="413.7" y2="128"/>
		<line class="st0" x1="411.2" y1="139.2" x2="407.8" y2="126.5"/>
		<line class="st0" x1="409.5" y1="133.2" x2="400.2" y2="142.5"/>
		<line class="st0" x1="391.9" y1="134.7" x2="404.5" y2="138.1"/>
		<line class="st0" x1="397.8" y1="136.3" x2="394.4" y2="123.6"/>
		<line class="st0" x1="405.4" y1="120.2" x2="396.1" y2="129.5"/>
		<circle class="st4" cx="383.7" cy="121.8" r="1.9"/>
	</g>
</g>
</svg>
