<?xml version="1.0" encoding="utf-8"?>
<!-- Generator: Adobe Illustrator 19.2.1, SVG Export Plug-In . SVG Version: 6.00 Build 0)  -->
<svg version="1.1" id="Layer_1" xmlns="http://www.w3.org/2000/svg" xmlns:xlink="http://www.w3.org/1999/xlink" x="0px" y="0px"
	 viewBox="0 0 1000 424" style="enable-background:new 0 0 1000 424;" xml:space="preserve">
<style type="text/css">
	.st0{fill:#333333;}
	.st1{fill:#231F20;}
	.st2{fill:none;stroke:#333333;stroke-width:2;stroke-linecap:round;stroke-linejoin:round;stroke-miterlimit:10;}
</style>
<g>
	<g>
		<path class="st0" d="M892.7,171.2c-41.7,0-75.6-33.9-75.6-75.6c0-41.7,33.9-75.6,75.6-75.6c41.7,0,75.6,33.9,75.6,75.6
			C968.3,137.3,934.4,171.2,892.7,171.2z M892.7,22c-40.6,0-73.6,33-73.6,73.6c0,40.6,33,73.6,73.6,73.6c40.6,0,73.6-33,73.6-73.6
			C966.3,55,933.3,22,892.7,22z"/>
	</g>
	<g>
		<path class="st1" d="M74.2,187.9h0.9v2.9h3.3v-2.9h0.9v7h-0.9v-3.3h-3.3v3.3h-0.9V187.9z"/>
		<path class="st1" d="M83.1,189.6c1.3,0,2.4,1,2.4,2.7c0,1.7-1.1,2.7-2.4,2.7c-1.3,0-2.4-1-2.4-2.7
			C80.7,190.6,81.8,189.6,83.1,189.6z M83.1,194.3c0.9,0,1.5-0.8,1.5-2c0-1.2-0.6-2-1.5-2c-0.9,0-1.5,0.8-1.5,2
			C81.6,193.5,82.2,194.3,83.1,194.3z"/>
		<path class="st1" d="M86.8,189.8h0.7l0.1,0.7h0c0.4-0.5,1-0.9,1.6-0.9c0.8,0,1.2,0.4,1.4,1c0.5-0.6,1.1-1,1.7-1
			c1.1,0,1.6,0.7,1.6,2v3.3h-0.9v-3.2c0-1-0.3-1.4-1-1.4c-0.4,0-0.8,0.3-1.3,0.8v3.8H90v-3.2c0-1-0.3-1.4-1-1.4
			c-0.4,0-0.8,0.3-1.3,0.8v3.8h-0.9V189.8z"/>
		<path class="st1" d="M97.6,189.6c1.3,0,2.1,0.9,2.1,2.4c0,0.2,0,0.4,0,0.5h-3.5c0.1,1.1,0.7,1.8,1.7,1.8c0.5,0,0.9-0.2,1.3-0.4
			l0.3,0.6c-0.4,0.3-1,0.5-1.7,0.5c-1.4,0-2.5-1-2.5-2.7S96.4,189.6,97.6,189.6z M98.9,192c0-1.1-0.5-1.6-1.3-1.6
			c-0.7,0-1.4,0.6-1.5,1.6H98.9z"/>
		<path class="st1" d="M108.3,195.1c-0.5-0.1-1-0.4-1.6-0.8c-0.5,0.5-1.2,0.8-2,0.8c-1.3,0-2.1-0.8-2.1-1.9c0-0.9,0.7-1.5,1.4-2
			c-0.3-0.6-0.5-1.1-0.5-1.6c0-0.9,0.7-1.7,1.6-1.7c0.9,0,1.4,0.6,1.4,1.4c0,0.9-0.8,1.5-1.6,2.1c0.5,0.7,1.1,1.4,1.8,2
			c0.4-0.6,0.8-1.3,1-2.1h0.8c-0.3,0.9-0.7,1.8-1.2,2.5c0.5,0.3,0.9,0.6,1.3,0.7L108.3,195.1z M104.8,194.4c0.5,0,0.9-0.2,1.3-0.6
			c-0.7-0.6-1.3-1.3-1.8-2.1c-0.5,0.4-0.9,0.8-0.9,1.4C103.4,193.8,104,194.4,104.8,194.4z M104.6,190.7c0.6-0.4,1.2-0.9,1.2-1.5
			c0-0.4-0.2-0.8-0.7-0.8c-0.5,0-0.9,0.4-0.9,1C104.2,189.8,104.4,190.3,104.6,190.7z"/>
		<path class="st1" d="M114.6,187.8c1,0,1.6,0.4,2,0.9l-0.5,0.6c-0.4-0.4-0.8-0.7-1.5-0.7c-1.4,0-2.3,1.1-2.3,2.8
			c0,1.8,0.8,2.9,2.3,2.9c0.5,0,1-0.2,1.3-0.4V192h-1.5v-0.7h2.3v2.9c-0.5,0.5-1.2,0.8-2.2,0.8c-1.8,0-3.1-1.3-3.1-3.6
			C111.4,189.2,112.8,187.8,114.6,187.8z"/>
		<path class="st1" d="M121.3,191.7c0-0.7-0.2-1.3-1.1-1.3c-0.6,0-1.1,0.3-1.5,0.6l-0.4-0.6c0.5-0.3,1.2-0.7,2-0.7
			c1.3,0,1.8,0.8,1.8,2.1v3.2h-0.7l-0.1-0.6h0c-0.5,0.4-1.1,0.7-1.7,0.7c-0.9,0-1.5-0.5-1.5-1.5C118.1,192.5,119,191.9,121.3,191.7z
			 M119.8,194.4c0.5,0,0.9-0.2,1.4-0.7v-1.4c-1.7,0.2-2.3,0.6-2.3,1.3C118.9,194.1,119.3,194.4,119.8,194.4z"/>
		<path class="st1" d="M123.8,189.8h0.7l0.1,0.9h0c0.4-0.7,0.9-1.1,1.5-1.1c0.2,0,0.4,0,0.6,0.1l-0.2,0.8c-0.2-0.1-0.3-0.1-0.5-0.1
			c-0.4,0-1,0.3-1.3,1.2v3.3h-0.9V189.8z"/>
		<path class="st1" d="M129.2,189.6c0.6,0,1,0.2,1.5,0.6l0-0.9v-2h0.9v7.6h-0.7l-0.1-0.6h0c-0.4,0.4-1,0.7-1.6,0.7
			c-1.3,0-2.1-1-2.1-2.7C127,190.7,128.1,189.6,129.2,189.6z M129.3,194.3c0.5,0,0.9-0.2,1.3-0.7v-2.7c-0.4-0.4-0.8-0.5-1.3-0.5
			c-0.8,0-1.5,0.8-1.5,2C127.9,193.6,128.4,194.3,129.3,194.3z"/>
		<path class="st1" d="M135.2,189.6c1.3,0,2.1,0.9,2.1,2.4c0,0.2,0,0.4,0,0.5h-3.5c0.1,1.1,0.7,1.8,1.7,1.8c0.5,0,0.9-0.2,1.3-0.4
			l0.3,0.6c-0.4,0.3-1,0.5-1.7,0.5c-1.4,0-2.5-1-2.5-2.7S134,189.6,135.2,189.6z M136.5,192c0-1.1-0.5-1.6-1.3-1.6
			c-0.7,0-1.4,0.6-1.5,1.6H136.5z"/>
		<path class="st1" d="M138.6,189.8h0.7l0.1,0.7h0c0.5-0.5,1-0.9,1.7-0.9c1.1,0,1.6,0.7,1.6,2v3.3h-0.9v-3.2c0-1-0.3-1.4-1-1.4
			c-0.5,0-0.9,0.3-1.4,0.8v3.8h-0.9V189.8z"/>
	</g>
	<g>
		<path class="st1" d="M287.6,187.9h2.1c1.4,0,2.4,0.5,2.4,1.7c0,0.7-0.4,1.3-1.2,1.5v0c1,0.2,1.6,0.7,1.6,1.7c0,1.4-1.1,2-2.7,2
			h-2.2V187.9z M289.5,190.9c1.2,0,1.7-0.4,1.7-1.2c0-0.8-0.6-1.1-1.6-1.1h-1.1v2.3H289.5z M289.7,194.2c1.2,0,1.9-0.4,1.9-1.4
			c0-0.9-0.7-1.3-1.9-1.3h-1.2v2.6H289.7z"/>
		<path class="st1" d="M293.7,189.8h0.9v3.2c0,1,0.3,1.4,1,1.4c0.5,0,0.9-0.3,1.4-0.9v-3.7h0.9v5.2h-0.7l-0.1-0.8h0
			c-0.5,0.6-1,0.9-1.7,0.9c-1.1,0-1.6-0.7-1.6-2V189.8z"/>
		<path class="st1" d="M299.4,193.8c0.4,0.4,0.9,0.6,1.5,0.6c0.7,0,1-0.4,1-0.8c0-0.5-0.6-0.8-1.2-1c-0.7-0.3-1.5-0.6-1.5-1.5
			c0-0.8,0.7-1.5,1.8-1.5c0.7,0,1.2,0.3,1.6,0.6l-0.4,0.6c-0.4-0.3-0.7-0.5-1.2-0.5c-0.7,0-0.9,0.4-0.9,0.7c0,0.5,0.6,0.7,1.2,0.9
			c0.7,0.3,1.6,0.6,1.6,1.6c0,0.8-0.7,1.5-1.9,1.5c-0.7,0-1.4-0.3-1.9-0.7L299.4,193.8z"/>
		<path class="st1" d="M303.8,188.1c0-0.3,0.3-0.6,0.6-0.6s0.6,0.2,0.6,0.6c0,0.3-0.3,0.6-0.6,0.6S303.8,188.5,303.8,188.1z
			 M304,189.8h0.9v5.2H304V189.8z"/>
		<path class="st1" d="M306.6,189.8h0.7l0.1,0.7h0c0.5-0.5,1-0.9,1.7-0.9c1.1,0,1.6,0.7,1.6,2v3.3h-0.9v-3.2c0-1-0.3-1.4-1-1.4
			c-0.5,0-0.9,0.3-1.4,0.8v3.8h-0.9V189.8z"/>
		<path class="st1" d="M314.4,189.6c1.3,0,2.1,0.9,2.1,2.4c0,0.2,0,0.4,0,0.5h-3.5c0.1,1.1,0.7,1.8,1.7,1.8c0.5,0,0.9-0.2,1.3-0.4
			l0.3,0.6c-0.4,0.3-1,0.5-1.7,0.5c-1.4,0-2.5-1-2.5-2.7S313.2,189.6,314.4,189.6z M315.7,192c0-1.1-0.5-1.6-1.3-1.6
			c-0.7,0-1.4,0.6-1.5,1.6H315.7z"/>
		<path class="st1" d="M317.6,193.8c0.4,0.4,0.9,0.6,1.5,0.6c0.7,0,1-0.4,1-0.8c0-0.5-0.6-0.8-1.2-1c-0.7-0.3-1.5-0.6-1.5-1.5
			c0-0.8,0.7-1.5,1.8-1.5c0.7,0,1.2,0.3,1.6,0.6l-0.4,0.6c-0.4-0.3-0.7-0.5-1.2-0.5c-0.7,0-0.9,0.4-0.9,0.7c0,0.5,0.6,0.7,1.2,0.9
			c0.7,0.3,1.6,0.6,1.6,1.6c0,0.8-0.7,1.5-1.9,1.5c-0.7,0-1.4-0.3-1.9-0.7L317.6,193.8z"/>
		<path class="st1" d="M322.1,193.8c0.4,0.4,0.9,0.6,1.5,0.6c0.7,0,1-0.4,1-0.8c0-0.5-0.6-0.8-1.2-1c-0.7-0.3-1.5-0.6-1.5-1.5
			c0-0.8,0.7-1.5,1.8-1.5c0.7,0,1.2,0.3,1.6,0.6l-0.4,0.6c-0.4-0.3-0.7-0.5-1.2-0.5c-0.7,0-0.9,0.4-0.9,0.7c0,0.5,0.6,0.7,1.2,0.9
			c0.7,0.3,1.6,0.6,1.6,1.6c0,0.8-0.7,1.5-1.9,1.5c-0.7,0-1.4-0.3-1.9-0.7L322.1,193.8z"/>
	</g>
	<g>
		<path class="st1" d="M462.6,188.7h-2.1v-0.7h5.1v0.7h-2.1v6.2h-0.9V188.7z"/>
		<path class="st1" d="M466.3,189.8h0.7l0.1,0.9h0c0.4-0.7,0.9-1.1,1.5-1.1c0.2,0,0.4,0,0.6,0.1l-0.2,0.8c-0.2-0.1-0.3-0.1-0.5-0.1
			c-0.4,0-1,0.3-1.3,1.2v3.3h-0.9V189.8z"/>
		<path class="st1" d="M472.7,191.7c0-0.7-0.2-1.3-1.1-1.3c-0.6,0-1.1,0.3-1.5,0.6l-0.4-0.6c0.5-0.3,1.2-0.7,2-0.7
			c1.3,0,1.8,0.8,1.8,2.1v3.2h-0.7l-0.1-0.6h0c-0.5,0.4-1.1,0.7-1.7,0.7c-0.9,0-1.5-0.5-1.5-1.5
			C469.5,192.5,470.5,191.9,472.7,191.7z M471.3,194.4c0.5,0,0.9-0.2,1.4-0.7v-1.4c-1.7,0.2-2.3,0.6-2.3,1.3
			C470.4,194.1,470.7,194.4,471.3,194.4z"/>
		<path class="st1" d="M474.5,189.8h0.9l1,2.9c0.1,0.5,0.3,1,0.5,1.5h0c0.1-0.5,0.3-1,0.5-1.5l1-2.9h0.9l-1.8,5.2h-1L474.5,189.8z"
			/>
		<path class="st1" d="M482.1,189.6c1.3,0,2.1,0.9,2.1,2.4c0,0.2,0,0.4,0,0.5h-3.5c0.1,1.1,0.7,1.8,1.7,1.8c0.5,0,0.9-0.2,1.3-0.4
			l0.3,0.6c-0.4,0.3-1,0.5-1.7,0.5c-1.4,0-2.5-1-2.5-2.7S480.9,189.6,482.1,189.6z M483.4,192c0-1.1-0.5-1.6-1.3-1.6
			c-0.7,0-1.4,0.6-1.5,1.6H483.4z"/>
		<path class="st1" d="M485.4,187.3h0.9v6.6c0,0.3,0.1,0.4,0.2,0.4c0.1,0,0.1,0,0.2,0l0.1,0.7c-0.1,0.1-0.3,0.1-0.5,0.1
			c-0.7,0-0.9-0.4-0.9-1.2V187.3z"/>
		<path class="st1" d="M495.5,195.1c-0.5-0.1-1-0.4-1.6-0.8c-0.5,0.5-1.2,0.8-2,0.8c-1.3,0-2.1-0.8-2.1-1.9c0-0.9,0.7-1.5,1.4-2
			c-0.3-0.6-0.5-1.1-0.5-1.6c0-0.9,0.7-1.7,1.6-1.7c0.9,0,1.4,0.6,1.4,1.4c0,0.9-0.8,1.5-1.6,2.1c0.5,0.7,1.1,1.4,1.8,2
			c0.4-0.6,0.8-1.3,1-2.1h0.8c-0.3,0.9-0.7,1.8-1.2,2.5c0.5,0.3,0.9,0.6,1.3,0.7L495.5,195.1z M492,194.4c0.5,0,0.9-0.2,1.3-0.6
			c-0.7-0.6-1.3-1.3-1.8-2.1c-0.5,0.4-0.9,0.8-0.9,1.4C490.6,193.8,491.2,194.4,492,194.4z M491.8,190.7c0.6-0.4,1.2-0.9,1.2-1.5
			c0-0.4-0.2-0.8-0.7-0.8c-0.5,0-0.9,0.4-0.9,1C491.4,189.8,491.6,190.3,491.8,190.7z"/>
		<path class="st1" d="M502.2,192.8h-2.5l-0.7,2.1h-0.9l2.4-7h1l2.4,7h-0.9L502.2,192.8z M502,192.1l-0.3-1.1
			c-0.3-0.8-0.5-1.5-0.7-2.4h0c-0.2,0.8-0.4,1.6-0.7,2.4l-0.3,1.1H502z"/>
		<path class="st1" d="M506.6,189.6c0.6,0,1,0.2,1.5,0.6l0-0.9v-2h0.9v7.6h-0.7l-0.1-0.6h0c-0.4,0.4-1,0.7-1.6,0.7
			c-1.3,0-2.1-1-2.1-2.7C504.4,190.7,505.4,189.6,506.6,189.6z M506.7,194.3c0.5,0,0.9-0.2,1.3-0.7v-2.7c-0.4-0.4-0.8-0.5-1.3-0.5
			c-0.8,0-1.5,0.8-1.5,2C505.3,193.6,505.8,194.3,506.7,194.3z"/>
		<path class="st1" d="M509.9,189.8h0.9l1,2.9c0.1,0.5,0.3,1,0.5,1.5h0c0.1-0.5,0.3-1,0.5-1.5l1-2.9h0.9l-1.8,5.2h-1L509.9,189.8z"
			/>
		<path class="st1" d="M517.5,189.6c1.3,0,2.1,0.9,2.1,2.4c0,0.2,0,0.4,0,0.5h-3.5c0.1,1.1,0.7,1.8,1.7,1.8c0.5,0,0.9-0.2,1.3-0.4
			l0.3,0.6c-0.4,0.3-1,0.5-1.7,0.5c-1.4,0-2.5-1-2.5-2.7S516.3,189.6,517.5,189.6z M518.8,192c0-1.1-0.5-1.6-1.3-1.6
			c-0.7,0-1.4,0.6-1.5,1.6H518.8z"/>
		<path class="st1" d="M520.9,189.8h0.7l0.1,0.7h0c0.5-0.5,1-0.9,1.7-0.9c1.1,0,1.6,0.7,1.6,2v3.3h-0.9v-3.2c0-1-0.3-1.4-1-1.4
			c-0.5,0-0.9,0.3-1.4,0.8v3.8h-0.9V189.8z"/>
		<path class="st1" d="M526.9,190.5h-0.8v-0.7l0.8-0.1l0.1-1.5h0.7v1.5h1.4v0.7h-1.4v2.9c0,0.6,0.2,1,0.8,1c0.2,0,0.4-0.1,0.6-0.1
			l0.2,0.7c-0.3,0.1-0.6,0.2-1,0.2c-1.1,0-1.5-0.7-1.5-1.7V190.5z"/>
		<path class="st1" d="M530.2,189.8h0.9v3.2c0,1,0.3,1.4,1,1.4c0.5,0,0.9-0.3,1.4-0.9v-3.7h0.9v5.2h-0.7l-0.1-0.8h0
			c-0.5,0.6-1,0.9-1.7,0.9c-1.1,0-1.6-0.7-1.6-2V189.8z"/>
		<path class="st1" d="M536,189.8h0.7l0.1,0.9h0c0.4-0.7,0.9-1.1,1.5-1.1c0.2,0,0.4,0,0.6,0.1l-0.2,0.8c-0.2-0.1-0.3-0.1-0.5-0.1
			c-0.4,0-1,0.3-1.3,1.2v3.3H536V189.8z"/>
		<path class="st1" d="M541.6,189.6c1.3,0,2.1,0.9,2.1,2.4c0,0.2,0,0.4,0,0.5h-3.5c0.1,1.1,0.7,1.8,1.7,1.8c0.5,0,0.9-0.2,1.3-0.4
			l0.3,0.6c-0.4,0.3-1,0.5-1.7,0.5c-1.4,0-2.5-1-2.5-2.7S540.4,189.6,541.6,189.6z M542.9,192c0-1.1-0.5-1.6-1.3-1.6
			c-0.7,0-1.4,0.6-1.5,1.6H542.9z"/>
	</g>
	<g>
		<path class="st1" d="M670.6,191.3h4v0.7h-3.1v2.4h2.7v0.7h-2.7v3.1h-0.9V191.3z"/>
		<path class="st1" d="M677.7,193c1.3,0,2.4,1,2.4,2.7c0,1.7-1.1,2.7-2.4,2.7c-1.3,0-2.4-1-2.4-2.7C675.3,193.9,676.4,193,677.7,193
			z M677.7,197.7c0.9,0,1.5-0.8,1.5-2c0-1.2-0.6-2-1.5-2c-0.9,0-1.5,0.8-1.5,2C676.2,196.9,676.8,197.7,677.7,197.7z"/>
		<path class="st1" d="M683.5,193c1.3,0,2.4,1,2.4,2.7c0,1.7-1.1,2.7-2.4,2.7c-1.3,0-2.4-1-2.4-2.7C681.1,193.9,682.2,193,683.5,193
			z M683.5,197.7c0.9,0,1.5-0.8,1.5-2c0-1.2-0.6-2-1.5-2c-0.9,0-1.5,0.8-1.5,2C682,196.9,682.6,197.7,683.5,197.7z"/>
		<path class="st1" d="M689.1,193c0.6,0,1,0.2,1.5,0.6l0-0.9v-2h0.9v7.6h-0.7l-0.1-0.6h0c-0.4,0.4-1,0.7-1.6,0.7
			c-1.3,0-2.1-1-2.1-2.7C686.9,194,687.9,193,689.1,193z M689.2,197.7c0.5,0,0.9-0.2,1.3-0.7v-2.7c-0.4-0.4-0.8-0.5-1.3-0.5
			c-0.8,0-1.5,0.8-1.5,2C687.8,196.9,688.3,197.7,689.2,197.7z"/>
		<path class="st1" d="M700.5,198.4c-0.5-0.1-1-0.4-1.6-0.8c-0.5,0.5-1.2,0.8-2,0.8c-1.3,0-2.1-0.8-2.1-1.9c0-0.9,0.7-1.5,1.4-2
			c-0.3-0.6-0.5-1.1-0.5-1.6c0-0.9,0.7-1.7,1.6-1.7c0.9,0,1.4,0.6,1.4,1.4c0,0.9-0.8,1.5-1.6,2.1c0.5,0.7,1.1,1.4,1.8,2
			c0.4-0.6,0.8-1.3,1-2.1h0.8c-0.3,0.9-0.7,1.8-1.2,2.5c0.5,0.3,0.9,0.6,1.3,0.7L700.5,198.4z M697,197.7c0.5,0,0.9-0.2,1.3-0.6
			c-0.7-0.6-1.3-1.3-1.8-2.1c-0.5,0.4-0.9,0.8-0.9,1.4C695.6,197.2,696.2,197.7,697,197.7z M696.8,194c0.6-0.4,1.2-0.9,1.2-1.5
			c0-0.4-0.2-0.8-0.7-0.8c-0.5,0-0.9,0.4-0.9,1C696.4,193.2,696.6,193.6,696.8,194z"/>
		<path class="st1" d="M704,191.3h1.7c2.2,0,3.3,1.2,3.3,3.5c0,2.2-1.2,3.5-3.3,3.5H704V191.3z M705.7,197.5c1.6,0,2.5-1,2.5-2.8
			c0-1.8-0.8-2.7-2.5-2.7h-0.8v5.5H705.7z"/>
		<path class="st1" d="M710.5,193.1h0.7l0.1,0.9h0c0.4-0.7,0.9-1.1,1.5-1.1c0.2,0,0.4,0,0.6,0.1l-0.2,0.8c-0.2-0.1-0.3-0.1-0.5-0.1
			c-0.4,0-1,0.3-1.3,1.2v3.3h-0.9V193.1z"/>
		<path class="st1" d="M714,191.5c0-0.3,0.3-0.6,0.6-0.6s0.6,0.2,0.6,0.6c0,0.3-0.3,0.6-0.6,0.6S714,191.8,714,191.5z M714.2,193.1
			h0.9v5.2h-0.9V193.1z"/>
		<path class="st1" d="M716.8,193.1h0.7l0.1,0.7h0c0.5-0.5,1-0.9,1.7-0.9c1.1,0,1.6,0.7,1.6,2v3.3h-0.9v-3.2c0-1-0.3-1.4-1-1.4
			c-0.5,0-0.9,0.3-1.4,0.8v3.8h-0.9V193.1z"/>
		<path class="st1" d="M722.7,190.7h0.9v5.1h0l2.2-2.7h1l-1.7,2.1l2,3.1h-1l-1.5-2.5l-1,1.1v1.4h-0.9V190.7z"/>
	</g>
	<g>
		<path class="st1" d="M851.3,191.3h1l1.4,3.8l0.5,1.4h0l0.5-1.4l1.3-3.8h1v7h-0.8v-3.9c0-0.6,0.1-1.5,0.1-2.1h0l-0.6,1.6l-1.3,3.7
			h-0.5l-1.4-3.7l-0.6-1.6h0c0,0.6,0.1,1.5,0.1,2.1v3.9h-0.8V191.3z"/>
		<path class="st1" d="M860.9,193c1.3,0,2.1,0.9,2.1,2.4c0,0.2,0,0.4,0,0.5h-3.5c0.1,1.1,0.7,1.8,1.7,1.8c0.5,0,0.9-0.2,1.3-0.4
			l0.3,0.6c-0.4,0.3-1,0.5-1.7,0.5c-1.4,0-2.5-1-2.5-2.7S859.7,193,860.9,193z M862.2,195.3c0-1.1-0.5-1.6-1.3-1.6
			c-0.7,0-1.4,0.6-1.5,1.6H862.2z"/>
		<path class="st1" d="M866.1,193c0.6,0,1,0.2,1.5,0.6l0-0.9v-2h0.9v7.6h-0.7l-0.1-0.6h0c-0.4,0.4-1,0.7-1.6,0.7
			c-1.3,0-2.1-1-2.1-2.7C863.8,194,864.9,193,866.1,193z M866.2,197.7c0.5,0,0.9-0.2,1.3-0.7v-2.7c-0.4-0.4-0.8-0.5-1.3-0.5
			c-0.8,0-1.5,0.8-1.5,2C864.7,196.9,865.3,197.7,866.2,197.7z"/>
		<path class="st1" d="M870,191.5c0-0.3,0.3-0.6,0.6-0.6s0.6,0.2,0.6,0.6c0,0.3-0.3,0.6-0.6,0.6S870,191.8,870,191.5z M870.1,193.1
			h0.9v5.2h-0.9V193.1z"/>
		<path class="st1" d="M874.9,193c0.7,0,1.2,0.3,1.5,0.6l-0.4,0.6c-0.3-0.3-0.6-0.5-1-0.5c-0.9,0-1.6,0.8-1.6,2c0,1.2,0.7,2,1.6,2
			c0.5,0,0.9-0.2,1.2-0.5l0.4,0.6c-0.5,0.4-1.1,0.7-1.7,0.7c-1.4,0-2.4-1-2.4-2.7C872.4,193.9,873.5,193,874.9,193z"/>
		<path class="st1" d="M880.4,195c0-0.7-0.2-1.3-1.1-1.3c-0.6,0-1.1,0.3-1.5,0.6l-0.4-0.6c0.5-0.3,1.2-0.7,2-0.7
			c1.3,0,1.8,0.8,1.8,2.1v3.2h-0.7l-0.1-0.6h0c-0.5,0.4-1.1,0.7-1.7,0.7c-0.9,0-1.5-0.5-1.5-1.5C877.2,195.8,878.2,195.2,880.4,195z
			 M879,197.7c0.5,0,0.9-0.2,1.4-0.7v-1.4c-1.7,0.2-2.3,0.6-2.3,1.3C878.1,197.4,878.5,197.7,879,197.7z"/>
		<path class="st1" d="M883,190.7h0.9v6.6c0,0.3,0.1,0.4,0.2,0.4c0.1,0,0.1,0,0.2,0l0.1,0.7c-0.1,0.1-0.3,0.1-0.5,0.1
			c-0.7,0-0.9-0.4-0.9-1.2V190.7z"/>
		<path class="st1" d="M887.9,191.3h2.1c1.5,0,2.6,0.5,2.6,2.1c0,1.5-1,2.2-2.6,2.2h-1.3v2.8h-0.9V191.3z M890,194.8
			c1.2,0,1.8-0.4,1.8-1.4c0-1-0.6-1.3-1.8-1.3h-1.2v2.8H890z"/>
		<path class="st1" d="M894,193.1h0.7l0.1,0.9h0c0.4-0.7,0.9-1.1,1.5-1.1c0.2,0,0.4,0,0.6,0.1l-0.2,0.8c-0.2-0.1-0.3-0.1-0.5-0.1
			c-0.4,0-1,0.3-1.3,1.2v3.3H894V193.1z"/>
		<path class="st1" d="M899.6,193c1.3,0,2.4,1,2.4,2.7c0,1.7-1.1,2.7-2.4,2.7c-1.3,0-2.4-1-2.4-2.7C897.2,193.9,898.3,193,899.6,193
			z M899.6,197.7c0.9,0,1.5-0.8,1.5-2c0-1.2-0.6-2-1.5-2c-0.9,0-1.5,0.8-1.5,2C898.1,196.9,898.7,197.7,899.6,197.7z"/>
		<path class="st1" d="M905.7,191.4c-0.2-0.1-0.4-0.1-0.6-0.1c-0.5,0-0.7,0.3-0.7,1v0.8h1.1v0.7h-1.1v4.5h-0.9v-4.5h-0.7v-0.7
			l0.7-0.1v-0.8c0-1.1,0.5-1.7,1.5-1.7c0.3,0,0.6,0.1,0.9,0.2L905.7,191.4z"/>
		<path class="st1" d="M908.3,193c1.3,0,2.1,0.9,2.1,2.4c0,0.2,0,0.4,0,0.5h-3.5c0.1,1.1,0.7,1.8,1.7,1.8c0.5,0,0.9-0.2,1.3-0.4
			l0.3,0.6c-0.4,0.3-1,0.5-1.7,0.5c-1.4,0-2.5-1-2.5-2.7S907.1,193,908.3,193z M909.6,195.3c0-1.1-0.5-1.6-1.3-1.6
			c-0.7,0-1.4,0.6-1.5,1.6H909.6z"/>
		<path class="st1" d="M911.5,197.1c0.4,0.4,0.9,0.6,1.5,0.6c0.7,0,1-0.4,1-0.8c0-0.5-0.6-0.8-1.2-1c-0.7-0.3-1.5-0.6-1.5-1.5
			c0-0.8,0.7-1.5,1.8-1.5c0.7,0,1.2,0.3,1.6,0.6l-0.4,0.6c-0.4-0.3-0.7-0.5-1.2-0.5c-0.7,0-0.9,0.4-0.9,0.7c0,0.5,0.6,0.7,1.2,0.9
			c0.7,0.3,1.6,0.6,1.6,1.6c0,0.8-0.7,1.5-1.9,1.5c-0.7,0-1.4-0.3-1.9-0.7L911.5,197.1z"/>
		<path class="st1" d="M916,197.1c0.4,0.4,0.9,0.6,1.5,0.6c0.7,0,1-0.4,1-0.8c0-0.5-0.6-0.8-1.2-1c-0.7-0.3-1.5-0.6-1.5-1.5
			c0-0.8,0.7-1.5,1.8-1.5c0.7,0,1.2,0.3,1.6,0.6l-0.4,0.6c-0.4-0.3-0.7-0.5-1.2-0.5c-0.7,0-0.9,0.4-0.9,0.7c0,0.5,0.6,0.7,1.2,0.9
			c0.7,0.3,1.6,0.6,1.6,1.6c0,0.8-0.7,1.5-1.9,1.5c-0.7,0-1.4-0.3-1.9-0.7L916,197.1z"/>
		<path class="st1" d="M920.4,191.5c0-0.3,0.3-0.6,0.6-0.6s0.6,0.2,0.6,0.6c0,0.3-0.3,0.6-0.6,0.6S920.4,191.8,920.4,191.5z
			 M920.6,193.1h0.9v5.2h-0.9V193.1z"/>
		<path class="st1" d="M925.2,193c1.3,0,2.4,1,2.4,2.7c0,1.7-1.1,2.7-2.4,2.7c-1.3,0-2.4-1-2.4-2.7C922.8,193.9,923.9,193,925.2,193
			z M925.2,197.7c0.9,0,1.5-0.8,1.5-2c0-1.2-0.6-2-1.5-2c-0.9,0-1.5,0.8-1.5,2C923.7,196.9,924.3,197.7,925.2,197.7z"/>
		<path class="st1" d="M929,193.1h0.7l0.1,0.7h0c0.5-0.5,1-0.9,1.7-0.9c1.1,0,1.6,0.7,1.6,2v3.3h-0.9v-3.2c0-1-0.3-1.4-1-1.4
			c-0.5,0-0.9,0.3-1.4,0.8v3.8H929V193.1z"/>
		<path class="st1" d="M937.7,195c0-0.7-0.2-1.3-1.1-1.3c-0.6,0-1.1,0.3-1.5,0.6l-0.4-0.6c0.5-0.3,1.2-0.7,2-0.7
			c1.3,0,1.8,0.8,1.8,2.1v3.2h-0.7l-0.1-0.6h0c-0.5,0.4-1.1,0.7-1.7,0.7c-0.9,0-1.5-0.5-1.5-1.5C934.5,195.8,935.5,195.2,937.7,195z
			 M936.3,197.7c0.5,0,0.9-0.2,1.4-0.7v-1.4c-1.7,0.2-2.3,0.6-2.3,1.3C935.4,197.4,935.8,197.7,936.3,197.7z"/>
		<path class="st1" d="M940.3,190.7h0.9v6.6c0,0.3,0.1,0.4,0.2,0.4c0.1,0,0.1,0,0.2,0l0.1,0.7c-0.1,0.1-0.3,0.1-0.5,0.1
			c-0.7,0-0.9-0.4-0.9-1.2V190.7z"/>
	</g>
	<g>
		<path class="st0" d="M302.7,174.6c-41.7,0-75.6-33.9-75.6-75.6s33.9-75.6,75.6-75.6s75.6,33.9,75.6,75.6S344.4,174.6,302.7,174.6z
			 M302.7,25.3c-40.6,0-73.6,33-73.6,73.6s33,73.6,73.6,73.6s73.6-33,73.6-73.6S343.3,25.3,302.7,25.3z"/>
	</g>
	<g>
		<path class="st2" d="M300.7,72.3"/>
	</g>
	<g>
		<path class="st0" d="M302.7,126.9c-0.3,0-0.5-0.1-0.7-0.3l-6.8-6.8c-0.2-0.2-0.3-0.5-0.3-0.8l3.4-47.8c0-0.6,0.5-1,1.1-0.9
			c0.6,0,1,0.5,0.9,1.1l-3.4,47.3l5.8,5.8l5.8-5.8l-3-40.5c0-0.6,0.4-1,0.9-1.1c0.5,0,1,0.4,1.1,0.9l3,40.9c0,0.3-0.1,0.6-0.3,0.8
			l-6.8,6.8C303.2,126.8,303,126.9,302.7,126.9z"/>
	</g>
	<g>
		<path class="st0" d="M330,133.8h-54.6c-8.1,0-14.7-6.6-14.7-14.7l0,0l0-34.1c0-8.1,6.6-14.7,14.7-14.7l54.6,0
			c8.1,0,14.7,6.6,14.7,14.7l0,34.1C344.7,127.2,338.1,133.8,330,133.8z M262.8,119.1c0,7,5.7,12.7,12.7,12.7H330
			c7,0,12.7-5.7,12.7-12.7l0-34.1c0-7-5.7-12.7-12.7-12.7l-54.6,0c-7,0-12.7,5.7-12.7,12.7L262.8,119.1z"/>
	</g>
	<g>
		<path class="st0" d="M275.4,126.9c-0.6,0-1-0.4-1-1V71.3c0-0.6,0.4-1,1-1s1,0.4,1,1v54.6C276.4,126.5,276,126.9,275.4,126.9z"/>
	</g>
	<g>
		<path class="st0" d="M330,133.8c-0.6,0-1-0.4-1-1V78.2c0-0.6,0.4-1,1-1s1,0.4,1,1v54.6C331,133.3,330.6,133.8,330,133.8z"/>
	</g>
	<g>
		<path class="st0" d="M296.7,119.4c-0.4,0-0.7-0.2-0.9-0.6c-0.2-0.5,0-1.1,0.5-1.3l11.9-5.4c0.5-0.2,1.1,0,1.3,0.5
			c0.2,0.5,0,1.1-0.5,1.3l-11.9,5.4C297,119.4,296.9,119.4,296.7,119.4z"/>
	</g>
	<g>
		<path class="st0" d="M297.2,112.6c-0.4,0-0.7-0.2-0.9-0.6c-0.2-0.5,0-1.1,0.4-1.3l11-5.5c0.5-0.2,1.1,0,1.3,0.4
			c0.2,0.5,0,1.1-0.4,1.3l-11,5.5C297.5,112.6,297.4,112.6,297.2,112.6z"/>
	</g>
	<g>
		<path class="st0" d="M297.6,105.6c-0.4,0-0.7-0.2-0.9-0.6c-0.2-0.5,0-1.1,0.4-1.3l10.2-5.1c0.5-0.2,1.1,0,1.3,0.4
			c0.2,0.5,0,1.1-0.4,1.3l-10.2,5.1C297.9,105.5,297.8,105.6,297.6,105.6z"/>
	</g>
	<g>
		<path class="st0" d="M306.1,72.3c-0.2,0-0.3,0-0.4-0.1c-0.5-0.2-0.7-0.8-0.4-1.3l6.2-12.3H294l6.2,12.3c0.2,0.5,0,1.1-0.4,1.3
			c-0.5,0.2-1.1,0-1.3-0.4L291.5,58c-0.2-0.3-0.1-0.7,0-1c0.2-0.3,0.5-0.5,0.9-0.5H313c0.3,0,0.7,0.2,0.9,0.5c0.2,0.3,0.2,0.7,0,1
			L307,71.8C306.8,72.1,306.5,72.3,306.1,72.3z"/>
	</g>
	<g>
		<path class="st0" d="M107.3,174.6c-41.7,0-75.6-33.9-75.6-75.6s33.9-75.6,75.6-75.6c41.7,0,75.6,33.9,75.6,75.6
			S149,174.6,107.3,174.6z M107.3,25.3c-40.6,0-73.6,33-73.6,73.6s33,73.6,73.6,73.6c40.6,0,73.6-33,73.6-73.6
			S147.9,25.3,107.3,25.3z"/>
	</g>
	<g>
		<path class="st0" d="M141,133.8h-27.1c-0.3,0-0.5-0.1-0.7-0.3s-0.3-0.4-0.3-0.7l0-12.8h-12.3c-0.6,0-1-0.4-1-1s0.4-1,1-1h13.3
			c0.3,0,0.5,0.1,0.7,0.3s0.3,0.4,0.3,0.7l0,12.8H140v-19.5c0-0.6,0.4-1,1-1h10.6l-44.3-44.8l-6,6.5c-0.4,0.4-1,0.4-1.4,0.1
			c-0.4-0.4-0.4-1-0.1-1.4l6.7-7.2c0.2-0.2,0.4-0.3,0.7-0.3c0.3,0,0.5,0.1,0.7,0.3l46.7,47.3c0.3,0.3,0.4,0.7,0.2,1.1
			c-0.2,0.4-0.5,0.6-0.9,0.6H142v19.5C142,133.3,141.6,133.8,141,133.8z"/>
	</g>
	<g>
		<path class="st0" d="M100.6,133.8H67.2c-0.6,0-1-0.4-1-1s0.4-1,1-1h33.4c0.6,0,1,0.4,1,1S101.2,133.8,100.6,133.8z"/>
	</g>
	<g>
		<path class="st0" d="M80.6,133.4c-0.6,0-1-0.4-1-1V78.9c0-0.6,0.4-1,1-1s1,0.4,1,1v53.4C81.6,132.9,81.1,133.4,80.6,133.4z"/>
	</g>
	<g>
		<path class="st0" d="M87.3,99.9c-0.6,0-1-0.4-1-1s0.4-1,1-1c6.8,0,12.3-5.5,12.3-12.3s-5.5-12.3-12.3-12.3c-0.2,0-0.4,0-0.5,0
			c-0.4,0-0.8-0.3-1-0.7c-1.3-3.6-4.7-6-8.5-6c-4.4,0-8.2,3.2-8.9,7.5c0,0.3-0.2,0.6-0.5,0.7c-3.9,2.2-6.3,6.3-6.3,10.8
			c0,6.8,5.5,12.3,12.3,12.3c0.6,0,1,0.4,1,1s-0.4,1-1,1c-7.9,0-14.3-6.4-14.3-14.3c0-5,2.6-9.7,6.9-12.3c1.1-5.1,5.5-8.8,10.8-8.8
			c4.4,0,8.4,2.7,10.1,6.7c7.9,0.1,14.2,6.5,14.2,14.3C101.6,93.5,95.2,99.9,87.3,99.9z"/>
	</g>
	<g>
		<path class="st0" d="M80.6,93.3c-0.3,0-0.5-0.1-0.7-0.3c-0.4-0.4-0.4-1,0-1.4l6.7-6.7c0.4-0.4,1-0.4,1.4,0s0.4,1,0,1.4L81.3,93
			C81.1,93.2,80.8,93.3,80.6,93.3z"/>
	</g>
	<g>
		<path class="st0" d="M498.2,174.6c-41.7,0-75.6-33.9-75.6-75.6s33.9-75.6,75.6-75.6c41.7,0,75.6,33.9,75.6,75.6
			S539.8,174.6,498.2,174.6z M498.2,25.3c-40.6,0-73.6,33-73.6,73.6s33,73.6,73.6,73.6s73.6-33,73.6-73.6S538.7,25.3,498.2,25.3z"/>
	</g>
	<g>
		<path class="st0" d="M501.2,99.2L501.2,99.2c-7.5,0-13.5-6.1-13.5-13.5c0-3.6,1.4-7,4-9.6c2.6-2.6,6-4,9.6-4c0,0,0,0,0,0
			c3.6,0,7,1.4,9.6,4c2.6,2.6,4,6,4,9.6C514.7,93.1,508.6,99.2,501.2,99.2z M501.2,74.1c-3.1,0-6,1.2-8.2,3.4
			c-2.2,2.2-3.4,5.1-3.4,8.2c0,6.4,5.2,11.5,11.5,11.5c6.4,0,11.5-5.2,11.5-11.5c0-3.1-1.2-6-3.4-8.2
			C507.1,75.3,504.3,74.1,501.2,74.1C501.2,74.1,501.2,74.1,501.2,74.1z"/>
	</g>
	<g>
		<path class="st0" d="M473.1,92.9c0.3,0.1,0.7,0.3,0.8,0.6l3,6.6c0.1,0.3,0.5,0.6,0.8,0.6l12.5,1.3c0.3,0,0.7,0.3,0.8,0.6l0.8,1.7
			c0.1,0.3,0,0.6-0.3,0.6l-11.1,1.3c-0.3,0-0.5,0.3-0.3,0.6l2.2,4.6c0.1,0.3,0.5,0.6,0.8,0.7l2.2,0.5c0.3,0.1,0.7,0.4,0.8,0.7
			l0.5,1.1c0.1,0.3,0,0.6-0.3,0.6l-3.2,0.4c-0.3,0-0.8,0.3-1,0.5l-2.4,2.1c-0.1,0.1-0.2,0.1-0.3,0.1c-0.2,0-0.3-0.1-0.4-0.3
			l-0.5-1.1c-0.1-0.3-0.1-0.8,0-1.1l1-2c0.1-0.3,0.2-0.8,0-1.1l-2.2-4.6c-0.1-0.2-0.2-0.3-0.4-0.3c-0.1,0-0.2,0-0.3,0.1l-8.1,7.6
			c-0.1,0.1-0.2,0.1-0.3,0.1c-0.2,0-0.3-0.1-0.4-0.3l-0.8-1.7c-0.1-0.3-0.1-0.8,0.1-1l6.9-10.3c0.2-0.3,0.2-0.7,0.1-1l-3.1-6.6
			c-0.1-0.3-0.1-0.8,0.1-1.1L473.1,92.9 M473.1,90.9c-0.3,0-0.5,0.1-0.8,0.2l-1.9,0.8c-0.4,0.2-0.7,0.4-0.9,0.8
			c-0.5,0.9-0.6,2-0.2,2.9l2.8,6.1l-6.6,9.9c-0.6,0.9-0.7,2.1-0.2,3l0.8,1.7c0.4,0.9,1.2,1.4,2.2,1.4c0.6,0,1.2-0.2,1.7-0.7l6.6-6.2
			l1.1,2.3l-0.8,1.7c-0.4,0.8-0.4,2,0,2.8l0.5,1.1c0.4,0.9,1.3,1.4,2.2,1.4c0.6,0,1.2-0.2,1.7-0.6l2.3-2.1c0,0,0,0,0.1,0l3.1-0.4
			c0.8-0.1,1.5-0.6,1.8-1.2c0.4-0.7,0.4-1.5,0.1-2.2l-0.5-1.1c-0.4-0.9-1.3-1.6-2.2-1.8l-1.8-0.4l-1.1-2.3l8.9-1.1
			c0.8-0.1,1.5-0.5,1.9-1.2s0.4-1.5,0.1-2.2l-0.8-1.7c-0.4-0.9-1.4-1.6-2.4-1.8l-12-1.3l-2.8-6.1c-0.4-0.9-1.4-1.6-2.3-1.8
			C473.3,90.9,473.2,90.9,473.1,90.9L473.1,90.9z"/>
	</g>
	<g>
		<path class="st0" d="M501.6,149.3c-0.3,0-0.6-0.2-0.8-0.4c-0.1-0.1-8-11.6-15.8-25.1c-0.3-0.5-0.1-1.1,0.4-1.4
			c0.5-0.3,1.1-0.1,1.4,0.4c6.3,10.9,12.7,20.5,14.9,23.8c4.9-7.3,30.3-45.6,30.3-60.8c0-16.7-13.6-30.3-30.3-30.3
			S471.3,69,471.3,85.7c0,0.6-0.4,1-1,1s-1-0.4-1-1c0-17.8,14.5-32.3,32.3-32.3c17.8,0,32.3,14.5,32.3,32.3
			c0,17.4-30.2,61.3-31.5,63.1C502.2,149.1,501.9,149.3,501.6,149.3z"/>
	</g>
	<g>
		<path class="st0" d="M697.3,171.2c-41.7,0-75.6-33.9-75.6-75.6c0-41.7,33.9-75.6,75.6-75.6s75.6,33.9,75.6,75.6
			C772.9,137.3,739,171.2,697.3,171.2z M697.3,22c-40.6,0-73.6,33-73.6,73.6c0,40.6,33,73.6,73.6,73.6s73.6-33,73.6-73.6
			C770.9,55,737.9,22,697.3,22z"/>
	</g>
	<g>
		<path class="st0" d="M697.7,83.6c-0.2,0-0.4-0.1-0.6-0.2c-0.4-0.3-0.5-1-0.2-1.4l26.2-32.8c0.3-0.4,1-0.5,1.4-0.2
			c0.4,0.3,0.5,1,0.2,1.4l-26.2,32.8C698.3,83.5,698,83.6,697.7,83.6z"/>
	</g>
	<g>
		<path class="st0" d="M710.8,142.6h-26.2c-0.4,0-0.8-0.2-0.9-0.6c-0.2-0.4-0.1-0.8,0.2-1.1l12.8-12.8v-19.3c0-0.6,0.4-1,1-1
			s1,0.4,1,1v19.7c0,0.3-0.1,0.5-0.3,0.7L687,140.6h23.8c0.6,0,1,0.4,1,1S711.4,142.6,710.8,142.6z"/>
	</g>
	<g>
		<path class="st0" d="M697.7,109.8c-18.6,0-33.8-15.2-33.8-33.8c0-0.6,0.4-1,1-1h26.2c0.6,0,1,0.4,1,1s-0.4,1-1,1H666
			c0.5,17.1,14.6,30.8,31.8,30.8S729,94.1,729.5,77H724c-0.6,0-1-0.4-1-1s0.4-1,1-1h6.6c0.6,0,1,0.4,1,1
			C731.5,94.6,716.4,109.8,697.7,109.8z"/>
	</g>
	<g>
		<path class="st0" d="M704.3,83.6c-0.3,0-0.6-0.1-0.8-0.4c-0.3-0.4-0.3-1.1,0.2-1.4l32.8-26.2c0.4-0.3,1.1-0.3,1.4,0.2
			c0.3,0.4,0.3,1.1-0.2,1.4l-32.8,26.2C704.7,83.5,704.5,83.6,704.3,83.6z"/>
	</g>
	<g>
		<path class="st0" d="M697.7,103.2c-3.5,0-7-1.7-10.3-3.4c-3.3-1.6-6.3-3.2-9.4-3.2c-1.5,0-3.2,0.4-5.2,1.2c-0.5,0.2-1.1,0-1.3-0.6
			c-0.2-0.5,0-1.1,0.6-1.3c2.3-0.9,4.1-1.3,5.9-1.3c3.5,0,7,1.7,10.3,3.4c3.3,1.6,6.3,3.2,9.4,3.2s6.1-1.5,9.4-3.2
			c3.3-1.7,6.8-3.4,10.3-3.4c1.8,0,3.7,0.4,5.9,1.3c0.5,0.2,0.8,0.8,0.6,1.3c-0.2,0.5-0.8,0.8-1.3,0.6c-2-0.8-3.7-1.2-5.2-1.2
			c-3,0-6.1,1.5-9.4,3.2C704.7,101.5,701.2,103.2,697.7,103.2z"/>
	</g>
	<g>
		<path class="st0" d="M697.7,96.7c-3.5,0-7-1.7-10.3-3.4c-3.3-1.6-6.3-3.2-9.4-3.2c-2.8,0-5.6,1.3-8.5,2.7c-0.5,0.2-1.1,0-1.3-0.5
			c-0.2-0.5,0-1.1,0.5-1.3c3.1-1.6,6.2-2.9,9.4-2.9c3.5,0,7,1.7,10.3,3.4c3.3,1.6,6.3,3.2,9.4,3.2s6.1-1.5,9.4-3.2
			c3.3-1.7,6.8-3.4,10.3-3.4c3.2,0,6.3,1.4,9.4,2.9c0.5,0.2,0.7,0.8,0.5,1.3s-0.8,0.7-1.3,0.5c-2.9-1.4-5.8-2.7-8.5-2.7
			c-3,0-6.1,1.5-9.4,3.2C704.7,95,701.2,96.7,697.7,96.7z"/>
	</g>
	<g>
		<path class="st0" d="M697.7,90.1c-3.5,0-7-1.7-10.3-3.4c-3.3-1.6-6.3-3.2-9.4-3.2s-6.1,1.5-9.4,3.2c-0.5,0.3-1,0.5-1.5,0.8
			c-0.5,0.2-1.1,0-1.3-0.5s0-1.1,0.5-1.3c0.5-0.2,1-0.5,1.5-0.8c3.3-1.7,6.8-3.4,10.3-3.4s7,1.7,10.3,3.4c3.3,1.6,6.3,3.2,9.4,3.2
			s6.1-1.5,9.4-3.2c3.3-1.7,6.8-3.4,10.3-3.4c3.5,0,7,1.7,10.3,3.4c0.5,0.3,1,0.5,1.5,0.7c0.5,0.2,0.7,0.8,0.5,1.3s-0.8,0.7-1.3,0.5
			c-0.5-0.2-1-0.5-1.5-0.8c-3.3-1.6-6.3-3.2-9.4-3.2c-3,0-6.1,1.5-9.4,3.2C704.7,88.4,701.2,90.1,697.7,90.1z"/>
	</g>
	<g>
		<path class="st0" d="M697.7,96.7c-3.5,0-7-1.7-10.3-3.4c-3.3-1.6-6.3-3.2-9.4-3.2c-2.8,0-5.6,1.3-8.5,2.7c-0.5,0.2-1.1,0-1.3-0.5
			c-0.2-0.5,0-1.1,0.5-1.3c3.1-1.6,6.2-2.9,9.4-2.9c3.5,0,7,1.7,10.3,3.4c3.3,1.6,6.3,3.2,9.4,3.2s6.1-1.5,9.4-3.2
			c3.3-1.7,6.8-3.4,10.3-3.4c3.2,0,6.3,1.4,9.4,2.9c0.5,0.2,0.7,0.8,0.5,1.3s-0.8,0.7-1.3,0.5c-2.9-1.4-5.8-2.7-8.5-2.7
			c-3,0-6.1,1.5-9.4,3.2C704.7,95,701.2,96.7,697.7,96.7z"/>
	</g>
	<g>
		<path class="st0" d="M697.7,103.2c-3.5,0-7-1.7-10.3-3.4c-3.3-1.6-6.3-3.2-9.4-3.2c-1.5,0-3.2,0.4-5.2,1.2c-0.5,0.2-1.1,0-1.3-0.6
			c-0.2-0.5,0-1.1,0.6-1.3c2.3-0.9,4.1-1.3,5.9-1.3c3.5,0,7,1.7,10.3,3.4c3.3,1.6,6.3,3.2,9.4,3.2s6.1-1.5,9.4-3.2
			c3.3-1.7,6.8-3.4,10.3-3.4c1.8,0,3.7,0.4,5.9,1.3c0.5,0.2,0.8,0.8,0.6,1.3c-0.2,0.5-0.8,0.8-1.3,0.6c-2-0.8-3.7-1.2-5.2-1.2
			c-3,0-6.1,1.5-9.4,3.2C704.7,101.5,701.2,103.2,697.7,103.2z"/>
	</g>
	<g>
		<path class="st0" d="M884.5,86.7h-31.1c-0.6,0-1-0.4-1-1s0.4-1,1-1h31.1c0.6,0,1,0.4,1,1S885.1,86.7,884.5,86.7z"/>
	</g>
	<g>
		<path class="st0" d="M926.5,137.7h-50.7c-4.3,0-7.8-3.5-7.8-7.8v-27.1c0-0.6,0.4-1,1-1s1,0.4,1,1V130c0,3.2,2.6,5.8,5.8,5.8h50.7
			c3.2,0,5.8-2.6,5.8-5.8V75.9c0-3.2-2.6-5.8-5.8-5.8h-20.3c-3.2,0-5.8,2.6-5.8,5.8v27.1c0,0.6-0.4,1-1,1s-1-0.4-1-1V75.9
			c0-4.3,3.5-7.8,7.8-7.8h20.3c4.3,0,7.8,3.5,7.8,7.8V130C934.3,134.2,930.8,137.7,926.5,137.7z"/>
	</g>
	<g>
		<path class="st0" d="M899.5,124.2c-6.1,0-11.1-5-11.1-11.1c0-6.1,5-11.1,11.1-11.1s11.1,5,11.1,11.1
			C910.6,119.2,905.6,124.2,899.5,124.2z M899.5,103.9c-5,0-9.1,4.1-9.1,9.1c0,5,4.1,9.1,9.1,9.1c5,0,9.1-4.1,9.1-9.1
			C908.6,108,904.5,103.9,899.5,103.9z"/>
	</g>
	<g>
		<circle class="st0" cx="899.5" cy="113.1" r="3.4"/>
	</g>
	<g>
		<circle class="st0" cx="875.8" cy="69.1" r="3.4"/>
	</g>
	<g>
		<circle class="st0" cx="862.6" cy="69.1" r="3.4"/>
	</g>
	<g>
		<path class="st0" d="M869,97.1c-9.9,0-17.9-8-17.9-17.9V69.1c0-0.6,0.4-1,1-1h10.4c0.6,0,1,0.4,1,1s-0.4,1-1,1h-9.4v9.1
			c0,8.8,7.1,15.9,15.9,15.9S885,88,885,79.2v-9.1h-9c-0.6,0-1-0.4-1-1s0.4-1,1-1h10c0.6,0,1,0.4,1,1v10.1
			C887,89.1,878.9,97.1,869,97.1z"/>
	</g>
	<g>
		<path class="st1" d="M75.3,394.8c0.8,0,1.5,0.4,1.9,0.9l-0.5,0.6c-0.4-0.4-0.8-0.7-1.4-0.7c-1.3,0-2.2,1.1-2.2,2.8
			c0,1.8,0.8,2.9,2.2,2.9c0.7,0,1.2-0.3,1.6-0.8l0.5,0.5c-0.6,0.6-1.2,1-2.1,1c-1.8,0-3.1-1.3-3.1-3.6
			C72.2,396.2,73.5,394.8,75.3,394.8z"/>
		<path class="st1" d="M78.6,396.7h0.7l0.1,0.9h0c0.4-0.7,0.9-1.1,1.5-1.1c0.2,0,0.4,0,0.6,0.1l-0.2,0.8c-0.2-0.1-0.3-0.1-0.5-0.1
			c-0.4,0-1,0.3-1.3,1.2v3.3h-0.9V396.7z"/>
		<path class="st1" d="M84.9,398.6c0-0.7-0.2-1.3-1.1-1.3c-0.6,0-1.1,0.3-1.5,0.6l-0.4-0.6c0.5-0.3,1.2-0.7,2-0.7
			c1.3,0,1.8,0.8,1.8,2.1v3.2h-0.7l-0.1-0.6h0c-0.5,0.4-1.1,0.7-1.7,0.7c-0.9,0-1.5-0.5-1.5-1.5C81.8,399.4,82.7,398.9,84.9,398.6z
			 M83.5,401.3c0.5,0,0.9-0.2,1.4-0.7v-1.4c-1.7,0.2-2.3,0.6-2.3,1.3C82.6,401.1,83,401.3,83.5,401.3z"/>
		<path class="st1" d="M92.8,401.8c-0.3,0.1-0.6,0.2-1,0.2c-1.1,0-1.5-0.7-1.5-1.7v-2.9h-1.9v4.5h-0.9v-4.5h-0.7v-0.7l0.7-0.1v-0.8
			c0-1.1,0.5-1.7,1.5-1.7c0.3,0,0.6,0.1,0.9,0.2l-0.2,0.7c-0.2-0.1-0.4-0.1-0.6-0.1c-0.5,0-0.7,0.3-0.7,1v0.8h1.9l0.1-1.5h0.7v1.5
			h1.4v0.7h-1.4v2.9c0,0.6,0.2,1,0.8,1c0.2,0,0.4-0.1,0.6-0.1L92.8,401.8z"/>
		<path class="st1" d="M93.7,400.7c0.4,0.4,0.9,0.6,1.5,0.6c0.7,0,1-0.4,1-0.8c0-0.5-0.6-0.8-1.2-1c-0.7-0.3-1.5-0.6-1.5-1.5
			c0-0.8,0.7-1.5,1.8-1.5c0.7,0,1.2,0.3,1.6,0.6l-0.4,0.6c-0.4-0.3-0.7-0.5-1.2-0.5c-0.7,0-0.9,0.4-0.9,0.7c0,0.5,0.6,0.7,1.2,0.9
			c0.7,0.3,1.6,0.6,1.6,1.6c0,0.8-0.7,1.5-1.9,1.5c-0.7,0-1.4-0.3-1.9-0.7L93.7,400.7z"/>
		<path class="st1" d="M105.6,402c-0.5-0.1-1-0.4-1.6-0.8c-0.5,0.5-1.2,0.8-2,0.8c-1.3,0-2.1-0.8-2.1-1.9c0-0.9,0.7-1.5,1.4-2
			c-0.3-0.6-0.5-1.1-0.5-1.6c0-0.9,0.7-1.7,1.6-1.7c0.9,0,1.4,0.6,1.4,1.4c0,0.9-0.8,1.5-1.6,2.1c0.5,0.7,1.1,1.4,1.8,2
			c0.4-0.6,0.8-1.3,1-2.1h0.8c-0.3,0.9-0.7,1.8-1.2,2.5c0.5,0.3,0.9,0.6,1.3,0.7L105.6,402z M102.1,401.3c0.5,0,0.9-0.2,1.3-0.6
			c-0.7-0.6-1.3-1.3-1.8-2.1c-0.5,0.4-0.9,0.8-0.9,1.4C100.7,400.8,101.4,401.3,102.1,401.3z M101.9,397.6c0.6-0.4,1.2-0.9,1.2-1.5
			c0-0.4-0.2-0.8-0.7-0.8c-0.5,0-0.9,0.4-0.9,1C101.6,396.8,101.7,397.2,101.9,397.6z"/>
		<path class="st1" d="M109.2,394.9h0.9v2.9h3.3v-2.9h0.9v7h-0.9v-3.3H110v3.3h-0.9V394.9z"/>
		<path class="st1" d="M118,396.6c1.3,0,2.4,1,2.4,2.7c0,1.7-1.1,2.7-2.4,2.7c-1.3,0-2.4-1-2.4-2.7
			C115.6,397.6,116.8,396.6,118,396.6z M118,401.3c0.9,0,1.5-0.8,1.5-2c0-1.2-0.6-2-1.5-2c-0.9,0-1.5,0.8-1.5,2
			C116.5,400.5,117.1,401.3,118,401.3z"/>
		<path class="st1" d="M121.8,394.3h0.9v2.1l0,0.9c0.5-0.4,1-0.7,1.6-0.7c1.3,0,2.1,1,2.1,2.6c0,1.8-1.1,2.8-2.2,2.8
			c-0.5,0-1-0.2-1.5-0.6h0l-0.1,0.5h-0.7V394.3z M123.9,401.3c0.9,0,1.5-0.8,1.5-2.1c0-1.1-0.4-1.9-1.4-1.9c-0.4,0-0.9,0.2-1.4,0.7
			v2.7C123.1,401.1,123.6,401.3,123.9,401.3z"/>
		<path class="st1" d="M127.7,394.3h0.9v2.1l0,0.9c0.5-0.4,1-0.7,1.6-0.7c1.3,0,2.1,1,2.1,2.6c0,1.8-1.1,2.8-2.2,2.8
			c-0.5,0-1-0.2-1.5-0.6h0l-0.1,0.5h-0.7V394.3z M129.9,401.3c0.9,0,1.5-0.8,1.5-2.1c0-1.1-0.4-1.9-1.4-1.9c-0.4,0-0.9,0.2-1.4,0.7
			v2.7C129,401.1,129.5,401.3,129.9,401.3z"/>
		<path class="st1" d="M133.5,395.1c0-0.3,0.3-0.6,0.6-0.6s0.6,0.2,0.6,0.6c0,0.3-0.3,0.6-0.6,0.6S133.5,395.4,133.5,395.1z
			 M133.6,396.7h0.9v5.2h-0.9V396.7z"/>
		<path class="st1" d="M138.2,396.6c1.3,0,2.1,0.9,2.1,2.4c0,0.2,0,0.4,0,0.5h-3.5c0.1,1.1,0.7,1.8,1.7,1.8c0.5,0,0.9-0.2,1.3-0.4
			l0.3,0.6c-0.4,0.3-1,0.5-1.7,0.5c-1.4,0-2.5-1-2.5-2.7S137,396.6,138.2,396.6z M139.5,398.9c0-1.1-0.5-1.6-1.3-1.6
			c-0.7,0-1.4,0.6-1.5,1.6H139.5z"/>
		<path class="st1" d="M141.4,400.7c0.4,0.4,0.9,0.6,1.5,0.6c0.7,0,1-0.4,1-0.8c0-0.5-0.6-0.8-1.2-1c-0.7-0.3-1.5-0.6-1.5-1.5
			c0-0.8,0.7-1.5,1.8-1.5c0.7,0,1.2,0.3,1.6,0.6l-0.4,0.6c-0.4-0.3-0.7-0.5-1.2-0.5c-0.7,0-0.9,0.4-0.9,0.7c0,0.5,0.6,0.7,1.2,0.9
			c0.7,0.3,1.6,0.6,1.6,1.6c0,0.8-0.7,1.5-1.9,1.5c-0.7,0-1.4-0.3-1.9-0.7L141.4,400.7z"/>
	</g>
	<g>
		<path class="st1" d="M282.9,395.7h-2.1v-0.7h5.1v0.7h-2.1v6.2h-0.9V395.7z"/>
		<path class="st1" d="M288.3,396.6c1.3,0,2.1,0.9,2.1,2.4c0,0.2,0,0.4,0,0.5h-3.5c0.1,1.1,0.7,1.8,1.7,1.8c0.5,0,0.9-0.2,1.3-0.4
			l0.3,0.6c-0.4,0.3-1,0.5-1.7,0.5c-1.4,0-2.5-1-2.5-2.7S287.2,396.6,288.3,396.6z M289.6,398.9c0-1.1-0.5-1.6-1.3-1.6
			c-0.7,0-1.4,0.6-1.5,1.6H289.6z"/>
		<path class="st1" d="M293.8,396.6c0.7,0,1.2,0.3,1.5,0.6l-0.4,0.6c-0.3-0.3-0.6-0.5-1-0.5c-0.9,0-1.6,0.8-1.6,2c0,1.2,0.7,2,1.6,2
			c0.5,0,0.9-0.2,1.2-0.5l0.4,0.6c-0.5,0.4-1.1,0.7-1.7,0.7c-1.4,0-2.4-1-2.4-2.7C291.3,397.6,292.5,396.6,293.8,396.6z"/>
		<path class="st1" d="M296.6,394.3h0.9v2.1l0,1.1c0.5-0.5,1-0.9,1.7-0.9c1.1,0,1.6,0.7,1.6,2v3.3h-0.9v-3.2c0-1-0.3-1.4-1-1.4
			c-0.5,0-0.9,0.3-1.4,0.8v3.8h-0.9V394.3z"/>
		<path class="st1" d="M302.4,396.7h0.7l0.1,0.7h0c0.5-0.5,1-0.9,1.7-0.9c1.1,0,1.6,0.7,1.6,2v3.3h-0.9v-3.2c0-1-0.3-1.4-1-1.4
			c-0.5,0-0.9,0.3-1.4,0.8v3.8h-0.9V396.7z"/>
		<path class="st1" d="M310.2,396.6c1.3,0,2.4,1,2.4,2.7c0,1.7-1.1,2.7-2.4,2.7c-1.3,0-2.4-1-2.4-2.7
			C307.8,397.6,308.9,396.6,310.2,396.6z M310.2,401.3c0.9,0,1.5-0.8,1.5-2c0-1.2-0.6-2-1.5-2c-0.9,0-1.5,0.8-1.5,2
			C308.7,400.5,309.3,401.3,310.2,401.3z"/>
		<path class="st1" d="M314,394.3h0.9v6.6c0,0.3,0.1,0.4,0.2,0.4c0.1,0,0.1,0,0.2,0l0.1,0.7c-0.1,0.1-0.3,0.1-0.5,0.1
			c-0.7,0-0.9-0.4-0.9-1.2V394.3z"/>
		<path class="st1" d="M318.7,396.6c1.3,0,2.4,1,2.4,2.7c0,1.7-1.1,2.7-2.4,2.7c-1.3,0-2.4-1-2.4-2.7
			C316.3,397.6,317.4,396.6,318.7,396.6z M318.7,401.3c0.9,0,1.5-0.8,1.5-2c0-1.2-0.6-2-1.5-2c-0.9,0-1.5,0.8-1.5,2
			C317.2,400.5,317.8,401.3,318.7,401.3z"/>
		<path class="st1" d="M322.8,401.7L322.8,401.7c-0.3-0.2-0.5-0.5-0.5-0.9c0-0.4,0.3-0.8,0.6-1v0c-0.3-0.3-0.7-0.8-0.7-1.4
			c0-1.1,0.9-1.8,2-1.8c0.3,0,0.5,0.1,0.7,0.1h1.8v0.7h-1.1c0.2,0.2,0.4,0.6,0.4,1.1c0,1.1-0.8,1.8-1.9,1.8c-0.3,0-0.5-0.1-0.8-0.2
			c-0.2,0.2-0.3,0.3-0.3,0.6c0,0.3,0.2,0.6,0.9,0.6h1c1.2,0,1.8,0.4,1.8,1.2c0,1-1,1.8-2.6,1.8c-1.3,0-2.1-0.5-2.1-1.4
			C322.1,402.5,322.3,402,322.8,401.7z M324.3,403.7c1,0,1.6-0.5,1.6-1.1c0-0.5-0.4-0.6-1-0.6H324c-0.2,0-0.4,0-0.7-0.1
			c-0.4,0.3-0.5,0.6-0.5,0.9C322.8,403.3,323.4,403.7,324.3,403.7z M325.3,398.4c0-0.8-0.5-1.2-1.1-1.2c-0.6,0-1.1,0.4-1.1,1.2
			s0.5,1.2,1.1,1.2C324.8,399.7,325.3,399.2,325.3,398.4z"/>
		<path class="st1" d="M327.8,403.4c0.6,0,1-0.5,1.2-1.1l0.1-0.4l-2.1-5.2h0.9l1.1,2.9c0.2,0.4,0.3,1,0.5,1.5h0
			c0.1-0.5,0.3-1,0.4-1.5l0.9-2.9h0.9l-2,5.6c-0.4,1-0.9,1.8-1.9,1.8c-0.2,0-0.4,0-0.6-0.1l0.2-0.7
			C327.5,403.4,327.7,403.4,327.8,403.4z"/>
	</g>
	<g>
		<path class="st1" d="M474.1,394.9h2.1c1.5,0,2.6,0.5,2.6,2.1c0,1.5-1,2.2-2.6,2.2H475v2.8h-0.9V394.9z M476.2,398.4
			c1.2,0,1.8-0.4,1.8-1.4c0-1-0.6-1.3-1.8-1.3H475v2.8H476.2z"/>
		<path class="st1" d="M480.2,394.3h0.9v2.1l0,1.1c0.5-0.5,1-0.9,1.7-0.9c1.1,0,1.6,0.7,1.6,2v3.3h-0.9v-3.2c0-1-0.3-1.4-1-1.4
			c-0.5,0-0.9,0.3-1.4,0.8v3.8h-0.9V394.3z"/>
		<path class="st1" d="M488,396.6c1.3,0,2.4,1,2.4,2.7c0,1.7-1.1,2.7-2.4,2.7c-1.3,0-2.4-1-2.4-2.7
			C485.6,397.6,486.7,396.6,488,396.6z M488,401.3c0.9,0,1.5-0.8,1.5-2c0-1.2-0.6-2-1.5-2c-0.9,0-1.5,0.8-1.5,2
			C486.5,400.5,487.1,401.3,488,401.3z"/>
		<path class="st1" d="M491.9,397.4h-0.8v-0.7l0.8-0.1l0.1-1.5h0.7v1.5h1.4v0.7h-1.4v2.9c0,0.6,0.2,1,0.8,1c0.2,0,0.4-0.1,0.6-0.1
			l0.2,0.7c-0.3,0.1-0.6,0.2-1,0.2c-1.1,0-1.5-0.7-1.5-1.7V397.4z"/>
		<path class="st1" d="M497.3,396.6c1.3,0,2.4,1,2.4,2.7c0,1.7-1.1,2.7-2.4,2.7c-1.3,0-2.4-1-2.4-2.7
			C494.9,397.6,496,396.6,497.3,396.6z M497.3,401.3c0.9,0,1.5-0.8,1.5-2c0-1.2-0.6-2-1.5-2c-0.9,0-1.5,0.8-1.5,2
			C495.8,400.5,496.4,401.3,497.3,401.3z"/>
		<path class="st1" d="M501.4,401.7L501.4,401.7c-0.3-0.2-0.5-0.5-0.5-0.9c0-0.4,0.3-0.8,0.6-1v0c-0.3-0.3-0.7-0.8-0.7-1.4
			c0-1.1,0.9-1.8,2-1.8c0.3,0,0.5,0.1,0.7,0.1h1.8v0.7h-1.1c0.2,0.2,0.4,0.6,0.4,1.1c0,1.1-0.8,1.8-1.9,1.8c-0.3,0-0.5-0.1-0.8-0.2
			c-0.2,0.2-0.3,0.3-0.3,0.6c0,0.3,0.2,0.6,0.9,0.6h1c1.2,0,1.8,0.4,1.8,1.2c0,1-1,1.8-2.6,1.8c-1.3,0-2.1-0.5-2.1-1.4
			C500.6,402.5,500.9,402,501.4,401.7z M502.9,403.7c1,0,1.6-0.5,1.6-1.1c0-0.5-0.4-0.6-1-0.6h-0.9c-0.2,0-0.4,0-0.7-0.1
			c-0.4,0.3-0.5,0.6-0.5,0.9C501.4,403.3,502,403.7,502.9,403.7z M503.9,398.4c0-0.8-0.5-1.2-1.1-1.2c-0.6,0-1.1,0.4-1.1,1.2
			s0.5,1.2,1.1,1.2C503.4,399.7,503.9,399.2,503.9,398.4z"/>
		<path class="st1" d="M506.4,396.7h0.7l0.1,0.9h0c0.4-0.7,0.9-1.1,1.5-1.1c0.2,0,0.4,0,0.6,0.1l-0.2,0.8c-0.2-0.1-0.3-0.1-0.5-0.1
			c-0.4,0-1,0.3-1.3,1.2v3.3h-0.9V396.7z"/>
		<path class="st1" d="M512.8,398.6c0-0.7-0.2-1.3-1.1-1.3c-0.6,0-1.1,0.3-1.5,0.6l-0.4-0.6c0.5-0.3,1.2-0.7,2-0.7
			c1.3,0,1.8,0.8,1.8,2.1v3.2h-0.7l-0.1-0.6h0c-0.5,0.4-1.1,0.7-1.7,0.7c-0.9,0-1.5-0.5-1.5-1.5
			C509.6,399.4,510.6,398.9,512.8,398.6z M511.3,401.3c0.5,0,0.9-0.2,1.4-0.7v-1.4c-1.7,0.2-2.3,0.6-2.3,1.3
			C510.4,401.1,510.8,401.3,511.3,401.3z"/>
		<path class="st1" d="M516.2,402.3v1.7h-0.9v-7.4h0.7l0.1,0.6h0c0.5-0.4,1-0.7,1.7-0.7c1.3,0,2,1,2,2.6c0,1.8-1.1,2.8-2.2,2.8
			c-0.5,0-1-0.2-1.4-0.6L516.2,402.3z M517.4,401.3c0.9,0,1.5-0.8,1.5-2.1c0-1.1-0.4-1.9-1.4-1.9c-0.4,0-0.9,0.2-1.4,0.7v2.7
			C516.6,401.1,517.1,401.3,517.4,401.3z"/>
		<path class="st1" d="M521.2,394.3h0.9v2.1l0,1.1c0.5-0.5,1-0.9,1.7-0.9c1.1,0,1.6,0.7,1.6,2v3.3h-0.9v-3.2c0-1-0.3-1.4-1-1.4
			c-0.5,0-0.9,0.3-1.4,0.8v3.8h-0.9V394.3z"/>
		<path class="st1" d="M527,403.4c0.6,0,1-0.5,1.2-1.1l0.1-0.4l-2.1-5.2h0.9l1.1,2.9c0.2,0.4,0.3,1,0.5,1.5h0c0.1-0.5,0.3-1,0.4-1.5
			l0.9-2.9h0.9l-2,5.6c-0.4,1-0.9,1.8-1.9,1.8c-0.2,0-0.4,0-0.6-0.1l0.2-0.7C526.8,403.4,526.9,403.4,527,403.4z"/>
	</g>
	<g>
		<path class="st0" d="M302.7,379.2c-41.7,0-75.6-33.9-75.6-75.6c0-41.7,33.9-75.6,75.6-75.6s75.6,33.9,75.6,75.6
			C378.3,345.3,344.4,379.2,302.7,379.2z M302.7,230c-40.6,0-73.6,33-73.6,73.6s33,73.6,73.6,73.6s73.6-33,73.6-73.6
			S343.3,230,302.7,230z"/>
	</g>
	<g>
		<circle class="st0" cx="277.7" cy="328.6" r="6.3"/>
	</g>
	<g>
		<circle class="st0" cx="327.8" cy="328.6" r="6.3"/>
	</g>
	<g>
		<circle class="st0" cx="277.7" cy="278.6" r="6.3"/>
	</g>
	<g>
		<circle class="st0" cx="327.8" cy="278.6" r="6.3"/>
	</g>
	<g>
		<path class="st0" d="M265.2,310.9c-4,0-7.3-3.3-7.3-7.3c0-4,3.3-7.3,7.3-7.3c4,0,7.3,3.3,7.3,7.3
			C272.4,307.6,269.2,310.9,265.2,310.9z M265.2,298.3c-2.9,0-5.3,2.4-5.3,5.3c0,2.9,2.4,5.3,5.3,5.3c2.9,0,5.3-2.4,5.3-5.3
			C270.4,300.7,268.1,298.3,265.2,298.3z"/>
	</g>
	<g>
		<path class="st0" d="M340.3,310.9c-4,0-7.3-3.3-7.3-7.3c0-4,3.3-7.3,7.3-7.3s7.3,3.3,7.3,7.3C347.5,307.6,344.3,310.9,340.3,310.9
			z M340.3,298.3c-2.9,0-5.3,2.4-5.3,5.3c0,2.9,2.4,5.3,5.3,5.3s5.3-2.4,5.3-5.3C345.5,300.7,343.2,298.3,340.3,298.3z"/>
	</g>
	<g>
		<path class="st0" d="M302.7,273.3c-4,0-7.3-3.3-7.3-7.3c0-4,3.3-7.3,7.3-7.3s7.3,3.3,7.3,7.3C310,270.1,306.7,273.3,302.7,273.3z
			 M302.7,260.8c-2.9,0-5.3,2.4-5.3,5.3c0,2.9,2.4,5.3,5.3,5.3s5.3-2.4,5.3-5.3C308,263.1,305.6,260.8,302.7,260.8z"/>
	</g>
	<g>
		<path class="st0" d="M302.7,348.4c-4,0-7.3-3.3-7.3-7.3c0-4,3.3-7.3,7.3-7.3s7.3,3.3,7.3,7.3C310,345.2,306.7,348.4,302.7,348.4z
			 M302.7,335.9c-2.9,0-5.3,2.4-5.3,5.3c0,2.9,2.4,5.3,5.3,5.3s5.3-2.4,5.3-5.3C308,338.3,305.6,335.9,302.7,335.9z"/>
	</g>
	<g>
		<path class="st0" d="M302.7,335.9c-0.6,0-1-0.4-1-1v-6.3c0-0.6,0.4-1,1-1s1,0.4,1,1v6.3C303.7,335.4,303.3,335.9,302.7,335.9z"/>
	</g>
	<g>
		<path class="st0" d="M277.7,329.6c-0.6,0-1-0.4-1-1s0.4-1,1-1l17.8,0v-10.5h-17.8c-0.6,0-1-0.4-1-1v-6.4c0-0.6,0.4-1,1-1h25
			c0.6,0,1,0.4,1,1v12.6c0,0.6-0.4,1-1,1s-1-0.4-1-1v-11.6h-23v4.4h17.8c0.6,0,1,0.4,1,1v12.5c0,0.6-0.4,1-1,1L277.7,329.6z"/>
	</g>
	<g>
		<path class="st0" d="M334,304.6h-6.3c-0.6,0-1-0.4-1-1s0.4-1,1-1h6.3c0.6,0,1,0.4,1,1S334.6,304.6,334,304.6z"/>
	</g>
	<g>
		<path class="st0" d="M327.8,329.6L327.8,329.6l-18.8,0c-0.6,0-1-0.4-1-1v-18.8c0-0.6,0.4-1,1-1h5.3v-5.3c0-0.6,0.4-1,1-1h6.3
			c0.6,0,1,0.4,1,1s-0.4,1-1,1h-5.3v5.3c0,0.6-0.4,1-1,1H310v16.8l17.8,0c0.6,0,1,0.4,1,1S328.3,329.6,327.8,329.6z"/>
	</g>
	<g>
		<path class="st0" d="M302.7,279.6c-0.6,0-1-0.4-1-1v-6.3c0-0.6,0.4-1,1-1s1,0.4,1,1v6.3C303.7,279.1,303.3,279.6,302.7,279.6z"/>
	</g>
	<g>
		<path class="st0" d="M327.8,298.3h-12.5c-0.6,0-1-0.4-1-1v-11.5h-11.5c-0.6,0-1-0.4-1-1s0.4-1,1-1h12.5c0.6,0,1,0.4,1,1v11.5h10.5
			v-17.8c0-0.6,0.4-1,1-1s1,0.4,1,1v18.8C328.8,297.9,328.3,298.3,327.8,298.3z"/>
	</g>
	<g>
		<path class="st0" d="M309,304.6h-25c-0.6,0-1-0.4-1-1s0.4-1,1-1h24v-10.5h-11.5c-0.6,0-1-0.4-1-1v-11.5l-11.5,0c-0.6,0-1-0.4-1-1
			s0.4-1,1-1l0,0l12.5,0c0.6,0,1,0.4,1,1v11.5H309c0.6,0,1,0.4,1,1v12.5C310,304.2,309.5,304.6,309,304.6z"/>
	</g>
	<g>
		<path class="st0" d="M277.7,304.6h-6.3c-0.6,0-1-0.4-1-1s0.4-1,1-1h6.3c0.6,0,1,0.4,1,1S278.2,304.6,277.7,304.6z"/>
	</g>
	<g>
		<path class="st0" d="M107.3,379.2c-41.7,0-75.6-33.9-75.6-75.6c0-41.7,33.9-75.6,75.6-75.6c41.7,0,75.6,33.9,75.6,75.6
			C182.9,345.3,149,379.2,107.3,379.2z M107.3,230c-40.6,0-73.6,33-73.6,73.6c0,40.6,33,73.6,73.6,73.6c40.6,0,73.6-33,73.6-73.6
			C180.9,263,147.9,230,107.3,230z"/>
	</g>
	<g>
		<path class="st0" d="M97.6,335.7c-0.6,0-1-0.4-1-1c0-11.3-9.2-20.5-20.6-20.5c-0.6,0-1-0.4-1-1s0.4-1,1-1
			c12.4,0,22.6,10.1,22.6,22.5C98.6,335.3,98.1,335.7,97.6,335.7z"/>
	</g>
	<g>
		<path class="st0" d="M102.5,285.4c-6.6,0-13.2-2-18.9-6c-0.5-0.3-0.6-0.9-0.2-1.4c0.3-0.5,0.9-0.6,1.4-0.2
			c12.3,8.7,28.9,7.2,39.6-3.4c0.4-0.4,1-0.4,1.4,0c0.4,0.4,0.4,1,0,1.4C119.4,282.1,111,285.4,102.5,285.4z"/>
	</g>
	<g>
		<path class="st0" d="M109.2,337.5c-0.6,0-1-0.4-1-1c0-18.7-15.2-34-34-34c-0.6,0-1-0.4-1-1s0.4-1,1-1c19.8,0,36,16.1,36,36
			C110.2,337.1,109.8,337.5,109.2,337.5z"/>
	</g>
	<g>
		<path class="st0" d="M121.6,334.9c-0.5,0-0.9-0.4-1-0.9c-3.1-22.6-21.1-40.9-43.6-44.4c-0.5-0.1-0.9-0.6-0.8-1.1
			c0.1-0.5,0.6-0.9,1.1-0.8c23.4,3.7,42,22.6,45.3,46.1c0.1,0.5-0.3,1.1-0.9,1.1C121.7,334.9,121.7,334.9,121.6,334.9z"/>
	</g>
	<g>
		<path class="st0" d="M104.9,303.1c-0.2,0-0.4-0.1-0.6-0.2c-0.5-0.3-0.6-0.9-0.3-1.4c3.5-5.1,4.5-11.4,2.8-17.4
			c-0.2-0.5,0.2-1.1,0.7-1.2c0.5-0.2,1.1,0.2,1.2,0.7c1.9,6.5,0.7,13.5-3.1,19C105.5,302.9,105.2,303.1,104.9,303.1z"/>
	</g>
	<g>
		<path class="st0" d="M112.6,311.9c-0.2,0-0.4-0.1-0.6-0.2c-0.4-0.3-0.5-1-0.2-1.4c6.7-8.4,8.6-19,5.5-29.8
			c-0.2-0.5,0.2-1.1,0.7-1.2c0.5-0.2,1.1,0.2,1.2,0.7c3.3,11.5,1.2,22.7-5.9,31.6C113.2,311.8,112.9,311.9,112.6,311.9z"/>
	</g>
	<g>
		<path class="st0" d="M118.9,323.9c-0.2,0-0.4-0.1-0.6-0.2c-0.4-0.3-0.5-1-0.1-1.4c10.1-12.5,13.9-28.6,10.4-44.4
			c-0.1-0.5,0.2-1.1,0.8-1.2c0.5-0.1,1.1,0.2,1.2,0.8c3.7,16.3-0.3,33.1-10.7,46.1C119.4,323.8,119.2,323.9,118.9,323.9z"/>
	</g>
	<g>
		<path class="st0" d="M80,324.2c-0.4,0-0.7-0.2-0.9-0.5c-0.2-0.5-0.1-1.1,0.4-1.3c10-5.1,16.3-15.2,16.3-26.4c0-0.6,0.4-1,1-1
			s1,0.4,1,1c0,12-6.7,22.8-17.4,28.2C80.3,324.2,80.1,324.2,80,324.2z"/>
	</g>
	<g>
		<path class="st0" d="M107.3,338.1c-19.2,0-34.8-15.6-34.8-34.8c0-19.2,15.6-34.8,34.8-34.8s34.8,15.6,34.8,34.8
			C142.1,322.5,126.5,338.1,107.3,338.1z M107.3,270.5c-18.1,0-32.8,14.7-32.8,32.8c0,18.1,14.7,32.8,32.8,32.8
			c18.1,0,32.8-14.7,32.8-32.8C140.1,285.2,125.4,270.5,107.3,270.5z"/>
	</g>
	<g>
		
			<ellipse transform="matrix(0.7071 -0.7071 0.7071 0.7071 -145.8336 180.1053)" class="st0" cx="144.5" cy="266.1" rx="3.4" ry="3.4"/>
	</g>
	<g>
		
			<ellipse transform="matrix(0.7071 -0.7071 0.7071 0.7071 -142.2109 161.7924)" class="st0" cx="124.2" cy="252.6" rx="3.4" ry="3.4"/>
	</g>
	<g>
		<path class="st0" d="M66.7,338.1c-0.3,0-0.5-0.1-0.7-0.3c-0.4-0.4-0.3-1,0.1-1.4l9.8-9c0.4-0.4,1-0.3,1.4,0.1
			c0.4,0.4,0.3,1-0.1,1.4l-9.8,9C67.2,338,67,338.1,66.7,338.1z"/>
	</g>
	<g>
		<path class="st0" d="M134.6,276.1c-0.3,0-0.5-0.1-0.7-0.3c-0.4-0.4-0.3-1,0.1-1.4l9.9-9c0.4-0.4,1-0.3,1.4,0.1
			c0.4,0.4,0.3,1-0.1,1.4l-9.9,9C135.1,276,134.8,276.1,134.6,276.1z"/>
	</g>
	<g>
		<path class="st0" d="M86.7,352c-0.1,0-0.2,0-0.4-0.1c-0.5-0.2-0.8-0.8-0.6-1.3l4.2-11.1c0.2-0.5,0.8-0.8,1.3-0.6s0.8,0.8,0.6,1.3
			l-4.2,11.1C87.5,351.7,87.1,352,86.7,352z"/>
	</g>
	<g>
		<path class="st0" d="M119.2,266.5c-0.1,0-0.2,0-0.4-0.1c-0.5-0.2-0.8-0.8-0.6-1.3l4.9-13c0.2-0.5,0.8-0.8,1.3-0.6
			c0.5,0.2,0.8,0.8,0.6,1.3l-4.9,13C120,266.3,119.6,266.5,119.2,266.5z"/>
	</g>
	<g>
		<path class="st1" d="M667.9,396.7h1l1.4,3.8l0.5,1.4h0l0.5-1.4l1.3-3.8h1v7h-0.8v-3.9c0-0.6,0.1-1.5,0.1-2.1h0l-0.6,1.6l-1.3,3.7
			h-0.5l-1.4-3.7l-0.6-1.6h0c0,0.6,0.1,1.5,0.1,2.1v3.9h-0.8V396.7z"/>
		<path class="st1" d="M677.6,398.4c1.3,0,2.1,0.9,2.1,2.4c0,0.2,0,0.4,0,0.5h-3.5c0.1,1.1,0.7,1.8,1.7,1.8c0.5,0,0.9-0.2,1.3-0.4
			l0.3,0.6c-0.4,0.3-1,0.5-1.7,0.5c-1.4,0-2.5-1-2.5-2.7S676.4,398.4,677.6,398.4z M678.9,400.7c0-1.1-0.5-1.6-1.3-1.6
			c-0.7,0-1.4,0.6-1.5,1.6H678.9z"/>
		<path class="st1" d="M682.8,398.4c0.6,0,1,0.2,1.5,0.6l0-0.9v-2h0.9v7.6h-0.7l-0.1-0.6h0c-0.4,0.4-1,0.7-1.6,0.7
			c-1.3,0-2.1-1-2.1-2.7C680.5,399.4,681.6,398.4,682.8,398.4z M682.9,403.1c0.5,0,0.9-0.2,1.3-0.7v-2.7c-0.4-0.4-0.8-0.5-1.3-0.5
			c-0.8,0-1.5,0.8-1.5,2C681.4,402.4,682,403.1,682.9,403.1z"/>
		<path class="st1" d="M686.7,396.9c0-0.3,0.3-0.6,0.6-0.6c0.3,0,0.6,0.2,0.6,0.6c0,0.3-0.3,0.6-0.6,0.6
			C686.9,397.5,686.7,397.2,686.7,396.9z M686.8,398.5h0.9v5.2h-0.9V398.5z"/>
		<path class="st1" d="M691.5,398.4c0.7,0,1.2,0.3,1.5,0.6l-0.4,0.6c-0.3-0.3-0.6-0.5-1-0.5c-0.9,0-1.6,0.8-1.6,2c0,1.2,0.7,2,1.6,2
			c0.5,0,0.9-0.2,1.2-0.5l0.4,0.6c-0.5,0.4-1.1,0.7-1.7,0.7c-1.4,0-2.4-1-2.4-2.7C689.1,399.4,690.2,398.4,691.5,398.4z"/>
		<path class="st1" d="M697.1,400.4c0-0.7-0.2-1.3-1.1-1.3c-0.6,0-1.1,0.3-1.5,0.6l-0.4-0.6c0.5-0.3,1.2-0.7,2-0.7
			c1.3,0,1.8,0.8,1.8,2.1v3.2h-0.7l-0.1-0.6h0c-0.5,0.4-1.1,0.7-1.7,0.7c-0.9,0-1.5-0.5-1.5-1.5
			C693.9,401.2,694.9,400.7,697.1,400.4z M695.7,403.1c0.5,0,0.9-0.2,1.4-0.7V401c-1.7,0.2-2.3,0.6-2.3,1.3
			C694.8,402.9,695.2,403.1,695.7,403.1z"/>
		<path class="st1" d="M699.6,396.1h0.9v6.6c0,0.3,0.1,0.4,0.2,0.4c0.1,0,0.1,0,0.2,0l0.1,0.7c-0.1,0.1-0.3,0.1-0.5,0.1
			c-0.7,0-0.9-0.4-0.9-1.2V396.1z"/>
		<path class="st1" d="M704.6,402.2c0.5,0.5,1.2,0.9,1.9,0.9c0.9,0,1.5-0.5,1.5-1.1c0-0.7-0.5-0.9-1.2-1.2l-1-0.4
			c-0.7-0.3-1.4-0.8-1.4-1.8c0-1.1,0.9-1.9,2.2-1.9c0.8,0,1.6,0.4,2.1,0.9l-0.5,0.6c-0.4-0.4-0.9-0.7-1.6-0.7c-0.8,0-1.3,0.4-1.3,1
			c0,0.7,0.6,0.9,1.2,1.2l1,0.4c0.8,0.4,1.4,0.8,1.4,1.9c0,1.1-0.9,2-2.4,2c-1,0-1.8-0.4-2.5-1L704.6,402.2z"/>
		<path class="st1" d="M710.4,399.2h-0.8v-0.7l0.8-0.1l0.1-1.5h0.7v1.5h1.4v0.7h-1.4v2.9c0,0.6,0.2,1,0.8,1c0.2,0,0.4-0.1,0.6-0.1
			l0.2,0.7c-0.3,0.1-0.6,0.2-1,0.2c-1.1,0-1.5-0.7-1.5-1.7V399.2z"/>
		<path class="st1" d="M713.7,398.5h0.9v3.2c0,1,0.3,1.4,1,1.4c0.5,0,0.9-0.3,1.4-0.9v-3.7h0.9v5.2h-0.7l-0.1-0.8h0
			c-0.5,0.6-1,0.9-1.7,0.9c-1.1,0-1.6-0.7-1.6-2V398.5z"/>
		<path class="st1" d="M721.4,398.4c0.6,0,1,0.2,1.5,0.6l0-0.9v-2h0.9v7.6H723l-0.1-0.6h0c-0.4,0.4-1,0.7-1.6,0.7
			c-1.3,0-2.1-1-2.1-2.7C719.2,399.4,720.2,398.4,721.4,398.4z M721.5,403.1c0.5,0,0.9-0.2,1.3-0.7v-2.7c-0.4-0.4-0.8-0.5-1.3-0.5
			c-0.8,0-1.5,0.8-1.5,2C720.1,402.4,720.6,403.1,721.5,403.1z"/>
		<path class="st1" d="M727.4,398.4c1.3,0,2.1,0.9,2.1,2.4c0,0.2,0,0.4,0,0.5h-3.5c0.1,1.1,0.7,1.8,1.7,1.8c0.5,0,0.9-0.2,1.3-0.4
			l0.3,0.6c-0.4,0.3-1,0.5-1.7,0.5c-1.4,0-2.5-1-2.5-2.7S726.2,398.4,727.4,398.4z M728.7,400.7c0-1.1-0.5-1.6-1.3-1.6
			c-0.7,0-1.4,0.6-1.5,1.6H728.7z"/>
		<path class="st1" d="M730.8,398.5h0.7l0.1,0.7h0c0.5-0.5,1-0.9,1.7-0.9c1.1,0,1.6,0.7,1.6,2v3.3H734v-3.2c0-1-0.3-1.4-1-1.4
			c-0.5,0-0.9,0.3-1.4,0.8v3.8h-0.9V398.5z"/>
		<path class="st1" d="M736.7,399.2H736v-0.7l0.8-0.1l0.1-1.5h0.7v1.5h1.4v0.7h-1.4v2.9c0,0.6,0.2,1,0.8,1c0.2,0,0.4-0.1,0.6-0.1
			l0.2,0.7c-0.3,0.1-0.6,0.2-1,0.2c-1.1,0-1.5-0.7-1.5-1.7V399.2z"/>
	</g>
	<g>
		<path class="st0" d="M699.2,376.7c-41.7,0-75.6-33.9-75.6-75.6c0-41.7,33.9-75.6,75.6-75.6c41.7,0,75.6,33.9,75.6,75.6
			C774.8,342.8,740.9,376.7,699.2,376.7z M699.2,227.4c-40.6,0-73.6,33-73.6,73.6s33,73.6,73.6,73.6s73.6-33,73.6-73.6
			S739.8,227.4,699.2,227.4z"/>
	</g>
	<g>
		<path class="st0" d="M661.9,294.6c-0.6,0-1-0.4-1-1v-22.4c0-4.7,3.8-8.5,8.5-8.5l14.9,0c0.6,0,1,0.4,1,1s-0.4,1-1,1l0,0l-14.9,0
			c-3.6,0-6.5,2.9-6.5,6.5v22.4C662.9,294.2,662.4,294.6,661.9,294.6z"/>
	</g>
	<g>
		<path class="st0" d="M729,346.8l-59.7,0c-4.7,0-8.5-3.8-8.5-8.5v-29.8c0-0.3,0.1-0.5,0.3-0.7s0.4-0.3,0.7-0.3l0,0l14.2,0l7.2-21.7
			c0.1-0.4,0.6-0.7,1-0.7c0.5,0,0.8,0.4,0.9,0.8l6.7,40l6.3-25.2c0.1-0.4,0.5-0.7,0.9-0.8c0.4,0,0.8,0.3,1,0.7l6.7,20.1l6.4-12.8
			c0.2-0.3,0.5-0.6,0.9-0.6h7.5c0.6,0,1,0.4,1,1s-0.4,1-1,1h-6.8l-7.2,14.4c-0.2,0.4-0.6,0.6-1,0.6c-0.4,0-0.8-0.3-0.9-0.7
			l-6.4-19.1l-6.6,26.5c-0.1,0.5-0.5,0.8-1,0.8c-0.5,0-0.9-0.4-0.9-0.8l-6.8-40.8l-6.2,18.6c-0.1,0.4-0.5,0.7-0.9,0.7l0,0l-13.9,0
			v28.8c0,3.6,2.9,6.5,6.5,6.5l59.7,0c3.6,0,6.5-2.9,6.5-6.5v-67.2c0-3.6-2.9-6.5-6.5-6.5h-14.9c-0.6,0-1-0.4-1-1s0.4-1,1-1H729
			c4.7,0,8.5,3.8,8.5,8.5v67.2C737.5,343,733.7,346.8,729,346.8z"/>
	</g>
	<g>
		<path class="st0" d="M714.1,272.2h-29.8c-0.6,0-1-0.4-1-1v-14.9c0-0.6,0.4-1,1-1h29.8c0.6,0,1,0.4,1,1v14.9
			C715.1,271.8,714.6,272.2,714.1,272.2z M685.2,270.2h27.8v-12.9h-27.8V270.2z"/>
	</g>
	<g>
		<circle class="st0" cx="725.3" cy="308.5" r="3.7"/>
	</g>
	<g>
		<path class="st0" d="M498.2,379.2c-41.7,0-75.6-33.9-75.6-75.6c0-41.7,33.9-75.6,75.6-75.6c41.7,0,75.6,33.9,75.6,75.6
			C573.8,345.3,539.8,379.2,498.2,379.2z M498.2,230c-40.6,0-73.6,33-73.6,73.6c0,40.6,33,73.6,73.6,73.6s73.6-33,73.6-73.6
			C571.8,263,538.7,230,498.2,230z"/>
	</g>
	<g>
		<path class="st0" d="M517.8,280.6c-0.6,0-1-0.4-1-1c0-3.1-2.5-5.6-5.6-5.6h-19.7c-3.1,0-5.6,2.5-5.6,5.6c0,0.6-0.4,1-1,1
			s-1-0.4-1-1c0-4.2,3.4-7.6,7.6-7.6h19.7c4.2,0,7.6,3.4,7.6,7.6C518.8,280.2,518.4,280.6,517.8,280.6z"/>
	</g>
	<g>
		<path class="st0" d="M485,333l-19.7,0c-4.2,0-7.6-3.4-7.6-7.6v-39.3c0-4.2,3.4-7.6,7.6-7.6l13.1,0c0.6,0,1,0.4,1,1s-0.4,1-1,1
			l-13.1,0c-3.1,0-5.6,2.5-5.6,5.6v39.3c0,3.1,2.5,5.6,5.6,5.6l19.7,0c0.6,0,1,0.4,1,1S485.6,333,485,333z"/>
	</g>
	<g>
		<path class="st0" d="M517.8,333c-0.6,0-1-0.4-1-1s0.4-1,1-1l13.1,0c3.1,0,5.6-2.5,5.6-5.6v-39.3c0-3.1-2.5-5.6-5.6-5.6h-6.6
			c-0.6,0-1-0.4-1-1s0.4-1,1-1h6.6c4.2,0,7.6,3.4,7.6,7.6v39.3c0,4.2-3.4,7.6-7.6,7.6L517.8,333z"/>
	</g>
	<g>
		<path class="st0" d="M478.5,274.1h-13.1c-0.6,0-1-0.4-1-1s0.4-1,1-1h13.1c0.6,0,1,0.4,1,1S479,274.1,478.5,274.1z"/>
	</g>
	<g>
		<path class="st0" d="M501.4,326.5c-11.4,0-20.7-9.3-20.7-20.7c0-11.4,9.3-20.7,20.7-20.7s20.7,9.3,20.7,20.7
			C522.1,317.2,512.8,326.5,501.4,326.5z M501.4,287.2c-10.3,0-18.7,8.4-18.7,18.7c0,10.3,8.4,18.7,18.7,18.7s18.7-8.4,18.7-18.7
			C520.1,295.5,511.7,287.2,501.4,287.2z"/>
	</g>
	<g>
		<path class="st0" d="M520.1,301.1c-0.1,0-0.2,0-0.3,0l-21.6-5.8c-0.5-0.1-0.9-0.7-0.7-1.2c0.1-0.5,0.7-0.9,1.2-0.7l21.6,5.8
			c0.5,0.1,0.9,0.7,0.7,1.2C521,300.8,520.6,301.1,520.1,301.1z"/>
	</g>
	<g>
		<path class="st0" d="M515.8,320.3c-0.4,0-0.8-0.3-1-0.7l-5.9-21.9c-0.1-0.5,0.2-1.1,0.7-1.2c0.5-0.1,1.1,0.2,1.2,0.7l5.9,21.9
			c0.1,0.5-0.2,1.1-0.7,1.2C516,320.3,515.9,320.3,515.8,320.3z"/>
	</g>
	<g>
		<path class="st0" d="M497,326c-0.3,0-0.5-0.1-0.7-0.3c-0.4-0.4-0.4-1,0-1.4l16-16c0.4-0.4,1-0.4,1.4,0s0.4,1,0,1.4l-16,16
			C497.5,325.9,497.2,326,497,326z"/>
	</g>
	<g>
		<path class="st0" d="M504.4,318.4c-0.1,0-0.2,0-0.3,0l-21.7-5.8c-0.5-0.1-0.9-0.7-0.7-1.2c0.1-0.5,0.7-0.9,1.2-0.7l21.7,5.8
			c0.5,0.1,0.9,0.7,0.7,1.2C505.3,318.1,504.9,318.4,504.4,318.4z"/>
	</g>
	<g>
		<path class="st0" d="M492.9,315.2c-0.4,0-0.8-0.3-1-0.7l-5.8-21.7c-0.1-0.5,0.2-1.1,0.7-1.2c0.5-0.1,1.1,0.2,1.2,0.7l5.8,21.7
			c0.1,0.5-0.2,1.1-0.7,1.2C493.1,315.2,493,315.2,492.9,315.2z"/>
	</g>
	<g>
		<path class="st0" d="M489.9,303.7c-0.3,0-0.5-0.1-0.7-0.3c-0.4-0.4-0.4-1,0-1.4l16-16c0.4-0.4,1-0.4,1.4,0s0.4,1,0,1.4l-16,16
			C490.4,303.6,490.1,303.7,489.9,303.7z"/>
	</g>
	<g>
		<circle class="st0" cx="468.7" cy="289.4" r="3.3"/>
	</g>
</g>
</svg>
