<?xml version="1.0" encoding="utf-8"?>
<!-- Generator: Adobe Illustrator 19.2.0, SVG Export Plug-In . SVG Version: 6.00 Build 0)  -->
<svg version="1.1" id="Layer_1" xmlns="http://www.w3.org/2000/svg" xmlns:xlink="http://www.w3.org/1999/xlink" x="0px" y="0px"
	 viewBox="0 0 65.6 54.7" style="enable-background:new 0 0 65.6 54.7;" xml:space="preserve">
<style type="text/css">
	.st0{fill:#E74332;}
</style>
<path class="st0" d="M35.7,15.7c0.9-0.8,1.5-1.3,2.2-1.8c4.2-3.4,8.6-6,14.1-3.1c4.5,2.4,7.6,9.4,6.7,15.1
	c-1.2,7.2-5.1,12.9-10.9,17.3c-6.2,4.7-13.3,7.5-20.8,9.4c-1.5,0.4-2.9,0.7-4.1-0.6C15.7,44.6,8.9,37.2,6.7,26.7
	c-1.5-7.4,0.3-13.8,5-19.5C17.1,0.4,26.4,1,31.6,8.3C33.1,10.4,34.2,12.9,35.7,15.7z"/>
</svg>
