<svg width="43" height="24" viewBox="0 0 43 24" fill="none" xmlns="http://www.w3.org/2000/svg">
<path fill-rule="evenodd" clip-rule="evenodd" d="M9.32095 19.7481L16.8782 20.4732L12.6009 10.6076L18.3059 2.32658L11.0333 1.62881L8.45593 5.35168L8.83337 1.41774L2.31133 0.791992L0.57312 18.9088L7.09517 19.5345L7.48254 15.4971L9.32095 19.7481ZM34.624 22.9998V15.8078H28.2381V14.2268H34.624V9.6078H28.2381V8.0578H34.624V1.2998H19V22.9998H34.624ZM43 14C43 15.6569 41.6569 17 40 17C38.3432 17 37 15.6569 37 14C37 12.3431 38.3432 11 40 11C41.6569 11 43 12.3431 43 14ZM40 24C41.6569 24 43 22.6569 43 21C43 19.3431 41.6569 18 40 18C38.3432 18 37 19.3431 37 21C37 22.6569 38.3432 24 40 24Z" fill="white"/>
</svg>
