<svg width="114" height="21" viewBox="0 0 114 21" fill="none" xmlns="http://www.w3.org/2000/svg">
<path fill-rule="evenodd" clip-rule="evenodd" d="M82.8765 10.8572C82.6378 10.1112 82.1992 9.51142 81.5607 9.05783C82.186 8.85251 82.7106 8.50613 83.1345 8.01869C83.5611 7.51752 83.8391 6.93724 83.9686 6.27784C84.0658 5.78329 84.0765 5.29315 84.0007 4.80744C83.9386 4.32442 83.7888 3.88837 83.5514 3.49931C83.3304 3.0992 83.0203 2.75294 82.6212 2.46053C82.2358 2.17082 81.7752 1.97334 81.2394 1.8681L73.78 0.402832L70.9466 14.8272L78.2206 16.256C78.825 16.3748 79.3948 16.3797 79.9298 16.2707C80.4648 16.1618 80.946 15.9639 81.3733 15.6768C81.8007 15.3898 82.1564 15.0317 82.4405 14.6024C82.7272 14.1593 82.9219 13.6768 83.0244 13.1548C83.1809 12.358 83.1316 11.5922 82.8765 10.8572ZM78.0359 11.6399C77.8551 11.7613 77.6342 11.7964 77.3732 11.7451L76.1162 11.4982L76.44 9.84969L77.7794 10.1128C78.0129 10.1587 78.1822 10.2775 78.2872 10.4694C78.3922 10.6612 78.4231 10.867 78.3799 11.0868C78.3341 11.3203 78.2194 11.5047 78.0359 11.6399ZM78.9628 6.92103C78.7957 7.04516 78.5886 7.08294 78.3413 7.03437L77.0431 6.77936L77.3548 5.19268L78.7354 5.46388C78.9689 5.50975 79.1313 5.62726 79.2226 5.81639C79.3165 5.99179 79.3419 6.18939 79.2988 6.40919C79.2583 6.61525 79.1463 6.78587 78.9628 6.92103ZM29.88 1.15598C29.0186 0.788647 28.1003 0.60498 27.125 0.60498C26.137 0.60498 25.2123 0.788647 24.351 1.15598C23.4896 1.51065 22.736 1.99831 22.09 2.61898C21.444 3.23965 20.931 3.96798 20.551 4.80398C20.1836 5.62731 20 6.51398 20 7.46398C20 8.41398 20.1836 9.30698 20.551 10.143C20.931 10.9663 21.444 11.6883 22.09 12.309C22.736 12.917 23.4896 13.4046 24.351 13.772C25.2123 14.1266 26.137 14.304 27.125 14.304C28.1003 14.304 29.0186 14.1266 29.88 13.772C30.7413 13.4046 31.495 12.917 32.141 12.309C32.787 11.6883 33.2936 10.9663 33.661 10.143C34.041 9.30698 34.231 8.41398 34.231 7.46398C34.231 6.51398 34.041 5.62731 33.661 4.80398C33.2936 3.96798 32.787 3.23965 32.141 2.61898C31.495 1.99831 30.7413 1.51065 29.88 1.15598ZM28.132 9.85798C27.8153 9.98465 27.4796 10.048 27.125 10.048C26.7576 10.048 26.4156 9.98465 26.099 9.85798C25.7823 9.71865 25.5036 9.53498 25.263 9.30698C25.0223 9.06631 24.8323 8.78765 24.693 8.47098C24.5663 8.15431 24.503 7.81865 24.503 7.46398C24.503 7.10931 24.5663 6.77365 24.693 6.45698C24.8323 6.14031 25.0223 5.86798 25.263 5.63998C25.5036 5.39931 25.7823 5.21565 26.099 5.08898C26.4156 4.94965 26.7576 4.87998 27.125 4.87998C27.4796 4.87998 27.8153 4.94965 28.132 5.08898C28.4613 5.21565 28.74 5.39931 28.968 5.63998C29.2086 5.86798 29.3986 6.14031 29.538 6.45698C29.6773 6.77365 29.747 7.10931 29.747 7.46398C29.747 7.81865 29.6773 8.15431 29.538 8.47098C29.3986 8.78765 29.2086 9.06631 28.968 9.30698C28.74 9.53498 28.4613 9.71865 28.132 9.85798ZM4.31084 12.5449L0.628416 11.7558L5.3647 2.74823L9.81372 3.70149L10.4436 13.8589L6.76122 13.0699L6.80911 11.7772L4.78309 11.3431L4.31084 12.5449ZM17.292 7.7092V14.0002H15.762L13.935 11.1382V14.0002H12V7.7002H13.935L15.348 9.9232V7.7092H17.292ZM63.375 3.01514C64.2476 3.01514 65.0693 3.17947 65.84 3.50814C66.6106 3.82547 67.285 4.2618 67.863 4.81714C68.441 5.37247 68.8943 6.02414 69.223 6.77214C69.563 7.5088 69.733 8.30214 69.733 9.15214C69.733 10.0021 69.563 10.8011 69.223 11.5491C68.8943 12.2858 68.441 12.9318 67.863 13.4871C67.285 14.0311 66.6106 14.4675 65.84 14.7961C65.0693 15.1135 64.2476 15.2721 63.375 15.2721C62.491 15.2721 61.6636 15.1135 60.893 14.7961C60.1223 14.4675 59.448 14.0311 58.87 13.4871C58.292 12.9318 57.833 12.2858 57.493 11.5491C57.1643 10.8011 57 10.0021 57 9.15214C57 8.30214 57.1643 7.5088 57.493 6.77214C57.833 6.02414 58.292 5.37247 58.87 4.81714C59.448 4.2618 60.1223 3.82547 60.893 3.50814C61.6636 3.17947 62.491 3.01514 63.375 3.01514ZM63.375 11.4641C63.6923 11.4641 63.9926 11.4075 64.276 11.2941C64.5706 11.1695 64.82 11.0051 65.024 10.8011C65.2393 10.5858 65.4093 10.3365 65.534 10.0531C65.6586 9.7698 65.721 9.46947 65.721 9.15214C65.721 8.8348 65.6586 8.53447 65.534 8.25114C65.4093 7.9678 65.2393 7.72414 65.024 7.52014C64.82 7.3048 64.5706 7.14047 64.276 7.02714C63.9926 6.90247 63.6923 6.84014 63.375 6.84014C63.0463 6.84014 62.7403 6.90247 62.457 7.02714C62.1736 7.14047 61.9243 7.3048 61.709 7.52014C61.4936 7.72414 61.3236 7.9678 61.199 8.25114C61.0856 8.53447 61.029 8.8348 61.029 9.15214C61.029 9.46947 61.0856 9.7698 61.199 10.0531C61.3236 10.3365 61.4936 10.5858 61.709 10.8011C61.9243 11.0051 62.1736 11.1695 62.457 11.2941C62.7403 11.4075 63.0463 11.4641 63.375 11.4641ZM93.568 13.0561V17.0001H85V5.1001H93.568V8.8061H90.066V9.6561H93.568V12.1891H90.066V13.0561H93.568ZM94 16.9998H98.096V15.5758L98.672 16.9998H103.728L101.728 13.2878C102.251 12.9145 102.667 12.4398 102.976 11.8638C103.296 11.2771 103.456 10.6318 103.456 9.9278C103.456 9.36247 103.349 8.82914 103.136 8.3278C102.923 7.82647 102.629 7.38914 102.256 7.01581C101.883 6.64247 101.445 6.34914 100.944 6.13581C100.443 5.9118 99.904 5.7998 99.328 5.7998H94V16.9998ZM112.968 9.61621L112.136 12.5602C111.805 12.4002 111.485 12.2615 111.176 12.1442C110.909 12.0375 110.627 11.9415 110.328 11.8562C110.04 11.7709 109.795 11.7282 109.592 11.7282C109.389 11.7282 109.235 11.7549 109.128 11.8082C109.021 11.8615 108.941 11.9202 108.888 11.9842C108.835 12.0589 108.803 12.1442 108.792 12.2402C108.792 12.4215 108.899 12.5655 109.112 12.6722C109.336 12.7682 109.613 12.8695 109.944 12.9762C110.275 13.0722 110.632 13.1949 111.016 13.3442C111.411 13.4829 111.773 13.6855 112.104 13.9522C112.435 14.2189 112.707 14.5709 112.92 15.0082C113.144 15.4349 113.256 15.9842 113.256 16.6562C113.256 17.1149 113.192 17.5202 113.064 17.8722C112.947 18.2135 112.781 18.5122 112.568 18.7682C112.365 19.0242 112.131 19.2429 111.864 19.4242C111.608 19.5949 111.347 19.7389 111.08 19.8562C110.44 20.1335 109.715 20.2882 108.904 20.3202C108.328 20.3202 107.8 20.2669 107.32 20.1602C106.851 20.0535 106.445 19.9309 106.104 19.7922C105.699 19.6429 105.331 19.4669 105 19.2642L105.88 16.0002C106.264 16.1922 106.637 16.3629 107 16.5122C107.309 16.6402 107.629 16.7575 107.96 16.8642C108.291 16.9602 108.568 17.0082 108.792 17.0082C108.995 17.0082 109.144 16.9869 109.24 16.9442C109.347 16.8909 109.427 16.8322 109.48 16.7682C109.533 16.6935 109.56 16.6082 109.56 16.5122C109.56 16.3202 109.448 16.1655 109.224 16.0482C109 15.9202 108.717 15.7975 108.376 15.6802C108.045 15.5629 107.683 15.4295 107.288 15.2802C106.904 15.1309 106.541 14.9282 106.2 14.6722C105.869 14.4162 105.592 14.0962 105.368 13.7122C105.144 13.3175 105.032 12.8269 105.032 12.2402C105.032 11.7922 105.107 11.3549 105.256 10.9282C105.405 10.5015 105.635 10.1282 105.944 9.80822C106.264 9.47755 106.675 9.21622 107.176 9.02421C107.677 8.82155 108.28 8.72021 108.984 8.72021C109.464 8.72021 109.939 8.76822 110.408 8.86421C110.877 8.94955 111.304 9.05088 111.688 9.16821C112.125 9.29622 112.552 9.44555 112.968 9.61621ZM103.361 7.10704C103.602 7.43637 103.912 7.67704 104.292 7.82904L104.121 9.17804C104.577 9.17804 104.995 9.09571 105.375 8.93104C105.768 8.76637 106.097 8.53837 106.363 8.24704C106.642 7.96837 106.857 7.63271 107.009 7.24004C107.161 6.83471 107.237 6.40404 107.237 5.94804C107.237 5.66937 107.18 5.40971 107.066 5.16904C106.952 4.91571 106.8 4.70037 106.61 4.52304C106.42 4.33304 106.198 4.18737 105.945 4.08604C105.692 3.97204 105.419 3.91504 105.128 3.91504C104.837 3.91504 104.558 3.97204 104.292 4.08604C104.039 4.18737 103.817 4.33304 103.627 4.52304C103.437 4.70037 103.285 4.91571 103.171 5.16904C103.057 5.40971 103 5.66937 103 5.94804C103 6.37871 103.12 6.76504 103.361 7.10704ZM46.6849 14.233C46.5076 14.4736 46.2733 14.708 45.9819 14.936C45.7286 15.126 45.4056 15.3286 45.0129 15.544C44.6203 15.7466 44.1389 15.924 43.5689 16.076C42.6569 16.3166 41.7513 16.3673 40.8519 16.228C39.9526 16.0886 39.1229 15.7973 38.3629 15.354C37.6156 14.898 36.9633 14.3153 36.4059 13.606C35.8486 12.884 35.4496 12.067 35.2089 11.155C34.9683 10.243 34.9176 9.33731 35.0569 8.43797C35.1963 7.53864 35.4876 6.71531 35.9309 5.96798C36.3869 5.20797 36.9696 4.54931 37.6789 3.99197C38.4009 3.43464 39.2179 3.03564 40.1299 2.79497C40.9279 2.59231 41.6816 2.53531 42.3909 2.62397C43.1003 2.71264 43.7336 2.85197 44.2909 3.04197C44.9243 3.26997 45.5196 3.55497 46.0769 3.89697L44.6709 7.73497C44.3416 7.48164 43.9933 7.27264 43.6259 7.10797C43.3093 6.96864 42.9483 6.86097 42.5429 6.78498C42.1376 6.70897 41.7196 6.72164 41.2889 6.82298C40.9343 6.91164 40.6176 7.06364 40.3389 7.27898C40.0603 7.49431 39.8323 7.75397 39.6549 8.05797C39.4903 8.34931 39.3763 8.67231 39.3129 9.02698C39.2623 9.36898 39.2876 9.71731 39.3889 10.072C39.4776 10.4266 39.6296 10.7433 39.8449 11.022C40.0603 11.3006 40.3136 11.5286 40.6049 11.706C40.9089 11.8706 41.2319 11.9846 41.5739 12.048C41.9286 12.0986 42.2833 12.0733 42.6379 11.972C42.9673 11.8833 43.2586 11.763 43.5119 11.611C43.7653 11.459 43.9806 11.307 44.1579 11.155C44.3606 10.9776 44.5316 10.794 44.6709 10.604L46.6849 14.233ZM55.873 8.8802V4.7002H47V8.8802H49.337V18.0002H53.536V8.8802H55.873Z" fill="white"/>
</svg>
