<svg width="92" height="11" viewBox="0 0 92 11" fill="none" xmlns="http://www.w3.org/2000/svg">
<path d="M3.328 9.99996H0V0.899961H4.342C4.81 0.899961 5.24767 0.990961 5.655 1.17296C6.06233 1.34629 6.41767 1.58463 6.721 1.88796C7.02433 2.19129 7.26267 2.54663 7.436 2.95396C7.60933 3.36129 7.696 3.79463 7.696 4.25396C7.696 4.72196 7.60933 5.15963 7.436 5.56696C7.26267 5.97429 7.02433 6.32963 6.721 6.63296C6.41767 6.93629 6.06233 7.17463 5.655 7.34796C5.24767 7.52129 4.81 7.60796 4.342 7.60796H3.328V9.99996Z" fill="white"/>
<path d="M11.9441 9.99996H8.61605V0.899961H12.9451C13.4131 0.899961 13.8507 0.990961 14.2581 1.17296C14.6654 1.34629 15.0207 1.58463 15.3241 1.88796C15.6274 2.19129 15.8657 2.54663 16.0391 2.95396C16.2124 3.36129 16.2991 3.79463 16.2991 4.25396C16.2991 4.82596 16.1691 5.35029 15.9091 5.82696C15.6577 6.29496 15.3197 6.68063 14.8951 6.98396L16.5201 9.99996H12.4121L11.9441 8.84296V9.99996Z" fill="white"/>
<path d="M23.1422 3.77296H20.2432V4.30596H22.7392V6.58096H20.2432V7.15296H22.8822V9.99996H17.4352V0.899961H23.1422V3.77296Z" fill="white"/>
<path d="M30.5321 1.56296L29.8561 3.95496C29.5875 3.82496 29.3275 3.71229 29.0761 3.61696C28.8595 3.53029 28.6298 3.45229 28.3871 3.38296C28.1531 3.31363 27.9538 3.27896 27.7891 3.27896C27.6245 3.27896 27.4988 3.30063 27.4121 3.34396C27.3255 3.38729 27.2605 3.43496 27.2171 3.48696C27.1738 3.54763 27.1478 3.61696 27.1391 3.69496C27.1391 3.84229 27.2258 3.95929 27.3991 4.04596C27.5811 4.12396 27.8065 4.20629 28.0751 4.29296C28.3438 4.37096 28.6341 4.47063 28.9461 4.59196C29.2668 4.70463 29.5615 4.86929 29.8301 5.08596C30.0988 5.30263 30.3198 5.58863 30.4931 5.94396C30.6751 6.29063 30.7661 6.73696 30.7661 7.28296C30.7661 7.65563 30.7141 7.98496 30.6101 8.27096C30.5148 8.54829 30.3805 8.79096 30.2071 8.99896C30.0425 9.20696 29.8518 9.38463 29.6351 9.53196C29.4271 9.67063 29.2148 9.78763 28.9981 9.88296C28.4781 10.1083 27.8888 10.234 27.2301 10.26C26.7621 10.26 26.3331 10.2166 25.9431 10.13C25.5618 10.0433 25.2325 9.94363 24.9551 9.83096C24.6258 9.70963 24.3268 9.56663 24.0581 9.40196L24.7731 6.74996C25.0851 6.90596 25.3885 7.04463 25.6831 7.16596C25.9345 7.26996 26.1945 7.36529 26.4631 7.45196C26.7318 7.52996 26.9571 7.56896 27.1391 7.56896C27.3038 7.56896 27.4251 7.55163 27.5031 7.51696C27.5898 7.47363 27.6548 7.42596 27.6981 7.37396C27.7415 7.31329 27.7631 7.24396 27.7631 7.16596C27.7631 7.00996 27.6721 6.88429 27.4901 6.78896C27.3081 6.68496 27.0785 6.58529 26.8011 6.48996C26.5325 6.39463 26.2378 6.28629 25.9171 6.16496C25.6051 6.04363 25.3105 5.87896 25.0331 5.67096C24.7645 5.46296 24.5391 5.20296 24.3571 4.89096C24.1751 4.57029 24.0841 4.17163 24.0841 3.69496C24.0841 3.33096 24.1448 2.97563 24.2661 2.62896C24.3875 2.28229 24.5738 1.97896 24.8251 1.71896C25.0851 1.45029 25.4188 1.23796 25.8261 1.08196C26.2335 0.917294 26.7231 0.834961 27.2951 0.834961C27.6851 0.834961 28.0708 0.873961 28.4521 0.951961C28.8335 1.02129 29.1801 1.10363 29.4921 1.19896C29.8475 1.30296 30.1941 1.42429 30.5321 1.56296Z" fill="white"/>
<path d="M37.3783 3.77296H34.4792V4.30596H36.9753V6.58096H34.4792V7.15296H37.1182V9.99996H31.6712V0.899961H37.3783V3.77296Z" fill="white"/>
<path d="M46.5881 0.912961V9.99996H44.3781L41.7391 5.86596V9.99996H38.9441V0.899961H41.7391V0.912961V0.899961L43.7801 4.11096V0.912961H46.5881Z" fill="white"/>
<path d="M54.2177 0.899961V3.75996H52.6187V9.99996H49.7457V3.75996H48.1467V0.899961H54.2177Z" fill="white"/>
<path d="M58.6348 9.99996H55.1378L57.6858 0.899961H61.9108L64.4588 9.99996H60.9618L60.7538 8.81696H58.8298L58.6348 9.99996Z" fill="white"/>
<path d="M70.1244 0.899961V3.75996H68.5254V9.99996H65.6524V3.75996H64.0534V0.899961H70.1244Z" fill="white"/>
<path d="M73.3325 0.899961V9.99996H70.5245V0.899961H73.3325Z" fill="white"/>
<path d="M78.5825 0.834961C79.2498 0.834961 79.8781 0.960627 80.4675 1.21196C81.0568 1.45463 81.5725 1.78829 82.0145 2.21296C82.4565 2.63763 82.8031 3.13596 83.0545 3.70796C83.3145 4.27129 83.4445 4.87796 83.4445 5.52796C83.4445 6.17796 83.3145 6.78896 83.0545 7.36096C82.8031 7.92429 82.4565 8.4183 82.0145 8.84296C81.5725 9.25896 81.0568 9.59263 80.4675 9.84396C79.8781 10.0866 79.2498 10.208 78.5825 10.208C77.9065 10.208 77.2738 10.0866 76.6845 9.84396C76.0951 9.59263 75.5795 9.25896 75.1375 8.84296C74.6955 8.4183 74.3445 7.92429 74.0845 7.36096C73.8331 6.78896 73.7075 6.17796 73.7075 5.52796C73.7075 4.87796 73.8331 4.27129 74.0845 3.70796C74.3445 3.13596 74.6955 2.63763 75.1375 2.21296C75.5795 1.78829 76.0951 1.45463 76.6845 1.21196C77.2738 0.960627 77.9065 0.834961 78.5825 0.834961ZM78.5825 7.29596C78.8251 7.29596 79.0548 7.25263 79.2715 7.16596C79.4968 7.07063 79.6875 6.94496 79.8435 6.78896C80.0081 6.62429 80.1381 6.43363 80.2335 6.21696C80.3288 6.00029 80.3765 5.77063 80.3765 5.52796C80.3765 5.28529 80.3288 5.05563 80.2335 4.83896C80.1381 4.62229 80.0081 4.43596 79.8435 4.27996C79.6875 4.11529 79.4968 3.98963 79.2715 3.90296C79.0548 3.80763 78.8251 3.75996 78.5825 3.75996C78.3311 3.75996 78.0971 3.80763 77.8805 3.90296C77.6638 3.98963 77.4731 4.11529 77.3085 4.27996C77.1438 4.43596 77.0138 4.62229 76.9185 4.83896C76.8318 5.05563 76.7885 5.28529 76.7885 5.52796C76.7885 5.77063 76.8318 6.00029 76.9185 6.21696C77.0138 6.43363 77.1438 6.62429 77.3085 6.78896C77.4731 6.94496 77.6638 7.07063 77.8805 7.16596C78.0971 7.25263 78.3311 7.29596 78.5825 7.29596Z" fill="white"/>
<path d="M91.4915 0.912961V9.99996H89.2815L86.6425 5.86596V9.99996H83.8475V0.899961H86.6425V0.912961V0.899961L88.6835 4.11096V0.912961H91.4915Z" fill="white"/>
</svg>
