<svg width="68" height="22" viewBox="0 0 68 22" fill="none" xmlns="http://www.w3.org/2000/svg">
<path fill-rule="evenodd" clip-rule="evenodd" d="M17.7816 12.9355C17.2711 14.0765 16.5707 15.0504 15.6803 15.8571C14.8119 16.6554 13.8306 17.2572 12.7364 17.6623C11.6643 18.0591 10.5198 18.25 9.30315 18.2352C8.10848 18.212 6.93303 17.9417 5.77679 17.4245C4.63577 16.914 3.65089 16.2178 2.82216 15.3358C2.01544 14.4454 1.39509 13.4649 0.961106 12.3943C0.549143 11.3154 0.343766 10.1827 0.344974 8.99649C0.368202 7.80182 0.635049 6.63397 1.14551 5.49295C1.65598 4.35193 2.3454 3.38227 3.21379 2.58396C4.10419 1.77724 5.08887 1.1679 6.16784 0.755934C7.26203 0.350778 8.40646 0.159814 9.60113 0.183041C10.8178 0.197862 11.9967 0.460505 13.1377 0.97097C14.3244 1.50185 15.321 2.2125 16.1278 3.1029C16.9497 4.00011 17.5674 5.00681 17.981 6.12302L12.7011 8.25249C12.5769 7.79528 12.3537 7.37591 12.0315 6.99436C11.7244 6.61963 11.3274 6.32336 10.8406 6.10556C10.4146 5.91499 9.97403 5.8183 9.51882 5.81549C9.08563 5.80428 8.66745 5.88195 8.26429 6.04849C7.86794 6.19983 7.501 6.42823 7.1635 6.7337C6.84121 7.04598 6.58478 7.41511 6.3942 7.84109C6.20363 8.26707 6.09933 8.70426 6.08132 9.15266C6.07851 9.60787 6.14937 10.0413 6.2939 10.4528C6.44523 10.8492 6.66603 11.2127 6.95629 11.5434C7.26856 11.8657 7.63769 12.1221 8.06367 12.3127C8.47444 12.4965 8.88541 12.5982 9.29658 12.6178C9.71455 12.6222 10.1183 12.5563 10.5079 12.4202L8.24864 11.4095L10.0659 7.34747L18.5779 11.1555L17.7816 12.9355ZM54.0188 18.8813L51.1105 2.35934L46.005 3.25803L47.0285 9.07264L42.2899 3.88761L37.208 4.78213L40.1204 21.3278L45.2023 20.4332L43.8792 12.9168L50.0005 19.5886L54.0188 18.8813ZM32 4.0999C30.8667 3.61657 29.6583 3.3749 28.375 3.3749C27.075 3.3749 25.8583 3.61657 24.725 4.0999C23.5917 4.56657 22.6 5.20824 21.75 6.02491C20.9 6.84157 20.225 7.79991 19.725 8.89991C19.2417 9.98324 19 11.1499 19 12.3999C19 13.6499 19.2417 14.8249 19.725 15.9249C20.225 17.0082 20.9 17.9582 21.75 18.7749C22.6 19.5749 23.5917 20.2166 24.725 20.6999C25.8583 21.1666 27.075 21.3999 28.375 21.3999C29.6583 21.3999 30.8667 21.1666 32 20.6999C33.1333 20.2166 34.125 19.5749 34.975 18.7749C35.825 17.9582 36.4917 17.0082 36.975 15.9249C37.475 14.8249 37.725 13.6499 37.725 12.3999C37.725 11.1499 37.475 9.98324 36.975 8.89991C36.4917 7.79991 35.825 6.84157 34.975 6.02491C34.125 5.20824 33.1333 4.56657 32 4.0999ZM29.7 15.5499C29.2833 15.7166 28.8417 15.7999 28.375 15.7999C27.8917 15.7999 27.4417 15.7166 27.025 15.5499C26.6083 15.3666 26.2417 15.1249 25.925 14.8249C25.6083 14.5082 25.3583 14.1416 25.175 13.7249C25.0083 13.3082 24.925 12.8666 24.925 12.3999C24.925 11.9332 25.0083 11.4916 25.175 11.0749C25.3583 10.6582 25.6083 10.2999 25.925 9.99991C26.2417 9.68324 26.6083 9.44157 27.025 9.27491C27.4417 9.09157 27.8917 8.99991 28.375 8.99991C28.8417 8.99991 29.2833 9.09157 29.7 9.27491C30.1333 9.44157 30.5 9.68324 30.8 9.99991C31.1167 10.2999 31.3667 10.6582 31.55 11.0749C31.7333 11.4916 31.825 11.9332 31.825 12.3999C31.825 12.8666 31.7333 13.3082 31.55 13.7249C31.3667 14.1416 31.1167 14.5082 30.8 14.8249C30.5 15.1249 30.1333 15.3666 29.7 15.5499ZM67.592 17.9998V12.6638H62.854V11.4908H67.592V8.06381H62.854V6.91381H67.592V1.89981H56V17.9998H67.592Z" fill="white"/>
</svg>
