<svg width="66" height="21" viewBox="0 0 66 21" fill="none" xmlns="http://www.w3.org/2000/svg">
<path fill-rule="evenodd" clip-rule="evenodd" d="M9.812 5.77024L10.956 1.72223C10.384 1.48757 9.79733 1.28223 9.196 1.10623C8.668 0.944901 8.08133 0.805568 7.436 0.688234C6.79067 0.556234 6.138 0.490234 5.478 0.490234C4.51 0.490234 3.68133 0.629568 2.992 0.908234C2.30267 1.17223 1.738 1.53157 1.298 1.98623C0.872667 2.42623 0.557333 2.93957 0.352 3.52623C0.146667 4.1129 0.044 4.71424 0.044 5.33024C0.044 6.1369 0.198 6.81157 0.506 7.35424C0.814 7.88224 1.19533 8.32224 1.65 8.67424C2.11933 9.02624 2.618 9.3049 3.146 9.51023C3.68867 9.71557 4.18733 9.8989 4.642 10.0602C5.11133 10.2216 5.5 10.3902 5.808 10.5662C6.116 10.7276 6.27 10.9402 6.27 11.2042C6.27 11.3362 6.23333 11.4536 6.16 11.5562C6.08667 11.6442 5.97667 11.7249 5.83 11.7982C5.698 11.8569 5.49267 11.8862 5.214 11.8862C4.906 11.8862 4.52467 11.8202 4.07 11.6882C3.61533 11.5416 3.17533 11.3802 2.75 11.2042C2.25133 10.9989 1.738 10.7642 1.21 10.5002L0 14.9882C0.454667 15.2669 0.960667 15.5089 1.518 15.7142C1.98733 15.9049 2.54467 16.0736 3.19 16.2202C3.85 16.3669 4.576 16.4402 5.368 16.4402C6.48267 16.3962 7.48 16.1836 8.36 15.8022C8.72667 15.6409 9.086 15.4429 9.438 15.2082C9.80467 14.9589 10.1273 14.6582 10.406 14.3062C10.6993 13.9542 10.9267 13.5436 11.088 13.0742C11.264 12.5902 11.352 12.0329 11.352 11.4022C11.352 10.4782 11.198 9.7229 10.89 9.13624C10.5967 8.5349 10.2227 8.0509 9.768 7.68424C9.31333 7.31757 8.81467 7.0389 8.272 6.84824C7.744 6.6429 7.25267 6.47424 6.798 6.34224C6.34333 6.19557 5.962 6.05623 5.654 5.92423C5.36067 5.77757 5.214 5.57957 5.214 5.33024C5.22867 5.19824 5.27267 5.0809 5.346 4.97823C5.41933 4.89023 5.52933 4.80957 5.676 4.73623C5.82267 4.6629 6.03533 4.62624 6.314 4.62624C6.59267 4.62624 6.93 4.6849 7.326 4.80224C7.73667 4.91957 8.12533 5.05157 8.492 5.19823C8.91733 5.35957 9.35733 5.55024 9.812 5.77024ZM19.5 3.8999C20.5267 3.8999 21.4933 4.09324 22.4 4.4799C23.3067 4.85324 24.1 5.36657 24.78 6.0199C25.46 6.67324 25.9933 7.4399 26.38 8.3199C26.78 9.18657 26.98 10.1199 26.98 11.1199C26.98 12.1199 26.78 13.0599 26.38 13.9399C25.9933 14.8066 25.46 15.5666 24.78 16.2199C24.1 16.8599 23.3067 17.3732 22.4 17.7599C21.4933 18.1332 20.5267 18.3199 19.5 18.3199C18.46 18.3199 17.4867 18.1332 16.58 17.7599C15.6733 17.3732 14.88 16.8599 14.2 16.2199C13.52 15.5666 12.98 14.8066 12.58 13.9399C12.1933 13.0599 12 12.1199 12 11.1199C12 10.1199 12.1933 9.18657 12.58 8.3199C12.98 7.4399 13.52 6.67324 14.2 6.0199C14.88 5.36657 15.6733 4.85324 16.58 4.4799C17.4867 4.09324 18.46 3.8999 19.5 3.8999ZM19.5 13.8399C19.8733 13.8399 20.2267 13.7732 20.56 13.6399C20.9067 13.4932 21.2 13.2999 21.44 13.0599C21.6933 12.8066 21.8933 12.5132 22.04 12.1799C22.1867 11.8466 22.26 11.4932 22.26 11.1199C22.26 10.7466 22.1867 10.3932 22.04 10.0599C21.8933 9.72657 21.6933 9.4399 21.44 9.1999C21.2 8.94657 20.9067 8.75324 20.56 8.6199C20.2267 8.47324 19.8733 8.3999 19.5 8.3999C19.1133 8.3999 18.7533 8.47324 18.42 8.6199C18.0867 8.75324 17.7933 8.94657 17.54 9.1999C17.2867 9.4399 17.0867 9.72657 16.94 10.0599C16.8067 10.3932 16.74 10.7466 16.74 11.1199C16.74 11.4932 16.8067 11.8466 16.94 12.1799C17.0867 12.5132 17.2867 12.8066 17.54 13.0599C17.7933 13.2999 18.0867 13.4932 18.42 13.6399C18.7533 13.7732 19.1133 13.8399 19.5 13.8399ZM40.198 10.9408H35.515V11.8018H39.547V15.4768H35.515V20.9998H31V6.2998H40.198V10.9408ZM41.3879 19.4266L45.6245 18.6681L45.6042 17.1926L47.9351 16.7753L48.4437 18.1634L52.6803 17.405L47.6197 6.93287L42.5011 7.84923L41.3879 19.4266ZM59.003 16.7309L54.4671 17.543L52.2467 5.14014L58.1469 4.08387C58.7848 3.96967 59.4035 3.98691 60.0031 4.13558C60.6005 4.27244 61.143 4.51057 61.6304 4.84998C62.1179 5.1894 62.5294 5.61555 62.865 6.12843C63.2007 6.64131 63.4245 7.21077 63.5366 7.83682C63.6762 8.61642 63.6269 9.36278 63.3889 10.0759C63.1605 10.7751 62.7939 11.3832 62.2891 11.9002L65.2398 15.6144L59.6408 16.6167L58.7207 15.154L59.003 16.7309Z" fill="white"/>
</svg>
