<svg width="47" height="57" viewBox="0 0 47 57" fill="none" xmlns="http://www.w3.org/2000/svg">
<rect width="47" height="57"/>
<path class="sfg-heart-2" d="M28.9535 56.842C25.9804 56.7234 23.4768 56.4074 21.2469 54.9457C19.7604 53.958 18.7824 52.6543 18.2738 50.916C17.1394 47.0049 19.4083 44.437 23.3594 45.4247C24.6895 45.7407 25.198 45.7012 25.2763 44.2C25.3936 42.7778 25.9804 41.4346 27.5452 41.079C29.2274 40.6839 30.7922 41.158 32.0049 42.4617C33.8044 44.437 34.2347 46.8469 33.9217 49.4148C33.7261 51.0346 33.1785 52.5753 32.5526 54.116C31.7702 56.0123 30.8704 57.4741 28.9535 56.842Z" fill="#E74332"/>
<path class="sfg-money" fill-rule="evenodd" clip-rule="evenodd" d="M12.0881 28.5049C16.0089 28.901 19.3753 30.0891 20.2466 35C21.3216 33.46 22.2475 32.1546 23.118 30.9272C23.434 30.4816 23.7427 30.0463 24.0485 29.6139C25.3951 27.7129 25.3159 26.0891 23.8109 24.2673C22.6624 22.8812 21.1575 22.0495 19.4149 21.7723C17.3555 21.4158 15.2565 21.1782 13.1575 20.9406C9.47428 20.505 6.70201 19.0792 5.79112 15.1584C5.79112 15.1095 5.71548 15.0908 5.61095 15.0649C5.54635 15.049 5.47071 15.0303 5.39508 15C5.10333 15.4272 4.81706 15.8599 4.53051 16.293C3.7279 17.5061 2.92304 18.7227 1.98914 19.8317C0.484185 21.5743 0.880225 23.1584 1.90993 24.8614C2.82082 26.3663 4.16735 27.198 5.83072 27.6337C7.57544 28.1034 9.34859 28.2604 11.1261 28.4179C11.4467 28.4463 11.7674 28.4747 12.0881 28.5049ZM9.63371 26.3269C9.75252 27.0794 10.5842 27.4358 11.0991 27.3566C13.3961 27.317 14.3466 26.3665 14.1882 24.5447C14.1486 23.9902 14.901 23.3962 15.0198 23.713C15.5447 24.9026 15.884 24.2685 16.1472 23.7768C16.1819 23.712 16.2153 23.6496 16.2476 23.5942C16.6314 22.9362 16.2371 22.8856 15.8661 22.8379C15.7012 22.8167 15.5408 22.796 15.4555 22.7229C14.3528 21.804 13.3686 22.2828 12.4112 22.7485C12.1307 22.8849 11.8525 23.0202 11.5743 23.119C10.505 23.515 10.7426 24.3863 11.3763 25.1784C11.5347 25.416 11.0594 25.9704 10.901 25.812C9.99014 24.9803 9.51489 25.812 9.63371 26.3269Z" fill="#E74332"/>
<path class="sfg-heart-1" d="M30.6855 17.4788C29.3016 14.8447 28.3235 12.5185 28.4745 9.85652C28.5865 8.0753 29.2266 6.57648 30.4777 5.26692C33.2976 2.32888 36.6559 3.0099 37.7761 6.92548C38.1674 8.23538 38.4559 8.65605 39.7952 7.97319C41.0855 7.36372 42.5422 7.2003 43.6325 8.37767C44.8157 9.63692 45.1875 11.2291 44.6649 12.9312C43.8539 15.4773 41.9821 17.0549 39.6017 18.0678C38.1012 18.7083 36.493 19.0044 34.8458 19.2327C32.8123 19.5032 31.0965 19.4549 30.6855 17.4788Z" fill="#E74332"/>
</svg>
