<svg width="96" height="17" viewBox="0 0 96 17" fill="none" xmlns="http://www.w3.org/2000/svg">
<path fill-rule="evenodd" clip-rule="evenodd" d="M14.586 0.600098L9.218 16.0001H4.62L0 0.600098H4.642L6.952 8.3441L9.526 0.600098H14.586ZM59.5 0.899902C60.5267 0.899902 61.4933 1.09324 62.4 1.4799C63.3067 1.85324 64.1 2.36657 64.78 3.0199C65.46 3.67324 65.9933 4.4399 66.38 5.3199C66.78 6.18657 66.98 7.1199 66.98 8.1199C66.98 9.1199 66.78 10.0599 66.38 10.9399C65.9933 11.8066 65.46 12.5666 64.78 13.2199C64.1 13.8599 63.3067 14.3732 62.4 14.7599C61.4933 15.1332 60.5267 15.3199 59.5 15.3199C58.46 15.3199 57.4867 15.1332 56.58 14.7599C55.6733 14.3732 54.88 13.8599 54.2 13.2199C53.52 12.5666 52.98 11.8066 52.58 10.9399C52.1933 10.0599 52 9.1199 52 8.1199C52 7.1199 52.1933 6.18657 52.58 5.3199C52.98 4.4399 53.52 3.67324 54.2 3.0199C54.88 2.36657 55.6733 1.85324 56.58 1.4799C57.4867 1.09324 58.46 0.899902 59.5 0.899902ZM59.5 10.8399C59.8733 10.8399 60.2267 10.7732 60.56 10.6399C60.9067 10.4932 61.2 10.2999 61.44 10.0599C61.6933 9.80657 61.8933 9.51324 62.04 9.1799C62.1867 8.84657 62.26 8.49324 62.26 8.1199C62.26 7.74657 62.1867 7.39324 62.04 7.0599C61.8933 6.72657 61.6933 6.4399 61.44 6.1999C61.2 5.94657 60.9067 5.75324 60.56 5.6199C60.2267 5.47324 59.8733 5.3999 59.5 5.3999C59.1133 5.3999 58.7533 5.47324 58.42 5.6199C58.0867 5.75324 57.7933 5.94657 57.54 6.1999C57.2867 6.4399 57.0867 6.72657 56.94 7.0599C56.8067 7.39324 56.74 7.74657 56.74 8.1199C56.74 8.49324 56.8067 8.84657 56.94 9.1799C57.0867 9.51324 57.2867 9.80657 57.54 10.0599C57.7933 10.2999 58.0867 10.4932 58.42 10.6399C58.7533 10.7732 59.1133 10.8399 59.5 10.8399ZM83.966 3.3999L81.41 15.9999H77.054L75.992 10.6719L74.93 15.9999H70.556L68 3.3999H71.924L73.058 8.9979L74.192 3.3999H77.792L78.908 8.9979L80.042 3.3999H83.966ZM93.4635 16.6218L95.643 4.23006L91.8138 3.55656L91.0468 7.91761L89.0337 3.04929L85.2222 2.37891L83.0395 14.7884L86.851 15.4588L87.8426 9.82134L90.4498 16.0918L93.4635 16.6218ZM24.576 16.0002V11.5922H20.662V10.6232H24.576V7.7922H20.662V6.8422H24.576V2.7002H15V16.0002H24.576ZM30.864 16.0002H26V2.7002H32.327C33.011 2.7002 33.6507 2.8332 34.246 3.0992C34.8413 3.35253 35.3607 3.70086 35.804 4.1442C36.2473 4.58753 36.5957 5.10686 36.849 5.7022C37.1023 6.29753 37.229 6.93086 37.229 7.6022C37.229 8.4382 37.039 9.20453 36.659 9.9012C36.2917 10.5852 35.7977 11.1489 35.177 11.5922L37.552 16.0002H31.548L30.864 14.3092V16.0002ZM44.74 10.2579L48.52 3.3999H44.164L42.76 5.9379L41.356 3.3999H37L40.798 10.2579V15.9999H44.74V10.2579Z" fill="white"/>
</svg>
