<svg width="44" height="48" viewBox="0 0 44 48" fill="none" xmlns="http://www.w3.org/2000/svg">
<path d="M27.2029 6.00673C29.798 6.98112 31.94 8.34296 33.6289 10.0923C35.3178 11.8415 36.56 13.8076 37.3554 15.9906C38.1635 18.1398 38.5333 20.4321 38.4649 22.8674C38.4302 25.3154 37.9699 27.719 37.0841 30.0782C36.1857 32.4711 34.8997 34.5647 33.2262 36.3589C31.5527 38.1532 29.6097 39.5386 27.3972 40.5152C25.2185 41.5045 22.8229 42.047 20.2105 42.1429C17.6318 42.2514 14.9775 41.7931 12.2476 40.7681L0.569607 36.3834L13.8567 0.995605L27.2029 6.00673ZM18.687 27.6121C19.8961 27.8738 20.9833 27.7436 21.9484 27.2216C22.9598 26.6784 23.668 25.8676 24.073 24.7891C24.4906 23.677 24.5205 22.573 24.1628 21.4774C23.8178 20.348 23.0681 19.5282 21.9139 19.0179L18.687 27.6121Z" fill="white"/>
</svg>
