<?xml version="1.0" encoding="UTF-8" standalone="no"?>
<svg width="311px" height="221px" viewBox="0 0 311 221" version="1.1" xmlns="http://www.w3.org/2000/svg" xmlns:xlink="http://www.w3.org/1999/xlink">
    <!-- Generator: Sketch 40.3 (33839) - http://www.bohemiancoding.com/sketch -->
    <title>Combined Shape</title>
    <desc>Created with Sketch.</desc>
    <defs></defs>
    <g id="Page-1" stroke="none" stroke-width="1" fill="none" fill-rule="evenodd">
    	<filter id="blur-filter" x="-2" y="-2" width="200" height="200">
      <feGaussianBlur in="SourceGraphic" stdDeviation="2" />
    </filter>
        <path d="M72.096535,178.780104 C68.1893037,179.579949 64.143706,180 60,180 C26.862915,180 0,153.137085 0,120 C0,93.9969058 16.5414887,71.8572833 39.6758641,63.5297346 C39.2314569,60.9195521 39,58.2368059 39,55.5 C39,29.2664744 60.2664744,8 86.5,8 C94.1667494,8 101.409262,9.81637163 107.820688,13.0422633 C124.13491,4.75586766 143.170477,0 163.5,0 C218.733707,0 264.415879,35.106197 271.919648,80.7439294 C294.136907,84.7180819 311,104.139748 311,127.5 C311,153.733526 289.733526,175 263.5,175 C261.603069,175 259.73211,174.888805 257.893284,174.672578 C238.851234,202.39792 203.706202,221 163.5,221 C125.313284,221 91.6920791,204.219688 72.0965391,178.780109 Z" id="Combined-Shape" fill="#FEFEFE"></path>
    </g>
</svg>