<?xml version="1.0" encoding="utf-8"?>
<!-- Generator: Adobe Illustrator 20.1.0, SVG Export Plug-In . SVG Version: 6.00 Build 0)  -->
<svg version="1.1" id="Layer_1" xmlns="http://www.w3.org/2000/svg" xmlns:xlink="http://www.w3.org/1999/xlink" x="0px" y="0px"
	 viewBox="0 0 314.2 327.9" style="enable-background:new 0 0 314.2 327.9;" xml:space="preserve">
<style type="text/css">
	.st0{fill:#333333;}
	.st1{fill:#FFFFFF;stroke:#000000;stroke-miterlimit:10;}
</style>
<g>
	<g>
		<path class="st0" d="M295.3,246.6l3.1-5.8l-16.2-8.6l1.9-3.6l16.2,8.6l3.1-5.8l2.9,1.6l-8,15.1L295.3,246.6z"/>
		<path class="st0" d="M282.6,269.9l-17.3-13.1l2.4-3.2l7.6,5.7l6.1-8.1l-7.6-5.7l2.4-3.2l17.3,13.1l-2.4,3.2l-7.4-5.6l-6.1,8.1
			l7.4,5.6L282.6,269.9z"/>
		<path class="st0" d="M270.4,278.1l-4.2-4.3l-5.5,5.3l-2.2-2.2l5.5-5.3l-4.3-4.4l-6.9,6.7l-2.2-2.3l9.9-9.5l15,15.6l-9.9,9.5
			l-2.2-2.3L270.4,278.1z"/>
		<path class="st0" d="M244.5,298.9l-3.4-5.4l-6.9,4.3l-1.7-2.7l6.9-4.3l-4.7-7.5l3.4-2.2l11.5,18.4l-11.6,7.3l-1.7-2.7L244.5,298.9
			z"/>
		<path class="st0" d="M225.4,309.4L223,304l-6.9,3.1l-1.3-2.8l6.9-3.1l-2.5-5.6l-8.8,4l-1.3-2.9l12.5-5.6l8.9,19.8l-12.5,5.6
			l-1.3-2.9L225.4,309.4z"/>
		<path class="st0" d="M204.9,317.4l-1.7-5.8l-7.3,2.1l-0.9-3l7.3-2.1l-1.7-5.9l-9.2,2.7l-0.9-3.1l13.1-3.9l6.1,20.8l-13.1,3.9
			l-0.9-3.1L204.9,317.4z"/>
		<path class="st0" d="M172.6,308.7l-0.5-3.3l12.6-1.9l3.3,21.4l-4,0.6l-2.8-18.1L172.6,308.7z"/>
		<path class="st0" d="M162.7,305.9l4-0.2l1.1,21.7l-4,0.2L162.7,305.9z"/>
		<path class="st0" d="M135.6,326.5l1.7-21.6l2.1,0.2c0.3,0,0.6,0.1,0.8,0.2c0.2,0.1,0.4,0.3,0.6,0.6l10.2,15.3c0-0.7,0-1.3,0.1-1.8
			l1-13.3l3.5,0.3l-1.7,21.6l-2.1-0.2c-0.2,0-0.3,0-0.4-0.1c-0.1,0-0.2-0.1-0.3-0.1s-0.2-0.1-0.3-0.2c-0.1-0.1-0.2-0.2-0.3-0.4
			l-10.2-15.4c0,0.4,0,0.7,0,1s0,0.7,0,0.9l-1,13.1L135.6,326.5z"/>
		<path class="st0" d="M110.4,309.8l2.2-8.5c1.3-0.5,2.5-0.8,3.8-0.8c1.3-0.1,2.6,0.1,4,0.4c1.7,0.4,3.2,1.1,4.5,2
			c1.3,0.9,2.3,1.9,3,3.1s1.2,2.5,1.4,4c0.2,1.5,0.1,3-0.3,4.5c-0.4,1.6-1,3-1.9,4.1c-0.9,1.2-1.9,2.1-3.1,2.8
			c-1.2,0.7-2.5,1.2-4,1.3s-3.1,0.1-4.7-0.4c-0.9-0.2-1.6-0.5-2.3-0.8c-0.7-0.3-1.3-0.7-1.9-1.1c-0.6-0.4-1.1-0.8-1.5-1.3
			s-0.8-1-1.2-1.5l1.6-1.5c0.2-0.2,0.5-0.3,0.8-0.3c0.3,0,0.6,0.2,0.9,0.4c0.3,0.3,0.5,0.5,0.8,0.8c0.3,0.3,0.6,0.5,0.9,0.8
			c0.4,0.2,0.8,0.5,1.2,0.7c0.5,0.2,1,0.4,1.7,0.6c1,0.3,2,0.3,2.9,0.2s1.8-0.5,2.5-0.9c0.8-0.5,1.4-1.2,2-2c0.6-0.8,1-1.8,1.3-2.9
			c0.3-1.2,0.4-2.3,0.3-3.4c-0.1-1-0.4-2-0.8-2.8c-0.5-0.8-1.1-1.5-1.9-2.1c-0.8-0.6-1.7-1-2.8-1.3c-0.8-0.2-1.5-0.3-2.1-0.3
			c-0.7,0-1.3,0.1-2,0.2l-1,3.8l2.6,0.7c0.3,0.1,0.4,0.2,0.5,0.4c0.1,0.2,0.1,0.4,0.1,0.6l-0.6,2.2L110.4,309.8z"/>
		<path class="st0" d="M89.8,308.8c0.2-0.1,0.4-0.2,0.5-0.3c0.2,0,0.3,0,0.5,0.1c0.2,0.1,0.4,0.2,0.5,0.5c0.2,0.2,0.4,0.5,0.6,0.8
			c0.2,0.3,0.5,0.6,0.9,0.9s0.8,0.6,1.4,0.8c0.5,0.2,1,0.3,1.4,0.4c0.4,0,0.8,0,1.2-0.1c0.4-0.1,0.7-0.3,0.9-0.5
			c0.3-0.3,0.5-0.6,0.6-0.9c0.2-0.5,0.2-0.9,0.1-1.3c-0.1-0.4-0.4-0.8-0.7-1.2c-0.3-0.4-0.7-0.8-1.2-1.2c-0.5-0.4-1-0.8-1.5-1.3
			c-0.5-0.4-1-0.9-1.4-1.4c-0.4-0.5-0.8-1-1.1-1.6c-0.3-0.6-0.4-1.2-0.4-1.9c0-0.7,0.2-1.5,0.5-2.3c0.4-0.9,0.9-1.7,1.5-2.3
			c0.6-0.7,1.4-1.1,2.2-1.5c0.8-0.3,1.8-0.5,2.8-0.5c1,0,2.1,0.3,3.2,0.7c0.6,0.3,1.2,0.6,1.8,1c0.6,0.4,1.1,0.8,1.5,1.3
			c0.5,0.5,0.9,1,1.2,1.5c0.4,0.5,0.6,1.1,0.9,1.6l-1.8,1.3c-0.1,0.1-0.3,0.1-0.5,0.2c-0.2,0-0.4,0-0.5-0.1
			c-0.2-0.1-0.4-0.3-0.6-0.6s-0.4-0.6-0.7-1c-0.3-0.4-0.6-0.8-1-1.2s-1-0.7-1.7-1c-1.1-0.5-2-0.5-2.8-0.3c-0.8,0.3-1.4,0.9-1.8,1.8
			c-0.2,0.5-0.3,1-0.2,1.5c0.1,0.4,0.4,0.9,0.7,1.3c0.3,0.4,0.7,0.8,1.2,1.2c0.5,0.4,1,0.8,1.5,1.2c0.5,0.4,1,0.9,1.4,1.4
			c0.4,0.5,0.8,1,1,1.6c0.3,0.6,0.4,1.3,0.4,2c0,0.7-0.2,1.6-0.6,2.5c-0.3,0.7-0.8,1.4-1.3,1.9c-0.6,0.6-1.3,1-2,1.3
			c-0.8,0.3-1.6,0.4-2.6,0.4c-0.9,0-1.9-0.3-3-0.7c-1.2-0.5-2.2-1.1-3-1.9c-0.8-0.8-1.5-1.7-1.9-2.6L89.8,308.8z"/>
		<path class="st0" d="M62.1,292.2c0.2-0.1,0.4-0.2,0.6-0.2s0.3,0.1,0.5,0.2c0.2,0.1,0.3,0.3,0.4,0.6c0.1,0.3,0.3,0.6,0.4,0.9
			c0.2,0.3,0.4,0.7,0.7,1.1c0.3,0.4,0.7,0.8,1.2,1.1c0.5,0.3,0.9,0.5,1.3,0.7c0.4,0.1,0.8,0.2,1.2,0.1c0.4,0,0.7-0.2,1-0.3
			c0.3-0.2,0.6-0.5,0.8-0.8c0.3-0.4,0.4-0.9,0.4-1.3c0-0.4-0.2-0.9-0.4-1.4c-0.2-0.5-0.6-0.9-1-1.4c-0.4-0.5-0.8-1-1.2-1.5
			c-0.4-0.5-0.8-1.1-1.1-1.7c-0.3-0.6-0.6-1.2-0.7-1.8c-0.1-0.6-0.1-1.3,0-2s0.4-1.4,1-2.1c0.6-0.8,1.2-1.5,2-2
			c0.8-0.5,1.6-0.8,2.5-1c0.9-0.2,1.8-0.1,2.8,0.1c1,0.2,2,0.7,2.9,1.4c0.6,0.4,1.1,0.8,1.6,1.3c0.5,0.5,0.9,1,1.3,1.6
			s0.7,1.1,0.9,1.7c0.2,0.6,0.4,1.2,0.5,1.8l-2.1,0.9c-0.2,0.1-0.3,0.1-0.5,0.1s-0.4-0.1-0.5-0.2c-0.2-0.1-0.4-0.4-0.5-0.7
			s-0.3-0.7-0.5-1.1s-0.4-0.9-0.8-1.4s-0.8-0.9-1.4-1.3c-0.9-0.7-1.8-0.9-2.7-0.8s-1.5,0.6-2.1,1.4c-0.3,0.5-0.5,0.9-0.4,1.4
			s0.2,0.9,0.4,1.4c0.2,0.5,0.6,0.9,1,1.4c0.4,0.5,0.8,1,1.2,1.5s0.8,1.1,1.1,1.6s0.6,1.2,0.7,1.8c0.1,0.6,0.1,1.3,0,2
			s-0.5,1.5-1.1,2.3c-0.4,0.6-1,1.2-1.7,1.6c-0.7,0.4-1.4,0.7-2.3,0.9s-1.7,0.1-2.6-0.1c-0.9-0.2-1.9-0.6-2.8-1.3
			c-1.1-0.7-1.9-1.6-2.6-2.5c-0.7-0.9-1.1-1.9-1.3-3L62.1,292.2z"/>
		<path class="st0" d="M42.9,276.5l4.8,4.4l12.4-13.6l3,2.7l-12.4,13.6l4.8,4.4l-2.2,2.4L40.7,279L42.9,276.5z"/>
		<path class="st0" d="M49.2,255.9l2.7,3l-16.3,14.3l-2.7-3L49.2,255.9z"/>
		<path class="st0" d="M34.5,241.8l2.7-1.9l7.3,10.4l-17.7,12.5l-2.3-3.3l15-10.6L34.5,241.8z"/>
		<path class="st0" d="M25.7,225.7l2.9-1.6l6,11.2l-19.1,10.2l-1.9-3.6l16.2-8.6L25.7,225.7z"/>
	</g>
	<g>
		<path class="st0" d="M11.7,87.9l17.5,14.4l-1.4,3.4l-15.5-1.2c-0.4,0-0.8-0.1-1.4-0.2c0.2,0.1,0.4,0.3,0.6,0.4
			c0.2,0.1,0.3,0.3,0.5,0.4l11.9,10l-1.4,3.4l-22.6-2l1.3-3.1c0.1-0.3,0.3-0.6,0.6-0.7c0.2-0.2,0.5-0.2,0.8-0.2l13.4,1.5
			c0.3,0,0.7,0.1,1.1,0.2c0.4,0.1,0.8,0.1,1.2,0.2c-0.4-0.2-0.7-0.5-1-0.7s-0.6-0.5-0.8-0.7L6,104.3c-0.2-0.2-0.3-0.4-0.4-0.7
			c-0.1-0.3-0.1-0.6,0.1-0.9l0.4-1.1c0.1-0.3,0.3-0.6,0.6-0.7c0.2-0.1,0.5-0.2,0.8-0.2l13.6,1c0.7,0,1.4,0.1,2.2,0.3
			c-0.7-0.4-1.3-0.8-1.8-1.2l-10.6-8.3c-0.2-0.1-0.4-0.4-0.4-0.7s0-0.6,0.1-0.9L11.7,87.9z"/>
		<path class="st0" d="M21.4,78.8l5.1,3.3l4.1-6.4l2.6,1.7l-4.1,6.4l5.2,3.3l5.2-8.1l2.7,1.8l-7.4,11.5L16.5,80.5L24,69l2.7,1.7
			L21.4,78.8z"/>
		<path class="st0" d="M42.1,47.9c1-1,2-1.8,2.9-2.3c0.9-0.5,1.8-0.8,2.6-0.9c0.8-0.1,1.6,0,2.3,0.3c0.7,0.3,1.4,0.8,2,1.4
			c0.4,0.4,0.6,0.8,0.9,1.2c0.2,0.4,0.4,0.9,0.4,1.4s0,1.1-0.1,1.6c-0.1,0.6-0.3,1.2-0.6,1.8c2.6-1.6,4.8-1.5,6.6,0.3
			c0.6,0.7,1.1,1.4,1.4,2.2c0.3,0.8,0.4,1.6,0.3,2.5c-0.1,0.9-0.4,1.8-0.8,2.7c-0.5,0.9-1.2,1.8-2,2.7l-5.8,5.8L36.8,53.1L42.1,47.9
			z M41.9,52.5l4.4,4.4l2.3-2.3c1-1,1.5-1.9,1.7-2.7c0.1-0.9-0.2-1.7-0.9-2.4c-0.8-0.8-1.6-1.1-2.4-1c-0.8,0.1-1.7,0.6-2.6,1.6
			L41.9,52.5z M55.6,60.6c0.5-0.5,0.9-1,1.2-1.5c0.2-0.5,0.4-0.9,0.4-1.4s-0.1-0.8-0.3-1.2c-0.2-0.4-0.4-0.7-0.8-1
			c-0.3-0.3-0.7-0.6-1.1-0.7c-0.4-0.2-0.8-0.2-1.2-0.2c-0.4,0-0.8,0.2-1.3,0.4c-0.5,0.3-0.9,0.6-1.4,1.1l-2.9,2.9l4.5,4.5L55.6,60.6
			z"/>
		<path class="st0" d="M78.6,32.6c0.9,1.3,1.5,2.7,1.9,4.1c0.4,1.4,0.4,2.8,0.2,4.2c-0.2,1.4-0.7,2.7-1.5,3.9
			C78.4,45.9,77.4,47,76,48c-1.3,0.9-2.7,1.6-4.1,1.9c-1.4,0.3-2.8,0.4-4.2,0.1s-2.6-0.8-3.9-1.6c-1.2-0.8-2.3-1.9-3.2-3.2
			c-0.9-1.3-1.5-2.7-1.9-4.1s-0.4-2.8-0.2-4.2c0.2-1.4,0.7-2.7,1.5-3.9c0.8-1.2,1.8-2.3,3.2-3.3c0.9-0.6,1.8-1.1,2.8-1.5
			c0.9-0.3,1.9-0.6,2.8-0.7c0.9-0.1,1.9,0,2.8,0.1c0.9,0.2,1.8,0.5,2.6,0.9s1.6,0.9,2.4,1.6S78,31.7,78.6,32.6z M75.2,35
			c-0.7-1-1.4-1.8-2.2-2.3c-0.8-0.6-1.6-1-2.5-1.2c-0.9-0.2-1.7-0.2-2.6,0c-0.9,0.2-1.8,0.6-2.6,1.2c-0.9,0.6-1.5,1.3-2,2.1
			c-0.5,0.8-0.8,1.6-0.9,2.5c-0.1,0.9,0,1.8,0.3,2.8c0.3,1,0.8,1.9,1.5,2.9c0.7,1,1.4,1.8,2.2,2.3c0.8,0.6,1.6,1,2.5,1.2
			c0.9,0.2,1.7,0.2,2.6,0c0.9-0.2,1.8-0.6,2.6-1.2s1.5-1.3,2-2.1s0.8-1.6,0.9-2.5c0.1-0.9,0-1.8-0.3-2.7
			C76.4,36.9,75.9,35.9,75.2,35z"/>
		<path class="st0" d="M94.9,16L89,18.9l8.1,16.5l-3.6,1.8l-8.1-16.5l-5.9,2.9l-1.5-3l15.4-7.5L94.9,16z"/>
		<path class="st0" d="M118.9,4.6l6.3,20.8l-3.9,1.2l-2.7-9.1l-9.8,2.9l2.7,9.1l-3.9,1.2l-6.3-20.8l3.9-1.2l2.7,8.9l9.8-2.9L115,5.8
			L118.9,4.6z"/>
		<path class="st0" d="M145.2,9.8l0.9-0.1c0.4,0,0.7-0.1,0.9-0.2c0.2-0.1,0.4-0.3,0.6-0.5l5.6-7.9c0.2-0.3,0.5-0.6,0.8-0.7
			s0.6-0.2,1-0.2l3.5-0.2l-6.8,9.4c-0.4,0.6-0.8,1-1.3,1.2c0.3,0.1,0.6,0.3,0.9,0.5c0.3,0.2,0.5,0.5,0.8,0.8l8.1,9.7l-3.5,0.2
			c-0.5,0-0.8,0-1.1-0.1c-0.2-0.1-0.5-0.3-0.6-0.6l-6.6-7.7c-0.2-0.3-0.4-0.4-0.7-0.5c-0.3-0.1-0.6-0.1-1.1-0.1l-1.3,0.1l0.5,9.5
			l-4,0.2L140.7,1l4-0.2L145.2,9.8z"/>
		<path class="st0" d="M185.2,2.4l-2.4,21.6l-2.1-0.2c-0.3,0-0.6-0.1-0.8-0.2c-0.2-0.1-0.4-0.3-0.6-0.6l-9.6-15.6
			c0,0.7-0.1,1.3-0.1,1.8l-1.5,13.2l-3.5-0.4L167,0.3l2.1,0.2c0.2,0,0.3,0,0.4,0.1s0.2,0.1,0.3,0.1s0.2,0.1,0.3,0.2
			c0.1,0.1,0.2,0.2,0.3,0.4l9.7,15.7c0-0.4,0-0.7,0-1c0-0.3,0-0.7,0.1-0.9L181.6,2L185.2,2.4z"/>
		<path class="st0" d="M212.5,20.9c-0.5,1.5-1.1,2.9-2,4c-0.9,1.1-1.9,2.1-3.2,2.7c-1.2,0.7-2.5,1.1-4,1.2c-1.5,0.1-3,0-4.5-0.5
			c-1.6-0.5-2.9-1.2-4-2.1c-1.1-0.9-2-2-2.6-3.2s-1-2.6-1.1-4s0.1-2.9,0.5-4.5s1.1-2.9,2-4c0.9-1.1,2-2,3.2-2.7s2.5-1.1,4-1.2
			c1.5-0.1,3,0,4.5,0.5c1.1,0.3,2,0.7,2.9,1.3c0.9,0.5,1.6,1.1,2.2,1.8s1.2,1.4,1.6,2.3s0.7,1.7,0.9,2.6c0.2,0.9,0.3,1.9,0.2,2.9
			C213,18.9,212.8,19.9,212.5,20.9z M208.5,19.7c0.3-1.1,0.5-2.2,0.5-3.2c0-1-0.2-1.9-0.6-2.7c-0.4-0.8-0.9-1.5-1.6-2.1
			c-0.7-0.6-1.6-1-2.6-1.3c-1-0.3-2-0.4-2.9-0.3c-0.9,0.1-1.7,0.4-2.5,0.8c-0.8,0.5-1.4,1.1-2,1.9c-0.6,0.8-1,1.8-1.4,2.9
			s-0.5,2.2-0.5,3.2c0,1,0.2,1.9,0.6,2.7c0.4,0.8,0.9,1.5,1.6,2.1s1.6,1,2.6,1.3c1,0.3,2,0.4,2.9,0.3c0.9-0.1,1.7-0.4,2.5-0.8
			c0.8-0.5,1.4-1.1,2-1.9C207.7,21.8,208.2,20.8,208.5,19.7z"/>
		<path class="st0" d="M249.8,27.9l-16.3,15.8l-3.2-1.8l3-15.3c0.1-0.4,0.2-0.8,0.3-1.3c-0.2,0.2-0.3,0.4-0.5,0.5
			c-0.2,0.2-0.3,0.3-0.5,0.4L221.3,37l-3.2-1.8l4.6-22.2l3,1.6c0.3,0.2,0.5,0.4,0.7,0.6c0.1,0.3,0.2,0.5,0.1,0.8l-3,13.1
			c-0.1,0.3-0.2,0.7-0.3,1s-0.2,0.7-0.4,1.1c0.3-0.3,0.5-0.6,0.8-0.9c0.3-0.3,0.5-0.5,0.8-0.8l10-9.3c0.2-0.2,0.4-0.3,0.7-0.3
			c0.3-0.1,0.6,0,0.9,0.2l1,0.6c0.3,0.2,0.5,0.4,0.6,0.6c0.1,0.3,0.1,0.5,0.1,0.8l-2.5,13.4c-0.1,0.6-0.3,1.4-0.5,2.2
			c0.5-0.6,1-1.2,1.4-1.7l9.5-9.6c0.2-0.2,0.4-0.3,0.7-0.3s0.6,0,0.9,0.2L249.8,27.9z"/>
		<path class="st0" d="M273.4,52.8l-4.8-4.5l-12.6,13.4l-2.9-2.8l12.6-13.4l-4.8-4.5l2.3-2.4l12.5,11.7L273.4,52.8z"/>
		<path class="st0" d="M292.6,71.1l-17.2,13.3l-2.5-3.2l7.5-5.8l-6.2-8.1l-7.5,5.8l-2.5-3.2l17.2-13.3l2.5,3.2l-7.4,5.7l6.2,8.1
			l7.4-5.7L292.6,71.1z"/>
		<path class="st0" d="M287.9,106.7l-1.5-2.8c-0.2-0.3-0.2-0.6-0.2-0.9s0.2-0.5,0.3-0.7l3.1-3.5l-4.2-7.9l-4.7,0.6
			c-0.2,0-0.5,0-0.8-0.1c-0.3-0.1-0.5-0.3-0.7-0.6l-1.5-2.8l23.2-2.7L303,89L287.9,106.7z M291.8,96.5l5.1-5.7
			c0.2-0.3,0.5-0.6,0.8-0.9c0.3-0.3,0.7-0.7,1.1-1c-0.5,0.1-1,0.2-1.5,0.3c-0.5,0.1-0.9,0.1-1.2,0.2l-7.6,1.1L291.8,96.5z"/>
		<path class="st0" d="M311.1,116.9l-2.2-6.1l-17.3,6.3l-1.4-3.8l17.3-6.3l-2.2-6.1l3.1-1.1l5.9,16.1L311.1,116.9z"/>
	</g>
</g>
<circle class="st1" cx="-919.1" cy="171.9" r="180"/>
</svg>
