<?xml version="1.0" encoding="utf-8"?>
<!DOCTYPE svg PUBLIC "-//W3C//DTD SVG 1.1//EN" "http://www.w3.org/Graphics/SVG/1.1/DTD/svg11.dtd">
<svg version="1.1" xmlns="http://www.w3.org/2000/svg" xmlns:xlink="http://www.w3.org/1999/xlink" x="0px" y="0px" width="68px" height="85px"
	 viewBox="14 13.5 68 85">
	<path fill="#FFFFFF" d="M48.464,97.5C55.021,97.5,81,68.317,81,48.751C81,30.022,66.226,14.5,48.464,14.5
		C29.774,14.5,15,30.022,15,48.751C15,68.317,40.979,97.5,48.464,97.5z"/>
	<path fill="#E94F3C" d="M43.69,28.035c1.558-0.351,3.191-0.535,4.881-0.535C59.046,27.5,68,36.23,68,47.557
			C68,57.77,59.046,66.5,48.571,66.5C36.954,66.5,28,57.77,28,47.557c0-4.322,1.304-8.267,3.562-11.492
			c0.688,3.626,3.948,6.372,7.866,6.372c4.418,0,8-3.492,8-7.8C47.428,31.857,45.936,29.417,43.69,28.035z"/>
</svg>
