<?xml version="1.0" encoding="utf-8"?>
<!-- Generator: Adobe Illustrator 19.2.0, SVG Export Plug-In . SVG Version: 6.00 Build 0)  -->
<svg version="1.1" id="Layer_1" xmlns="http://www.w3.org/2000/svg" xmlns:xlink="http://www.w3.org/1999/xlink" x="0px" y="0px"
	 viewBox="0 0 65.6 54.7" style="enable-background:new 0 0 65.6 54.7;" xml:space="preserve">
<style type="text/css">
	.st0{fill:#E74332;}
	.st1{fill:#2B1B14;}
</style>
<g>
	<path class="st0" d="M63.1,40.5c-0.1,1.6-1.2,1.8-2.1,2.3c-4.2,2.3-8.5,4.6-12.6,7c-1.8,1.1-2.8,0.8-4-0.9
		C39.6,41.8,32.5,37.4,25.5,33c-7.6-4.8-15.3-9.4-21.2-16.4c-2.6-3-2.6-4.7,1.3-6.5c4.2-1.9,8.1-5.8,12.3-6.2
		c4.8-0.5,6.1,5.9,9.7,8.6c7.4,5.5,15.3,10,22.7,15.3c4.2,3,8.2,6.3,11.3,10.5C62.2,39,62.7,39.9,63.1,40.5z"/>
	<path class="st1" d="M37.6,27.1c-0.8,0.1-1.1,0.6-0.9,1.3c0.7,3.4-1.5,3.6-3.9,3.4c-3.5-0.2-6.7-1.2-8.5-4.6
		c-0.6-1.1,0.5-1.4,1.2-1.8c0.7-0.4,1.4-0.9,2,0.3c1.6,3.5,2.3,1.3,2.4-0.6c0.2-2.9,1.9-3.4,4.1-3c2.9,0.5,6.2,0.6,7.6,4
		c0.6,1.5-0.6,1.6-1.4,2C38.8,28.9,38.5,27.4,37.6,27.1z"/>
</g>
</svg>
