<?xml version="1.0" encoding="utf-8"?>
<!-- Generator: Adobe Illustrator 19.2.0, SVG Export Plug-In . SVG Version: 6.00 Build 0)  -->
<svg version="1.1" id="Layer_1" xmlns="http://www.w3.org/2000/svg" xmlns:xlink="http://www.w3.org/1999/xlink" x="0px" y="0px"
	 viewBox="0 0 65.6 54.7" style="enable-background:new 0 0 65.6 54.7;" xml:space="preserve">
<style type="text/css">
	.st0{fill:#E74332;}
	.st1{fill:#251A11;}
</style>
<g>
	<path class="st0" d="M64.6,21.6c-11.1-3.5-17.6,1.6-22.8,9.3c-3,4.4-5.9,8.8-9.1,13.1c-2.2,3-4.9,5.7-8.6,6.5
		c-6.5,1.4-12,2-14.9-5.5C7.7,40.8,5.2,37,3.1,33c-0.2-0.4-0.3-0.9-0.6-2c12.3,3.8,18.5-3.6,24-12.3c2.7-4.2,5.1-8.6,8.7-12.1
		c3-3,6.3-5.3,10.8-5.6c4.8-0.3,8.7,0.6,10.8,5.8C58.8,11.6,61.6,16,64.6,21.6z"/>
	<path class="st1" d="M33.2,16.5c1.2,0.5,2,1.4,1.7,2.9c-0.2,1-3-0.6-1.7,1.7c0.6,1.1,1.6,0.9,2.6,0.8c1.6-0.2,2.6,1,2.6,2.3
		c0,3.3,0.1,6.8-2.4,9.1c-0.6,0.6-1.9,3.5-3.8,1.2c-1.6-1.9-0.6-2,1.3-3c1.4-0.7-0.5-2.2-2.4-2.5c-4.8-0.9-2.1-4.5-2.4-7.1
		C28.4,18.8,30.9,17.8,33.2,16.5z"/>
</g>
</svg>
