<?xml version="1.0" encoding="utf-8"?>
<!-- Generator: Adobe Illustrator 19.2.0, SVG Export Plug-In . SVG Version: 6.00 Build 0)  -->
<svg version="1.1" id="Layer_1" xmlns="http://www.w3.org/2000/svg" xmlns:xlink="http://www.w3.org/1999/xlink" x="0px" y="0px"
	 viewBox="0 0 60.6 50.5" style="enable-background:new 0 0 60.6 50.5;" xml:space="preserve">
<style type="text/css">
	.st0{fill:#E74332;}
	.st1{fill:#2E1C13;}
</style>
<g>
	<path class="st0" d="M48.6,50.5C46.4,38.1,37.9,35.1,28,34.1c-5.3-0.5-10.6-0.8-15.8-2.2c-4.2-1.1-7.6-3.2-9.9-7
		c-2.6-4.3-3.6-8.3,0.2-12.7C5.7,8.4,8.3,4.1,11.1,0c0.5,0.2,1,0.2,1,0.4c2.3,9.9,9.3,13.5,18.6,14.6c5.3,0.6,10.6,1.2,15.8,2.1
		c4.4,0.7,8.2,2.8,11.1,6.3c3.8,4.6,4,8.7,0.6,13.5C55.3,41,52.3,45.2,48.6,50.5z"/>
	<path class="st1" d="M25.5,31.2c-1.3,0.2-3.4-0.7-3.7-2.6c-0.3-1.3,0.9-3.4,3.2-1.3c0.4,0.4,1.6-1,1.2-1.6c-1.6-2-2.2-4.2,0.5-5.2
		c3.1-1.1,6.2-4,9.8-1c0.7,0.6,3.4-0.2,2,2.2c-0.7,1.2-1.6,3.7-3.1,0.3c-0.3-0.8-2.2,0.7-2.1,2.1C33.7,28.7,31.3,31.1,25.5,31.2z"/>
</g>
</svg>
