<?xml version="1.0" encoding="utf-8"?>
<!-- Generator: Adobe Illustrator 19.2.0, SVG Export Plug-In . SVG Version: 6.00 Build 0)  -->
<svg version="1.1" id="Layer_1" xmlns="http://www.w3.org/2000/svg" xmlns:xlink="http://www.w3.org/1999/xlink" x="0px" y="0px"
	 viewBox="0 0 155.6 198.2" style="enable-background:new 0 0 155.6 198.2;" xml:space="preserve">
<style type="text/css">
	.st0{fill:#B81A1A;}
	.st1{fill:#020001;}
	.st2{fill:#FCFCFB;}
</style>
<g>
	<path class="st0" d="M23.6,96.7c0-7.4-0.2-14.9,0.1-22.3c0.1-2.6-2.1-6.4,2.1-7.7c5.3-1.6,11.6,0.7,13.7,4.6
		c1.5,2.7,2.1,5.6,2.2,8.6c0.3,7.3,1,14.7-3.9,21.1c-0.5,0.7-0.6,2-0.5,2.9c1.4,6.7,2.9,13.3,5.4,19.9c0.9-6.9,1.8-13.9,2.7-20.8
		c1.3-10.7,2.8-21.5,3.9-32.2c0.3-3.3,1.6-4.1,4.7-4.1c3.3,0,3.6,1.7,3.9,4.4c2.1,18.5,4.3,37,6.4,55.6c0.2,2,1.2,4.2-2.2,4.3
		c-2.3,0.1-4.8,0.4-5.1-3.1c-0.1-1.8-0.4-3.6-0.7-5.5c-0.2-1.5-0.9-2.4-2.6-2.4c-1.7,0-3,0.4-3.2,2.3c0,0.2,0,0.3-0.1,0.5
		c-1,2.5,0.5,6.1-1.7,7.5c-2.8,1.8-6.5,0.3-9.8,0.7c-3.1,0.4-4.1-1.2-4.5-3.9c-0.6-3.6-1.5-7.2-2.3-10.7c-0.1-0.2-0.4-0.4-1.5-1.3
		c0,4.6-0.1,8.6,0,12.6c0.1,2.8-1.3,3.3-3.7,3.3c-2.5,0-3.6-0.7-3.6-3.4c0.1-7.2,0-14.3-0.1-21.5c0-1.6,0.5-3.3-1.3-5.5
		c-0.6,6-0.8,11.3-2.2,16.5c-0.9,3.4-2.2,6.6-4.3,9.5c-2.8,3.7-9.9,5.8-14,4.3c-1.6-0.6-1.7-1.9-1.7-3.2C0,108.3,0,89.2,0,70
		c0-2.6,1.1-3.4,3.6-3.5c8.7-0.3,13.8,3.7,16.3,12.9c1.5,5.6,1.9,11.4,2.2,17.2C22.6,96.7,23.1,96.7,23.6,96.7z M7.6,98.5
		C7.6,98.5,7.6,98.5,7.6,98.5c0,5.2-0.1,10.3,0,15.5c0,1.2-0.6,3,0.9,3.5c1.7,0.5,2.7-0.9,3.3-2.3c0.6-1.2,1.2-2.4,1.5-3.7
		c1.6-8.6,1.6-17.2,0-25.8C13,84,12,82.4,11,80.8c-0.5-0.8-1.4-1.6-2.5-1.3c-1.2,0.4-0.9,1.6-0.9,2.5C7.5,87.5,7.6,93,7.6,98.5z
		 M30.8,85.5C30.8,85.5,30.8,85.5,30.8,85.5c0,1.8,0,3.7,0,5.5c0,0.9-0.1,2.2,1.2,2.3c1.1,0.1,1.7-0.9,2-1.9
		c1.1-3.2,1.3-6.5,0.6-9.8c-0.3-1.7-0.7-4.3-2.9-3.9c-2,0.3-0.8,2.8-1,4.3C30.7,83.2,30.8,84.4,30.8,85.5z M53.2,101.7
		c0.3,2.3-1.4,4.7,0.1,7C55.2,106.4,54.1,104,53.2,101.7z"/>
	<path class="st1" d="M81.4,192.2c1.5-12.7,3-24.8,4.5-37c0.7-6.1,1.6-12.2,2.2-18.3c0.3-2.9,1.6-3.4,4.2-3.5c2.8-0.1,3.8,1,4.1,3.6
		c2.1,19,4.3,38,6.5,57c0.2,1.6,0.8,3.5-2.1,3.3c-2.2-0.1-4.9,0.8-4.9-3.1c0-1.8-0.4-3.6-0.5-5.5c-0.1-2.2-1.2-2.7-3.2-2.7
		c-2.1,0-3.2,0.3-3.6,2.9c-1.2,7.8-1.4,7.8-9.4,8.3c-13.5,0.9-13.5,0.9-13.5-12.6c0-15.7,0-31.3,0-47c0-2.5-0.2-4.4,3.5-4.4
		c3.5,0.1,3.6,1.7,3.6,4.3c-0.1,14.2,0.1,28.3-0.1,42.5c0,3.3,0.6,5.1,4.3,4.5c2.5-0.4,3.8,0.5,3.5,3.3
		C80.3,189.2,80.1,190.6,81.4,192.2z M92.5,159.2c-0.4,0-0.8,0.1-1.3,0.1c-0.4,4.7-0.7,9.5-1,14.2c-0.1,1.2,0.1,2.3,1.7,2.4
		c1.6,0.1,2-0.8,1.9-2.2C93.4,168.9,93,164,92.5,159.2z"/>
	<path class="st1" d="M124.4,98c0.8-9.1,2-18.2,2.3-27.3c0.2-4.6,2.8-3.7,5.5-4c3.2-0.3,3.8,1.1,3.9,4c0.7,18.6,1.7,37.2,2.6,55.9
		c0.1,2.1,0.7,4.3-2.9,4.3c-3.2,0-4.3-0.7-4.2-4.2c0.2-12,0.1-23.9,0.1-35.9c-0.5,0-1,0-1.5,0c-1.1,11.8-2.1,23.6-3.2,35.3
		c-0.2,1.8,1.1,4.6-2.6,4.7c-4,0.1-3-2.9-3.2-4.9c-1-11.6-1.9-23.2-3-34.8c-1.7,11.7-1.3,23.6-1.7,35.4c-0.1,3.1-0.7,4.5-4.2,4.4
		c-2.6-0.1-3-1.1-2.9-3.4c1-19.1,2-38.2,2.9-57.4c0.1-3.1,1.6-3.6,4.1-3.3c2.3,0.2,5.2-0.9,5.4,3.2c0.4,7.8,1,15.6,1.6,23.4
		c0.1,1.6,0.4,3.2,0.5,4.8C124,98,124.2,98,124.4,98z"/>
	<path class="st1" d="M118.5,30.3c0,9.8,0,19.6,0,29.4c0,2.3,0.5,4.5-3.3,4.5c-3.9,0-3.2-2.4-3.2-4.6c0-18.2,0-36.3,0.1-54.5
		c0-1.9-1.6-4.9,2.6-5.1c3.3-0.1,4.6,0.8,5.2,4.2c1.4,8.6,3.3,17.2,5.5,25.7c1.7-3.7,0.8-7.6,1-11.4c0.2-5.2,0.2-10.3,0-15.5
		c-0.1-2.6,1.1-3,3.3-3c2.1,0,3.4,0.3,3.4,2.9c-0.1,19.3-0.1,38.7,0,58c0,1.8-0.1,3.3-2.6,3.2c-2.3-0.1-4.1,0.1-4.7-3
		c-1.8-9.8-3.9-19.6-5.9-29.4c-0.1-0.5-0.3-0.9-0.4-1.3C119.1,30.4,118.8,30.4,118.5,30.3z"/>
	<path class="st1" d="M88,32.5c0,9.3-0.1,18.6,0.1,27.9c0,2.8-0.7,3.8-3.6,3.8c-2.8,0-3.8-0.8-3.7-3.7c0.2-6.8-0.1-13.6,0.1-20.5
		c0.1-2.8-0.7-3.7-3.6-3.8c-3.1-0.1-3.5,1.3-3.5,3.9c0.1,6.8,0,13.6,0.1,20.5c0,2.5-0.6,3.6-3.3,3.6c-2.8,0-3.7-0.8-3.7-3.7
		c0.1-19,0.1-37.9,0-56.9c0-2.4,0.4-3.6,3.2-3.6c2.7,0,3.9,0.6,3.8,3.6c-0.2,5.5,0.1,11-0.1,16.5c-0.1,2.6,0.7,3.5,3.4,3.5
		c2.7,0,3.8-0.7,3.7-3.6c-0.2-5.5,0.1-11-0.1-16.5C80.7,0.9,81.5,0,84.2,0c2.6,0,3.9,0.4,3.8,3.5C87.8,13.2,87.9,22.8,88,32.5
		C87.9,32.5,88,32.5,88,32.5z"/>
	<path class="st1" d="M142.7,178c0,5.3-0.1,10.7,0.1,16c0.1,2.6-0.8,3.4-3.4,3.4c-2.6,0-3.4-0.9-3.4-3.5c0.1-19,0.1-38,0-56.9
		c0-3,1.1-3.6,3.8-3.6c9.6-0.1,13.4,3.1,13.9,12.8c0.4,7.6,1.4,15.4-4.3,21.9c-0.9,1-0.1,2.2,0.1,3.3c1.6,7.3,3.3,14.6,4.8,21.9
		c0.3,1.3,2,3.7-0.9,3.9c-2.2,0.2-5.5,1.7-6.2-2.6c-1-5.7-2.3-11.3-3.5-16.9C143.3,177.8,143,177.9,142.7,178z M147.5,151.3
		c0.1-1.4-0.2-3.6-1.1-5.6c-0.5-1.1-1.3-2.1-2.6-1.8c-1.4,0.3-1,1.5-1,2.4c0,4.1,0,8.3,0,12.4c0,0.8-0.2,1.7,0.9,2
		c0.9,0.2,1.6-0.4,2.1-1.1C147.2,157.4,147.5,154.8,147.5,151.3z"/>
	<path class="st1" d="M142.7,20.9c1.4-5.7,3-11.4,4-17.2c0.8-4.7,3.9-3.6,6.7-3.5c1.9,0.1,1.2,1.6,0.9,2.6
		c-1.1,4.5-1.8,9.2-3.3,13.5c-3.3,9.3-2.4,18.5,0.1,27.8c1.3,5,2.3,10.1,3.1,15.1c0.2,1.4,2.7,4.1-1.2,4.5c-2.8,0.3-5.5,0.7-6.2-3.6
		c-1-6.4-2.6-12.7-3.9-19c-0.1-0.6-0.3-1.2-1.3-1.8c0,6.8-0.1,13.6,0,20.4c0.1,2.8-0.4,4.2-3.7,4.2c-3.5,0-3.1-2-3.1-4.2
		c0-18.6,0-37.3,0-55.9c0-2.6,0.3-3.9,3.5-3.9c3.1,0,3.5,1.4,3.4,3.9c-0.1,5.6,0,11.2,0,16.8C141.9,20.8,142.3,20.8,142.7,20.9z"/>
	<path class="st0" d="M74,107.4c0,6.6-0.1,13.3,0,19.9c0,2.5-0.7,3.6-3.4,3.6c-2.5-0.1-4.1-0.3-4.1-3.5c0.1-19.1,0.1-38.3,0.1-57.4
		c0-2.7,1.2-3.3,3.6-3.4c2.7,0,4,0.8,3.9,3.7c-0.2,4.5,0,9,0.4,13.5c2.5-4,3.3-8.5,4-12.9c0.6-3.5,2.1-4.5,5.2-4.2
		c3.8,0.3,2.5,3.2,2.2,4.8c-0.8,4.9-1.8,9.9-3.3,14.6c-2.2,6.9-2,13.6-0.2,20.6c1.5,6.1,2.7,12.4,3.6,18.6c0.2,1.5,1.8,4.6-2.1,4.9
		c-2.9,0.2-4.4-0.4-5-3.7c-1.1-6.5-2.7-12.9-4.1-19.3C74.5,107.2,74.2,107.3,74,107.4z"/>
	<path class="st1" d="M100.1,0.2c2.7-0.6,3.8,0.6,4.1,3.3c2.1,18.8,4.4,37.6,6.5,56.5c0.2,1.7,1.5,4.2-2.2,4.2c-2.8,0-5-0.1-4.8-3.8
		c0.1-1.8-0.4-3.6-0.6-5.4c-0.2-2.6-2.1-1.9-3.7-2.1c-1.7-0.1-2.9,0.2-2.9,2.3c0,1.7-0.7,3.3-0.6,4.9c0.4,4-2,4.2-4.9,4
		c-4-0.3-2.1-3-1.9-4.8c2.2-18.5,4.6-36.9,6.7-55.4C96.2,1,97-0.5,100.1,0.2z M99.3,24.4c-0.4,4.8-0.8,9.5-1.1,14.3
		c-0.1,1.4-1.3,3.6,1.5,3.8c3.3,0.2,2-2.4,1.9-3.9c-0.2-4.8-0.7-9.5-1.1-14.3c0.3-1.4,0.6-2.7-1.1-4.2C99,21.9,98.6,23.1,99.3,24.4z
		"/>
	<path class="st0" d="M89.1,98.7c0-9.1,0.2-18.3-0.1-27.4c-0.1-3.9,1.3-5.2,4.9-4.7c0.7,0.1,1.3,0,2,0c7.9,0,9.6,2.2,7.9,10.1
		c-0.5,2.3-2,2.4-3.7,2.3c-4.3-0.2-4,2.8-3.7,5.4c0.3,2.5-2,6.6,3.3,6.7c5.2,0,3.5,4,3.5,6.5c0.1,2.4,1.4,6.2-3.5,5.9
		c-2.6-0.2-3.6,1.1-3.5,3.6c0.1,2.3,0.1,4.7,0,7c-0.1,2.4,0.5,4,3.3,3.7c3.7-0.4,4.6,1.7,4.3,4.9c-0.1,1.8,0,3.7-0.1,5.5
		c0,1.3-0.4,2.5-1.8,2.5c-3.7,0.1-7.3,0.3-11,0c-2.4-0.2-1.8-2.4-1.8-4C89.1,117.4,89.1,108,89.1,98.7
		C89.1,98.7,89.1,98.7,89.1,98.7z"/>
	<path class="st1" d="M126.3,133.5c1.7,0,2.7,0.1,3.7,0c3.1-0.4,4.8,0.5,4.3,4c-0.2,1.5-0.2,3,0,4.5c0.3,2.7-0.5,4.3-3.5,3.8
		c-3.4-0.5-4.4,1-4,4.2c0.2,1.6,0.1,3.3,0,5c-0.2,2.2,0.4,3.6,3,3.2c3.6-0.6,4.3,1.3,3.9,4.3c-0.2,1.3-0.1,2.7,0,4
		c0.3,2.7-0.6,4.1-3.6,3.7c-2.6-0.4-3.6,0.7-3.4,3.4c0.2,1.8,0.2,3.7,0,5.5c-0.3,3.7-0.1,6.7,5,5.8c2-0.4,2.4,0.9,2.5,2.7
		c0.8,9.3-3.3,12.6-12.7,10c-1.9-0.5-1.7-1.7-1.7-3c0-19.3-0.1-38.6,0-57.9C119.9,130.3,125,135.5,126.3,133.5z"/>
	<path class="st1" d="M140.7,99c0-9.5,0.1-19-0.1-28.5c-0.1-3.1,1-4.3,4-3.9c1,0.1,2,0,3,0c7.4,0,7.3,0,7.5,7.2
		c0.1,3.5-0.2,5.9-4.7,5.1c-2.2-0.4-2.9,0.8-2.8,2.9c0.1,2,0.2,4,0,6c-0.2,2.6,0.6,3.8,3.3,3.4c3-0.4,3.8,1.1,3.5,3.8
		c-0.1,1.5-0.2,3,0,4.5c0.3,2.6-0.4,4.2-3.5,3.8c-2.6-0.4-3.6,0.9-3.4,3.4c0.2,1.8,0.2,3.7,0,5.5c-0.3,3.7-0.1,6.8,5,5.7
		c1.7-0.4,2.2,0.6,2.4,2.3c1.3,9.5,0.7,10.1-8.8,10.5c-4.7,0.2-5.8-1.3-5.7-5.8C141,116.3,140.7,107.6,140.7,99z"/>
	<path class="st1" d="M52.9,37.8c0-7.3,0-14.6,0-22c0-2.1,0.2-4.1-3-3.7c-2,0.2-2.1-1.2-2-2.6c0-1.7,0.2-3.4,0-5
		c-0.5-3.5,0.9-4.9,4.4-4.4c1.5,0.2,3,0,4.5,0c8.7,0,9.9,1.4,8.3,9.9c-0.2,1.1-0.3,2.2-1.6,2c-4.5-0.6-3.6,2.6-3.6,5.1
		c0,14.3-0.1,28.6,0,42.9c0,2.8-0.3,4.2-3.7,4.1c-3.2-0.1-3.4-1.5-3.4-4C53,52.8,52.9,45.3,52.9,37.8z"/>
	<path class="st1" d="M109.4,133.5c0.2,0,0.3,0,0.5,0c8.8,0,9.7,1.1,8.3,9.8c-0.2,1-0.2,2.4-1.4,2.2c-4.9-0.5-3.8,2.9-3.8,5.6
		c0,14,0,27.9,0,41.9c0,2.4,0.4,4.5-3.4,4.5c-3.8,0-3.8-1.9-3.8-4.6c0.1-14.1,0-28.3,0-42.4c0-2.4,0.7-5.3-3.4-4.8
		c-1.2,0.1-1.6-0.9-1.6-2c0-0.3,0-0.7,0-1C100.2,133.4,100.2,133.4,109.4,133.5z"/>
	<path class="st2" d="M7.6,98.5c0-5.5,0-11,0-16.4c0-0.9-0.3-2.2,0.9-2.5c1.1-0.3,2,0.5,2.5,1.3c0.9,1.5,2,3.2,2.3,4.9
		c1.6,8.6,1.6,17.2,0,25.8c-0.2,1.3-0.9,2.5-1.5,3.7c-0.7,1.4-1.7,2.8-3.3,2.3c-1.6-0.5-0.9-2.3-0.9-3.5
		C7.5,108.8,7.6,103.7,7.6,98.5C7.6,98.5,7.6,98.5,7.6,98.5z"/>
	<path class="st2" d="M30.8,85.5c0-1.2-0.1-2.3,0-3.5c0.2-1.5-0.9-4,1-4.3c2.2-0.4,2.5,2.2,2.9,3.9c0.7,3.3,0.5,6.6-0.6,9.8
		c-0.4,1-0.9,1.9-2,1.9c-1.4-0.1-1.2-1.4-1.2-2.3C30.8,89.2,30.9,87.4,30.8,85.5C30.8,85.5,30.8,85.5,30.8,85.5z"/>
	<path class="st2" d="M53.2,101.7c0.8,2.3,2,4.7,0.1,7C51.8,106.4,53.5,104,53.2,101.7z"/>
	<path class="st2" d="M92.5,159.2c0.4,4.8,0.9,9.7,1.3,14.5c0.1,1.3-0.2,2.3-1.9,2.2c-1.6-0.1-1.8-1.2-1.7-2.4
		c0.3-4.7,0.7-9.5,1-14.2C91.7,159.3,92.1,159.2,92.5,159.2z"/>
	<path class="st2" d="M147.5,151.3c0.1,3.4-0.3,6-1.7,8.3c-0.4,0.7-1.1,1.3-2.1,1.1c-1.1-0.2-0.9-1.2-0.9-2c0-4.1,0-8.3,0-12.4
		c0-0.9-0.3-2.1,1-2.4c1.4-0.3,2.1,0.7,2.6,1.8C147.3,147.8,147.6,149.9,147.5,151.3z"/>
	<path class="st2" d="M100.4,24.3c0.4,4.8,0.9,9.5,1.1,14.3c0.1,1.5,1.4,4.1-1.9,3.9c-2.8-0.2-1.6-2.4-1.5-3.8
		c0.3-4.8,0.7-9.5,1.1-14.3C99.8,25.5,100.1,24.9,100.4,24.3z"/>
	<path class="st1" d="M100.4,24.3c-0.3,0.6-0.7,1.2-1.2,0.1c-0.7-1.3-0.2-2.5,0.1-4.3C101,21.5,100.8,22.9,100.4,24.3z"/>
</g>
</svg>
