<?xml version="1.0" encoding="utf-8"?>
<!-- Generator: Adobe Illustrator 19.2.0, SVG Export Plug-In . SVG Version: 6.00 Build 0)  -->
<svg version="1.1" id="Layer_1" xmlns="http://www.w3.org/2000/svg" xmlns:xlink="http://www.w3.org/1999/xlink" x="0px" y="0px"
	 viewBox="0 0 456.2 101.5" style="enable-background:new 0 0 456.2 101.5;" xml:space="preserve">
<style type="text/css">
	.st0{fill:#FFFFFF;}
</style>
<g>
	<path d="M130.6,15.3c-3.8-3.5-4.6-7.5-2.3-11.3c0.5-0.8,1.6-1.8,2.5-1.8c4.6-0.3,9.2-0.5,13.8-0.2c1.5,0.1,3.7,1.7,4,3.1
		c1,4.2,1.4,8.5,1.7,12.8c0.1,1.2-1,2.4-1.5,3.6c-1-0.8-2.4-1.5-2.9-2.5C142.1,10.8,137.7,9.7,130.6,15.3z"/>
	<path d="M132.3,18.3c2.6-2.2,4.2-3.4,5.7-4.7c1,1.7,2.8,3.3,2.9,5c0,1.3-2.2,4-3.1,3.8C136.1,22.3,134.7,20.4,132.3,18.3z"/>
	<path d="M148.5,68.6c-2.2,1.8-3.6,3.3-5.3,4c-0.5,0.2-3-2.7-2.8-3.3c0.9-1.9,2.7-3.4,4.1-5C145.6,65.4,146.6,66.6,148.5,68.6z"/>
	<path d="M193.7,79.7c-2,1.6-3.9,3.5-4.2,3.2c-1.6-1.1-3.2-2.7-3.9-4.5c-0.2-0.6,2.5-3.4,3.4-3.1C190.5,75.7,191.6,77.6,193.7,79.7z
		"/>
	<path class="st0" d="M209,37.9c2.3,0.9,5.4,2.1,8.6,3.4c-7,10.1-13,11.1-22.9,4.1c2.2-1.8,4.3-3.5,6-4.9c1.2,2.5,2.1,4.8,3.5,6.7
		c0.2,0.3,3.3-0.5,3.6-1.4C208.6,43.7,208.6,41.2,209,37.9z"/>
	<path class="st0" d="M227.7,5.6c1.7,7.4-1.5,10.9-7.5,9.2c-4.6-1.3-11.1-0.2-10.9-8.5c2.1-1.2,4.2-2.5,5.4,1.9
		c0.4,1.5,2.6,3.2,4.1,3.4c1.1,0.2,2.6-1.9,4-2.8C224.3,7.8,225.9,6.8,227.7,5.6z"/>
	<path class="st0" d="M223.8,84.9c-3.6-0.9-6.4-1.7-10.5-2.7c2.1-2.6,3.6-4.4,5.7-7C220.7,78.7,222,81.2,223.8,84.9z"/>
	<path d="M232.7,86.3L232.7,86.3L232.7,86.3c0-0.1,0-0.2,0-0.3l-0.9-13c1-5.1-2.6-4.7-5.2-4.7c-5.6,0.1-11.2,0.9-16.8,0.8
		c-10.7-0.2-9.1,1.8-9.3-9.5c0-2.5,0.6-3.8,3.5-3.7c4.8,0.1,9.6-0.4,14.4-0.2c4.2,0.1,6.4-1.2,5.9-5.8c-0.3-2.9-0.1-5.8-0.1-8.7
		c-0.1-5.9-0.8-6.8-6.6-6.9c-5.2-0.1-10.5,0-15.8,0c0-4.3,0-7.7,0-11.7c5.6,0,10.6,0,15.5,0c14.5,0.1,14.7-0.1,13.5-14.8
		c-0.3-3.7-1.6-6.1-6.2-6C213.9,2.1,203,2,192.1,1.9c-10.8-0.1-10.9-0.2-10.9,10.5l0.4,35.1c0,6.1,0,12.2,0.1,18.3l0.4,26.5
		c-0.1,2.8,1.3,3.9,4.9,3.9c12.7,0.1,25.3,0.6,38,0.9c7.6,0.2,7.8,0,7.8-7.6C232.8,88.2,232.8,87.1,232.7,86.3z"/>
	<path d="M149.5,84.9L149,60.1c0.1-3.1,0.2-6.1,0.3-9.2l0,0l1.1-33L138.8,6.2L127,8.9l1.1,42.5c-0.1,0.9-0.1,2-0.1,3.1
		c0.1,3.5,0.3,7,0.4,10.5l0,0.1l0,0c0.3,9.1,0.7,18.1,1.3,27.2c0.4,6.7,1.2,7.1,8.1,7.1c2.7,0,5.5,0.4,8.2-0.2
		c1.4-0.3,3.5-2.2,3.5-3.4C149.6,92.2,149.6,88.5,149.5,84.9L149.5,84.9z"/>
	<path d="M93.4,4c-12-1.2-14.1,0.2-16.7,9.6C73.5,25,70.2,36.4,66.6,47.7c-1.3,4.2-3.5,8.2-5.8,13.4c-3.7-6-7.2-10.9-9.9-16.3
		L40.2,21.5l0,0c-1.4-3.5-2.9-7-4.7-10.3c-1.3-2.3-3.3-5.5-5.2-5.7C23.1,4.8,15.9,5.2,8.1,5.2c0.8,2.6,1.1,4.8,2,6.7
		c4.1,8.9,8.2,17.7,12.4,26.5c2.7,5.7,5.7,11.2,7.9,17c0.4,1.1,0.9,2,1.4,2.8h0l13.1,21.1c0.7,2,2,4,3.7,6c0.3,0.4,0.6,0.8,0.8,1.2
		c3.1,9.3,9.5,12.2,19.2,11.3c3.4-0.3,5.3-1.4,6.5-3.6l0,0l0,0c0.6-1.2,1.1-2.7,1.5-4.6c0,0,0,0-0.1,0l2.5-8.2
		c1.6-4.7,3.7-9.3,5.7-13.9l0,0l0,0c0.8-2,1.7-4.1,2.3-6.2l9.3-24.7c0.4-0.8,0.8-1.8,1.2-3.1l0,0c0.3-1.1,0.6-2.3,1-3.8
		c0-0.1,0-0.2,0.1-0.3l3.5-13.6c1.2-3.3,2.3-6.1,3.6-9.5C101.1,5.5,97.3,4.4,93.4,4z"/>
	<path d="M372.3,9.2c1.5-3.9,0.1-5.5-3.7-5.7c-4.3-0.2-8.6-0.5-12.9-0.4c-1.3,0-3.5,0.7-3.8,1.6c-1.5,5.5-2.7,11.2-3.9,16.8
		l-2.7,14.4c-0.1,0.5-0.2,1-0.3,1.5l0,0.3l0,0c-1.1,6-1.8,12.1-3.5,18.2c-1.4-2.2-2.4-3.3-2.9-4.6c-2.8-6.3-5.7-12.5-8.1-18.9
		L323.2,11c-0.8-2.8-1.6-5.7-3.4-7c-2.6-1.9-7.3-0.9-11.1-0.9c-0.5,0-1.3,1.4-1.6,2.2c-0.9,2.9-1.6,5.9-2.3,8.8
		c-4,16.3-8,32.6-12.1,48.9c-0.1,0.4-0.4,0.7-0.7,1c-1.1-0.8-2.1-1.5-3.1-2.3l-2-7.4c0.1,0,0.1,0,0.2,0c-1-2.8-2-5.5-3-8.1l0,0
		l-12.2-34.5c-0.3-1.2-0.5-2.4-0.8-3.7c-0.8-3.8-2.8-5.8-7.1-5.3c-3,0.3-6.1-0.2-9.1-0.2c-6.3-0.1-7.4,1.4-5.3,7.4
		c1.8,5,4.2,9.7,5.7,14.8c7.3,23.2,14.5,46.4,25.5,68.3c2.4,4.8,5.3,6.3,10.1,5.6c1.9-0.3,3.8-0.9,5.7-0.8c3.5,0.1,5.4-1.8,6.5-4.7
		c4.6-11.9,9.2-23.9,13.7-35.9L319,53l2,4.4l7.6,21.9c1.5,4,3,7,3.7,10.2c1.5,7.3,5,11.2,12.9,9c0.9-0.2,1.9,0.1,2.9,0.3
		c4.4,0.9,6-1.4,6.6-5.4c1.2-7.3,2.6-14.5,4-21.7c0.9-4.6,1.8-9.2,2.8-14.7c-0.1,0-0.1,0-0.1,0.1l2.4-13.5l0,0
		c0.8-3.1,1.5-6.2,2.2-9.5l0,0l0,0c0.4-2,0.9-4,1.4-6.2c0,0-0.1,0-0.1,0.1l1.6-7.8C369.9,16.4,371,12.7,372.3,9.2z"/>
	<path d="M429.3,26.4c2.1,2.4,4.4,4.6,6.2,7.1c2,2.7,3.9,2.7,5.7,0.2c1.8-2.5,2.8-5.5,4.8-7.7c3.4-3.9,2.2-7.1-0.2-10.8
		C437.9,3,417-2.9,402.7,6.6c-6.6,4.4-11.6,13.6-11.2,21.1l0,0c0,0,0,0,0,0.1c0,0.7,0.1,1.3,0.3,1.9c0.2,1,0.5,2,0.9,2.7
		c1,3.3,2.6,7.5,5,10.4c1.5,1.8,2.9,3.4,4,4.6c0.4,0.7,0.9,1.3,1.4,1.8c0.5,0.5,1,1,1.6,1.4c0.1,0.1,0.2,0.2,0.2,0.2l0,0
		c3.7,3.4,7.7,6.7,11.2,10.3c2.4,2.5,4.6,5.4,6.1,8.5c1.4,2.8,1.6,6.6-1.7,8c-2.2,0.9-5.8,0.6-7.8-0.7c-3.9-2.6-7.4-6.1-10.6-9.6
		c-1.7-1.9-3-2.2-4.8-0.6c-3,2.6-6.1,5.2-8.9,8.1c-3.2,3.3-3,5.9,0.2,8.4c2,1.7,7,5.8,11.4,9c0.9,0.9,2,1.8,3.3,2.6
		c0.9,0.6,1.9,1.1,2.9,1.6c0.4,0.2,0.7,0.4,1,0.5c0,0,0,0,0,0c10.7,4.6,26.5,4.7,32.9-6.9c1-1.8,1.4-3.8,2.3-6.2l0.5-4.1
		c2.2-10.7-1.6-19.6-7.2-27.4c-4.2-5.9-9.9-10.8-15-16.1c-2.6-2.7-3-6.4-0.5-8.9C423.1,24.6,425.9,22.4,429.3,26.4z"/>
</g>
</svg>
