<?xml version="1.0" encoding="UTF-8" standalone="no"?>
<svg width="115px" height="150px" viewBox="0 0 115 150" version="1.1" xmlns="http://www.w3.org/2000/svg" xmlns:xlink="http://www.w3.org/1999/xlink">
    <!-- Generator: Sketch 39.1 (31720) - http://www.bohemiancoding.com/sketch -->
    <title>Group 2</title>
    <desc>Created with Sketch.</desc>
    <defs></defs>
    <g id="Page-1" stroke="none" stroke-width="1" fill="none" fill-rule="evenodd">
        <g id="Group-2" transform="translate(1.000000, 1.000000)" stroke="#fff" stroke-width="2">
            <path d="" id="Path-10"></path>
            <path d="" id="Path-11"></path>
            <path d="M16.6079102,47.1096467 C16.6079102,99.7236411 5.78760915,98.3362298 26.0028409,127.800815 C30.7964053,134.787645 42.8315361,139.999686 48.8155185,142.595788 C87.0266702,159.173383 102.85474,129.606046 106.514338,94.6264946 C112.217722,40.111802 58.9642751,-9.55457245 21.2527077,47.3258152 L16.6079102,47.1096467 Z" id="Path-12"></path>
            <path d="" id="Path-13"></path>
            <path d="M32.7693981,67.9774457 C36.3736713,84.1764278 46.9304033,77.7168551 48.8155185,63.8853261" id="Path-14"></path>
            <path d="M61.3354048,63.8853261 C63.9172888,77.893308 77.7253569,79.8935454 79.2274059,55.7563859" id="Path-15"></path>
            <path d="M47.4712358,114.252582 C65.6764242,119.497886 66.0887858,119.54414 76.0422585,101.699728" id="Path-16"></path>
            <path d="" id="Path-17"></path>
            <path d="M10.1122159,74.2664402 C10.1122159,56.1232617 -3.14531992,52.167522 2.06156783,29.1626359 C4.42894463,18.7031759 18.2884362,40.6283258 20.3999911,35.4365489 C24.1784698,26.1462303 16.5509464,13.0611717 23.0835405,5.45951087 C27.8607743,-0.0995229752 37.8237772,8.23852949 45.0033736,6.80679348 L48.5245916,1.93546196 C55.3594754,0.572467606 62.96823,-0.677113299 69.4311967,1.93546196 C72.3986059,3.13500082 69.8004961,8.68730711 71.6683239,11.2910326 C75.3744733,16.4573525 81.0903096,0.854562713 83.746804,7.25421196 C86.2650606,13.3208384 83.132351,20.6483689 85.0860707,26.9205163 C85.4851936,28.2018453 94.9553445,13.3402451 95.2584783,14.8754076 C108.238424,80.6098364 82.1163555,9.42834678 110.46693,35.8889946 C113.616437,38.8285472 111.920962,44.7692565 110.46693,48.8289402 C108.995585,52.9369622 104.95604,55.5888134 102.200595,58.96875" id="Path-18"></path>
        </g>
    </g>
</svg>