<?xml version="1.0" encoding="UTF-8" standalone="no"?>
<svg width="140px" height="149px" viewBox="0 0 140 149" version="1.1" xmlns="http://www.w3.org/2000/svg" xmlns:xlink="http://www.w3.org/1999/xlink">
    <!-- Generator: Sketch 39.1 (31720) - http://www.bohemiancoding.com/sketch -->
    <title>Group</title>
    <desc>Created with Sketch.</desc>
    <defs></defs>
    <g id="Page-1" stroke="none" stroke-width="1" fill="none" fill-rule="evenodd" stroke-linecap="round">
        <g id="Group" transform="translate(1.000000, 1.000000)" stroke="#444">
            <path d="M31.5742188,30.6523825 C31.921875,57.8216533 29.999533,85.115084 32.6171875,112.160195 C34.0573781,127.039972 56.913039,150.894567 73.7226563,145.949257 C83.8912811,142.957696 88.1591117,125.428155 89.7460938,119.476601 C91.6120788,112.478721 98.7002155,73.7814158 96.015625,59.910195 C95.127698,55.3222957 92.283084,51.2955324 89.7460938,47.3711325 C89.0965586,46.3663845 71.0699634,18.6925218 63.2734375,16.01957 C47.3124501,10.5475237 31.5162213,28.3507859 26,39.70707" id="Path-2" stroke-width="2"></path>
            <path d="M47,69 C47,81.2122353 55.4630582,75.0934366 61.5859375,70" id="Path-4" stroke-width="2"></path>
            <path d="M67,68 C67,77.5589701 77.8240866,74.4067909 83.5390625,70.3046875" id="Path-5" stroke-width="2"></path>
            <path d="M55,88 C55,105.608188 56.8517402,109.140447 71.328125,94.6640625" id="Path-6" stroke-width="2"></path>
            <path d="M56.5735157,8.26681401 C49.984974,5.82801192 43.6839235,2.39152192 36.8078907,0.950407755 C-5.18895099,-7.85150541 14.1400633,46.7837421 11.0305469,69.923064 C10.1173099,76.7188751 -4.30122889,84.0537796 1.28054693,88.0363453 C27.2638457,106.575283 32.282634,94.9099744 39.5071094,82.8996265" id="Path-3" stroke-width="2"></path>
            <path d="" id="Path-7"></path>
            <path d="" id="Path-8"></path>
            <path d="M54,9.39801488 C65.2615187,9.39801488 76.8095139,-0.282118776 88.046875,4.17145238 C93.1588444,6.1974191 107.820291,34.3085382 108.597656,35.8706711 C133.290387,85.4912515 157.939266,100.340026 108.597656,93.6948899 C105.001726,93.210604 102.095052,90.4735357 98.84375,88.8628586" id="Path-9" stroke-width="2"></path>
        </g>
    </g>
</svg>