<?xml version="1.0" encoding="utf-8"?>
<!-- Generator: Adobe Illustrator 19.2.0, SVG Export Plug-In . SVG Version: 6.00 Build 0)  -->
<svg version="1.1" id="Layer_1" xmlns="http://www.w3.org/2000/svg" xmlns:xlink="http://www.w3.org/1999/xlink" x="0px" y="0px"
	 viewBox="0 0 412.7 73.9" style="enable-background:new 0 0 412.7 73.9;" xml:space="preserve">
<g>
	<path d="M0.5,72.7C0.1,72.1-0.1,71,0,70.3c1-9.1,2-18.1,3.2-27.2c1-6.7,2.4-13.2,3.6-19.8c0.7-3.2,1.7-6.5,2.2-9.7
		c0.3-2.3,1.3-3.3,4.1-3.8c0.2,2.5,1.4,5.4,0.4,6.9c-2.9,4.4-2.9,9.4-4,14.2C6.9,42.2,5.9,53.6,5.4,65.2c-0.1,2.7-0.6,5.2-2.1,7.5
		C2.4,74.2,1.3,74.3,0.5,72.7z"/>
	<path d="M50.7,49c-3.4-2.9-6.7-5.8-10.2-8.6c-0.7-0.6-1.6-0.9-2.8-1.7c-0.7,3.6-1.3,6.9-1.7,10.3c-0.8,7.1-1.4,14.2-2.1,21.4
		c-0.2,1.9-2,4-3.3,3.5c-1.8-0.5-2.3-2.2-2-3.9c1.2-8.4,2.7-16.6,4-25l0.9-5.5c0.3-2,0.7-3.7-1.8-4.8c-1.8-0.8-1.7-2.5,0.2-3.1
		c3.3-1.1,3.4-3.7,3.6-6.5c0.4-4.1,0.9-8.2,1.3-12.4c-1.1-0.1-1.8-0.2-2.5-0.4c-1.6-0.5-2.1-2.5-0.8-3.4c1.6-1.1,3.3-2.3,5.3-1
		c2.5,1.5,5,2.9,7.2,4.8c3.5,2.9,6.7,6.3,10,9.5c1.1,1,1.8,2.3,0.7,3.8c-1.4,1.9-2.4,2-4.1,0.4l-8.9-8.8c-0.7-0.7-1.4-1.2-2.4-2
		c-0.3,0.8-0.6,1.2-0.6,1.7c-0.7,4.3-1.2,8.6-1.9,12.9c-0.3,1.8,0.4,2.9,1.8,4c4.8,3.6,9.3,7.3,13.8,11c2.1,1.7,2,2.8,0.3,4.7
		C52.9,51.5,51.8,49.9,50.7,49z"/>
	<path d="M168.1,19.2c0.9-1.9,3.3-3.4,4.4-2.6c1.7,1.3,0.9,3.1,0.1,4.4c-2.3,3.5-4.8,6.9-7.2,10.3c-2.8,3.7-5.8,7.1-8.3,11
		c-1.4,2.4-2,5.3-2.9,8.1c-2.2,6.4-4.3,12.8-6.5,19.3c-0.4,1-0.8,2.2-1.5,2.9c-0.7,0.7-1.8,0.9-2.7,1.3c-0.4-1.2-1.3-2.6-0.9-3.6
		c2-6.3,4.4-12.4,6.5-18.7c0.4-1.4,0.2-3,0.3-4.5c0.1-1.2,0.5-2.5,0.5-3.7c-0.1-2.8,0.1-5.7-0.6-8.4c-1.4-6.4-3.4-12.5-4.9-18.9
		c-0.8-3.2,0.2-4.1,4.3-4.1c-0.6,8.7,3.6,16.3,6.3,24.6c0.5-0.5,1-0.8,1.2-1.1c3.3-4.1,6.6-8.2,9.8-12.4c0.9-1.1,1.4-2.6,2.1-3.8
		L168.1,19.2z"/>
	<path d="M219.8,71.1c-3.8-0.1-7.1,1.2-10.6,1.9c-1.1,0.3-2.3,0.6-3.5,0.8c-2.3,0.3-2.6,0.1-3.7-2.5l8.4-2.6
		c0.1-0.3,0.2-0.6,0.3-0.9l-2.7-2.1c-3-2.5-4.2-6-5.3-9.6c-0.8-2.3-2.2-4.4-2.7-6.7c-0.5-2.6-0.5-5.4-0.2-8.1c0.4-3,0.9-6.3,2-9.1
		c2.5-6.3,6.7-10.8,13.7-12c5.3-0.9,11.5,2.8,13.6,8.2c2,5.6,3.5,11.4,5.1,17.1c2.1,7.5-1.2,13.2-6.4,18.1l-1.5,1.4
		c1.4,0.4,2.5,0.7,3.7,1C227.5,70.2,223.6,71.1,219.8,71.1z M229.1,49.7c-1-6.6-3.1-14-6.6-20.7c-1.8-3.6-6.7-4.8-10.3-2.8
		c-4.2,2.4-6.3,6.2-6.9,10.8c-1.3,10.5-0.3,20.2,9,27.3c0.9,0.7,2.4,1.5,3.3,1.3C223.3,64.4,229,56.6,229.1,49.7z"/>
	<path d="M297.3,54.2c-2.6,6.6-6,12.4-11.3,17c-3.9,3.4-8.5,3.5-12.7,0.6c-4.2-3-7.3-6.7-7.8-12.3c-0.2-2.5-0.8-4.9-1.2-8.2
		c0.8-4.3,1.6-9.2,2.7-14.1c1.1-5.7,2.6-11.4,3.7-17.1c0.4-2.1,1.6-2.7,3.4-2.6c0.6,0,1.4,0.9,1.6,1.5c0.2,0.8-0.1,1.7-0.3,2.6
		l-5.1,23.2c-1.1,5.4-0.9,10.6,0.8,15.9c1.2,3.8,3.5,6.9,7.3,8.5c1.1,0.5,3.3,0.3,4-0.5c2.9-3.3,6.3-6.7,8.1-10.6
		c3.4-7.3,5.8-15.1,8.7-22.5c0.9-2.2,2.4-4.2,3.8-6c0.4-0.5,2.2-0.5,2.6,0c0.5,0.6,0.6,1.9,0.3,2.8C303,39.7,300,47,297.3,54.2z"/>
	<path d="M356.8,29.2c-1.7,4.8-3.9,9.4-7.7,13c-0.9,0.9-2.1,1.5-3.5,2.5c0.3,2,0.7,4.6,0.9,7.1c0.5,6.4,0.8,12.8,1.1,19.3
		c0.2,2.1-1.6,2.4-2.9,2.8c-0.6,0.2-2.1-0.7-2.3-1.3c-0.6-1.6-0.9-3.4-1-5.1c-0.5-6.9-0.7-13.9-1.2-20.8c-0.4-3.8-0.7-3.7-4.5-4.3
		c-1.8-0.2-3.5-0.8-5.8-1.3c-0.8,3.1-1.6,6.3-2.3,9.5c-0.9,3.8-1.5,7.6-2.3,11.4c-0.1,0.5-0.1,1.1-0.4,1.3c-1,0.9-2.4,2.2-3.4,2.1
		c-1.7-0.3-2-2.1-1.6-3.7c1.7-7.1,3.3-14.3,5.3-21.4c2.3-8.2,4.9-16.2,7.4-24.3c0.3-1,0.5-2,0.6-3c0.2-2.8,0.9-3.4,3.5-3.6
		c1.7-0.1,3.4,0,5-0.3c3.6-0.4,6.1,2.1,8.8,3.6C356.6,15.6,359.1,23,356.8,29.2z M352.8,26.2c-0.3-7.2-4.6-11.2-11.2-12.9
		c-0.9-0.3-2.8,0.1-3.2,0.8c-1.1,1.5-1.8,3.4-2.4,5.2c-1.3,4.4-2.7,8.6-3.9,13c-0.9,3-0.1,4.8,2.9,5.6c3.3,0.8,6.7,1,10.1,1.4
		c0.4,0.1,1-0.2,1.3-0.5C349.5,35,352.4,30.9,352.8,26.2z"/>
	<path d="M381.6,65.1c-0.4-0.5-1-0.7-1.8-1.1l-1.5,3.1c-0.8,1.3-2.2,2.2-3.4,1.3c-0.8-0.6-1-2.3-1.1-3.5c-0.1-0.5,0.3-1,0.6-1.5
		c1.2-2,0.5-3.1-1.5-3.8c-0.7-0.3-1.5-0.7-1.7-1.2c-0.5-0.9-0.8-2.1-0.5-2.9c0.1-0.6,1.3-1.1,2-1.1c1.3-0.1,2.8,0.2,4.3,0.3l1.2-4.5
		c1-3.8,2-7.5,2.9-11.3c0.4-1.6,0.4-3.3,0.6-4.9c0.1-0.6-0.1-1.3,0.3-1.6c2.8-2.3,2.8-5.8,3.5-8.8c0.9-3.9,1-8,1.5-12
		c0.3-2.8-1.4-4.8-3.2-6.6c-0.6-0.7-1-2.6-0.8-2.8c1.4-0.9,2.5-2.9,4.7-1.7c0.8,0.4,1.7,0.4,2.7,0.6c0.5,0.1,1.2,0.1,1.3,0.3
		c1.1,3.2,4.4,2.9,6.7,4.3c4.4,2.4,8.8,4.6,13.2,6.9c1.4,0.9,1.7,2.1,0.8,3.5c-0.9,1.4-2,2.5-4,1.2c-4.1-2.4-8.3-4.6-12.4-6.8
		c-1-0.6-2.3-0.9-3.2-1.2l-4.2,23c3.1,1.5,6.6,3,9.9,4.8c3,1.6,5.9,3.4,8.6,5.3c0.6,0.5,0.9,2.1,0.7,2.8c-0.6,1.2-1.4,2.8-3.3,1.9
		c-0.7-0.3-1.4-0.8-2.1-1.1l-13.3-7.4c-1.6-1-2.7-0.4-3,1.3c-1.4,5.7-2.8,11.4-4,17.2c-0.2,0.7,0.7,1.6,1.3,2.2
		c3.6,3.4,7.2,6.7,10.8,10c1.4,1.2,1.9,2.4,0.3,3.8c-1.5,1.5-2.9,1.3-4.4-0.1C387.1,70.2,384.4,67.6,381.6,65.1z"/>
</g>
</svg>
