<?xml version="1.0" encoding="utf-8"?>
<!-- Generator: Adobe Illustrator 19.2.0, SVG Export Plug-In . SVG Version: 6.00 Build 0)  -->
<svg version="1.1" id="Layer_1" xmlns="http://www.w3.org/2000/svg" xmlns:xlink="http://www.w3.org/1999/xlink" x="0px" y="0px"
	 viewBox="0 0 376.2 150.5" style="enable-background:new 0 0 376.2 150.5;" xml:space="preserve">
<style type="text/css">
	.st0{fill:#B98645;}
	.st1{fill:#B98545;}
</style>
<g>
	<path class="st0" d="M367.3,100.1c0,1.3,0,2.7-0.1,4c-0.2,0.3-0.4,0.6-0.4,0.9c0.4,2.7-2.8,5.1-1.4,7.4c1.5,2.6,4.9,0.8,7.4,1.5
		c1.5,0.4,2.9,0.8,3.3,2.6c0.4,1.8-0.4,3.3-1.8,4.3c-2.4,1.7-4.9,3.2-7.3,5.1c-2.9,0.8-5.8,0.6-8.7,0.7c-3,0.1-5.4-0.8-7-3.5
		c-3.5-1.7-5.6,0.3-7.5,2.9c-5.4,2.5-9.8,1.6-13.9-3c-1.2-1.4-2.1-2.9-3-4.5c-1.8-3.6-3.9-0.8-6-0.3c-2.9,0.4-4.7,2.4-5.9,4.7
		c-2.3,4.3-5.6,6.3-10.5,5.3c-3-0.5-5.4-3.6-8.8-2.1c-2.4,0.1-4.1,1.5-5.7,3c-0.4,0.3-0.8,0.5-1.2,0.6c-3.1-0.5-6.5,1.1-9.2-1.6
		c-0.4-0.2-0.8-0.5-1.1-0.7c-4.3-0.7-6.8,2.2-9.4,4.7c-4.9,3.2-9.9,6.1-15.8,6.8l0,0c-4.3,1.8-8.7,3.2-13.1,4.4
		c-8.2,0.5-16.4,0.9-24.1-2.9c-1.2-0.6-2.2-1.3-3.1-2.3c-1.1-1.3-1.5-3.3-3.5-3.7c-0.4-0.2-0.7-0.5-1.1-0.8
		c-1.2-1.6-3.1-2.4-4.3-4.1c-3-4.1-3.6-4.1-7.8-0.9c-7.1,2.6-14.4,4.2-22,3.9c-1.5-0.1-2.9-0.3-3.8-1.7c-0.9-0.6-1.9-1.2-2.8-1.9
		c-2.7-2.5-6-0.1-8.9-1.2c-2.2-0.6-4.4-1.5-6.8-1.3c-3.4,0.2-6-1.4-8.4-3.6c-3.3-3.2-5.1-3.3-7.4,0.7c-2.2,3.6-4.7,5.3-8.8,4.7
		c-1.1-0.2-2.4-0.2-3.3,0.7c-2.3,2.1-4.1,0.9-6.1-0.6c-1.8-1.4-3.7-3.5-6.5-2c-1.4,1.9-2.7,3.8-4.1,5.7c-2,2.4-4.5,3.7-7.6,4.2
		c-7.5,1.2-9.7-0.8-9.6-8.3c0-0.8,0.3-1.7-0.3-2.8c-2.3,0.7-2.9,2.9-3.9,4.6c-1.4,1.9-1.2,3.7,0.4,5.4c0.6,0.6,1.2,1.2,1.7,1.8
		c3.2,3.6,3.6,8.3,1,11.3c-2.3,2.7-7,3.2-11,1c-3.6-1.9-5.9-5.2-8.8-7.9l0,0c-3.4-7-2.4-13.8,1.1-20.4c1.8-3.4,2.2-7.2,2.9-10.9
		c2-6.6,4.1-13.2,6.1-19.7c0.8-3.3,1.2-6.7,3.3-9.6c4-7.6,6.7-15.8,9.1-24c0.6-1.9-0.3-3.8-1-5.7c-1.9-4.7-0.9-9.6,2-11.3
		c2.2-1.3,4.2-2.3,7,0.2c2,1.8,4.4,4.1,7.6,4.4c0.7,0.3,1.4,0.5,1.9,1.1c2.4,4.8,0.8,9.5-1,13.9c-5.5,13.7-11.2,27.3-16.8,41
		c-2.6,4-2.5,9.1-5.2,13.2c-0.6,0.9-0.2,2.1,0.7,2.6c1.5,0.9,2.4-0.1,3.2-1.2c3.8-4.5,8.7-7.9,13.1-11.7c6.1-4.1,9.1-4.3,13.9-0.8
		l-0.1,0c0.7,0.3,1,0.9,1.1,1.6c0.2,1.7,0.3,3.5,1.4,4.9c0.2,0.4,0.3,0.9,0.3,1.3c-1.5,3.4-0.5,6.1,2.5,8c3.2,2,5.3-0.2,7.3-2.3
		c2.9-3.1,4.6-6.8,5.5-11c4.2-10.5,8.6-20.9,15.9-29.8c2.9-2.7,5.4-5.9,8.6-8.3c1.7-1.3,3.8-3.1,6.3-1.2c2.4,1.9,1.9,4,1.2,6.7
		c-1,3.8-3.6,7.1-3.6,11.2c-1.1,3.6-2.9,6.8-5.2,9.8c-1.2,0.9-2.5,1.9-3.1,3.2c-1.2,2.4-3.8,4.4-1.2,7.9c1.4,1.9,1.1,5.1-0.3,7.6
		c-1.6,2.8-3.4,6-0.4,8.5c2.9,2.5,6.5,2.9,10.1,0.6c0.8-6.7,6.8-11,8.2-17.5c3.4-4.5,8.2-4,12.6-3c3.1,0.6,5.2,3.2,4.7,7
		c-0.4,3.8-2.7,7-3.7,10.6c2,0.3,3.7-0.3,5.4-0.9l0,0c2.7-1.1,3.3-2.9,2.5-5.8c-1-3.4-0.9-6.9,0.2-10.3c3.1-11.2,9.5-20.7,16-30.1
		c2.5-2.3,4.5-5,6.1-8l0,0c1.5-1.6,3-3.2,3.6-5.4c0.1-0.4,0.3-0.8,0.6-1.2c1.8-1.4,2.5-3.6,4-5.2l0.1,0c2.3-1.2,3.8-2.9,4.9-5.3
		c2.2-4.8,6.6-8.1,9-12.7l0,0c4.8-3.9,9.5-7.9,13.9-12.3c4.9-4.1,10.4-7,16.8-7.9c5.1-0.6,10.2-0.7,15.3,0.1l0,0
		c0.9,0.9,1.4,2.2,2.9,2.6c7.4,2,10.2,7.3,7,16.9c-2.6,1.8-3.9,4.5-5.1,7.2c-1.7,2.3-4.4,2.8-6.9,3.4c-2.9,0.6-5.8-0.7-6.2-3.4
		c-1-5.7-4.4-4.5-8-3.7c-1,0.2-1.8,0.7-2.5,1.4c-1.6,0.6-3.2,1.2-4.2,2.8c-0.3,0.3-0.7,0.5-1.1,0.7c-0.3,0-0.6,0-0.9,0.1
		c-1.1,1.2-2.6,2-3.9,3c-0.1,0.2-0.2,0.5-0.1,0.7c-3.1,2.6-5.5,6.1-9.1,8.2c-8.1,7.2-15,15.6-21.7,24.1c-5.4,6.1-8.5,13.2-9.1,21.4
		c0,1,0.4,2,0.3,3c-2.1,12.5,9.6,20.6,19.7,21.2c13.4,0.9,25.6-2.5,36.5-10.3c1.6-1.2,3.3-2.3,5.1-3c1.7-0.6,3.5-1.1,4.7-2.5
		c0.3-0.3,0.7-0.6,1-0.9c2.5-1.7,5.5-2.9,7.7-5.1c0.4-0.5,0.8-1.1,1.1-1.6c0.9-0.4,1.8-0.7,2.7-1.1c8-3.7,12.3-1.2,13.4,7.6
		c0.3,2.7-0.7,6.5,1.9,7.6c2.4,1,4.3-2.4,6.4-4c0.4-0.3,0.9-0.4,1.4-0.5c4-2.3,7.5-5.3,11.7-7.3c5.3-2.6,8.2-0.7,8.2,5.1
		c0,2.6-1.2,6.1,1.8,7.6c3.6,1.9,5.4-2.1,7.9-3.7c1.4-0.9,2.1-2.5,2.5-4.2c0.6-2.1,0.9-4.2,2.3-6c1.7-1.6,3.7-3.3,5.8-3.5
		c3.3-0.2-0.3-1.8,0.7-2.2l0.1,0C362.6,94.1,365,95.3,367.3,100.1z"/>
	<path class="st1" d="M192.4,19.1c-0.3,0-0.7,0-1,0c-2.9,1-6,1.2-9.1,1.5c-9.1,0.8-18.1,2.1-27.3,2.4c-16.9,1.1-33.5,4-50.2,6.7
		c-5.2,0.9-10.3,2.1-15.5,3.2c-9.9,3.5-20.2,5-30.2,8c-10.4,3-20.5,6.9-28.7,14.4c-5.1,4.6-7.6,10.2-4.8,17c0.8,2.1,0.3,3.1-1.5,3.9
		c-3.5,1.5-6.8,3.6-10.7,3.9c-4,0.9-7.7,0.7-10.9-2.3c-4-7.3-3-14.2,1.4-20.9c4.8-3.4,8.9-7.7,13.3-11.5c0.3-0.3,0.6-0.6,1-0.9
		c1.2-0.6,2.1-1.5,2.9-2.6c3.4-2.8,7-5.4,11.6-5.9c7.5-0.7,14.1-3.7,20.4-7.7c6.6-3.1,13.7-4.1,20.6-6c3-0.8,6.1-1.3,9-2.2
		c6.7-1.7,13.7-2.4,20.5-3.4c7.2-1.1,14.4-1.9,21.6-3.2c12.2-2.1,24.7-2.1,36.9-4.5c13.7-2.8,27.6-5.1,41.6-6.6
		c7.7-0.8,15.3-3,23.2-2.4c2.6,0.2,5.1,0.4,6.1,3.3c1,3.1-1.4,4.6-3.4,6c-8.7,5.8-17.9,10.3-28.7,9.1
		C197.6,18.2,195.2,21,192.4,19.1z"/>
</g>
</svg>
