<?xml version="1.0" encoding="utf-8"?>
<!-- Generator: Adobe Illustrator 19.2.0, SVG Export Plug-In . SVG Version: 6.00 Build 0)  -->
<svg version="1.1" id="Layer_1" xmlns="http://www.w3.org/2000/svg" xmlns:xlink="http://www.w3.org/1999/xlink" x="0px" y="0px"
	 viewBox="0 0 215.5 304.4" style="enable-background:new 0 0 215.5 304.4;" xml:space="preserve">
<style type="text/css">
	.st0{fill:#FFFFFF;}
</style>
<path class="st0" d="M59.6,99.2c12.6-2.7,23.6-5.1,34.5-7.5c3.3-0.7,6.6-1.6,9.9-2.3c0.9-0.2,2.1,0,2.7,0.5
	c14.5,11.1,29.1,22.1,43.4,33.4c10.4,8.2,14.8,19.6,15.5,32.5c0.3,4.8,0.4,9.6,1,14.4c0.2,1.3,2,3.6,2.8,3.5
	c6-0.7,11.1,0.7,14.2,6.1c3.1,5.3,3.3,11.4,1,16.8c-6.3,14.4-12.8,28.8-20.1,42.8c-4.2,8-9.3,15.4-11.8,24.4
	c-2.2,7.9-6.3,15.5-10.9,22.3c-8.2,12.1-20.7,17.4-34.9,18.1c-20.1,1-39.1-4.2-56.6-13.5C24,276.6,7.8,254.3,2.5,224.6
	c-6.1-34.5-0.5-68,8.3-101.3c5.9-22.4,13.4-44.2,24.3-64.7c9-16.9,21.1-30.7,38.6-39.7c26.1-13.5,53.6-20.6,83-18.6
	C168,1.1,179.3,2.9,188,11.6c2.2,2.2,6.4,2.4,9.6,3.7c4.6,1.9,9.2,3.7,13.5,6.1c4.2,2.5,5.8,7.5,3,11.1c-3.1,3.9-6.9,7.8-11.2,10.1
	c-9.8,5.3-19.5,3.2-29.5-1c-21.1-8.8-43.1-7.5-63.9,0.1C92.7,48,79.2,60.4,69.3,75.5C64.9,82.3,63,90.6,59.6,99.2z M99.8,261
	c4-1.7,8.3-2.7,11.6-5.2c9.3-6.8,13.7-17.4,16.7-27.7c4.1-14.1,8-28.1,16.9-40.2c0.8-1.1,0.7-4-0.1-4.9c-7.7-8.3-11.1-18.4-13-29.2
	c-0.2-1.3-0.7-3.1-1.7-3.8c-9.2-6.2-16.9-13.8-23.4-22.8c-4.2-5.7-8.6-6.9-14.9-3.7c-10.2,5.1-20.2,10.8-30.3,16.2
	c-0.8,0.5-1.7,1.2-2.1,2c-4.5,10-9.3,19.8-13.3,30c-2.4,6.1-4.1,12.6-5,19.1c-0.8,6.1-1.7,12.9,0.1,18.6
	c6.7,21.9,21.3,37.3,42.3,46.3C88.7,258,94.1,259.2,99.8,261z"/>
</svg>
