<?xml version="1.0" encoding="utf-8"?>
<!-- Generator: Adobe Illustrator 19.2.1, SVG Export Plug-In . SVG Version: 6.00 Build 0)  -->
<svg version="1.1" id="Layer_1" xmlns="http://www.w3.org/2000/svg" xmlns:xlink="http://www.w3.org/1999/xlink" x="0px" y="0px"
	 viewBox="0 0 215.5 304.4" style="enable-background:new 0 0 215.5 304.4;" xml:space="preserve">
<style type="text/css">
	.st0{fill:#FFFFFF;}
</style>
<path class="st0" d="M59.6,99.2c12.6-2.7,23.6-5.1,34.5-7.5c3.3-0.7,6.6-1.6,9.9-2.3c0.9-0.2,2.1,0,2.7,0.5
	c14.5,11.1,29.1,22.1,43.4,33.4c10.4,8.2,14.8,19.6,15.5,32.5c0.3,4.8,0.4,9.6,1,14.4c0.2,1.3,2,3.6,2.8,3.5
	c6-0.7,11.1,0.7,14.2,6.1c3.1,5.3,3.3,11.4,1,16.8c-6.3,14.4-12.8,28.8-20.1,42.8c-4.2,8-9.3,15.4-11.8,24.4
	c-2.2,7.9-6.3,15.5-10.9,22.3c-8.2,12.1-20.7,17.4-34.9,18.1c-20.1,1-39.1-4.2-56.6-13.5C24,276.6,7.8,254.3,2.5,224.6
	c-6.1-34.5-0.5-68,8.3-101.3c5.9-22.4,13.4-44.2,24.3-64.7c9-16.9,21.1-30.7,38.6-39.7c26.1-13.5,53.6-20.6,83-18.6
	C168,1.1,179.3,2.9,188,11.6c2.2,2.2,6.4,2.4,9.6,3.7c4.6,1.9,9.2,3.7,13.5,6.1c4.2,2.5,5.8,7.5,3,11.1c-3.1,3.9-6.9,7.8-11.2,10.1
	c-9.8,5.3-19.5,3.2-29.5-1c-21.1-8.8-43.1-7.5-63.9,0.1C92.7,48,79.2,60.4,69.3,75.5C64.9,82.3,63,90.6,59.6,99.2z M99.8,261
	c4-1.7,8.3-2.7,11.6-5.2c9.3-6.8,13.7-17.4,16.7-27.7c4.1-14.1,8-28.1,16.9-40.2c0.8-1.1,0.7-4-0.1-4.9c-7.7-8.3-11.1-18.4-13-29.2
	c-0.2-1.3-0.7-3.1-1.7-3.8c-9.2-6.2-16.9-13.8-23.4-22.8c-4.2-5.7-8.6-6.9-14.9-3.7c-10.2,5.1-20.2,10.8-30.3,16.2
	c-0.8,0.5-1.7,1.2-2.1,2c-4.5,10-9.3,19.8-13.3,30c-2.4,6.1-4.1,12.6-5,19.1c-0.8,6.1-1.7,12.9,0.1,18.6
	c6.7,21.9,21.3,37.3,42.3,46.3C88.7,258,94.1,259.2,99.8,261z"/>
<g>
	<path class="st0" d="M75.1,199.9c1.3,2.2,4.1,1.6,5.8,3c-2.2,1.3-4.4,2.5-7,0.9c-2.4-1.8-4.4-0.4-6.3,0.8c-1.3,0.8-2.3,1.8-3.6,2.7
		c-1.2,0.8-2.6,1.3-3.5-0.1c-0.8-1.2,0.1-2.2,1-3c0.9-0.7,1.7-1.5,2.6-2.3c1-1.3,2.7-1.2,3.8-2.2l0.1,0.1c1.1-1.1,2.5-1.3,3.9-1.3
		C73.1,198.8,74.1,199.3,75.1,199.9z"/>
	<path class="st0" d="M77.3,189c-0.6-1.2,0.4-3.5-2.2-3.2c-1.4-2.8-2.8-5.6-4.2-8.3c-0.6-1.3-1-2.6,0.8-3.2c1.4-0.5,2.5-0.1,3.3,1.3
		c0.9,1.8,2,3.6,2.9,5.5c0.8,0.8,1.5,1.7,2.1,2.8C79.6,185.7,79.7,188,77.3,189z"/>
	<path class="st0" d="M75.1,199.9c-1.1,0-2.2,0-3.3-0.1c-1.5-1-3.1-1.3-4.9-1.1c-2-0.9-3.9-2.1-6.2-2.3c-2.1-0.2-3.5-1.2-1.7-3.5
		c1.1-0.6,2.2-0.7,3.4-0.8c0.9,0.1,1.7,0.4,2.6,0.6c1.2,0.3,2.4,0.7,3.6,0.8c0.8,0,1.6-0.1,2.3,0.4C72.9,195.5,74,197.6,75.1,199.9z
		"/>
	<path class="st0" d="M70.9,193.9c-0.7,0.3-1.3,0.6-2,1c-1.1-0.9-2.1-2.1-3.8-1c-0.8,0-1.6-0.1-2.1-0.8c-0.2-1.1-1.5-1.3-1.9-2.3
		c-0.4-0.3-0.8-0.6-1.1-0.9c-1-0.8-3.4-0.8-2.5-2.8c0.9-1.9,2.8-1.1,4.3-0.5c1.8,0.7,3.1,2.5,5.2,2.5c1.3,0.5,2.7,0.9,3.9,1.7
		C72.3,191.7,73,192.8,70.9,193.9z"/>
	<path class="st0" d="M73.8,203.8c2.3-0.4,4.6-1.3,7-0.9c0.4,0.4,0.7,0.8,1.1,1.3c0,0.2,0.1,0.4,0.1,0.6c-3.2,0.6-5.8,1.7-6.9,5.2
		c-0.4,1.2-1.5,2.1-2.8,2.6c-1,0.4-2,0.4-2.7-0.4c-0.7-0.8-0.3-1.7,0.3-2.2C71.8,208.3,71.7,205.3,73.8,203.8z"/>
	<path class="st0" d="M74.9,187.2c-1.3,6-3.9,1-5.9,0.7c-1.4-1.8-2.8-3.6-4.1-5.4c-0.8-1.1-1.6-2.4-0.1-3.4c1.4-1,2.7-0.5,3.6,1.1
		C69.9,183.1,71.8,185.7,74.9,187.2z"/>
	<path class="st0" d="M82,204.8c-0.2-0.2-0.2-0.4-0.1-0.6c0.7-0.4,1.4-0.8,2.1-1.3c2.2-1.4,4.2-1.8,5.5,1.1c0,1.7-1.2,2.4-2.6,2.9
		c-0.4,0.5-1,0.9-1.3,1.5c-0.8,1.9-1.8,3.9-4.3,2.4c-2.4-1.4-0.7-3.1,0.1-4.6C81.8,205.7,81.9,205.2,82,204.8z"/>
	<path class="st0" d="M111,204.4c0.1,1.4-0.5,2.4-1.9,2.1c-1.6-0.3-3.5-0.9-2.9-2.9c0.3-0.9-0.6-3.1,1.9-3
		C110.7,200.8,110.6,202.8,111,204.4z"/>
	<path class="st0" d="M93.1,207c-0.6,1.5-0.5,3.6-2.6,3.8c-1.7,0.2-2.6-1.1-2.5-3c0.3-1.3,1.1-2.5,1.7-3.7c0.5-0.7,1.1-0.9,1.9-0.8
		C93.2,204.1,93.9,205.3,93.1,207z"/>
	<path class="st0" d="M93.1,207c-0.1-1.4-0.6-2.6-2-3.1c-0.6-1.8-0.2-3,1.9-3.1c2.5,4.2,3.9,4.2,8.8,0c0.4,0.7,0.7,1.4,1.1,2
		c-1.3,1.4-2.3,3.3-4.7,3C95.9,203.6,94.5,205.2,93.1,207z"/>
	<path class="st0" d="M113.1,179.4c-0.7,1.7-1.5,3.2-3.4,3.3c-1.3,0.1-2.3-0.7-2.2-2.1c0.1-1.7,1.1-2.7,2.9-2.8
		C111.7,177.7,112.8,178,113.1,179.4z"/>
	<path class="st0" d="M98.2,205.9c1.6-0.9,2.5-3,4.7-3c0.8,1.5-0.3,2.7-0.7,4c-0.3,1.2-1.1,2.2-2.4,1.9
		C98.4,208.5,97.8,207.4,98.2,205.9z"/>
	<path class="st0" d="M123,199.9c-0.3,1.9-0.7,3.8-3.3,3.2c-1.5-0.3-2.2-1.8-1.7-3.1C119.5,196.7,121.4,198.9,123,199.9L123,199.9z"
		/>
	<path class="st0" d="M118.2,184.9c-0.3,0-0.7,0-0.9,0.1c-1.6,1-3.3,2.1-4.8,0.3c-0.9-1.1,0.2-2.2,1.3-2.7c2.4-1,3.7,0,4.3,2.4
		C118.1,185,118.2,184.9,118.2,184.9z"/>
	<path class="st0" d="M118.1,185c1.5,0.5,4.1-1.1,4.5,1.6c0.2,1.4-1.5,2.1-2.9,2c-2.8-0.2-1.7-2.2-1.5-3.7
		C118.2,184.9,118.1,185,118.1,185z"/>
	<path class="st0" d="M114.5,204.4c-1.4,0-2.2-0.8-2.4-2c-0.2-1.3,0.5-2.2,1.8-2.4c1.4-0.2,2.1,0.7,2.2,2
		C116.4,203.3,116,204.2,114.5,204.4z"/>
	<path class="st0" d="M125.8,190.6c1.4,0.1,2.7,0.2,2.8,1.6c0,1.2-1.1,1.4-2.1,1.5c-1.2,0-2.4-0.2-2.5-1.6
		C123.9,190.8,125.1,190.8,125.8,190.6z"/>
	<path class="st0" d="M66.9,198.7c2-1.4,3.7-1.1,4.9,1.1c-1.3,0-2.5,0.1-3.8,0.1C67.7,199.5,67.3,199.1,66.9,198.7z"/>
	<path class="st0" d="M123.1,199.9c0.1-1.3,0.2-2.7,2.1-2.3c0.7,0.1,1.2,0.7,1,1.4C125.6,201,124.1,199.6,123.1,199.9
		C123,199.9,123.1,199.9,123.1,199.9z"/>
	<path class="st0" d="M89.9,204.8c-0.2,1.2-0.9,2.3-1.8,3.1c-0.4-0.4-0.7-0.7-1.1-1.1c0.3-1.1,1.3-1.5,2.2-1.9
		C89.4,204.9,89.6,204.9,89.9,204.8z"/>
	<path class="st0" d="M85.9,197.5c2.7,3.2,5.8,2.7,9.1,1.1c1.8-1.1,2.9-2.7,3.6-4.6c0.5-1.1,0-2.2,0.2-3.4c0.2,1.7,0.4,3.3-0.5,4.7
		c-0.5,1.5-1.7,2.4-3,3.2c-1.3,0.6-2.9,0.9-3,2.8c0.3,3,2.4,2.9,4.6,3c2.8,0.2,4.3-1,5-3.6c3.6-4.1,3-9,1.8-13.6
		c-1.1-4.2-0.2-7.7,1.1-11.5c0.4-1.3,2.3-2.6,0.7-3.9c-1.6-1.3-3.1,0-4.4,1c-0.7,0.8-1.1,1.8-2,2.3c-0.9-1.8,0.3-4.2-2.1-5.3
		c-4.8-0.1-1.9,5.9-5.5,6.9c-0.9-2.4-0.6-4.6,0-6.9c0.3-1.2,1.4-2.6-0.7-3.2c-1.5-0.4-2.5,0.5-3.1,1.8c-1,2.1-1.6,4.3-1.2,6.7
		c0.2,1,0.3,2.1-0.9,2.5c-1.6,0.4-1.9-1-2.2-2.1c-0.5-1.8-0.6-3.6-1-5.4c-0.2-1.2-0.8-2.2-2.3-2c-1.3,0.3-2.1,1-2,2.4
		c0.1,3.6-0.1,7.4,3,10.1c-0.4,1.1-1.5,1.8-1.9,2.9c-0.6,2.1-1.7,3.9-2.8,5.8c-0.7,5.4,1,9.6,6,12.1c2.9,0.3,3.9-1.1,3.6-3.8
		c-0.1-0.3-0.3-0.3-0.5-0.6c-0.1,0-0.2-0.3-0.3-0.3c-1.6-0.9-1.9-4.1-1.7-5.9c0.7-1.4,0.7-3.1,2.6-4.2c1.4,1.8-0.3,2.9-0.8,4.1
		c-0.2,0.2-0.5,0.4-0.7,0.4c0.5,0.9,0.1,3.3,0.7,3.6c0.3,0.7,0.6,1.3,1,2"/>
	<path class="st0" d="M65.1,193.8c1.9-1.9,3.1-1.7,3.8,1C67.7,194.5,66.4,194.2,65.1,193.8z"/>
</g>
</svg>
