<svg width="20" height="17" viewBox="0 0 20 17" fill="none" xmlns="http://www.w3.org/2000/svg">
<path d="M17.9525 4.48316C17.9647 4.65675 17.9647 4.83034 17.9647 5.00553C17.9647 10.3436 13.8371 16.5 6.28966 16.5V16.4968C4.06013 16.5 1.8769 15.8712 0 14.6857C0.324193 14.7241 0.65001 14.7433 0.97664 14.7441C2.82429 14.7457 4.61913 14.1353 6.07272 13.0114C4.31688 12.9786 2.77717 11.8515 2.23928 10.206C2.85436 10.3228 3.48812 10.2988 4.09181 10.1364C2.17753 9.75563 0.800325 8.09973 0.800325 6.17665C0.800325 6.15905 0.800325 6.14225 0.800325 6.12545C1.37071 6.43823 2.00934 6.61182 2.6626 6.63102C0.859639 5.4447 0.30388 3.08325 1.39265 1.23696C3.47593 3.7608 6.54967 5.29511 9.84928 5.4575C9.51859 4.05439 9.97034 2.58408 11.0364 1.59774C12.689 0.0682372 15.2882 0.146632 16.8418 1.77293C17.7607 1.59454 18.6415 1.26256 19.4475 0.792192C19.1412 1.72733 18.5001 2.52168 17.6437 3.02645C18.457 2.93206 19.2517 2.71767 20 2.39049C19.4491 3.20324 18.7552 3.91119 17.9525 4.48316Z" fill="white"/>
</svg>
