<svg width="210" height="41" viewBox="0 0 210 41" fill="none" xmlns="http://www.w3.org/2000/svg">
<path d="M16.1242 7.07986C16.0442 7.63986 15.9642 8.11986 15.9642 8.39986C15.9642 10.2399 17.5242 11.6399 20.0042 11.6399C24.1642 11.6399 27.2442 8.35986 27.2442 5.31986C27.2442 2.91986 25.4842 1.35986 22.6042 1.35986C19.2442 1.35986 13.7642 3.59986 8.68424 8.39986C3.44424 13.3599 0.844238 18.8799 0.844238 22.7199C0.844238 27.0399 3.40424 29.8399 7.64424 29.8399C10.2842 29.8399 13.0042 28.7599 15.5242 26.7199C17.9242 24.7599 19.2042 22.3199 19.2042 19.8399C19.2042 17.4399 17.5242 15.7999 15.0042 15.7999C12.5642 15.7999 10.2442 17.6399 9.04424 20.9599L9.32424 21.0799C10.4042 17.9199 12.5642 16.2399 14.6042 16.2399C16.3242 16.2399 17.6442 17.6799 17.6442 19.8799C17.6442 21.7199 16.6042 24.2399 14.7242 26.2399C12.8442 28.2399 10.5242 29.3199 8.52424 29.3199C5.40424 29.3199 3.52424 27.0399 3.52424 23.1599C3.52424 18.9999 5.60424 14.0799 9.80424 9.43986C14.5242 4.19986 19.7642 1.71986 22.8042 1.71986C24.7642 1.71986 25.9642 2.87986 25.9642 4.47986C25.9642 6.07986 25.1642 7.79986 23.6042 9.23986C22.2442 10.5199 20.7642 11.1599 19.4042 11.1599C17.5242 11.1599 16.2442 9.95986 16.2442 8.19986C16.2442 7.83986 16.2842 7.47986 16.3642 7.11986L16.1242 7.07986Z" fill="white"/>
<path d="M33.6839 17.6399C33.6839 19.7599 32.2839 22.5999 29.5239 25.5999C27.7239 27.5199 26.0839 28.3999 25.1239 28.3999C24.2039 28.3999 23.6439 27.7599 23.6439 26.5599C23.6439 25.0399 24.4439 22.5999 26.1239 20.2399C28.3639 17.1199 30.9239 15.5999 32.0839 15.5999C33.0439 15.5999 33.6839 16.3199 33.6839 17.6399ZM34.8839 17.9599C34.6039 16.2399 33.6039 15.3199 32.1239 15.3199C30.2039 15.3199 27.4039 16.5999 25.0039 19.0799C22.5239 21.6399 21.2439 24.5599 21.2439 26.2399C21.2439 28.1199 22.2839 29.2399 23.8039 29.2399C25.4839 29.2399 28.2839 27.8399 30.8039 24.6399L30.9239 24.7599C30.2039 25.7999 29.8439 26.6799 29.8439 27.3999C29.8439 28.5599 30.7639 29.3999 32.0039 29.3999C34.3239 29.3999 38.5239 25.9199 43.8439 18.5999L43.6039 18.3999C38.2839 25.5199 34.3239 28.9199 32.4039 28.9199C31.8039 28.9199 31.4439 28.5999 31.4439 28.0399C31.4439 27.1599 33.7239 22.5999 39.0039 15.5599L36.2839 15.6799L34.8839 17.9599Z" fill="white"/>
<path d="M53.2174 15.1599L51.3774 15.2399C50.8574 15.2799 50.6574 15.5199 50.1374 16.0799C47.2574 18.3199 44.8174 20.5999 42.7374 22.9999L42.6174 22.8799L47.8174 15.4799L45.2174 15.6399L36.9374 28.9599L39.7374 28.7999C42.0974 23.7599 45.4174 20.0799 50.0574 16.5599C49.6574 17.3599 49.4574 18.0799 49.4574 18.7199C49.4574 20.2799 50.4574 21.1999 52.1774 21.1999C53.7774 21.1999 55.7374 20.3599 57.2974 18.6799L57.0974 18.4799C55.5774 20.0399 53.6974 20.7999 52.7774 20.7999C51.7774 20.7999 51.3374 20.3599 51.3374 19.4399C51.3374 18.5599 51.8974 16.9599 53.2174 15.1599Z" fill="white"/>
<path d="M56.5339 21.9999C58.7339 17.7599 61.7739 15.5199 63.0139 15.5199C63.7339 15.5199 64.0939 15.8799 64.0939 16.5599C64.0939 18.2799 61.6539 20.4799 56.5339 21.9999ZM56.3739 22.3599C62.8539 20.2399 66.1339 18.5199 66.1339 16.5999C66.1339 15.6399 65.3739 15.0799 63.9739 15.0799C62.0939 15.0799 59.6539 16.0799 57.3739 18.1199C54.4939 20.7199 52.9739 23.9199 52.9739 26.2399C52.9739 28.3199 54.2139 29.5199 56.0939 29.5199C60.0939 29.5199 65.6939 25.9999 70.7339 18.5599L70.4539 18.3599C65.4539 25.4799 60.6139 28.7599 57.5739 28.7599C56.1739 28.7599 55.3739 27.8799 55.3739 26.2399C55.3739 25.0799 55.6939 23.7999 56.3739 22.3599Z" fill="white"/>
<path d="M115.974 0.359863C114.414 0.519864 112.614 0.959864 110.774 1.75986C109.054 1.31986 107.374 1.15986 105.694 1.15986C100.894 1.15986 95.4542 2.91986 91.2142 5.91986C86.5742 9.15986 84.2542 12.9599 84.2542 16.4399C84.2542 19.2799 86.0142 21.1999 88.7742 21.1999C91.0942 21.1999 93.0942 20.0799 94.6542 17.9199C95.8142 16.3599 96.3742 14.6799 96.3742 12.8799C96.3742 12.3199 96.3342 11.6799 96.2142 11.0399H95.9342C96.0142 11.7199 96.0942 12.3199 96.0942 12.8399C96.0942 14.7599 95.4942 16.4399 94.2542 17.9599C92.6942 19.8799 90.8142 20.8799 89.1342 20.8799C86.8942 20.8799 85.5342 19.2799 85.5342 16.4799C85.5342 12.9999 87.2942 9.67986 90.8542 6.83986C95.2142 3.35986 100.734 1.39986 105.974 1.39986C107.734 1.39986 109.094 1.71986 110.174 2.03986C104.174 5.03986 100.934 10.3999 97.2542 16.7199C92.8142 24.3199 89.2142 27.9599 87.0542 27.9599C85.2942 27.9599 82.1342 26.9199 78.1342 26.9199C77.3342 26.9199 76.8942 27.2799 76.8942 27.5599C76.8942 28.3599 78.6942 29.0399 81.8542 29.0399C83.3742 29.0399 85.1742 28.7599 87.3342 28.2399C90.3742 28.9199 92.9742 29.2399 95.0542 29.2399C102.254 29.2399 107.214 25.9599 111.894 18.5599L111.654 18.4399C107.134 25.3599 101.374 28.6399 93.7742 28.6399C92.0942 28.6399 90.0942 28.4399 87.8542 28.0799C91.8142 27.2399 95.4942 23.6399 99.4142 17.3199C104.174 9.63986 107.534 4.39986 110.814 2.39986C111.854 3.03986 112.454 4.39986 112.454 6.15986C112.454 7.91986 111.814 9.79986 110.494 11.6799C109.134 13.6399 107.734 14.5599 106.814 14.5599C106.174 14.5599 105.734 14.1199 105.734 13.3599C105.734 12.7999 105.894 12.3999 106.254 12.1599C105.934 11.7599 105.494 11.5999 104.934 11.5999C104.054 11.5999 103.574 12.1599 103.574 12.9999C103.574 14.0799 104.574 14.8799 106.334 14.8799C108.134 14.8799 109.814 14.3199 111.334 13.1599C113.494 11.4799 114.654 9.31986 114.654 6.99986C114.654 4.71986 113.534 2.91986 111.454 1.95986C112.814 1.31986 114.374 0.879864 115.974 0.639862V0.359863Z" fill="white"/>
<path d="M119.387 17.6399C119.387 19.7599 117.987 22.5999 115.227 25.5999C113.427 27.5199 111.787 28.3999 110.827 28.3999C109.907 28.3999 109.347 27.7599 109.347 26.5599C109.347 25.0399 110.147 22.5999 111.827 20.2399C114.067 17.1199 116.627 15.5999 117.787 15.5999C118.747 15.5999 119.387 16.3199 119.387 17.6399ZM120.587 17.9599C120.307 16.2399 119.307 15.3199 117.827 15.3199C115.907 15.3199 113.107 16.5999 110.707 19.0799C108.227 21.6399 106.947 24.5599 106.947 26.2399C106.947 28.1199 107.987 29.2399 109.507 29.2399C111.187 29.2399 113.987 27.8399 116.507 24.6399L116.627 24.7599C115.907 25.7999 115.547 26.6799 115.547 27.3999C115.547 28.5599 116.467 29.3999 117.707 29.3999C120.027 29.3999 124.227 25.9199 129.547 18.5999L129.307 18.3999C123.987 25.5199 120.027 28.9199 118.107 28.9199C117.507 28.9199 117.147 28.5999 117.147 28.0399C117.147 27.1599 119.427 22.5999 124.707 15.5599L121.987 15.6799L120.587 17.9599Z" fill="white"/>
<path d="M136.32 18.5999C136.48 18.6399 136.64 18.6799 136.8 18.6799C137.88 18.6799 138.88 17.8399 138.88 16.9599C138.88 15.9599 137.88 15.1999 136.2 15.1999C134.28 15.1999 132.08 16.1599 129.8 18.0399C126.52 20.7599 124.88 23.8799 124.88 26.2399C124.88 28.3999 126.16 29.7599 128.24 29.7599C132.08 29.7599 137.56 26.1999 143 18.5999L142.72 18.3599C137.52 25.5999 132.56 28.9199 129.68 28.9199C128.28 28.9199 127.4 27.9999 127.4 26.3599C127.4 24.2799 128.44 21.6399 130.56 19.0799C132.48 16.7199 134.44 15.6399 135.24 15.6399C136.2 15.6399 136.64 16.1199 136.64 17.1199C136.64 17.5199 136.52 17.9999 136.32 18.5999Z" fill="white"/>
<path d="M155.641 1.59986L152.961 1.75986L135.801 28.9599L138.281 28.8399C142.921 19.9999 148.321 15.8399 150.121 15.8399C150.961 15.8399 151.361 16.2799 151.361 17.1999C151.361 19.1199 149.761 20.8399 147.081 21.3199C146.161 21.2799 145.681 21.2399 145.561 21.2399C144.601 21.2399 144.081 21.5199 144.081 21.7599C144.081 21.8399 144.361 22.0399 144.721 22.0399C145.121 22.0399 145.921 21.8399 147.121 21.6399C147.441 21.7999 147.561 21.9199 147.561 22.1599C147.561 22.7199 147.241 23.5599 146.641 24.6399C146.081 25.6799 145.681 26.4399 145.681 27.1599C145.681 28.5199 146.681 29.3999 148.201 29.3999C150.801 29.3999 155.601 25.8399 160.721 18.4799L160.441 18.3199C155.241 25.6399 150.641 28.8799 148.881 28.8799C148.201 28.8799 147.921 28.6399 147.921 28.0399C147.921 26.7599 149.121 25.1999 149.121 23.5199C149.121 22.5199 148.561 21.8399 147.401 21.4799C151.441 20.9199 153.681 19.0399 153.681 16.9999C153.681 15.6799 152.921 15.0399 151.441 15.0399C148.721 15.0399 146.081 17.3999 142.441 21.5999L142.321 21.5199C142.841 20.8399 144.521 18.7199 147.001 14.8799L155.641 1.59986Z" fill="white"/>
<path d="M168.254 17.6399C168.254 19.7599 166.854 22.5999 164.094 25.5999C162.294 27.5199 160.654 28.3999 159.694 28.3999C158.774 28.3999 158.214 27.7599 158.214 26.5599C158.214 25.0399 159.014 22.5999 160.694 20.2399C162.934 17.1199 165.494 15.5999 166.654 15.5999C167.614 15.5999 168.254 16.3199 168.254 17.6399ZM169.454 17.9599C169.174 16.2399 168.174 15.3199 166.694 15.3199C164.774 15.3199 161.974 16.5999 159.574 19.0799C157.094 21.6399 155.814 24.5599 155.814 26.2399C155.814 28.1199 156.854 29.2399 158.374 29.2399C160.054 29.2399 162.854 27.8399 165.374 24.6399L165.494 24.7599C164.774 25.7999 164.414 26.6799 164.414 27.3999C164.414 28.5599 165.334 29.3999 166.574 29.3999C168.894 29.3999 173.094 25.9199 178.414 18.5999L178.174 18.3999C172.854 25.5199 168.894 28.9199 166.974 28.9199C166.374 28.9199 166.014 28.5999 166.014 28.0399C166.014 27.1599 168.294 22.5999 173.574 15.5599L170.854 15.6799L169.454 17.9599Z" fill="white"/>
<path d="M184.468 15.7199C185.628 15.7199 186.148 16.3599 186.148 17.8799C186.148 19.6799 184.908 22.7199 182.348 25.3199C180.348 27.3599 178.708 28.3999 177.508 28.3999C176.468 28.3999 175.988 27.7199 175.988 26.3599C175.988 24.5999 177.268 21.5599 179.988 18.6399C181.868 16.6399 183.548 15.7199 184.468 15.7199ZM187.468 18.2799C187.388 16.3999 186.428 15.3599 184.748 15.3599C182.908 15.3599 180.148 16.5599 177.588 18.9199C174.948 21.3599 173.548 24.2399 173.548 26.4399C173.548 28.0799 174.628 29.2399 175.908 29.2399C177.948 29.2399 180.348 27.8799 182.908 25.1999L183.028 25.2799C181.388 27.3599 179.868 29.9199 177.948 32.5199C174.268 37.4799 171.108 40.0799 166.788 40.0799C164.188 40.0799 162.428 38.4799 162.428 36.1199C162.428 34.1999 163.628 32.8399 165.148 32.8399C165.348 32.8399 165.588 32.8399 165.908 32.8799L165.988 32.5199C165.508 32.3999 164.988 32.3599 164.468 32.3599C162.188 32.3599 160.388 33.9599 160.388 36.1599C160.388 38.6799 162.628 40.5199 166.588 40.5199C172.668 40.5199 178.268 36.6399 182.668 29.0399C187.348 28.1599 192.228 24.6799 196.348 18.6399L196.108 18.3999C192.148 24.1999 187.308 27.7199 182.988 28.5999L191.988 15.4799L189.228 15.6399L187.468 18.2799Z" fill="white"/>
<path d="M195.635 21.9999C197.835 17.7599 200.875 15.5199 202.115 15.5199C202.835 15.5199 203.195 15.8799 203.195 16.5599C203.195 18.2799 200.755 20.4799 195.635 21.9999ZM195.475 22.3599C201.955 20.2399 205.235 18.5199 205.235 16.5999C205.235 15.6399 204.475 15.0799 203.075 15.0799C201.195 15.0799 198.755 16.0799 196.475 18.1199C193.595 20.7199 192.075 23.9199 192.075 26.2399C192.075 28.3199 193.315 29.5199 195.195 29.5199C199.195 29.5199 204.795 25.9999 209.835 18.5599L209.555 18.3599C204.555 25.4799 199.715 28.7599 196.675 28.7599C195.275 28.7599 194.475 27.8799 194.475 26.2399C194.475 25.0799 194.795 23.7999 195.475 22.3599Z" fill="white"/>
</svg>
